<?xml version="1.0" encoding="utf-8" standalone="no"?>
<!DOCTYPE svg PUBLIC "-//W3C//DTD SVG 1.1//EN"
  "http://www.w3.org/Graphics/SVG/1.1/DTD/svg11.dtd">
<svg xmlns:xlink="http://www.w3.org/1999/xlink" width="864pt" height="360pt" viewBox="0 0 864 360" xmlns="http://www.w3.org/2000/svg" version="1.1">
 <metadata>
  <rdf:RDF xmlns:dc="http://purl.org/dc/elements/1.1/" xmlns:cc="http://creativecommons.org/ns#" xmlns:rdf="http://www.w3.org/1999/02/22-rdf-syntax-ns#">
   <cc:Work>
    <dc:type rdf:resource="http://purl.org/dc/dcmitype/StillImage"/>
    <dc:date>2025-11-02T01:31:44.561215</dc:date>
    <dc:format>image/svg+xml</dc:format>
    <dc:creator>
     <cc:Agent>
      <dc:title>Matplotlib v3.10.7, https://matplotlib.org/</dc:title>
     </cc:Agent>
    </dc:creator>
   </cc:Work>
  </rdf:RDF>
 </metadata>
 <defs>
  <style type="text/css">*{stroke-linejoin: round; stroke-linecap: butt}</style>
 </defs>
 <g id="figure_1">
  <g id="patch_1">
   <path d="M 0 360 
L 864 360 
L 864 0 
L 0 0 
z
" style="fill: #ffffff"/>
  </g>
  <g id="axes_1">
   <g id="patch_2">
    <path d="M 38.27 318.04 
L 423.643186 318.04 
L 423.643186 50.64 
L 38.27 50.64 
z
" style="fill: #ffffff"/>
   </g>
   <g id="patch_3">
    <path d="M 55.786963 318.04 
L 61.625951 318.04 
L 61.625951 183.167209 
L 55.786963 183.167209 
z
" clip-path="url(#pbcee446084)" style="fill: #87ceeb; opacity: 0.6"/>
   </g>
   <g id="patch_4">
    <path d="M 61.625951 318.04 
L 67.464938 318.04 
L 67.464938 190.654014 
L 61.625951 190.654014 
z
" clip-path="url(#pbcee446084)" style="fill: #87ceeb; opacity: 0.6"/>
   </g>
   <g id="patch_5">
    <path d="M 67.464938 318.04 
L 73.303926 318.04 
L 73.303926 196.500064 
L 67.464938 196.500064 
z
" clip-path="url(#pbcee446084)" style="fill: #87ceeb; opacity: 0.6"/>
   </g>
   <g id="patch_6">
    <path d="M 73.303926 318.04 
L 79.142914 318.04 
L 79.142914 202.552933 
L 73.303926 202.552933 
z
" clip-path="url(#pbcee446084)" style="fill: #87ceeb; opacity: 0.6"/>
   </g>
   <g id="patch_7">
    <path d="M 79.142914 318.04 
L 84.981901 318.04 
L 84.981901 207.089137 
L 79.142914 207.089137 
z
" clip-path="url(#pbcee446084)" style="fill: #87ceeb; opacity: 0.6"/>
   </g>
   <g id="patch_8">
    <path d="M 84.981901 318.04 
L 90.820889 318.04 
L 90.820889 213.004126 
L 84.981901 213.004126 
z
" clip-path="url(#pbcee446084)" style="fill: #87ceeb; opacity: 0.6"/>
   </g>
   <g id="patch_9">
    <path d="M 90.820889 318.04 
L 96.659877 318.04 
L 96.659877 218.670934 
L 90.820889 218.670934 
z
" clip-path="url(#pbcee446084)" style="fill: #87ceeb; opacity: 0.6"/>
   </g>
   <g id="patch_10">
    <path d="M 96.659877 318.04 
L 102.498864 318.04 
L 102.498864 223.717289 
L 96.659877 223.717289 
z
" clip-path="url(#pbcee446084)" style="fill: #87ceeb; opacity: 0.6"/>
   </g>
   <g id="patch_11">
    <path d="M 102.498864 318.04 
L 108.337852 318.04 
L 108.337852 229.563339 
L 102.498864 229.563339 
z
" clip-path="url(#pbcee446084)" style="fill: #87ceeb; opacity: 0.6"/>
   </g>
   <g id="patch_12">
    <path d="M 108.337852 318.04 
L 114.17684 318.04 
L 114.17684 231.769396 
L 108.337852 231.769396 
z
" clip-path="url(#pbcee446084)" style="fill: #87ceeb; opacity: 0.6"/>
   </g>
   <g id="patch_13">
    <path d="M 114.17684 318.04 
L 120.015827 318.04 
L 120.015827 235.064693 
L 114.17684 235.064693 
z
" clip-path="url(#pbcee446084)" style="fill: #87ceeb; opacity: 0.6"/>
   </g>
   <g id="patch_14">
    <path d="M 120.015827 318.04 
L 125.854815 318.04 
L 125.854815 240.841804 
L 120.015827 240.841804 
z
" clip-path="url(#pbcee446084)" style="fill: #87ceeb; opacity: 0.6"/>
   </g>
   <g id="patch_15">
    <path d="M 125.854815 318.04 
L 131.693803 318.04 
L 131.693803 243.296042 
L 125.854815 243.296042 
z
" clip-path="url(#pbcee446084)" style="fill: #87ceeb; opacity: 0.6"/>
   </g>
   <g id="patch_16">
    <path d="M 131.693803 318.04 
L 137.53279 318.04 
L 137.53279 249.142092 
L 131.693803 249.142092 
z
" clip-path="url(#pbcee446084)" style="fill: #87ceeb; opacity: 0.6"/>
   </g>
   <g id="patch_17">
    <path d="M 137.53279 318.04 
L 143.371778 318.04 
L 143.371778 251.08618 
L 137.53279 251.08618 
z
" clip-path="url(#pbcee446084)" style="fill: #87ceeb; opacity: 0.6"/>
   </g>
   <g id="patch_18">
    <path d="M 143.371778 318.04 
L 149.210766 318.04 
L 149.210766 253.319812 
L 143.371778 253.319812 
z
" clip-path="url(#pbcee446084)" style="fill: #87ceeb; opacity: 0.6"/>
   </g>
   <g id="patch_19">
    <path d="M 149.210766 318.04 
L 155.049753 318.04 
L 155.049753 256.946018 
L 149.210766 256.946018 
z
" clip-path="url(#pbcee446084)" style="fill: #87ceeb; opacity: 0.6"/>
   </g>
   <g id="patch_20">
    <path d="M 155.049753 318.04 
L 160.888741 318.04 
L 160.888741 260.958283 
L 155.049753 260.958283 
z
" clip-path="url(#pbcee446084)" style="fill: #87ceeb; opacity: 0.6"/>
   </g>
   <g id="patch_21">
    <path d="M 160.888741 318.04 
L 166.727729 318.04 
L 166.727729 262.488735 
L 160.888741 262.488735 
z
" clip-path="url(#pbcee446084)" style="fill: #87ceeb; opacity: 0.6"/>
   </g>
   <g id="patch_22">
    <path d="M 166.727729 318.04 
L 172.566716 318.04 
L 172.566716 267.452363 
L 166.727729 267.452363 
z
" clip-path="url(#pbcee446084)" style="fill: #87ceeb; opacity: 0.6"/>
   </g>
   <g id="patch_23">
    <path d="M 172.566716 318.04 
L 178.405704 318.04 
L 178.405704 269.424026 
L 172.566716 269.424026 
z
" clip-path="url(#pbcee446084)" style="fill: #87ceeb; opacity: 0.6"/>
   </g>
   <g id="patch_24">
    <path d="M 178.405704 318.04 
L 184.244692 318.04 
L 184.244692 272.112657 
L 178.405704 272.112657 
z
" clip-path="url(#pbcee446084)" style="fill: #87ceeb; opacity: 0.6"/>
   </g>
   <g id="patch_25">
    <path d="M 184.244692 318.04 
L 190.083679 318.04 
L 190.083679 273.132959 
L 184.244692 273.132959 
z
" clip-path="url(#pbcee446084)" style="fill: #87ceeb; opacity: 0.6"/>
   </g>
   <g id="patch_26">
    <path d="M 190.083679 318.04 
L 195.922667 318.04 
L 195.922667 275.62856 
L 190.083679 275.62856 
z
" clip-path="url(#pbcee446084)" style="fill: #87ceeb; opacity: 0.6"/>
   </g>
   <g id="patch_27">
    <path d="M 195.922667 318.04 
L 201.761654 318.04 
L 201.761654 277.352042 
L 195.922667 277.352042 
z
" clip-path="url(#pbcee446084)" style="fill: #87ceeb; opacity: 0.6"/>
   </g>
   <g id="patch_28">
    <path d="M 201.761654 318.04 
L 207.600642 318.04 
L 207.600642 279.902795 
L 201.761654 279.902795 
z
" clip-path="url(#pbcee446084)" style="fill: #87ceeb; opacity: 0.6"/>
   </g>
   <g id="patch_29">
    <path d="M 207.600642 318.04 
L 213.43963 318.04 
L 213.43963 281.295368 
L 207.600642 281.295368 
z
" clip-path="url(#pbcee446084)" style="fill: #87ceeb; opacity: 0.6"/>
   </g>
   <g id="patch_30">
    <path d="M 213.43963 318.04 
L 219.278617 318.04 
L 219.278617 282.977487 
L 213.43963 282.977487 
z
" clip-path="url(#pbcee446084)" style="fill: #87ceeb; opacity: 0.6"/>
   </g>
   <g id="patch_31">
    <path d="M 219.278617 318.04 
L 225.117605 318.04 
L 225.117605 283.887485 
L 219.278617 283.887485 
z
" clip-path="url(#pbcee446084)" style="fill: #87ceeb; opacity: 0.6"/>
   </g>
   <g id="patch_32">
    <path d="M 225.117605 318.04 
L 230.956593 318.04 
L 230.956593 286.879449 
L 225.117605 286.879449 
z
" clip-path="url(#pbcee446084)" style="fill: #87ceeb; opacity: 0.6"/>
   </g>
   <g id="patch_33">
    <path d="M 230.956593 318.04 
L 236.79558 318.04 
L 236.79558 288.327174 
L 230.956593 288.327174 
z
" clip-path="url(#pbcee446084)" style="fill: #87ceeb; opacity: 0.6"/>
   </g>
   <g id="patch_34">
    <path d="M 236.79558 318.04 
L 242.634568 318.04 
L 242.634568 290.147171 
L 236.79558 290.147171 
z
" clip-path="url(#pbcee446084)" style="fill: #87ceeb; opacity: 0.6"/>
   </g>
   <g id="patch_35">
    <path d="M 242.634568 318.04 
L 248.473556 318.04 
L 248.473556 291.843077 
L 242.634568 291.843077 
z
" clip-path="url(#pbcee446084)" style="fill: #87ceeb; opacity: 0.6"/>
   </g>
   <g id="patch_36">
    <path d="M 248.473556 318.04 
L 254.312543 318.04 
L 254.312543 293.552771 
L 248.473556 293.552771 
z
" clip-path="url(#pbcee446084)" style="fill: #87ceeb; opacity: 0.6"/>
   </g>
   <g id="patch_37">
    <path d="M 254.312543 318.04 
L 260.151531 318.04 
L 260.151531 293.401104 
L 254.312543 293.401104 
z
" clip-path="url(#pbcee446084)" style="fill: #87ceeb; opacity: 0.6"/>
   </g>
   <g id="patch_38">
    <path d="M 260.151531 318.04 
L 265.990519 318.04 
L 265.990519 294.462769 
L 260.151531 294.462769 
z
" clip-path="url(#pbcee446084)" style="fill: #87ceeb; opacity: 0.6"/>
   </g>
   <g id="patch_39">
    <path d="M 265.990519 318.04 
L 271.829506 318.04 
L 271.829506 296.075948 
L 265.990519 296.075948 
z
" clip-path="url(#pbcee446084)" style="fill: #87ceeb; opacity: 0.6"/>
   </g>
   <g id="patch_40">
    <path d="M 271.829506 318.04 
L 277.668494 318.04 
L 277.668494 296.365493 
L 271.829506 296.365493 
z
" clip-path="url(#pbcee446084)" style="fill: #87ceeb; opacity: 0.6"/>
   </g>
   <g id="patch_41">
    <path d="M 277.668494 318.04 
L 283.507482 318.04 
L 283.507482 297.427158 
L 277.668494 297.427158 
z
" clip-path="url(#pbcee446084)" style="fill: #87ceeb; opacity: 0.6"/>
   </g>
   <g id="patch_42">
    <path d="M 283.507482 318.04 
L 289.346469 318.04 
L 289.346469 299.012761 
L 283.507482 299.012761 
z
" clip-path="url(#pbcee446084)" style="fill: #87ceeb; opacity: 0.6"/>
   </g>
   <g id="patch_43">
    <path d="M 289.346469 318.04 
L 295.185457 318.04 
L 295.185457 298.930034 
L 289.346469 298.930034 
z
" clip-path="url(#pbcee446084)" style="fill: #87ceeb; opacity: 0.6"/>
   </g>
   <g id="patch_44">
    <path d="M 295.185457 318.04 
L 301.024445 318.04 
L 301.024445 300.901697 
L 295.185457 300.901697 
z
" clip-path="url(#pbcee446084)" style="fill: #87ceeb; opacity: 0.6"/>
   </g>
   <g id="patch_45">
    <path d="M 301.024445 318.04 
L 306.863432 318.04 
L 306.863432 302.335634 
L 301.024445 302.335634 
z
" clip-path="url(#pbcee446084)" style="fill: #87ceeb; opacity: 0.6"/>
   </g>
   <g id="patch_46">
    <path d="M 306.863432 318.04 
L 312.70242 318.04 
L 312.70242 302.914724 
L 306.863432 302.914724 
z
" clip-path="url(#pbcee446084)" style="fill: #87ceeb; opacity: 0.6"/>
   </g>
   <g id="patch_47">
    <path d="M 312.70242 318.04 
L 318.541408 318.04 
L 318.541408 303.06639 
L 312.70242 303.06639 
z
" clip-path="url(#pbcee446084)" style="fill: #87ceeb; opacity: 0.6"/>
   </g>
   <g id="patch_48">
    <path d="M 318.541408 318.04 
L 324.380395 318.04 
L 324.380395 304.265934 
L 318.541408 304.265934 
z
" clip-path="url(#pbcee446084)" style="fill: #87ceeb; opacity: 0.6"/>
   </g>
   <g id="patch_49">
    <path d="M 324.380395 318.04 
L 330.219383 318.04 
L 330.219383 303.273208 
L 324.380395 303.273208 
z
" clip-path="url(#pbcee446084)" style="fill: #87ceeb; opacity: 0.6"/>
   </g>
   <g id="patch_50">
    <path d="M 330.219383 318.04 
L 336.058371 318.04 
L 336.058371 305.106993 
L 330.219383 305.106993 
z
" clip-path="url(#pbcee446084)" style="fill: #87ceeb; opacity: 0.6"/>
   </g>
   <g id="patch_51">
    <path d="M 336.058371 318.04 
L 341.897358 318.04 
L 341.897358 305.024266 
L 336.058371 305.024266 
z
" clip-path="url(#pbcee446084)" style="fill: #87ceeb; opacity: 0.6"/>
   </g>
   <g id="patch_52">
    <path d="M 341.897358 318.04 
L 347.736346 318.04 
L 347.736346 306.113506 
L 341.897358 306.113506 
z
" clip-path="url(#pbcee446084)" style="fill: #87ceeb; opacity: 0.6"/>
   </g>
   <g id="patch_53">
    <path d="M 347.736346 318.04 
L 353.575334 318.04 
L 353.575334 306.651232 
L 347.736346 306.651232 
z
" clip-path="url(#pbcee446084)" style="fill: #87ceeb; opacity: 0.6"/>
   </g>
   <g id="patch_54">
    <path d="M 353.575334 318.04 
L 359.414321 318.04 
L 359.414321 307.961079 
L 353.575334 307.961079 
z
" clip-path="url(#pbcee446084)" style="fill: #87ceeb; opacity: 0.6"/>
   </g>
   <g id="patch_55">
    <path d="M 359.414321 318.04 
L 365.253309 318.04 
L 365.253309 308.374714 
L 359.414321 308.374714 
z
" clip-path="url(#pbcee446084)" style="fill: #87ceeb; opacity: 0.6"/>
   </g>
   <g id="patch_56">
    <path d="M 365.253309 318.04 
L 371.092297 318.04 
L 371.092297 307.450928 
L 365.253309 307.450928 
z
" clip-path="url(#pbcee446084)" style="fill: #87ceeb; opacity: 0.6"/>
   </g>
   <g id="patch_57">
    <path d="M 371.092297 318.04 
L 376.931284 318.04 
L 376.931284 309.270925 
L 371.092297 309.270925 
z
" clip-path="url(#pbcee446084)" style="fill: #87ceeb; opacity: 0.6"/>
   </g>
   <g id="patch_58">
    <path d="M 376.931284 318.04 
L 382.770272 318.04 
L 382.770272 309.229561 
L 376.931284 309.229561 
z
" clip-path="url(#pbcee446084)" style="fill: #87ceeb; opacity: 0.6"/>
   </g>
   <g id="patch_59">
    <path d="M 382.770272 318.04 
L 388.60926 318.04 
L 388.60926 309.395015 
L 382.770272 309.395015 
z
" clip-path="url(#pbcee446084)" style="fill: #87ceeb; opacity: 0.6"/>
   </g>
   <g id="patch_60">
    <path d="M 388.60926 318.04 
L 394.448247 318.04 
L 394.448247 310.305014 
L 388.60926 310.305014 
z
" clip-path="url(#pbcee446084)" style="fill: #87ceeb; opacity: 0.6"/>
   </g>
   <g id="patch_61">
    <path d="M 394.448247 318.04 
L 400.287235 318.04 
L 400.287235 310.704862 
L 394.448247 310.704862 
z
" clip-path="url(#pbcee446084)" style="fill: #87ceeb; opacity: 0.6"/>
   </g>
   <g id="patch_62">
    <path d="M 400.287235 318.04 
L 406.126223 318.04 
L 406.126223 310.939255 
L 400.287235 310.939255 
z
" clip-path="url(#pbcee446084)" style="fill: #87ceeb; opacity: 0.6"/>
   </g>
   <g id="matplotlib.axis_1">
    <g id="xtick_1">
     <g id="line2d_1">
      <path d="M 55.786963 318.04 
L 55.786963 50.64 
" clip-path="url(#pbcee446084)" style="fill: none; stroke: #b0b0b0; stroke-opacity: 0.3; stroke-width: 0.8; stroke-linecap: square"/>
     </g>
     <g id="line2d_2">
      <defs>
       <path id="m9e59d3d437" d="M 0 0 
L 0 3.5 
" style="stroke: #000000; stroke-width: 0.8"/>
      </defs>
      <g>
       <use xlink:href="#m9e59d3d437" x="55.786963" y="318.04" style="stroke: #000000; stroke-width: 0.8"/>
      </g>
     </g>
     <g id="text_1">
      <!-- 0.0 -->
      <g transform="translate(47.8354 332.638438) scale(0.1 -0.1)">
       <defs>
        <path id="DejaVuSans-30" d="M 2034 4250 
Q 1547 4250 1301 3770 
Q 1056 3291 1056 2328 
Q 1056 1369 1301 889 
Q 1547 409 2034 409 
Q 2525 409 2770 889 
Q 3016 1369 3016 2328 
Q 3016 3291 2770 3770 
Q 2525 4250 2034 4250 
z
M 2034 4750 
Q 2819 4750 3233 4129 
Q 3647 3509 3647 2328 
Q 3647 1150 3233 529 
Q 2819 -91 2034 -91 
Q 1250 -91 836 529 
Q 422 1150 422 2328 
Q 422 3509 836 4129 
Q 1250 4750 2034 4750 
z
" transform="scale(0.015625)"/>
        <path id="DejaVuSans-2e" d="M 684 794 
L 1344 794 
L 1344 0 
L 684 0 
L 684 794 
z
" transform="scale(0.015625)"/>
       </defs>
       <use xlink:href="#DejaVuSans-30"/>
       <use xlink:href="#DejaVuSans-2e" transform="translate(63.623047 0)"/>
       <use xlink:href="#DejaVuSans-30" transform="translate(95.410156 0)"/>
      </g>
     </g>
    </g>
    <g id="xtick_2">
     <g id="line2d_3">
      <path d="M 117.092496 318.04 
L 117.092496 50.64 
" clip-path="url(#pbcee446084)" style="fill: none; stroke: #b0b0b0; stroke-opacity: 0.3; stroke-width: 0.8; stroke-linecap: square"/>
     </g>
     <g id="line2d_4">
      <g>
       <use xlink:href="#m9e59d3d437" x="117.092496" y="318.04" style="stroke: #000000; stroke-width: 0.8"/>
      </g>
     </g>
     <g id="text_2">
      <!-- 0.2 -->
      <g transform="translate(109.140933 332.638438) scale(0.1 -0.1)">
       <defs>
        <path id="DejaVuSans-32" d="M 1228 531 
L 3431 531 
L 3431 0 
L 469 0 
L 469 531 
Q 828 903 1448 1529 
Q 2069 2156 2228 2338 
Q 2531 2678 2651 2914 
Q 2772 3150 2772 3378 
Q 2772 3750 2511 3984 
Q 2250 4219 1831 4219 
Q 1534 4219 1204 4116 
Q 875 4013 500 3803 
L 500 4441 
Q 881 4594 1212 4672 
Q 1544 4750 1819 4750 
Q 2544 4750 2975 4387 
Q 3406 4025 3406 3419 
Q 3406 3131 3298 2873 
Q 3191 2616 2906 2266 
Q 2828 2175 2409 1742 
Q 1991 1309 1228 531 
z
" transform="scale(0.015625)"/>
       </defs>
       <use xlink:href="#DejaVuSans-30"/>
       <use xlink:href="#DejaVuSans-2e" transform="translate(63.623047 0)"/>
       <use xlink:href="#DejaVuSans-32" transform="translate(95.410156 0)"/>
      </g>
     </g>
    </g>
    <g id="xtick_3">
     <g id="line2d_5">
      <path d="M 178.398029 318.04 
L 178.398029 50.64 
" clip-path="url(#pbcee446084)" style="fill: none; stroke: #b0b0b0; stroke-opacity: 0.3; stroke-width: 0.8; stroke-linecap: square"/>
     </g>
     <g id="line2d_6">
      <g>
       <use xlink:href="#m9e59d3d437" x="178.398029" y="318.04" style="stroke: #000000; stroke-width: 0.8"/>
      </g>
     </g>
     <g id="text_3">
      <!-- 0.4 -->
      <g transform="translate(170.446466 332.638438) scale(0.1 -0.1)">
       <defs>
        <path id="DejaVuSans-34" d="M 2419 4116 
L 825 1625 
L 2419 1625 
L 2419 4116 
z
M 2253 4666 
L 3047 4666 
L 3047 1625 
L 3713 1625 
L 3713 1100 
L 3047 1100 
L 3047 0 
L 2419 0 
L 2419 1100 
L 313 1100 
L 313 1709 
L 2253 4666 
z
" transform="scale(0.015625)"/>
       </defs>
       <use xlink:href="#DejaVuSans-30"/>
       <use xlink:href="#DejaVuSans-2e" transform="translate(63.623047 0)"/>
       <use xlink:href="#DejaVuSans-34" transform="translate(95.410156 0)"/>
      </g>
     </g>
    </g>
    <g id="xtick_4">
     <g id="line2d_7">
      <path d="M 239.703561 318.04 
L 239.703561 50.64 
" clip-path="url(#pbcee446084)" style="fill: none; stroke: #b0b0b0; stroke-opacity: 0.3; stroke-width: 0.8; stroke-linecap: square"/>
     </g>
     <g id="line2d_8">
      <g>
       <use xlink:href="#m9e59d3d437" x="239.703561" y="318.04" style="stroke: #000000; stroke-width: 0.8"/>
      </g>
     </g>
     <g id="text_4">
      <!-- 0.6 -->
      <g transform="translate(231.751999 332.638438) scale(0.1 -0.1)">
       <defs>
        <path id="DejaVuSans-36" d="M 2113 2584 
Q 1688 2584 1439 2293 
Q 1191 2003 1191 1497 
Q 1191 994 1439 701 
Q 1688 409 2113 409 
Q 2538 409 2786 701 
Q 3034 994 3034 1497 
Q 3034 2003 2786 2293 
Q 2538 2584 2113 2584 
z
M 3366 4563 
L 3366 3988 
Q 3128 4100 2886 4159 
Q 2644 4219 2406 4219 
Q 1781 4219 1451 3797 
Q 1122 3375 1075 2522 
Q 1259 2794 1537 2939 
Q 1816 3084 2150 3084 
Q 2853 3084 3261 2657 
Q 3669 2231 3669 1497 
Q 3669 778 3244 343 
Q 2819 -91 2113 -91 
Q 1303 -91 875 529 
Q 447 1150 447 2328 
Q 447 3434 972 4092 
Q 1497 4750 2381 4750 
Q 2619 4750 2861 4703 
Q 3103 4656 3366 4563 
z
" transform="scale(0.015625)"/>
       </defs>
       <use xlink:href="#DejaVuSans-30"/>
       <use xlink:href="#DejaVuSans-2e" transform="translate(63.623047 0)"/>
       <use xlink:href="#DejaVuSans-36" transform="translate(95.410156 0)"/>
      </g>
     </g>
    </g>
    <g id="xtick_5">
     <g id="line2d_9">
      <path d="M 301.009094 318.04 
L 301.009094 50.64 
" clip-path="url(#pbcee446084)" style="fill: none; stroke: #b0b0b0; stroke-opacity: 0.3; stroke-width: 0.8; stroke-linecap: square"/>
     </g>
     <g id="line2d_10">
      <g>
       <use xlink:href="#m9e59d3d437" x="301.009094" y="318.04" style="stroke: #000000; stroke-width: 0.8"/>
      </g>
     </g>
     <g id="text_5">
      <!-- 0.8 -->
      <g transform="translate(293.057532 332.638438) scale(0.1 -0.1)">
       <defs>
        <path id="DejaVuSans-38" d="M 2034 2216 
Q 1584 2216 1326 1975 
Q 1069 1734 1069 1313 
Q 1069 891 1326 650 
Q 1584 409 2034 409 
Q 2484 409 2743 651 
Q 3003 894 3003 1313 
Q 3003 1734 2745 1975 
Q 2488 2216 2034 2216 
z
M 1403 2484 
Q 997 2584 770 2862 
Q 544 3141 544 3541 
Q 544 4100 942 4425 
Q 1341 4750 2034 4750 
Q 2731 4750 3128 4425 
Q 3525 4100 3525 3541 
Q 3525 3141 3298 2862 
Q 3072 2584 2669 2484 
Q 3125 2378 3379 2068 
Q 3634 1759 3634 1313 
Q 3634 634 3220 271 
Q 2806 -91 2034 -91 
Q 1263 -91 848 271 
Q 434 634 434 1313 
Q 434 1759 690 2068 
Q 947 2378 1403 2484 
z
M 1172 3481 
Q 1172 3119 1398 2916 
Q 1625 2713 2034 2713 
Q 2441 2713 2670 2916 
Q 2900 3119 2900 3481 
Q 2900 3844 2670 4047 
Q 2441 4250 2034 4250 
Q 1625 4250 1398 4047 
Q 1172 3844 1172 3481 
z
" transform="scale(0.015625)"/>
       </defs>
       <use xlink:href="#DejaVuSans-30"/>
       <use xlink:href="#DejaVuSans-2e" transform="translate(63.623047 0)"/>
       <use xlink:href="#DejaVuSans-38" transform="translate(95.410156 0)"/>
      </g>
     </g>
    </g>
    <g id="xtick_6">
     <g id="line2d_11">
      <path d="M 362.314627 318.04 
L 362.314627 50.64 
" clip-path="url(#pbcee446084)" style="fill: none; stroke: #b0b0b0; stroke-opacity: 0.3; stroke-width: 0.8; stroke-linecap: square"/>
     </g>
     <g id="line2d_12">
      <g>
       <use xlink:href="#m9e59d3d437" x="362.314627" y="318.04" style="stroke: #000000; stroke-width: 0.8"/>
      </g>
     </g>
     <g id="text_6">
      <!-- 1.0 -->
      <g transform="translate(354.363064 332.638438) scale(0.1 -0.1)">
       <defs>
        <path id="DejaVuSans-31" d="M 794 531 
L 1825 531 
L 1825 4091 
L 703 3866 
L 703 4441 
L 1819 4666 
L 2450 4666 
L 2450 531 
L 3481 531 
L 3481 0 
L 794 0 
L 794 531 
z
" transform="scale(0.015625)"/>
       </defs>
       <use xlink:href="#DejaVuSans-31"/>
       <use xlink:href="#DejaVuSans-2e" transform="translate(63.623047 0)"/>
       <use xlink:href="#DejaVuSans-30" transform="translate(95.410156 0)"/>
      </g>
     </g>
    </g>
    <g id="xtick_7">
     <g id="line2d_13">
      <path d="M 423.62016 318.04 
L 423.62016 50.64 
" clip-path="url(#pbcee446084)" style="fill: none; stroke: #b0b0b0; stroke-opacity: 0.3; stroke-width: 0.8; stroke-linecap: square"/>
     </g>
     <g id="line2d_14">
      <g>
       <use xlink:href="#m9e59d3d437" x="423.62016" y="318.04" style="stroke: #000000; stroke-width: 0.8"/>
      </g>
     </g>
     <g id="text_7">
      <!-- 1.2 -->
      <g transform="translate(415.668597 332.638438) scale(0.1 -0.1)">
       <use xlink:href="#DejaVuSans-31"/>
       <use xlink:href="#DejaVuSans-2e" transform="translate(63.623047 0)"/>
       <use xlink:href="#DejaVuSans-32" transform="translate(95.410156 0)"/>
      </g>
     </g>
    </g>
    <g id="text_8">
     <!-- Days between accidents -->
     <g transform="translate(169.74253 346.316563) scale(0.1 -0.1)">
      <defs>
       <path id="DejaVuSans-44" d="M 1259 4147 
L 1259 519 
L 2022 519 
Q 2988 519 3436 956 
Q 3884 1394 3884 2338 
Q 3884 3275 3436 3711 
Q 2988 4147 2022 4147 
L 1259 4147 
z
M 628 4666 
L 1925 4666 
Q 3281 4666 3915 4102 
Q 4550 3538 4550 2338 
Q 4550 1131 3912 565 
Q 3275 0 1925 0 
L 628 0 
L 628 4666 
z
" transform="scale(0.015625)"/>
       <path id="DejaVuSans-61" d="M 2194 1759 
Q 1497 1759 1228 1600 
Q 959 1441 959 1056 
Q 959 750 1161 570 
Q 1363 391 1709 391 
Q 2188 391 2477 730 
Q 2766 1069 2766 1631 
L 2766 1759 
L 2194 1759 
z
M 3341 1997 
L 3341 0 
L 2766 0 
L 2766 531 
Q 2569 213 2275 61 
Q 1981 -91 1556 -91 
Q 1019 -91 701 211 
Q 384 513 384 1019 
Q 384 1609 779 1909 
Q 1175 2209 1959 2209 
L 2766 2209 
L 2766 2266 
Q 2766 2663 2505 2880 
Q 2244 3097 1772 3097 
Q 1472 3097 1187 3025 
Q 903 2953 641 2809 
L 641 3341 
Q 956 3463 1253 3523 
Q 1550 3584 1831 3584 
Q 2591 3584 2966 3190 
Q 3341 2797 3341 1997 
z
" transform="scale(0.015625)"/>
       <path id="DejaVuSans-79" d="M 2059 -325 
Q 1816 -950 1584 -1140 
Q 1353 -1331 966 -1331 
L 506 -1331 
L 506 -850 
L 844 -850 
Q 1081 -850 1212 -737 
Q 1344 -625 1503 -206 
L 1606 56 
L 191 3500 
L 800 3500 
L 1894 763 
L 2988 3500 
L 3597 3500 
L 2059 -325 
z
" transform="scale(0.015625)"/>
       <path id="DejaVuSans-73" d="M 2834 3397 
L 2834 2853 
Q 2591 2978 2328 3040 
Q 2066 3103 1784 3103 
Q 1356 3103 1142 2972 
Q 928 2841 928 2578 
Q 928 2378 1081 2264 
Q 1234 2150 1697 2047 
L 1894 2003 
Q 2506 1872 2764 1633 
Q 3022 1394 3022 966 
Q 3022 478 2636 193 
Q 2250 -91 1575 -91 
Q 1294 -91 989 -36 
Q 684 19 347 128 
L 347 722 
Q 666 556 975 473 
Q 1284 391 1588 391 
Q 1994 391 2212 530 
Q 2431 669 2431 922 
Q 2431 1156 2273 1281 
Q 2116 1406 1581 1522 
L 1381 1569 
Q 847 1681 609 1914 
Q 372 2147 372 2553 
Q 372 3047 722 3315 
Q 1072 3584 1716 3584 
Q 2034 3584 2315 3537 
Q 2597 3491 2834 3397 
z
" transform="scale(0.015625)"/>
       <path id="DejaVuSans-20" transform="scale(0.015625)"/>
       <path id="DejaVuSans-62" d="M 3116 1747 
Q 3116 2381 2855 2742 
Q 2594 3103 2138 3103 
Q 1681 3103 1420 2742 
Q 1159 2381 1159 1747 
Q 1159 1113 1420 752 
Q 1681 391 2138 391 
Q 2594 391 2855 752 
Q 3116 1113 3116 1747 
z
M 1159 2969 
Q 1341 3281 1617 3432 
Q 1894 3584 2278 3584 
Q 2916 3584 3314 3078 
Q 3713 2572 3713 1747 
Q 3713 922 3314 415 
Q 2916 -91 2278 -91 
Q 1894 -91 1617 61 
Q 1341 213 1159 525 
L 1159 0 
L 581 0 
L 581 4863 
L 1159 4863 
L 1159 2969 
z
" transform="scale(0.015625)"/>
       <path id="DejaVuSans-65" d="M 3597 1894 
L 3597 1613 
L 953 1613 
Q 991 1019 1311 708 
Q 1631 397 2203 397 
Q 2534 397 2845 478 
Q 3156 559 3463 722 
L 3463 178 
Q 3153 47 2828 -22 
Q 2503 -91 2169 -91 
Q 1331 -91 842 396 
Q 353 884 353 1716 
Q 353 2575 817 3079 
Q 1281 3584 2069 3584 
Q 2775 3584 3186 3129 
Q 3597 2675 3597 1894 
z
M 3022 2063 
Q 3016 2534 2758 2815 
Q 2500 3097 2075 3097 
Q 1594 3097 1305 2825 
Q 1016 2553 972 2059 
L 3022 2063 
z
" transform="scale(0.015625)"/>
       <path id="DejaVuSans-74" d="M 1172 4494 
L 1172 3500 
L 2356 3500 
L 2356 3053 
L 1172 3053 
L 1172 1153 
Q 1172 725 1289 603 
Q 1406 481 1766 481 
L 2356 481 
L 2356 0 
L 1766 0 
Q 1100 0 847 248 
Q 594 497 594 1153 
L 594 3053 
L 172 3053 
L 172 3500 
L 594 3500 
L 594 4494 
L 1172 4494 
z
" transform="scale(0.015625)"/>
       <path id="DejaVuSans-77" d="M 269 3500 
L 844 3500 
L 1563 769 
L 2278 3500 
L 2956 3500 
L 3675 769 
L 4391 3500 
L 4966 3500 
L 4050 0 
L 3372 0 
L 2619 2869 
L 1863 0 
L 1184 0 
L 269 3500 
z
" transform="scale(0.015625)"/>
       <path id="DejaVuSans-6e" d="M 3513 2113 
L 3513 0 
L 2938 0 
L 2938 2094 
Q 2938 2591 2744 2837 
Q 2550 3084 2163 3084 
Q 1697 3084 1428 2787 
Q 1159 2491 1159 1978 
L 1159 0 
L 581 0 
L 581 3500 
L 1159 3500 
L 1159 2956 
Q 1366 3272 1645 3428 
Q 1925 3584 2291 3584 
Q 2894 3584 3203 3211 
Q 3513 2838 3513 2113 
z
" transform="scale(0.015625)"/>
       <path id="DejaVuSans-63" d="M 3122 3366 
L 3122 2828 
Q 2878 2963 2633 3030 
Q 2388 3097 2138 3097 
Q 1578 3097 1268 2742 
Q 959 2388 959 1747 
Q 959 1106 1268 751 
Q 1578 397 2138 397 
Q 2388 397 2633 464 
Q 2878 531 3122 666 
L 3122 134 
Q 2881 22 2623 -34 
Q 2366 -91 2075 -91 
Q 1284 -91 818 406 
Q 353 903 353 1747 
Q 353 2603 823 3093 
Q 1294 3584 2113 3584 
Q 2378 3584 2631 3529 
Q 2884 3475 3122 3366 
z
" transform="scale(0.015625)"/>
       <path id="DejaVuSans-69" d="M 603 3500 
L 1178 3500 
L 1178 0 
L 603 0 
L 603 3500 
z
M 603 4863 
L 1178 4863 
L 1178 4134 
L 603 4134 
L 603 4863 
z
" transform="scale(0.015625)"/>
       <path id="DejaVuSans-64" d="M 2906 2969 
L 2906 4863 
L 3481 4863 
L 3481 0 
L 2906 0 
L 2906 525 
Q 2725 213 2448 61 
Q 2172 -91 1784 -91 
Q 1150 -91 751 415 
Q 353 922 353 1747 
Q 353 2572 751 3078 
Q 1150 3584 1784 3584 
Q 2172 3584 2448 3432 
Q 2725 3281 2906 2969 
z
M 947 1747 
Q 947 1113 1208 752 
Q 1469 391 1925 391 
Q 2381 391 2643 752 
Q 2906 1113 2906 1747 
Q 2906 2381 2643 2742 
Q 2381 3103 1925 3103 
Q 1469 3103 1208 2742 
Q 947 2381 947 1747 
z
" transform="scale(0.015625)"/>
      </defs>
      <use xlink:href="#DejaVuSans-44"/>
      <use xlink:href="#DejaVuSans-61" transform="translate(77.001953 0)"/>
      <use xlink:href="#DejaVuSans-79" transform="translate(138.28125 0)"/>
      <use xlink:href="#DejaVuSans-73" transform="translate(197.460938 0)"/>
      <use xlink:href="#DejaVuSans-20" transform="translate(249.560547 0)"/>
      <use xlink:href="#DejaVuSans-62" transform="translate(281.347656 0)"/>
      <use xlink:href="#DejaVuSans-65" transform="translate(344.824219 0)"/>
      <use xlink:href="#DejaVuSans-74" transform="translate(406.347656 0)"/>
      <use xlink:href="#DejaVuSans-77" transform="translate(445.556641 0)"/>
      <use xlink:href="#DejaVuSans-65" transform="translate(527.34375 0)"/>
      <use xlink:href="#DejaVuSans-65" transform="translate(588.867188 0)"/>
      <use xlink:href="#DejaVuSans-6e" transform="translate(650.390625 0)"/>
      <use xlink:href="#DejaVuSans-20" transform="translate(713.769531 0)"/>
      <use xlink:href="#DejaVuSans-61" transform="translate(745.556641 0)"/>
      <use xlink:href="#DejaVuSans-63" transform="translate(806.835938 0)"/>
      <use xlink:href="#DejaVuSans-63" transform="translate(861.816406 0)"/>
      <use xlink:href="#DejaVuSans-69" transform="translate(916.796875 0)"/>
      <use xlink:href="#DejaVuSans-64" transform="translate(944.580078 0)"/>
      <use xlink:href="#DejaVuSans-65" transform="translate(1008.056641 0)"/>
      <use xlink:href="#DejaVuSans-6e" transform="translate(1069.580078 0)"/>
      <use xlink:href="#DejaVuSans-74" transform="translate(1132.958984 0)"/>
      <use xlink:href="#DejaVuSans-73" transform="translate(1172.167969 0)"/>
     </g>
    </g>
   </g>
   <g id="matplotlib.axis_2">
    <g id="ytick_1">
     <g id="line2d_15">
      <path d="M 38.27 318.04 
L 423.643186 318.04 
" clip-path="url(#pbcee446084)" style="fill: none; stroke: #b0b0b0; stroke-opacity: 0.3; stroke-width: 0.8; stroke-linecap: square"/>
     </g>
     <g id="line2d_16">
      <defs>
       <path id="m91ae483c58" d="M 0 0 
L -3.5 0 
" style="stroke: #000000; stroke-width: 0.8"/>
      </defs>
      <g>
       <use xlink:href="#m91ae483c58" x="38.27" y="318.04" style="stroke: #000000; stroke-width: 0.8"/>
      </g>
     </g>
     <g id="text_9">
      <!-- 0 -->
      <g transform="translate(24.9075 321.839219) scale(0.1 -0.1)">
       <use xlink:href="#DejaVuSans-30"/>
      </g>
     </g>
    </g>
    <g id="ytick_2">
     <g id="line2d_17">
      <path d="M 38.27 268.137975 
L 423.643186 268.137975 
" clip-path="url(#pbcee446084)" style="fill: none; stroke: #b0b0b0; stroke-opacity: 0.3; stroke-width: 0.8; stroke-linecap: square"/>
     </g>
     <g id="line2d_18">
      <g>
       <use xlink:href="#m91ae483c58" x="38.27" y="268.137975" style="stroke: #000000; stroke-width: 0.8"/>
      </g>
     </g>
     <g id="text_10">
      <!-- 1 -->
      <g transform="translate(24.9075 271.937194) scale(0.1 -0.1)">
       <use xlink:href="#DejaVuSans-31"/>
      </g>
     </g>
    </g>
    <g id="ytick_3">
     <g id="line2d_19">
      <path d="M 38.27 218.23595 
L 423.643186 218.23595 
" clip-path="url(#pbcee446084)" style="fill: none; stroke: #b0b0b0; stroke-opacity: 0.3; stroke-width: 0.8; stroke-linecap: square"/>
     </g>
     <g id="line2d_20">
      <g>
       <use xlink:href="#m91ae483c58" x="38.27" y="218.23595" style="stroke: #000000; stroke-width: 0.8"/>
      </g>
     </g>
     <g id="text_11">
      <!-- 2 -->
      <g transform="translate(24.9075 222.035169) scale(0.1 -0.1)">
       <use xlink:href="#DejaVuSans-32"/>
      </g>
     </g>
    </g>
    <g id="ytick_4">
     <g id="line2d_21">
      <path d="M 38.27 168.333926 
L 423.643186 168.333926 
" clip-path="url(#pbcee446084)" style="fill: none; stroke: #b0b0b0; stroke-opacity: 0.3; stroke-width: 0.8; stroke-linecap: square"/>
     </g>
     <g id="line2d_22">
      <g>
       <use xlink:href="#m91ae483c58" x="38.27" y="168.333926" style="stroke: #000000; stroke-width: 0.8"/>
      </g>
     </g>
     <g id="text_12">
      <!-- 3 -->
      <g transform="translate(24.9075 172.133144) scale(0.1 -0.1)">
       <defs>
        <path id="DejaVuSans-33" d="M 2597 2516 
Q 3050 2419 3304 2112 
Q 3559 1806 3559 1356 
Q 3559 666 3084 287 
Q 2609 -91 1734 -91 
Q 1441 -91 1130 -33 
Q 819 25 488 141 
L 488 750 
Q 750 597 1062 519 
Q 1375 441 1716 441 
Q 2309 441 2620 675 
Q 2931 909 2931 1356 
Q 2931 1769 2642 2001 
Q 2353 2234 1838 2234 
L 1294 2234 
L 1294 2753 
L 1863 2753 
Q 2328 2753 2575 2939 
Q 2822 3125 2822 3475 
Q 2822 3834 2567 4026 
Q 2313 4219 1838 4219 
Q 1578 4219 1281 4162 
Q 984 4106 628 3988 
L 628 4550 
Q 988 4650 1302 4700 
Q 1616 4750 1894 4750 
Q 2613 4750 3031 4423 
Q 3450 4097 3450 3541 
Q 3450 3153 3228 2886 
Q 3006 2619 2597 2516 
z
" transform="scale(0.015625)"/>
       </defs>
       <use xlink:href="#DejaVuSans-33"/>
      </g>
     </g>
    </g>
    <g id="ytick_5">
     <g id="line2d_23">
      <path d="M 38.27 118.431901 
L 423.643186 118.431901 
" clip-path="url(#pbcee446084)" style="fill: none; stroke: #b0b0b0; stroke-opacity: 0.3; stroke-width: 0.8; stroke-linecap: square"/>
     </g>
     <g id="line2d_24">
      <g>
       <use xlink:href="#m91ae483c58" x="38.27" y="118.431901" style="stroke: #000000; stroke-width: 0.8"/>
      </g>
     </g>
     <g id="text_13">
      <!-- 4 -->
      <g transform="translate(24.9075 122.231119) scale(0.1 -0.1)">
       <use xlink:href="#DejaVuSans-34"/>
      </g>
     </g>
    </g>
    <g id="ytick_6">
     <g id="line2d_25">
      <path d="M 38.27 68.529876 
L 423.643186 68.529876 
" clip-path="url(#pbcee446084)" style="fill: none; stroke: #b0b0b0; stroke-opacity: 0.3; stroke-width: 0.8; stroke-linecap: square"/>
     </g>
     <g id="line2d_26">
      <g>
       <use xlink:href="#m91ae483c58" x="38.27" y="68.529876" style="stroke: #000000; stroke-width: 0.8"/>
      </g>
     </g>
     <g id="text_14">
      <!-- 5 -->
      <g transform="translate(24.9075 72.329095) scale(0.1 -0.1)">
       <defs>
        <path id="DejaVuSans-35" d="M 691 4666 
L 3169 4666 
L 3169 4134 
L 1269 4134 
L 1269 2991 
Q 1406 3038 1543 3061 
Q 1681 3084 1819 3084 
Q 2600 3084 3056 2656 
Q 3513 2228 3513 1497 
Q 3513 744 3044 326 
Q 2575 -91 1722 -91 
Q 1428 -91 1123 -41 
Q 819 9 494 109 
L 494 744 
Q 775 591 1075 516 
Q 1375 441 1709 441 
Q 2250 441 2565 725 
Q 2881 1009 2881 1497 
Q 2881 1984 2565 2268 
Q 2250 2553 1709 2553 
Q 1456 2553 1204 2497 
Q 953 2441 691 2322 
L 691 4666 
z
" transform="scale(0.015625)"/>
       </defs>
       <use xlink:href="#DejaVuSans-35"/>
      </g>
     </g>
    </g>
    <g id="text_15">
     <!-- Density -->
     <g transform="translate(18.827813 203.348594) rotate(-90) scale(0.1 -0.1)">
      <use xlink:href="#DejaVuSans-44"/>
      <use xlink:href="#DejaVuSans-65" transform="translate(77.001953 0)"/>
      <use xlink:href="#DejaVuSans-6e" transform="translate(138.525391 0)"/>
      <use xlink:href="#DejaVuSans-73" transform="translate(201.904297 0)"/>
      <use xlink:href="#DejaVuSans-69" transform="translate(254.003906 0)"/>
      <use xlink:href="#DejaVuSans-74" transform="translate(281.787109 0)"/>
      <use xlink:href="#DejaVuSans-79" transform="translate(320.996094 0)"/>
     </g>
    </g>
   </g>
   <g id="line2d_27">
    <path d="M 55.786963 187.795715 
L 62.105707 194.617996 
L 68.424451 201.082922 
L 74.743195 207.209211 
L 81.06194 213.0146 
L 87.380684 218.5159 
L 93.699428 223.729037 
L 100.018172 228.669108 
L 106.336916 233.350414 
L 113.357743 238.264838 
L 120.37857 242.894084 
L 127.399397 247.254701 
L 134.420224 251.362278 
L 141.441051 255.231497 
L 149.16396 259.22882 
L 156.88687 262.971741 
L 164.609779 266.476451 
L 173.034771 270.045881 
L 181.459764 273.368221 
L 189.884756 276.460576 
L 199.011831 279.569533 
L 208.138906 282.446028 
L 217.968063 285.303729 
L 227.797221 287.931996 
L 238.328461 290.514292 
L 248.859701 292.87511 
L 260.093024 295.170571 
L 272.02843 297.38052 
L 284.665918 299.48815 
L 298.005489 301.480057 
L 312.047143 303.346197 
L 326.790879 305.079751 
L 342.938781 306.744642 
L 359.788765 308.254332 
L 378.042915 309.663001 
L 397.70123 310.954117 
L 406.126223 311.44463 
L 406.126223 311.44463 
" clip-path="url(#pbcee446084)" style="fill: none; stroke-dasharray: 5.55,2.4; stroke-dashoffset: 0; stroke: #000000; stroke-width: 1.5"/>
   </g>
   <g id="patch_63">
    <path d="M 38.27 318.04 
L 38.27 50.64 
" style="fill: none; stroke: #000000; stroke-width: 0.8; stroke-linejoin: miter; stroke-linecap: square"/>
   </g>
   <g id="patch_64">
    <path d="M 423.643186 318.04 
L 423.643186 50.64 
" style="fill: none; stroke: #000000; stroke-width: 0.8; stroke-linejoin: miter; stroke-linecap: square"/>
   </g>
   <g id="patch_65">
    <path d="M 38.27 318.04 
L 423.643186 318.04 
" style="fill: none; stroke: #000000; stroke-width: 0.8; stroke-linejoin: miter; stroke-linecap: square"/>
   </g>
   <g id="patch_66">
    <path d="M 38.27 50.64 
L 423.643186 50.64 
" style="fill: none; stroke: #000000; stroke-width: 0.8; stroke-linejoin: miter; stroke-linecap: square"/>
   </g>
   <g id="text_16">
    <!-- April: mean interval 0.38 days -->
    <g transform="translate(140.18128 44.64) scale(0.12 -0.12)">
     <defs>
      <path id="DejaVuSans-41" d="M 2188 4044 
L 1331 1722 
L 3047 1722 
L 2188 4044 
z
M 1831 4666 
L 2547 4666 
L 4325 0 
L 3669 0 
L 3244 1197 
L 1141 1197 
L 716 0 
L 50 0 
L 1831 4666 
z
" transform="scale(0.015625)"/>
      <path id="DejaVuSans-70" d="M 1159 525 
L 1159 -1331 
L 581 -1331 
L 581 3500 
L 1159 3500 
L 1159 2969 
Q 1341 3281 1617 3432 
Q 1894 3584 2278 3584 
Q 2916 3584 3314 3078 
Q 3713 2572 3713 1747 
Q 3713 922 3314 415 
Q 2916 -91 2278 -91 
Q 1894 -91 1617 61 
Q 1341 213 1159 525 
z
M 3116 1747 
Q 3116 2381 2855 2742 
Q 2594 3103 2138 3103 
Q 1681 3103 1420 2742 
Q 1159 2381 1159 1747 
Q 1159 1113 1420 752 
Q 1681 391 2138 391 
Q 2594 391 2855 752 
Q 3116 1113 3116 1747 
z
" transform="scale(0.015625)"/>
      <path id="DejaVuSans-72" d="M 2631 2963 
Q 2534 3019 2420 3045 
Q 2306 3072 2169 3072 
Q 1681 3072 1420 2755 
Q 1159 2438 1159 1844 
L 1159 0 
L 581 0 
L 581 3500 
L 1159 3500 
L 1159 2956 
Q 1341 3275 1631 3429 
Q 1922 3584 2338 3584 
Q 2397 3584 2469 3576 
Q 2541 3569 2628 3553 
L 2631 2963 
z
" transform="scale(0.015625)"/>
      <path id="DejaVuSans-6c" d="M 603 4863 
L 1178 4863 
L 1178 0 
L 603 0 
L 603 4863 
z
" transform="scale(0.015625)"/>
      <path id="DejaVuSans-3a" d="M 750 794 
L 1409 794 
L 1409 0 
L 750 0 
L 750 794 
z
M 750 3309 
L 1409 3309 
L 1409 2516 
L 750 2516 
L 750 3309 
z
" transform="scale(0.015625)"/>
      <path id="DejaVuSans-6d" d="M 3328 2828 
Q 3544 3216 3844 3400 
Q 4144 3584 4550 3584 
Q 5097 3584 5394 3201 
Q 5691 2819 5691 2113 
L 5691 0 
L 5113 0 
L 5113 2094 
Q 5113 2597 4934 2840 
Q 4756 3084 4391 3084 
Q 3944 3084 3684 2787 
Q 3425 2491 3425 1978 
L 3425 0 
L 2847 0 
L 2847 2094 
Q 2847 2600 2669 2842 
Q 2491 3084 2119 3084 
Q 1678 3084 1418 2786 
Q 1159 2488 1159 1978 
L 1159 0 
L 581 0 
L 581 3500 
L 1159 3500 
L 1159 2956 
Q 1356 3278 1631 3431 
Q 1906 3584 2284 3584 
Q 2666 3584 2933 3390 
Q 3200 3197 3328 2828 
z
" transform="scale(0.015625)"/>
      <path id="DejaVuSans-76" d="M 191 3500 
L 800 3500 
L 1894 563 
L 2988 3500 
L 3597 3500 
L 2284 0 
L 1503 0 
L 191 3500 
z
" transform="scale(0.015625)"/>
     </defs>
     <use xlink:href="#DejaVuSans-41"/>
     <use xlink:href="#DejaVuSans-70" transform="translate(68.408203 0)"/>
     <use xlink:href="#DejaVuSans-72" transform="translate(131.884766 0)"/>
     <use xlink:href="#DejaVuSans-69" transform="translate(172.998047 0)"/>
     <use xlink:href="#DejaVuSans-6c" transform="translate(200.78125 0)"/>
     <use xlink:href="#DejaVuSans-3a" transform="translate(228.564453 0)"/>
     <use xlink:href="#DejaVuSans-20" transform="translate(262.255859 0)"/>
     <use xlink:href="#DejaVuSans-6d" transform="translate(294.042969 0)"/>
     <use xlink:href="#DejaVuSans-65" transform="translate(391.455078 0)"/>
     <use xlink:href="#DejaVuSans-61" transform="translate(452.978516 0)"/>
     <use xlink:href="#DejaVuSans-6e" transform="translate(514.257812 0)"/>
     <use xlink:href="#DejaVuSans-20" transform="translate(577.636719 0)"/>
     <use xlink:href="#DejaVuSans-69" transform="translate(609.423828 0)"/>
     <use xlink:href="#DejaVuSans-6e" transform="translate(637.207031 0)"/>
     <use xlink:href="#DejaVuSans-74" transform="translate(700.585938 0)"/>
     <use xlink:href="#DejaVuSans-65" transform="translate(739.794922 0)"/>
     <use xlink:href="#DejaVuSans-72" transform="translate(801.318359 0)"/>
     <use xlink:href="#DejaVuSans-76" transform="translate(842.431641 0)"/>
     <use xlink:href="#DejaVuSans-61" transform="translate(901.611328 0)"/>
     <use xlink:href="#DejaVuSans-6c" transform="translate(962.890625 0)"/>
     <use xlink:href="#DejaVuSans-20" transform="translate(990.673828 0)"/>
     <use xlink:href="#DejaVuSans-30" transform="translate(1022.460938 0)"/>
     <use xlink:href="#DejaVuSans-2e" transform="translate(1086.083984 0)"/>
     <use xlink:href="#DejaVuSans-33" transform="translate(1117.871094 0)"/>
     <use xlink:href="#DejaVuSans-38" transform="translate(1181.494141 0)"/>
     <use xlink:href="#DejaVuSans-20" transform="translate(1245.117188 0)"/>
     <use xlink:href="#DejaVuSans-64" transform="translate(1276.904297 0)"/>
     <use xlink:href="#DejaVuSans-61" transform="translate(1340.380859 0)"/>
     <use xlink:href="#DejaVuSans-79" transform="translate(1401.660156 0)"/>
     <use xlink:href="#DejaVuSans-73" transform="translate(1460.839844 0)"/>
    </g>
   </g>
   <g id="legend_1">
    <g id="patch_67">
     <path d="M 293.563498 87.99625 
L 416.643186 87.99625 
Q 418.643186 87.99625 418.643186 85.99625 
L 418.643186 57.64 
Q 418.643186 55.64 416.643186 55.64 
L 293.563498 55.64 
Q 291.563498 55.64 291.563498 57.64 
L 291.563498 85.99625 
Q 291.563498 87.99625 293.563498 87.99625 
z
" style="fill: #ffffff; opacity: 0.8; stroke: #cccccc; stroke-linejoin: miter"/>
    </g>
    <g id="patch_68">
     <path d="M 295.563498 67.238437 
L 315.563498 67.238437 
L 315.563498 60.238437 
L 295.563498 60.238437 
z
" style="fill: #87ceeb; opacity: 0.6"/>
    </g>
    <g id="text_17">
     <!-- Simulated -->
     <g transform="translate(323.563498 67.238437) scale(0.1 -0.1)">
      <defs>
       <path id="DejaVuSans-53" d="M 3425 4513 
L 3425 3897 
Q 3066 4069 2747 4153 
Q 2428 4238 2131 4238 
Q 1616 4238 1336 4038 
Q 1056 3838 1056 3469 
Q 1056 3159 1242 3001 
Q 1428 2844 1947 2747 
L 2328 2669 
Q 3034 2534 3370 2195 
Q 3706 1856 3706 1288 
Q 3706 609 3251 259 
Q 2797 -91 1919 -91 
Q 1588 -91 1214 -16 
Q 841 59 441 206 
L 441 856 
Q 825 641 1194 531 
Q 1563 422 1919 422 
Q 2459 422 2753 634 
Q 3047 847 3047 1241 
Q 3047 1584 2836 1778 
Q 2625 1972 2144 2069 
L 1759 2144 
Q 1053 2284 737 2584 
Q 422 2884 422 3419 
Q 422 4038 858 4394 
Q 1294 4750 2059 4750 
Q 2388 4750 2728 4690 
Q 3069 4631 3425 4513 
z
" transform="scale(0.015625)"/>
       <path id="DejaVuSans-75" d="M 544 1381 
L 544 3500 
L 1119 3500 
L 1119 1403 
Q 1119 906 1312 657 
Q 1506 409 1894 409 
Q 2359 409 2629 706 
Q 2900 1003 2900 1516 
L 2900 3500 
L 3475 3500 
L 3475 0 
L 2900 0 
L 2900 538 
Q 2691 219 2414 64 
Q 2138 -91 1772 -91 
Q 1169 -91 856 284 
Q 544 659 544 1381 
z
M 1991 3584 
L 1991 3584 
z
" transform="scale(0.015625)"/>
      </defs>
      <use xlink:href="#DejaVuSans-53"/>
      <use xlink:href="#DejaVuSans-69" transform="translate(63.476562 0)"/>
      <use xlink:href="#DejaVuSans-6d" transform="translate(91.259766 0)"/>
      <use xlink:href="#DejaVuSans-75" transform="translate(188.671875 0)"/>
      <use xlink:href="#DejaVuSans-6c" transform="translate(252.050781 0)"/>
      <use xlink:href="#DejaVuSans-61" transform="translate(279.833984 0)"/>
      <use xlink:href="#DejaVuSans-74" transform="translate(341.113281 0)"/>
      <use xlink:href="#DejaVuSans-65" transform="translate(380.322266 0)"/>
      <use xlink:href="#DejaVuSans-64" transform="translate(441.845703 0)"/>
     </g>
    </g>
    <g id="line2d_28">
     <path d="M 295.563498 78.416562 
L 305.563498 78.416562 
L 315.563498 78.416562 
" style="fill: none; stroke-dasharray: 5.55,2.4; stroke-dashoffset: 0; stroke: #000000; stroke-width: 1.5"/>
    </g>
    <g id="text_18">
     <!-- Exp(λ=2.610/day) -->
     <g transform="translate(323.563498 81.916562) scale(0.1 -0.1)">
      <defs>
       <path id="DejaVuSans-45" d="M 628 4666 
L 3578 4666 
L 3578 4134 
L 1259 4134 
L 1259 2753 
L 3481 2753 
L 3481 2222 
L 1259 2222 
L 1259 531 
L 3634 531 
L 3634 0 
L 628 0 
L 628 4666 
z
" transform="scale(0.015625)"/>
       <path id="DejaVuSans-78" d="M 3513 3500 
L 2247 1797 
L 3578 0 
L 2900 0 
L 1881 1375 
L 863 0 
L 184 0 
L 1544 1831 
L 300 3500 
L 978 3500 
L 1906 2253 
L 2834 3500 
L 3513 3500 
z
" transform="scale(0.015625)"/>
       <path id="DejaVuSans-28" d="M 1984 4856 
Q 1566 4138 1362 3434 
Q 1159 2731 1159 2009 
Q 1159 1288 1364 580 
Q 1569 -128 1984 -844 
L 1484 -844 
Q 1016 -109 783 600 
Q 550 1309 550 2009 
Q 550 2706 781 3412 
Q 1013 4119 1484 4856 
L 1984 4856 
z
" transform="scale(0.015625)"/>
       <path id="DejaVuSans-3bb" d="M 1981 4316 
L 3597 0 
L 2988 0 
L 2006 2588 
L 800 0 
L 191 0 
L 1725 3356 
L 1494 3975 
Q 1347 4369 1013 4369 
L 713 4369 
L 713 4863 
L 1078 4856 
Q 1784 4847 1981 4316 
z
" transform="scale(0.015625)"/>
       <path id="DejaVuSans-3d" d="M 678 2906 
L 4684 2906 
L 4684 2381 
L 678 2381 
L 678 2906 
z
M 678 1631 
L 4684 1631 
L 4684 1100 
L 678 1100 
L 678 1631 
z
" transform="scale(0.015625)"/>
       <path id="DejaVuSans-2f" d="M 1625 4666 
L 2156 4666 
L 531 -594 
L 0 -594 
L 1625 4666 
z
" transform="scale(0.015625)"/>
       <path id="DejaVuSans-29" d="M 513 4856 
L 1013 4856 
Q 1481 4119 1714 3412 
Q 1947 2706 1947 2009 
Q 1947 1309 1714 600 
Q 1481 -109 1013 -844 
L 513 -844 
Q 928 -128 1133 580 
Q 1338 1288 1338 2009 
Q 1338 2731 1133 3434 
Q 928 4138 513 4856 
z
" transform="scale(0.015625)"/>
      </defs>
      <use xlink:href="#DejaVuSans-45"/>
      <use xlink:href="#DejaVuSans-78" transform="translate(63.183594 0)"/>
      <use xlink:href="#DejaVuSans-70" transform="translate(122.363281 0)"/>
      <use xlink:href="#DejaVuSans-28" transform="translate(185.839844 0)"/>
      <use xlink:href="#DejaVuSans-3bb" transform="translate(224.853516 0)"/>
      <use xlink:href="#DejaVuSans-3d" transform="translate(284.033203 0)"/>
      <use xlink:href="#DejaVuSans-32" transform="translate(367.822266 0)"/>
      <use xlink:href="#DejaVuSans-2e" transform="translate(431.445312 0)"/>
      <use xlink:href="#DejaVuSans-36" transform="translate(463.232422 0)"/>
      <use xlink:href="#DejaVuSans-31" transform="translate(526.855469 0)"/>
      <use xlink:href="#DejaVuSans-30" transform="translate(590.478516 0)"/>
      <use xlink:href="#DejaVuSans-2f" transform="translate(654.101562 0)"/>
      <use xlink:href="#DejaVuSans-64" transform="translate(687.792969 0)"/>
      <use xlink:href="#DejaVuSans-61" transform="translate(751.269531 0)"/>
      <use xlink:href="#DejaVuSans-79" transform="translate(812.548828 0)"/>
      <use xlink:href="#DejaVuSans-29" transform="translate(871.728516 0)"/>
     </g>
    </g>
   </g>
  </g>
  <g id="axes_2">
   <g id="patch_69">
    <path d="M 459.925 318.04 
L 845.298186 318.04 
L 845.298186 50.64 
L 459.925 50.64 
z
" style="fill: #ffffff"/>
   </g>
   <g id="patch_70">
    <path d="M 477.441963 318.04 
L 483.280951 318.04 
L 483.280951 74.180597 
L 477.441963 74.180597 
z
" clip-path="url(#pe23bbd6f13)" style="fill: #fa8072; opacity: 0.6"/>
   </g>
   <g id="patch_71">
    <path d="M 483.280951 318.04 
L 489.119938 318.04 
L 489.119938 98.192177 
L 483.280951 98.192177 
z
" clip-path="url(#pe23bbd6f13)" style="fill: #fa8072; opacity: 0.6"/>
   </g>
   <g id="patch_72">
    <path d="M 489.119938 318.04 
L 494.958926 318.04 
L 494.958926 116.988989 
L 489.119938 116.988989 
z
" clip-path="url(#pe23bbd6f13)" style="fill: #fa8072; opacity: 0.6"/>
   </g>
   <g id="patch_73">
    <path d="M 494.958926 318.04 
L 500.797914 318.04 
L 500.797914 136.53452 
L 494.958926 136.53452 
z
" clip-path="url(#pe23bbd6f13)" style="fill: #fa8072; opacity: 0.6"/>
   </g>
   <g id="patch_74">
    <path d="M 500.797914 318.04 
L 506.636901 318.04 
L 506.636901 153.334745 
L 500.797914 153.334745 
z
" clip-path="url(#pe23bbd6f13)" style="fill: #fa8072; opacity: 0.6"/>
   </g>
   <g id="patch_75">
    <path d="M 506.636901 318.04 
L 512.475889 318.04 
L 512.475889 168.085842 
L 506.636901 168.085842 
z
" clip-path="url(#pe23bbd6f13)" style="fill: #fa8072; opacity: 0.6"/>
   </g>
   <g id="patch_76">
    <path d="M 512.475889 318.04 
L 518.314877 318.04 
L 518.314877 179.57935 
L 512.475889 179.57935 
z
" clip-path="url(#pe23bbd6f13)" style="fill: #fa8072; opacity: 0.6"/>
   </g>
   <g id="patch_77">
    <path d="M 518.314877 318.04 
L 524.153864 318.04 
L 524.153864 194.868999 
L 518.314877 194.868999 
z
" clip-path="url(#pe23bbd6f13)" style="fill: #fa8072; opacity: 0.6"/>
   </g>
   <g id="patch_78">
    <path d="M 524.153864 318.04 
L 529.992852 318.04 
L 529.992852 205.101506 
L 524.153864 205.101506 
z
" clip-path="url(#pe23bbd6f13)" style="fill: #fa8072; opacity: 0.6"/>
   </g>
   <g id="patch_79">
    <path d="M 529.992852 318.04 
L 535.83184 318.04 
L 535.83184 216.713233 
L 529.992852 216.713233 
z
" clip-path="url(#pe23bbd6f13)" style="fill: #fa8072; opacity: 0.6"/>
   </g>
   <g id="patch_80">
    <path d="M 535.83184 318.04 
L 541.670827 318.04 
L 541.670827 225.343215 
L 535.83184 225.343215 
z
" clip-path="url(#pe23bbd6f13)" style="fill: #fa8072; opacity: 0.6"/>
   </g>
   <g id="patch_81">
    <path d="M 541.670827 318.04 
L 547.509815 318.04 
L 547.509815 233.040582 
L 541.670827 233.040582 
z
" clip-path="url(#pe23bbd6f13)" style="fill: #fa8072; opacity: 0.6"/>
   </g>
   <g id="patch_82">
    <path d="M 547.509815 318.04 
L 553.348803 318.04 
L 553.348803 243.089192 
L 547.509815 243.089192 
z
" clip-path="url(#pe23bbd6f13)" style="fill: #fa8072; opacity: 0.6"/>
   </g>
   <g id="patch_83">
    <path d="M 553.348803 318.04 
L 559.18779 318.04 
L 559.18779 249.02641 
L 553.348803 249.02641 
z
" clip-path="url(#pe23bbd6f13)" style="fill: #fa8072; opacity: 0.6"/>
   </g>
   <g id="patch_84">
    <path d="M 559.18779 318.04 
L 565.026778 318.04 
L 565.026778 255.725483 
L 559.18779 255.725483 
z
" clip-path="url(#pe23bbd6f13)" style="fill: #fa8072; opacity: 0.6"/>
   </g>
   <g id="patch_85">
    <path d="M 565.026778 318.04 
L 570.865766 318.04 
L 570.865766 263.265224 
L 565.026778 263.265224 
z
" clip-path="url(#pe23bbd6f13)" style="fill: #fa8072; opacity: 0.6"/>
   </g>
   <g id="patch_86">
    <path d="M 570.865766 318.04 
L 576.704753 318.04 
L 576.704753 267.586783 
L 570.865766 267.586783 
z
" clip-path="url(#pe23bbd6f13)" style="fill: #fa8072; opacity: 0.6"/>
   </g>
   <g id="patch_87">
    <path d="M 576.704753 318.04 
L 582.543741 318.04 
L 582.543741 271.606227 
L 576.704753 271.606227 
z
" clip-path="url(#pe23bbd6f13)" style="fill: #fa8072; opacity: 0.6"/>
   </g>
   <g id="patch_88">
    <path d="M 582.543741 318.04 
L 588.382729 318.04 
L 588.382729 275.520588 
L 582.543741 275.520588 
z
" clip-path="url(#pe23bbd6f13)" style="fill: #fa8072; opacity: 0.6"/>
   </g>
   <g id="patch_89">
    <path d="M 588.382729 318.04 
L 594.221716 318.04 
L 594.221716 280.131126 
L 588.382729 280.131126 
z
" clip-path="url(#pe23bbd6f13)" style="fill: #fa8072; opacity: 0.6"/>
   </g>
   <g id="patch_90">
    <path d="M 594.221716 318.04 
L 600.060704 318.04 
L 600.060704 283.112871 
L 594.221716 283.112871 
z
" clip-path="url(#pe23bbd6f13)" style="fill: #fa8072; opacity: 0.6"/>
   </g>
   <g id="patch_91">
    <path d="M 600.060704 318.04 
L 605.899692 318.04 
L 605.899692 287.171721 
L 600.060704 287.171721 
z
" clip-path="url(#pe23bbd6f13)" style="fill: #fa8072; opacity: 0.6"/>
   </g>
   <g id="patch_92">
    <path d="M 605.899692 318.04 
L 611.738679 318.04 
L 611.738679 287.972983 
L 605.899692 287.972983 
z
" clip-path="url(#pe23bbd6f13)" style="fill: #fa8072; opacity: 0.6"/>
   </g>
   <g id="patch_93">
    <path d="M 611.738679 318.04 
L 617.577667 318.04 
L 617.577667 292.478438 
L 611.738679 292.478438 
z
" clip-path="url(#pe23bbd6f13)" style="fill: #fa8072; opacity: 0.6"/>
   </g>
   <g id="patch_94">
    <path d="M 617.577667 318.04 
L 623.416654 318.04 
L 623.416654 293.542408 
L 617.577667 293.542408 
z
" clip-path="url(#pe23bbd6f13)" style="fill: #fa8072; opacity: 0.6"/>
   </g>
   <g id="patch_95">
    <path d="M 623.416654 318.04 
L 629.255642 318.04 
L 629.255642 296.944487 
L 623.416654 296.944487 
z
" clip-path="url(#pe23bbd6f13)" style="fill: #fa8072; opacity: 0.6"/>
   </g>
   <g id="patch_96">
    <path d="M 629.255642 318.04 
L 635.09463 318.04 
L 635.09463 298.875396 
L 629.255642 298.875396 
z
" clip-path="url(#pe23bbd6f13)" style="fill: #fa8072; opacity: 0.6"/>
   </g>
   <g id="patch_97">
    <path d="M 635.09463 318.04 
L 640.933617 318.04 
L 640.933617 300.18894 
L 635.09463 300.18894 
z
" clip-path="url(#pe23bbd6f13)" style="fill: #fa8072; opacity: 0.6"/>
   </g>
   <g id="patch_98">
    <path d="M 640.933617 318.04 
L 646.772605 318.04 
L 646.772605 302.632131 
L 640.933617 302.632131 
z
" clip-path="url(#pe23bbd6f13)" style="fill: #fa8072; opacity: 0.6"/>
   </g>
   <g id="patch_99">
    <path d="M 646.772605 318.04 
L 652.611593 318.04 
L 652.611593 303.131278 
L 646.772605 303.131278 
z
" clip-path="url(#pe23bbd6f13)" style="fill: #fa8072; opacity: 0.6"/>
   </g>
   <g id="patch_100">
    <path d="M 652.611593 318.04 
L 658.45058 318.04 
L 658.45058 305.718959 
L 652.611593 305.718959 
z
" clip-path="url(#pe23bbd6f13)" style="fill: #fa8072; opacity: 0.6"/>
   </g>
   <g id="patch_101">
    <path d="M 658.45058 318.04 
L 664.289568 318.04 
L 664.289568 305.390573 
L 658.45058 305.390573 
z
" clip-path="url(#pe23bbd6f13)" style="fill: #fa8072; opacity: 0.6"/>
   </g>
   <g id="patch_102">
    <path d="M 664.289568 318.04 
L 670.128556 318.04 
L 670.128556 307.124451 
L 664.289568 307.124451 
z
" clip-path="url(#pe23bbd6f13)" style="fill: #fa8072; opacity: 0.6"/>
   </g>
   <g id="patch_103">
    <path d="M 670.128556 318.04 
L 675.967543 318.04 
L 675.967543 308.057067 
L 670.128556 308.057067 
z
" clip-path="url(#pe23bbd6f13)" style="fill: #fa8072; opacity: 0.6"/>
   </g>
   <g id="patch_104">
    <path d="M 675.967543 318.04 
L 681.806531 318.04 
L 681.806531 309.817216 
L 675.967543 309.817216 
z
" clip-path="url(#pe23bbd6f13)" style="fill: #fa8072; opacity: 0.6"/>
   </g>
   <g id="patch_105">
    <path d="M 681.806531 318.04 
L 687.645519 318.04 
L 687.645519 310.644749 
L 681.806531 310.644749 
z
" clip-path="url(#pe23bbd6f13)" style="fill: #fa8072; opacity: 0.6"/>
   </g>
   <g id="patch_106">
    <path d="M 687.645519 318.04 
L 693.484506 318.04 
L 693.484506 310.973134 
L 687.645519 310.973134 
z
" clip-path="url(#pe23bbd6f13)" style="fill: #fa8072; opacity: 0.6"/>
   </g>
   <g id="patch_107">
    <path d="M 693.484506 318.04 
L 699.323494 318.04 
L 699.323494 311.537958 
L 693.484506 311.537958 
z
" clip-path="url(#pe23bbd6f13)" style="fill: #fa8072; opacity: 0.6"/>
   </g>
   <g id="patch_108">
    <path d="M 699.323494 318.04 
L 705.162482 318.04 
L 705.162482 311.603635 
L 699.323494 311.603635 
z
" clip-path="url(#pe23bbd6f13)" style="fill: #fa8072; opacity: 0.6"/>
   </g>
   <g id="patch_109">
    <path d="M 705.162482 318.04 
L 711.001469 318.04 
L 711.001469 312.536252 
L 705.162482 312.536252 
z
" clip-path="url(#pe23bbd6f13)" style="fill: #fa8072; opacity: 0.6"/>
   </g>
   <g id="patch_110">
    <path d="M 711.001469 318.04 
L 716.840457 318.04 
L 716.840457 313.127346 
L 711.001469 313.127346 
z
" clip-path="url(#pe23bbd6f13)" style="fill: #fa8072; opacity: 0.6"/>
   </g>
   <g id="patch_111">
    <path d="M 716.840457 318.04 
L 722.679445 318.04 
L 722.679445 313.508274 
L 716.840457 313.508274 
z
" clip-path="url(#pe23bbd6f13)" style="fill: #fa8072; opacity: 0.6"/>
   </g>
   <g id="patch_112">
    <path d="M 722.679445 318.04 
L 728.518432 318.04 
L 728.518432 314.086233 
L 722.679445 314.086233 
z
" clip-path="url(#pe23bbd6f13)" style="fill: #fa8072; opacity: 0.6"/>
   </g>
   <g id="patch_113">
    <path d="M 728.518432 318.04 
L 734.35742 318.04 
L 734.35742 314.020556 
L 728.518432 314.020556 
z
" clip-path="url(#pe23bbd6f13)" style="fill: #fa8072; opacity: 0.6"/>
   </g>
   <g id="patch_114">
    <path d="M 734.35742 318.04 
L 740.196408 318.04 
L 740.196408 314.861224 
L 734.35742 314.861224 
z
" clip-path="url(#pe23bbd6f13)" style="fill: #fa8072; opacity: 0.6"/>
   </g>
   <g id="patch_115">
    <path d="M 740.196408 318.04 
L 746.035395 318.04 
L 746.035395 314.926901 
L 740.196408 314.926901 
z
" clip-path="url(#pe23bbd6f13)" style="fill: #fa8072; opacity: 0.6"/>
   </g>
   <g id="patch_116">
    <path d="M 746.035395 318.04 
L 751.874383 318.04 
L 751.874383 315.268423 
L 746.035395 315.268423 
z
" clip-path="url(#pe23bbd6f13)" style="fill: #fa8072; opacity: 0.6"/>
   </g>
   <g id="patch_117">
    <path d="M 751.874383 318.04 
L 757.713371 318.04 
L 757.713371 315.623079 
L 751.874383 315.623079 
z
" clip-path="url(#pe23bbd6f13)" style="fill: #fa8072; opacity: 0.6"/>
   </g>
   <g id="patch_118">
    <path d="M 757.713371 318.04 
L 763.552358 318.04 
L 763.552358 315.544267 
L 757.713371 315.544267 
z
" clip-path="url(#pe23bbd6f13)" style="fill: #fa8072; opacity: 0.6"/>
   </g>
   <g id="patch_119">
    <path d="M 763.552358 318.04 
L 769.391346 318.04 
L 769.391346 316.056549 
L 763.552358 316.056549 
z
" clip-path="url(#pe23bbd6f13)" style="fill: #fa8072; opacity: 0.6"/>
   </g>
   <g id="patch_120">
    <path d="M 769.391346 318.04 
L 775.230334 318.04 
L 775.230334 316.306122 
L 769.391346 316.306122 
z
" clip-path="url(#pe23bbd6f13)" style="fill: #fa8072; opacity: 0.6"/>
   </g>
   <g id="patch_121">
    <path d="M 775.230334 318.04 
L 781.069321 318.04 
L 781.069321 316.345529 
L 775.230334 316.345529 
z
" clip-path="url(#pe23bbd6f13)" style="fill: #fa8072; opacity: 0.6"/>
   </g>
   <g id="patch_122">
    <path d="M 781.069321 318.04 
L 786.908309 318.04 
L 786.908309 316.673914 
L 781.069321 316.673914 
z
" clip-path="url(#pe23bbd6f13)" style="fill: #fa8072; opacity: 0.6"/>
   </g>
   <g id="patch_123">
    <path d="M 786.908309 318.04 
L 792.747297 318.04 
L 792.747297 316.581966 
L 786.908309 316.581966 
z
" clip-path="url(#pe23bbd6f13)" style="fill: #fa8072; opacity: 0.6"/>
   </g>
   <g id="patch_124">
    <path d="M 792.747297 318.04 
L 798.586284 318.04 
L 798.586284 316.726456 
L 792.747297 316.726456 
z
" clip-path="url(#pe23bbd6f13)" style="fill: #fa8072; opacity: 0.6"/>
   </g>
   <g id="patch_125">
    <path d="M 798.586284 318.04 
L 804.425272 318.04 
L 804.425272 316.989165 
L 798.586284 316.989165 
z
" clip-path="url(#pe23bbd6f13)" style="fill: #fa8072; opacity: 0.6"/>
   </g>
   <g id="patch_126">
    <path d="M 804.425272 318.04 
L 810.26426 318.04 
L 810.26426 316.936623 
L 804.425272 316.936623 
z
" clip-path="url(#pe23bbd6f13)" style="fill: #fa8072; opacity: 0.6"/>
   </g>
   <g id="patch_127">
    <path d="M 810.26426 318.04 
L 816.103247 318.04 
L 816.103247 317.278145 
L 810.26426 317.278145 
z
" clip-path="url(#pe23bbd6f13)" style="fill: #fa8072; opacity: 0.6"/>
   </g>
   <g id="patch_128">
    <path d="M 816.103247 318.04 
L 821.942235 318.04 
L 821.942235 317.251874 
L 816.103247 317.251874 
z
" clip-path="url(#pe23bbd6f13)" style="fill: #fa8072; opacity: 0.6"/>
   </g>
   <g id="patch_129">
    <path d="M 821.942235 318.04 
L 827.781223 318.04 
L 827.781223 317.225603 
L 821.942235 317.225603 
z
" clip-path="url(#pe23bbd6f13)" style="fill: #fa8072; opacity: 0.6"/>
   </g>
   <g id="matplotlib.axis_3">
    <g id="xtick_8">
     <g id="line2d_29">
      <path d="M 477.441963 318.04 
L 477.441963 50.64 
" clip-path="url(#pe23bbd6f13)" style="fill: none; stroke: #b0b0b0; stroke-opacity: 0.3; stroke-width: 0.8; stroke-linecap: square"/>
     </g>
     <g id="line2d_30">
      <g>
       <use xlink:href="#m9e59d3d437" x="477.441963" y="318.04" style="stroke: #000000; stroke-width: 0.8"/>
      </g>
     </g>
     <g id="text_19">
      <!-- 0.0 -->
      <g transform="translate(469.4904 332.638438) scale(0.1 -0.1)">
       <use xlink:href="#DejaVuSans-30"/>
       <use xlink:href="#DejaVuSans-2e" transform="translate(63.623047 0)"/>
       <use xlink:href="#DejaVuSans-30" transform="translate(95.410156 0)"/>
      </g>
     </g>
    </g>
    <g id="xtick_9">
     <g id="line2d_31">
      <path d="M 538.747496 318.04 
L 538.747496 50.64 
" clip-path="url(#pe23bbd6f13)" style="fill: none; stroke: #b0b0b0; stroke-opacity: 0.3; stroke-width: 0.8; stroke-linecap: square"/>
     </g>
     <g id="line2d_32">
      <g>
       <use xlink:href="#m9e59d3d437" x="538.747496" y="318.04" style="stroke: #000000; stroke-width: 0.8"/>
      </g>
     </g>
     <g id="text_20">
      <!-- 0.2 -->
      <g transform="translate(530.795933 332.638438) scale(0.1 -0.1)">
       <use xlink:href="#DejaVuSans-30"/>
       <use xlink:href="#DejaVuSans-2e" transform="translate(63.623047 0)"/>
       <use xlink:href="#DejaVuSans-32" transform="translate(95.410156 0)"/>
      </g>
     </g>
    </g>
    <g id="xtick_10">
     <g id="line2d_33">
      <path d="M 600.053029 318.04 
L 600.053029 50.64 
" clip-path="url(#pe23bbd6f13)" style="fill: none; stroke: #b0b0b0; stroke-opacity: 0.3; stroke-width: 0.8; stroke-linecap: square"/>
     </g>
     <g id="line2d_34">
      <g>
       <use xlink:href="#m9e59d3d437" x="600.053029" y="318.04" style="stroke: #000000; stroke-width: 0.8"/>
      </g>
     </g>
     <g id="text_21">
      <!-- 0.4 -->
      <g transform="translate(592.101466 332.638438) scale(0.1 -0.1)">
       <use xlink:href="#DejaVuSans-30"/>
       <use xlink:href="#DejaVuSans-2e" transform="translate(63.623047 0)"/>
       <use xlink:href="#DejaVuSans-34" transform="translate(95.410156 0)"/>
      </g>
     </g>
    </g>
    <g id="xtick_11">
     <g id="line2d_35">
      <path d="M 661.358561 318.04 
L 661.358561 50.64 
" clip-path="url(#pe23bbd6f13)" style="fill: none; stroke: #b0b0b0; stroke-opacity: 0.3; stroke-width: 0.8; stroke-linecap: square"/>
     </g>
     <g id="line2d_36">
      <g>
       <use xlink:href="#m9e59d3d437" x="661.358561" y="318.04" style="stroke: #000000; stroke-width: 0.8"/>
      </g>
     </g>
     <g id="text_22">
      <!-- 0.6 -->
      <g transform="translate(653.406999 332.638438) scale(0.1 -0.1)">
       <use xlink:href="#DejaVuSans-30"/>
       <use xlink:href="#DejaVuSans-2e" transform="translate(63.623047 0)"/>
       <use xlink:href="#DejaVuSans-36" transform="translate(95.410156 0)"/>
      </g>
     </g>
    </g>
    <g id="xtick_12">
     <g id="line2d_37">
      <path d="M 722.664094 318.04 
L 722.664094 50.64 
" clip-path="url(#pe23bbd6f13)" style="fill: none; stroke: #b0b0b0; stroke-opacity: 0.3; stroke-width: 0.8; stroke-linecap: square"/>
     </g>
     <g id="line2d_38">
      <g>
       <use xlink:href="#m9e59d3d437" x="722.664094" y="318.04" style="stroke: #000000; stroke-width: 0.8"/>
      </g>
     </g>
     <g id="text_23">
      <!-- 0.8 -->
      <g transform="translate(714.712532 332.638438) scale(0.1 -0.1)">
       <use xlink:href="#DejaVuSans-30"/>
       <use xlink:href="#DejaVuSans-2e" transform="translate(63.623047 0)"/>
       <use xlink:href="#DejaVuSans-38" transform="translate(95.410156 0)"/>
      </g>
     </g>
    </g>
    <g id="xtick_13">
     <g id="line2d_39">
      <path d="M 783.969627 318.04 
L 783.969627 50.64 
" clip-path="url(#pe23bbd6f13)" style="fill: none; stroke: #b0b0b0; stroke-opacity: 0.3; stroke-width: 0.8; stroke-linecap: square"/>
     </g>
     <g id="line2d_40">
      <g>
       <use xlink:href="#m9e59d3d437" x="783.969627" y="318.04" style="stroke: #000000; stroke-width: 0.8"/>
      </g>
     </g>
     <g id="text_24">
      <!-- 1.0 -->
      <g transform="translate(776.018064 332.638438) scale(0.1 -0.1)">
       <use xlink:href="#DejaVuSans-31"/>
       <use xlink:href="#DejaVuSans-2e" transform="translate(63.623047 0)"/>
       <use xlink:href="#DejaVuSans-30" transform="translate(95.410156 0)"/>
      </g>
     </g>
    </g>
    <g id="xtick_14">
     <g id="line2d_41">
      <path d="M 845.27516 318.04 
L 845.27516 50.64 
" clip-path="url(#pe23bbd6f13)" style="fill: none; stroke: #b0b0b0; stroke-opacity: 0.3; stroke-width: 0.8; stroke-linecap: square"/>
     </g>
     <g id="line2d_42">
      <g>
       <use xlink:href="#m9e59d3d437" x="845.27516" y="318.04" style="stroke: #000000; stroke-width: 0.8"/>
      </g>
     </g>
     <g id="text_25">
      <!-- 1.2 -->
      <g transform="translate(837.323597 332.638438) scale(0.1 -0.1)">
       <use xlink:href="#DejaVuSans-31"/>
       <use xlink:href="#DejaVuSans-2e" transform="translate(63.623047 0)"/>
       <use xlink:href="#DejaVuSans-32" transform="translate(95.410156 0)"/>
      </g>
     </g>
    </g>
    <g id="text_26">
     <!-- Days between accidents -->
     <g transform="translate(591.39753 346.316563) scale(0.1 -0.1)">
      <use xlink:href="#DejaVuSans-44"/>
      <use xlink:href="#DejaVuSans-61" transform="translate(77.001953 0)"/>
      <use xlink:href="#DejaVuSans-79" transform="translate(138.28125 0)"/>
      <use xlink:href="#DejaVuSans-73" transform="translate(197.460938 0)"/>
      <use xlink:href="#DejaVuSans-20" transform="translate(249.560547 0)"/>
      <use xlink:href="#DejaVuSans-62" transform="translate(281.347656 0)"/>
      <use xlink:href="#DejaVuSans-65" transform="translate(344.824219 0)"/>
      <use xlink:href="#DejaVuSans-74" transform="translate(406.347656 0)"/>
      <use xlink:href="#DejaVuSans-77" transform="translate(445.556641 0)"/>
      <use xlink:href="#DejaVuSans-65" transform="translate(527.34375 0)"/>
      <use xlink:href="#DejaVuSans-65" transform="translate(588.867188 0)"/>
      <use xlink:href="#DejaVuSans-6e" transform="translate(650.390625 0)"/>
      <use xlink:href="#DejaVuSans-20" transform="translate(713.769531 0)"/>
      <use xlink:href="#DejaVuSans-61" transform="translate(745.556641 0)"/>
      <use xlink:href="#DejaVuSans-63" transform="translate(806.835938 0)"/>
      <use xlink:href="#DejaVuSans-63" transform="translate(861.816406 0)"/>
      <use xlink:href="#DejaVuSans-69" transform="translate(916.796875 0)"/>
      <use xlink:href="#DejaVuSans-64" transform="translate(944.580078 0)"/>
      <use xlink:href="#DejaVuSans-65" transform="translate(1008.056641 0)"/>
      <use xlink:href="#DejaVuSans-6e" transform="translate(1069.580078 0)"/>
      <use xlink:href="#DejaVuSans-74" transform="translate(1132.958984 0)"/>
      <use xlink:href="#DejaVuSans-73" transform="translate(1172.167969 0)"/>
     </g>
    </g>
   </g>
   <g id="matplotlib.axis_4">
    <g id="ytick_7">
     <g id="line2d_43">
      <path d="M 459.925 318.04 
L 845.298186 318.04 
" clip-path="url(#pe23bbd6f13)" style="fill: none; stroke: #b0b0b0; stroke-opacity: 0.3; stroke-width: 0.8; stroke-linecap: square"/>
     </g>
     <g id="line2d_44">
      <g>
       <use xlink:href="#m91ae483c58" x="459.925" y="318.04" style="stroke: #000000; stroke-width: 0.8"/>
      </g>
     </g>
    </g>
    <g id="ytick_8">
     <g id="line2d_45">
      <path d="M 459.925 268.137975 
L 845.298186 268.137975 
" clip-path="url(#pe23bbd6f13)" style="fill: none; stroke: #b0b0b0; stroke-opacity: 0.3; stroke-width: 0.8; stroke-linecap: square"/>
     </g>
     <g id="line2d_46">
      <g>
       <use xlink:href="#m91ae483c58" x="459.925" y="268.137975" style="stroke: #000000; stroke-width: 0.8"/>
      </g>
     </g>
    </g>
    <g id="ytick_9">
     <g id="line2d_47">
      <path d="M 459.925 218.23595 
L 845.298186 218.23595 
" clip-path="url(#pe23bbd6f13)" style="fill: none; stroke: #b0b0b0; stroke-opacity: 0.3; stroke-width: 0.8; stroke-linecap: square"/>
     </g>
     <g id="line2d_48">
      <g>
       <use xlink:href="#m91ae483c58" x="459.925" y="218.23595" style="stroke: #000000; stroke-width: 0.8"/>
      </g>
     </g>
    </g>
    <g id="ytick_10">
     <g id="line2d_49">
      <path d="M 459.925 168.333926 
L 845.298186 168.333926 
" clip-path="url(#pe23bbd6f13)" style="fill: none; stroke: #b0b0b0; stroke-opacity: 0.3; stroke-width: 0.8; stroke-linecap: square"/>
     </g>
     <g id="line2d_50">
      <g>
       <use xlink:href="#m91ae483c58" x="459.925" y="168.333926" style="stroke: #000000; stroke-width: 0.8"/>
      </g>
     </g>
    </g>
    <g id="ytick_11">
     <g id="line2d_51">
      <path d="M 459.925 118.431901 
L 845.298186 118.431901 
" clip-path="url(#pe23bbd6f13)" style="fill: none; stroke: #b0b0b0; stroke-opacity: 0.3; stroke-width: 0.8; stroke-linecap: square"/>
     </g>
     <g id="line2d_52">
      <g>
       <use xlink:href="#m91ae483c58" x="459.925" y="118.431901" style="stroke: #000000; stroke-width: 0.8"/>
      </g>
     </g>
    </g>
    <g id="ytick_12">
     <g id="line2d_53">
      <path d="M 459.925 68.529876 
L 845.298186 68.529876 
" clip-path="url(#pe23bbd6f13)" style="fill: none; stroke: #b0b0b0; stroke-opacity: 0.3; stroke-width: 0.8; stroke-linecap: square"/>
     </g>
     <g id="line2d_54">
      <g>
       <use xlink:href="#m91ae483c58" x="459.925" y="68.529876" style="stroke: #000000; stroke-width: 0.8"/>
      </g>
     </g>
    </g>
    <g id="text_27">
     <!-- Density -->
     <g transform="translate(450.345312 203.348594) rotate(-90) scale(0.1 -0.1)">
      <use xlink:href="#DejaVuSans-44"/>
      <use xlink:href="#DejaVuSans-65" transform="translate(77.001953 0)"/>
      <use xlink:href="#DejaVuSans-6e" transform="translate(138.525391 0)"/>
      <use xlink:href="#DejaVuSans-73" transform="translate(201.904297 0)"/>
      <use xlink:href="#DejaVuSans-69" transform="translate(254.003906 0)"/>
      <use xlink:href="#DejaVuSans-74" transform="translate(281.787109 0)"/>
      <use xlink:href="#DejaVuSans-79" transform="translate(320.996094 0)"/>
     </g>
    </g>
   </g>
   <g id="line2d_55">
    <path d="M 477.441963 63.373333 
L 480.952376 77.830574 
L 484.46279 91.467088 
L 487.973203 104.329466 
L 491.483617 116.461657 
L 494.99403 127.905113 
L 498.504444 138.698931 
L 502.014857 148.879993 
L 505.52527 158.483083 
L 509.035684 167.541012 
L 512.546097 176.08473 
L 516.758593 185.699415 
L 520.971089 194.662894 
L 525.183586 203.019273 
L 529.396082 210.809671 
L 533.608578 218.072422 
L 537.821074 224.843265 
L 542.03357 231.155515 
L 546.246066 237.040235 
L 550.458562 242.52638 
L 554.671058 247.640947 
L 558.883554 252.409102 
L 563.096051 256.854307 
L 567.308547 260.998438 
L 571.521043 264.861885 
L 576.435622 269.039777 
L 581.3502 272.889436 
L 586.264779 276.436651 
L 591.179358 279.705181 
L 596.093937 282.716923 
L 601.008515 285.492049 
L 606.625177 288.397669 
L 612.241838 291.043898 
L 617.8585 293.453893 
L 624.177244 295.908948 
L 630.495988 298.118852 
L 636.814732 300.108086 
L 643.835559 302.086259 
L 651.558469 304.011152 
L 659.281378 305.703798 
L 667.706371 307.318278 
L 676.833445 308.829755 
L 686.662603 310.220096 
L 697.193843 311.477713 
L 708.427166 312.597071 
L 721.064655 313.62981 
L 735.106308 314.549167 
L 751.25421 315.372088 
L 769.50836 316.071276 
L 791.272923 316.669699 
L 817.249982 317.150822 
L 827.781223 317.293822 
L 827.781223 317.293822 
" clip-path="url(#pe23bbd6f13)" style="fill: none; stroke-dasharray: 5.55,2.4; stroke-dashoffset: 0; stroke: #000000; stroke-width: 1.5"/>
   </g>
   <g id="patch_130">
    <path d="M 459.925 318.04 
L 459.925 50.64 
" style="fill: none; stroke: #000000; stroke-width: 0.8; stroke-linejoin: miter; stroke-linecap: square"/>
   </g>
   <g id="patch_131">
    <path d="M 845.298186 318.04 
L 845.298186 50.64 
" style="fill: none; stroke: #000000; stroke-width: 0.8; stroke-linejoin: miter; stroke-linecap: square"/>
   </g>
   <g id="patch_132">
    <path d="M 459.925 318.04 
L 845.298186 318.04 
" style="fill: none; stroke: #000000; stroke-width: 0.8; stroke-linejoin: miter; stroke-linecap: square"/>
   </g>
   <g id="patch_133">
    <path d="M 459.925 50.64 
L 845.298186 50.64 
" style="fill: none; stroke: #000000; stroke-width: 0.8; stroke-linejoin: miter; stroke-linecap: square"/>
   </g>
   <g id="text_28">
    <!-- September: mean interval 0.20 days -->
    <g transform="translate(542.489093 44.64) scale(0.12 -0.12)">
     <use xlink:href="#DejaVuSans-53"/>
     <use xlink:href="#DejaVuSans-65" transform="translate(63.476562 0)"/>
     <use xlink:href="#DejaVuSans-70" transform="translate(125 0)"/>
     <use xlink:href="#DejaVuSans-74" transform="translate(188.476562 0)"/>
     <use xlink:href="#DejaVuSans-65" transform="translate(227.685547 0)"/>
     <use xlink:href="#DejaVuSans-6d" transform="translate(289.208984 0)"/>
     <use xlink:href="#DejaVuSans-62" transform="translate(386.621094 0)"/>
     <use xlink:href="#DejaVuSans-65" transform="translate(450.097656 0)"/>
     <use xlink:href="#DejaVuSans-72" transform="translate(511.621094 0)"/>
     <use xlink:href="#DejaVuSans-3a" transform="translate(550.984375 0)"/>
     <use xlink:href="#DejaVuSans-20" transform="translate(584.675781 0)"/>
     <use xlink:href="#DejaVuSans-6d" transform="translate(616.462891 0)"/>
     <use xlink:href="#DejaVuSans-65" transform="translate(713.875 0)"/>
     <use xlink:href="#DejaVuSans-61" transform="translate(775.398438 0)"/>
     <use xlink:href="#DejaVuSans-6e" transform="translate(836.677734 0)"/>
     <use xlink:href="#DejaVuSans-20" transform="translate(900.056641 0)"/>
     <use xlink:href="#DejaVuSans-69" transform="translate(931.84375 0)"/>
     <use xlink:href="#DejaVuSans-6e" transform="translate(959.626953 0)"/>
     <use xlink:href="#DejaVuSans-74" transform="translate(1023.005859 0)"/>
     <use xlink:href="#DejaVuSans-65" transform="translate(1062.214844 0)"/>
     <use xlink:href="#DejaVuSans-72" transform="translate(1123.738281 0)"/>
     <use xlink:href="#DejaVuSans-76" transform="translate(1164.851562 0)"/>
     <use xlink:href="#DejaVuSans-61" transform="translate(1224.03125 0)"/>
     <use xlink:href="#DejaVuSans-6c" transform="translate(1285.310547 0)"/>
     <use xlink:href="#DejaVuSans-20" transform="translate(1313.09375 0)"/>
     <use xlink:href="#DejaVuSans-30" transform="translate(1344.880859 0)"/>
     <use xlink:href="#DejaVuSans-2e" transform="translate(1408.503906 0)"/>
     <use xlink:href="#DejaVuSans-32" transform="translate(1440.291016 0)"/>
     <use xlink:href="#DejaVuSans-30" transform="translate(1503.914062 0)"/>
     <use xlink:href="#DejaVuSans-20" transform="translate(1567.537109 0)"/>
     <use xlink:href="#DejaVuSans-64" transform="translate(1599.324219 0)"/>
     <use xlink:href="#DejaVuSans-61" transform="translate(1662.800781 0)"/>
     <use xlink:href="#DejaVuSans-79" transform="translate(1724.080078 0)"/>
     <use xlink:href="#DejaVuSans-73" transform="translate(1783.259766 0)"/>
    </g>
   </g>
   <g id="legend_2">
    <g id="patch_134">
     <path d="M 715.218498 87.99625 
L 838.298186 87.99625 
Q 840.298186 87.99625 840.298186 85.99625 
L 840.298186 57.64 
Q 840.298186 55.64 838.298186 55.64 
L 715.218498 55.64 
Q 713.218498 55.64 713.218498 57.64 
L 713.218498 85.99625 
Q 713.218498 87.99625 715.218498 87.99625 
z
" style="fill: #ffffff; opacity: 0.8; stroke: #cccccc; stroke-linejoin: miter"/>
    </g>
    <g id="patch_135">
     <path d="M 717.218498 67.238437 
L 737.218498 67.238437 
L 737.218498 60.238437 
L 717.218498 60.238437 
z
" style="fill: #fa8072; opacity: 0.6"/>
    </g>
    <g id="text_29">
     <!-- Simulated -->
     <g transform="translate(745.218498 67.238437) scale(0.1 -0.1)">
      <use xlink:href="#DejaVuSans-53"/>
      <use xlink:href="#DejaVuSans-69" transform="translate(63.476562 0)"/>
      <use xlink:href="#DejaVuSans-6d" transform="translate(91.259766 0)"/>
      <use xlink:href="#DejaVuSans-75" transform="translate(188.671875 0)"/>
      <use xlink:href="#DejaVuSans-6c" transform="translate(252.050781 0)"/>
      <use xlink:href="#DejaVuSans-61" transform="translate(279.833984 0)"/>
      <use xlink:href="#DejaVuSans-74" transform="translate(341.113281 0)"/>
      <use xlink:href="#DejaVuSans-65" transform="translate(380.322266 0)"/>
      <use xlink:href="#DejaVuSans-64" transform="translate(441.845703 0)"/>
     </g>
    </g>
    <g id="line2d_56">
     <path d="M 717.218498 78.416562 
L 727.218498 78.416562 
L 737.218498 78.416562 
" style="fill: none; stroke-dasharray: 5.55,2.4; stroke-dashoffset: 0; stroke: #000000; stroke-width: 1.5"/>
    </g>
    <g id="text_30">
     <!-- Exp(λ=5.103/day) -->
     <g transform="translate(745.218498 81.916562) scale(0.1 -0.1)">
      <use xlink:href="#DejaVuSans-45"/>
      <use xlink:href="#DejaVuSans-78" transform="translate(63.183594 0)"/>
      <use xlink:href="#DejaVuSans-70" transform="translate(122.363281 0)"/>
      <use xlink:href="#DejaVuSans-28" transform="translate(185.839844 0)"/>
      <use xlink:href="#DejaVuSans-3bb" transform="translate(224.853516 0)"/>
      <use xlink:href="#DejaVuSans-3d" transform="translate(284.033203 0)"/>
      <use xlink:href="#DejaVuSans-35" transform="translate(367.822266 0)"/>
      <use xlink:href="#DejaVuSans-2e" transform="translate(431.445312 0)"/>
      <use xlink:href="#DejaVuSans-31" transform="translate(463.232422 0)"/>
      <use xlink:href="#DejaVuSans-30" transform="translate(526.855469 0)"/>
      <use xlink:href="#DejaVuSans-33" transform="translate(590.478516 0)"/>
      <use xlink:href="#DejaVuSans-2f" transform="translate(654.101562 0)"/>
      <use xlink:href="#DejaVuSans-64" transform="translate(687.792969 0)"/>
      <use xlink:href="#DejaVuSans-61" transform="translate(751.269531 0)"/>
      <use xlink:href="#DejaVuSans-79" transform="translate(812.548828 0)"/>
      <use xlink:href="#DejaVuSans-29" transform="translate(871.728516 0)"/>
     </g>
    </g>
   </g>
  </g>
  <g id="text_31">
   <!-- Interarrival Distributions (Empirical vs Theoretical Exponential) -->
   <g transform="translate(242.942813 16.318125) scale(0.12 -0.12)">
    <defs>
     <path id="DejaVuSans-49" d="M 628 4666 
L 1259 4666 
L 1259 0 
L 628 0 
L 628 4666 
z
" transform="scale(0.015625)"/>
     <path id="DejaVuSans-6f" d="M 1959 3097 
Q 1497 3097 1228 2736 
Q 959 2375 959 1747 
Q 959 1119 1226 758 
Q 1494 397 1959 397 
Q 2419 397 2687 759 
Q 2956 1122 2956 1747 
Q 2956 2369 2687 2733 
Q 2419 3097 1959 3097 
z
M 1959 3584 
Q 2709 3584 3137 3096 
Q 3566 2609 3566 1747 
Q 3566 888 3137 398 
Q 2709 -91 1959 -91 
Q 1206 -91 779 398 
Q 353 888 353 1747 
Q 353 2609 779 3096 
Q 1206 3584 1959 3584 
z
" transform="scale(0.015625)"/>
     <path id="DejaVuSans-54" d="M -19 4666 
L 3928 4666 
L 3928 4134 
L 2272 4134 
L 2272 0 
L 1638 0 
L 1638 4134 
L -19 4134 
L -19 4666 
z
" transform="scale(0.015625)"/>
     <path id="DejaVuSans-68" d="M 3513 2113 
L 3513 0 
L 2938 0 
L 2938 2094 
Q 2938 2591 2744 2837 
Q 2550 3084 2163 3084 
Q 1697 3084 1428 2787 
Q 1159 2491 1159 1978 
L 1159 0 
L 581 0 
L 581 4863 
L 1159 4863 
L 1159 2956 
Q 1366 3272 1645 3428 
Q 1925 3584 2291 3584 
Q 2894 3584 3203 3211 
Q 3513 2838 3513 2113 
z
" transform="scale(0.015625)"/>
    </defs>
    <use xlink:href="#DejaVuSans-49"/>
    <use xlink:href="#DejaVuSans-6e" transform="translate(29.492188 0)"/>
    <use xlink:href="#DejaVuSans-74" transform="translate(92.871094 0)"/>
    <use xlink:href="#DejaVuSans-65" transform="translate(132.080078 0)"/>
    <use xlink:href="#DejaVuSans-72" transform="translate(193.603516 0)"/>
    <use xlink:href="#DejaVuSans-61" transform="translate(234.716797 0)"/>
    <use xlink:href="#DejaVuSans-72" transform="translate(295.996094 0)"/>
    <use xlink:href="#DejaVuSans-72" transform="translate(335.359375 0)"/>
    <use xlink:href="#DejaVuSans-69" transform="translate(376.472656 0)"/>
    <use xlink:href="#DejaVuSans-76" transform="translate(404.255859 0)"/>
    <use xlink:href="#DejaVuSans-61" transform="translate(463.435547 0)"/>
    <use xlink:href="#DejaVuSans-6c" transform="translate(524.714844 0)"/>
    <use xlink:href="#DejaVuSans-20" transform="translate(552.498047 0)"/>
    <use xlink:href="#DejaVuSans-44" transform="translate(584.285156 0)"/>
    <use xlink:href="#DejaVuSans-69" transform="translate(661.287109 0)"/>
    <use xlink:href="#DejaVuSans-73" transform="translate(689.070312 0)"/>
    <use xlink:href="#DejaVuSans-74" transform="translate(741.169922 0)"/>
    <use xlink:href="#DejaVuSans-72" transform="translate(780.378906 0)"/>
    <use xlink:href="#DejaVuSans-69" transform="translate(821.492188 0)"/>
    <use xlink:href="#DejaVuSans-62" transform="translate(849.275391 0)"/>
    <use xlink:href="#DejaVuSans-75" transform="translate(912.751953 0)"/>
    <use xlink:href="#DejaVuSans-74" transform="translate(976.130859 0)"/>
    <use xlink:href="#DejaVuSans-69" transform="translate(1015.339844 0)"/>
    <use xlink:href="#DejaVuSans-6f" transform="translate(1043.123047 0)"/>
    <use xlink:href="#DejaVuSans-6e" transform="translate(1104.304688 0)"/>
    <use xlink:href="#DejaVuSans-73" transform="translate(1167.683594 0)"/>
    <use xlink:href="#DejaVuSans-20" transform="translate(1219.783203 0)"/>
    <use xlink:href="#DejaVuSans-28" transform="translate(1251.570312 0)"/>
    <use xlink:href="#DejaVuSans-45" transform="translate(1290.583984 0)"/>
    <use xlink:href="#DejaVuSans-6d" transform="translate(1353.767578 0)"/>
    <use xlink:href="#DejaVuSans-70" transform="translate(1451.179688 0)"/>
    <use xlink:href="#DejaVuSans-69" transform="translate(1514.65625 0)"/>
    <use xlink:href="#DejaVuSans-72" transform="translate(1542.439453 0)"/>
    <use xlink:href="#DejaVuSans-69" transform="translate(1583.552734 0)"/>
    <use xlink:href="#DejaVuSans-63" transform="translate(1611.335938 0)"/>
    <use xlink:href="#DejaVuSans-61" transform="translate(1666.316406 0)"/>
    <use xlink:href="#DejaVuSans-6c" transform="translate(1727.595703 0)"/>
    <use xlink:href="#DejaVuSans-20" transform="translate(1755.378906 0)"/>
    <use xlink:href="#DejaVuSans-76" transform="translate(1787.166016 0)"/>
    <use xlink:href="#DejaVuSans-73" transform="translate(1846.345703 0)"/>
    <use xlink:href="#DejaVuSans-20" transform="translate(1898.445312 0)"/>
    <use xlink:href="#DejaVuSans-54" transform="translate(1930.232422 0)"/>
    <use xlink:href="#DejaVuSans-68" transform="translate(1991.316406 0)"/>
    <use xlink:href="#DejaVuSans-65" transform="translate(2054.695312 0)"/>
    <use xlink:href="#DejaVuSans-6f" transform="translate(2116.21875 0)"/>
    <use xlink:href="#DejaVuSans-72" transform="translate(2177.400391 0)"/>
    <use xlink:href="#DejaVuSans-65" transform="translate(2216.263672 0)"/>
    <use xlink:href="#DejaVuSans-74" transform="translate(2277.787109 0)"/>
    <use xlink:href="#DejaVuSans-69" transform="translate(2316.996094 0)"/>
    <use xlink:href="#DejaVuSans-63" transform="translate(2344.779297 0)"/>
    <use xlink:href="#DejaVuSans-61" transform="translate(2399.759766 0)"/>
    <use xlink:href="#DejaVuSans-6c" transform="translate(2461.039062 0)"/>
    <use xlink:href="#DejaVuSans-20" transform="translate(2488.822266 0)"/>
    <use xlink:href="#DejaVuSans-45" transform="translate(2520.609375 0)"/>
    <use xlink:href="#DejaVuSans-78" transform="translate(2583.792969 0)"/>
    <use xlink:href="#DejaVuSans-70" transform="translate(2642.972656 0)"/>
    <use xlink:href="#DejaVuSans-6f" transform="translate(2706.449219 0)"/>
    <use xlink:href="#DejaVuSans-6e" transform="translate(2767.630859 0)"/>
    <use xlink:href="#DejaVuSans-65" transform="translate(2831.009766 0)"/>
    <use xlink:href="#DejaVuSans-6e" transform="translate(2892.533203 0)"/>
    <use xlink:href="#DejaVuSans-74" transform="translate(2955.912109 0)"/>
    <use xlink:href="#DejaVuSans-69" transform="translate(2995.121094 0)"/>
    <use xlink:href="#DejaVuSans-61" transform="translate(3022.904297 0)"/>
    <use xlink:href="#DejaVuSans-6c" transform="translate(3084.183594 0)"/>
    <use xlink:href="#DejaVuSans-29" transform="translate(3111.966797 0)"/>
   </g>
  </g>
 </g>
 <defs>
  <clipPath id="pbcee446084">
   <rect x="38.27" y="50.64" width="385.373186" height="267.4"/>
  </clipPath>
  <clipPath id="pe23bbd6f13">
   <rect x="459.925" y="50.64" width="385.373186" height="267.4"/>
  </clipPath>
 </defs>
</svg>
