<?xml version="1.0" encoding="utf-8" standalone="no"?>
<!DOCTYPE svg PUBLIC "-//W3C//DTD SVG 1.1//EN"
  "http://www.w3.org/Graphics/SVG/1.1/DTD/svg11.dtd">
<svg xmlns:xlink="http://www.w3.org/1999/xlink" width="441.58125pt" height="337.074375pt" viewBox="0 0 441.58125 337.074375" xmlns="http://www.w3.org/2000/svg" version="1.1">
 <metadata>
  <rdf:RDF xmlns:dc="http://purl.org/dc/elements/1.1/" xmlns:cc="http://creativecommons.org/ns#" xmlns:rdf="http://www.w3.org/1999/02/22-rdf-syntax-ns#">
   <cc:Work>
    <dc:type rdf:resource="http://purl.org/dc/dcmitype/StillImage"/>
    <dc:date>2025-11-02T01:06:32.416544</dc:date>
    <dc:format>image/svg+xml</dc:format>
    <dc:creator>
     <cc:Agent>
      <dc:title>Matplotlib v3.10.7, https://matplotlib.org/</dc:title>
     </cc:Agent>
    </dc:creator>
   </cc:Work>
  </rdf:RDF>
 </metadata>
 <defs>
  <style type="text/css">*{stroke-linejoin: round; stroke-linecap: butt}</style>
 </defs>
 <g id="figure_1">
  <g id="patch_1">
   <path d="M 0 337.074375 
L 441.58125 337.074375 
L 441.58125 0 
L 0 0 
z
" style="fill: #ffffff"/>
  </g>
  <g id="axes_1">
   <g id="patch_2">
    <path d="M 43.78125 299.518125 
L 434.38125 299.518125 
L 434.38125 22.318125 
L 43.78125 22.318125 
z
" style="fill: #ffffff"/>
   </g>
   <g id="matplotlib.axis_1">
    <g id="xtick_1">
     <g id="line2d_1">
      <path d="M 57.004911 299.518125 
L 57.004911 22.318125 
" clip-path="url(#p45bfb106da)" style="fill: none; stroke-dasharray: 0.7,1.155; stroke-dashoffset: 0; stroke: #b0b0b0; stroke-width: 0.7"/>
     </g>
     <g id="line2d_2">
      <defs>
       <path id="m709aebc268" d="M 0 0 
L 0 3.5 
" style="stroke: #000000; stroke-width: 0.8"/>
      </defs>
      <g>
       <use xlink:href="#m709aebc268" x="57.004911" y="299.518125" style="stroke: #000000; stroke-width: 0.8"/>
      </g>
     </g>
     <g id="text_1">
      <!-- 0 -->
      <g transform="translate(53.823661 314.116563) scale(0.1 -0.1)">
       <defs>
        <path id="DejaVuSans-30" d="M 2034 4250 
Q 1547 4250 1301 3770 
Q 1056 3291 1056 2328 
Q 1056 1369 1301 889 
Q 1547 409 2034 409 
Q 2525 409 2770 889 
Q 3016 1369 3016 2328 
Q 3016 3291 2770 3770 
Q 2525 4250 2034 4250 
z
M 2034 4750 
Q 2819 4750 3233 4129 
Q 3647 3509 3647 2328 
Q 3647 1150 3233 529 
Q 2819 -91 2034 -91 
Q 1250 -91 836 529 
Q 422 1150 422 2328 
Q 422 3509 836 4129 
Q 1250 4750 2034 4750 
z
" transform="scale(0.015625)"/>
       </defs>
       <use xlink:href="#DejaVuSans-30"/>
      </g>
     </g>
    </g>
    <g id="xtick_2">
     <g id="line2d_3">
      <path d="M 112.139912 299.518125 
L 112.139912 22.318125 
" clip-path="url(#p45bfb106da)" style="fill: none; stroke-dasharray: 0.7,1.155; stroke-dashoffset: 0; stroke: #b0b0b0; stroke-width: 0.7"/>
     </g>
     <g id="line2d_4">
      <g>
       <use xlink:href="#m709aebc268" x="112.139912" y="299.518125" style="stroke: #000000; stroke-width: 0.8"/>
      </g>
     </g>
     <g id="text_2">
      <!-- 1 -->
      <g transform="translate(108.958662 314.116563) scale(0.1 -0.1)">
       <defs>
        <path id="DejaVuSans-31" d="M 794 531 
L 1825 531 
L 1825 4091 
L 703 3866 
L 703 4441 
L 1819 4666 
L 2450 4666 
L 2450 531 
L 3481 531 
L 3481 0 
L 794 0 
L 794 531 
z
" transform="scale(0.015625)"/>
       </defs>
       <use xlink:href="#DejaVuSans-31"/>
      </g>
     </g>
    </g>
    <g id="xtick_3">
     <g id="line2d_5">
      <path d="M 167.274913 299.518125 
L 167.274913 22.318125 
" clip-path="url(#p45bfb106da)" style="fill: none; stroke-dasharray: 0.7,1.155; stroke-dashoffset: 0; stroke: #b0b0b0; stroke-width: 0.7"/>
     </g>
     <g id="line2d_6">
      <g>
       <use xlink:href="#m709aebc268" x="167.274913" y="299.518125" style="stroke: #000000; stroke-width: 0.8"/>
      </g>
     </g>
     <g id="text_3">
      <!-- 2 -->
      <g transform="translate(164.093663 314.116563) scale(0.1 -0.1)">
       <defs>
        <path id="DejaVuSans-32" d="M 1228 531 
L 3431 531 
L 3431 0 
L 469 0 
L 469 531 
Q 828 903 1448 1529 
Q 2069 2156 2228 2338 
Q 2531 2678 2651 2914 
Q 2772 3150 2772 3378 
Q 2772 3750 2511 3984 
Q 2250 4219 1831 4219 
Q 1534 4219 1204 4116 
Q 875 4013 500 3803 
L 500 4441 
Q 881 4594 1212 4672 
Q 1544 4750 1819 4750 
Q 2544 4750 2975 4387 
Q 3406 4025 3406 3419 
Q 3406 3131 3298 2873 
Q 3191 2616 2906 2266 
Q 2828 2175 2409 1742 
Q 1991 1309 1228 531 
z
" transform="scale(0.015625)"/>
       </defs>
       <use xlink:href="#DejaVuSans-32"/>
      </g>
     </g>
    </g>
    <g id="xtick_4">
     <g id="line2d_7">
      <path d="M 222.409914 299.518125 
L 222.409914 22.318125 
" clip-path="url(#p45bfb106da)" style="fill: none; stroke-dasharray: 0.7,1.155; stroke-dashoffset: 0; stroke: #b0b0b0; stroke-width: 0.7"/>
     </g>
     <g id="line2d_8">
      <g>
       <use xlink:href="#m709aebc268" x="222.409914" y="299.518125" style="stroke: #000000; stroke-width: 0.8"/>
      </g>
     </g>
     <g id="text_4">
      <!-- 3 -->
      <g transform="translate(219.228664 314.116563) scale(0.1 -0.1)">
       <defs>
        <path id="DejaVuSans-33" d="M 2597 2516 
Q 3050 2419 3304 2112 
Q 3559 1806 3559 1356 
Q 3559 666 3084 287 
Q 2609 -91 1734 -91 
Q 1441 -91 1130 -33 
Q 819 25 488 141 
L 488 750 
Q 750 597 1062 519 
Q 1375 441 1716 441 
Q 2309 441 2620 675 
Q 2931 909 2931 1356 
Q 2931 1769 2642 2001 
Q 2353 2234 1838 2234 
L 1294 2234 
L 1294 2753 
L 1863 2753 
Q 2328 2753 2575 2939 
Q 2822 3125 2822 3475 
Q 2822 3834 2567 4026 
Q 2313 4219 1838 4219 
Q 1578 4219 1281 4162 
Q 984 4106 628 3988 
L 628 4550 
Q 988 4650 1302 4700 
Q 1616 4750 1894 4750 
Q 2613 4750 3031 4423 
Q 3450 4097 3450 3541 
Q 3450 3153 3228 2886 
Q 3006 2619 2597 2516 
z
" transform="scale(0.015625)"/>
       </defs>
       <use xlink:href="#DejaVuSans-33"/>
      </g>
     </g>
    </g>
    <g id="xtick_5">
     <g id="line2d_9">
      <path d="M 277.544915 299.518125 
L 277.544915 22.318125 
" clip-path="url(#p45bfb106da)" style="fill: none; stroke-dasharray: 0.7,1.155; stroke-dashoffset: 0; stroke: #b0b0b0; stroke-width: 0.7"/>
     </g>
     <g id="line2d_10">
      <g>
       <use xlink:href="#m709aebc268" x="277.544915" y="299.518125" style="stroke: #000000; stroke-width: 0.8"/>
      </g>
     </g>
     <g id="text_5">
      <!-- 4 -->
      <g transform="translate(274.363665 314.116563) scale(0.1 -0.1)">
       <defs>
        <path id="DejaVuSans-34" d="M 2419 4116 
L 825 1625 
L 2419 1625 
L 2419 4116 
z
M 2253 4666 
L 3047 4666 
L 3047 1625 
L 3713 1625 
L 3713 1100 
L 3047 1100 
L 3047 0 
L 2419 0 
L 2419 1100 
L 313 1100 
L 313 1709 
L 2253 4666 
z
" transform="scale(0.015625)"/>
       </defs>
       <use xlink:href="#DejaVuSans-34"/>
      </g>
     </g>
    </g>
    <g id="xtick_6">
     <g id="line2d_11">
      <path d="M 332.679916 299.518125 
L 332.679916 22.318125 
" clip-path="url(#p45bfb106da)" style="fill: none; stroke-dasharray: 0.7,1.155; stroke-dashoffset: 0; stroke: #b0b0b0; stroke-width: 0.7"/>
     </g>
     <g id="line2d_12">
      <g>
       <use xlink:href="#m709aebc268" x="332.679916" y="299.518125" style="stroke: #000000; stroke-width: 0.8"/>
      </g>
     </g>
     <g id="text_6">
      <!-- 5 -->
      <g transform="translate(329.498666 314.116563) scale(0.1 -0.1)">
       <defs>
        <path id="DejaVuSans-35" d="M 691 4666 
L 3169 4666 
L 3169 4134 
L 1269 4134 
L 1269 2991 
Q 1406 3038 1543 3061 
Q 1681 3084 1819 3084 
Q 2600 3084 3056 2656 
Q 3513 2228 3513 1497 
Q 3513 744 3044 326 
Q 2575 -91 1722 -91 
Q 1428 -91 1123 -41 
Q 819 9 494 109 
L 494 744 
Q 775 591 1075 516 
Q 1375 441 1709 441 
Q 2250 441 2565 725 
Q 2881 1009 2881 1497 
Q 2881 1984 2565 2268 
Q 2250 2553 1709 2553 
Q 1456 2553 1204 2497 
Q 953 2441 691 2322 
L 691 4666 
z
" transform="scale(0.015625)"/>
       </defs>
       <use xlink:href="#DejaVuSans-35"/>
      </g>
     </g>
    </g>
    <g id="xtick_7">
     <g id="line2d_13">
      <path d="M 387.814917 299.518125 
L 387.814917 22.318125 
" clip-path="url(#p45bfb106da)" style="fill: none; stroke-dasharray: 0.7,1.155; stroke-dashoffset: 0; stroke: #b0b0b0; stroke-width: 0.7"/>
     </g>
     <g id="line2d_14">
      <g>
       <use xlink:href="#m709aebc268" x="387.814917" y="299.518125" style="stroke: #000000; stroke-width: 0.8"/>
      </g>
     </g>
     <g id="text_7">
      <!-- 6 -->
      <g transform="translate(384.633667 314.116563) scale(0.1 -0.1)">
       <defs>
        <path id="DejaVuSans-36" d="M 2113 2584 
Q 1688 2584 1439 2293 
Q 1191 2003 1191 1497 
Q 1191 994 1439 701 
Q 1688 409 2113 409 
Q 2538 409 2786 701 
Q 3034 994 3034 1497 
Q 3034 2003 2786 2293 
Q 2538 2584 2113 2584 
z
M 3366 4563 
L 3366 3988 
Q 3128 4100 2886 4159 
Q 2644 4219 2406 4219 
Q 1781 4219 1451 3797 
Q 1122 3375 1075 2522 
Q 1259 2794 1537 2939 
Q 1816 3084 2150 3084 
Q 2853 3084 3261 2657 
Q 3669 2231 3669 1497 
Q 3669 778 3244 343 
Q 2819 -91 2113 -91 
Q 1303 -91 875 529 
Q 447 1150 447 2328 
Q 447 3434 972 4092 
Q 1497 4750 2381 4750 
Q 2619 4750 2861 4703 
Q 3103 4656 3366 4563 
z
" transform="scale(0.015625)"/>
       </defs>
       <use xlink:href="#DejaVuSans-36"/>
      </g>
     </g>
    </g>
    <g id="text_8">
     <!-- Steps to 1000 m (N) -->
     <g transform="translate(188.478125 327.794688) scale(0.1 -0.1)">
      <defs>
       <path id="DejaVuSans-53" d="M 3425 4513 
L 3425 3897 
Q 3066 4069 2747 4153 
Q 2428 4238 2131 4238 
Q 1616 4238 1336 4038 
Q 1056 3838 1056 3469 
Q 1056 3159 1242 3001 
Q 1428 2844 1947 2747 
L 2328 2669 
Q 3034 2534 3370 2195 
Q 3706 1856 3706 1288 
Q 3706 609 3251 259 
Q 2797 -91 1919 -91 
Q 1588 -91 1214 -16 
Q 841 59 441 206 
L 441 856 
Q 825 641 1194 531 
Q 1563 422 1919 422 
Q 2459 422 2753 634 
Q 3047 847 3047 1241 
Q 3047 1584 2836 1778 
Q 2625 1972 2144 2069 
L 1759 2144 
Q 1053 2284 737 2584 
Q 422 2884 422 3419 
Q 422 4038 858 4394 
Q 1294 4750 2059 4750 
Q 2388 4750 2728 4690 
Q 3069 4631 3425 4513 
z
" transform="scale(0.015625)"/>
       <path id="DejaVuSans-74" d="M 1172 4494 
L 1172 3500 
L 2356 3500 
L 2356 3053 
L 1172 3053 
L 1172 1153 
Q 1172 725 1289 603 
Q 1406 481 1766 481 
L 2356 481 
L 2356 0 
L 1766 0 
Q 1100 0 847 248 
Q 594 497 594 1153 
L 594 3053 
L 172 3053 
L 172 3500 
L 594 3500 
L 594 4494 
L 1172 4494 
z
" transform="scale(0.015625)"/>
       <path id="DejaVuSans-65" d="M 3597 1894 
L 3597 1613 
L 953 1613 
Q 991 1019 1311 708 
Q 1631 397 2203 397 
Q 2534 397 2845 478 
Q 3156 559 3463 722 
L 3463 178 
Q 3153 47 2828 -22 
Q 2503 -91 2169 -91 
Q 1331 -91 842 396 
Q 353 884 353 1716 
Q 353 2575 817 3079 
Q 1281 3584 2069 3584 
Q 2775 3584 3186 3129 
Q 3597 2675 3597 1894 
z
M 3022 2063 
Q 3016 2534 2758 2815 
Q 2500 3097 2075 3097 
Q 1594 3097 1305 2825 
Q 1016 2553 972 2059 
L 3022 2063 
z
" transform="scale(0.015625)"/>
       <path id="DejaVuSans-70" d="M 1159 525 
L 1159 -1331 
L 581 -1331 
L 581 3500 
L 1159 3500 
L 1159 2969 
Q 1341 3281 1617 3432 
Q 1894 3584 2278 3584 
Q 2916 3584 3314 3078 
Q 3713 2572 3713 1747 
Q 3713 922 3314 415 
Q 2916 -91 2278 -91 
Q 1894 -91 1617 61 
Q 1341 213 1159 525 
z
M 3116 1747 
Q 3116 2381 2855 2742 
Q 2594 3103 2138 3103 
Q 1681 3103 1420 2742 
Q 1159 2381 1159 1747 
Q 1159 1113 1420 752 
Q 1681 391 2138 391 
Q 2594 391 2855 752 
Q 3116 1113 3116 1747 
z
" transform="scale(0.015625)"/>
       <path id="DejaVuSans-73" d="M 2834 3397 
L 2834 2853 
Q 2591 2978 2328 3040 
Q 2066 3103 1784 3103 
Q 1356 3103 1142 2972 
Q 928 2841 928 2578 
Q 928 2378 1081 2264 
Q 1234 2150 1697 2047 
L 1894 2003 
Q 2506 1872 2764 1633 
Q 3022 1394 3022 966 
Q 3022 478 2636 193 
Q 2250 -91 1575 -91 
Q 1294 -91 989 -36 
Q 684 19 347 128 
L 347 722 
Q 666 556 975 473 
Q 1284 391 1588 391 
Q 1994 391 2212 530 
Q 2431 669 2431 922 
Q 2431 1156 2273 1281 
Q 2116 1406 1581 1522 
L 1381 1569 
Q 847 1681 609 1914 
Q 372 2147 372 2553 
Q 372 3047 722 3315 
Q 1072 3584 1716 3584 
Q 2034 3584 2315 3537 
Q 2597 3491 2834 3397 
z
" transform="scale(0.015625)"/>
       <path id="DejaVuSans-20" transform="scale(0.015625)"/>
       <path id="DejaVuSans-6f" d="M 1959 3097 
Q 1497 3097 1228 2736 
Q 959 2375 959 1747 
Q 959 1119 1226 758 
Q 1494 397 1959 397 
Q 2419 397 2687 759 
Q 2956 1122 2956 1747 
Q 2956 2369 2687 2733 
Q 2419 3097 1959 3097 
z
M 1959 3584 
Q 2709 3584 3137 3096 
Q 3566 2609 3566 1747 
Q 3566 888 3137 398 
Q 2709 -91 1959 -91 
Q 1206 -91 779 398 
Q 353 888 353 1747 
Q 353 2609 779 3096 
Q 1206 3584 1959 3584 
z
" transform="scale(0.015625)"/>
       <path id="DejaVuSans-6d" d="M 3328 2828 
Q 3544 3216 3844 3400 
Q 4144 3584 4550 3584 
Q 5097 3584 5394 3201 
Q 5691 2819 5691 2113 
L 5691 0 
L 5113 0 
L 5113 2094 
Q 5113 2597 4934 2840 
Q 4756 3084 4391 3084 
Q 3944 3084 3684 2787 
Q 3425 2491 3425 1978 
L 3425 0 
L 2847 0 
L 2847 2094 
Q 2847 2600 2669 2842 
Q 2491 3084 2119 3084 
Q 1678 3084 1418 2786 
Q 1159 2488 1159 1978 
L 1159 0 
L 581 0 
L 581 3500 
L 1159 3500 
L 1159 2956 
Q 1356 3278 1631 3431 
Q 1906 3584 2284 3584 
Q 2666 3584 2933 3390 
Q 3200 3197 3328 2828 
z
" transform="scale(0.015625)"/>
       <path id="DejaVuSans-28" d="M 1984 4856 
Q 1566 4138 1362 3434 
Q 1159 2731 1159 2009 
Q 1159 1288 1364 580 
Q 1569 -128 1984 -844 
L 1484 -844 
Q 1016 -109 783 600 
Q 550 1309 550 2009 
Q 550 2706 781 3412 
Q 1013 4119 1484 4856 
L 1984 4856 
z
" transform="scale(0.015625)"/>
       <path id="DejaVuSans-4e" d="M 628 4666 
L 1478 4666 
L 3547 763 
L 3547 4666 
L 4159 4666 
L 4159 0 
L 3309 0 
L 1241 3903 
L 1241 0 
L 628 0 
L 628 4666 
z
" transform="scale(0.015625)"/>
       <path id="DejaVuSans-29" d="M 513 4856 
L 1013 4856 
Q 1481 4119 1714 3412 
Q 1947 2706 1947 2009 
Q 1947 1309 1714 600 
Q 1481 -109 1013 -844 
L 513 -844 
Q 928 -128 1133 580 
Q 1338 1288 1338 2009 
Q 1338 2731 1133 3434 
Q 928 4138 513 4856 
z
" transform="scale(0.015625)"/>
      </defs>
      <use xlink:href="#DejaVuSans-53"/>
      <use xlink:href="#DejaVuSans-74" transform="translate(63.476562 0)"/>
      <use xlink:href="#DejaVuSans-65" transform="translate(102.685547 0)"/>
      <use xlink:href="#DejaVuSans-70" transform="translate(164.208984 0)"/>
      <use xlink:href="#DejaVuSans-73" transform="translate(227.685547 0)"/>
      <use xlink:href="#DejaVuSans-20" transform="translate(279.785156 0)"/>
      <use xlink:href="#DejaVuSans-74" transform="translate(311.572266 0)"/>
      <use xlink:href="#DejaVuSans-6f" transform="translate(350.78125 0)"/>
      <use xlink:href="#DejaVuSans-20" transform="translate(411.962891 0)"/>
      <use xlink:href="#DejaVuSans-31" transform="translate(443.75 0)"/>
      <use xlink:href="#DejaVuSans-30" transform="translate(507.373047 0)"/>
      <use xlink:href="#DejaVuSans-30" transform="translate(570.996094 0)"/>
      <use xlink:href="#DejaVuSans-30" transform="translate(634.619141 0)"/>
      <use xlink:href="#DejaVuSans-20" transform="translate(698.242188 0)"/>
      <use xlink:href="#DejaVuSans-6d" transform="translate(730.029297 0)"/>
      <use xlink:href="#DejaVuSans-20" transform="translate(827.441406 0)"/>
      <use xlink:href="#DejaVuSans-28" transform="translate(859.228516 0)"/>
      <use xlink:href="#DejaVuSans-4e" transform="translate(898.242188 0)"/>
      <use xlink:href="#DejaVuSans-29" transform="translate(973.046875 0)"/>
     </g>
    </g>
    <g id="text_9">
     <!-- 1e6 -->
     <g transform="translate(415.503125 326.794688) scale(0.1 -0.1)">
      <use xlink:href="#DejaVuSans-31"/>
      <use xlink:href="#DejaVuSans-65" transform="translate(63.623047 0)"/>
      <use xlink:href="#DejaVuSans-36" transform="translate(125.146484 0)"/>
     </g>
    </g>
   </g>
   <g id="matplotlib.axis_2">
    <g id="ytick_1">
     <g id="line2d_15">
      <path d="M 43.78125 286.981141 
L 434.38125 286.981141 
" clip-path="url(#p45bfb106da)" style="fill: none; stroke-dasharray: 0.7,1.155; stroke-dashoffset: 0; stroke: #b0b0b0; stroke-width: 0.7"/>
     </g>
     <g id="line2d_16">
      <defs>
       <path id="md0a68b7825" d="M 0 0 
L -3.5 0 
" style="stroke: #000000; stroke-width: 0.8"/>
      </defs>
      <g>
       <use xlink:href="#md0a68b7825" x="43.78125" y="286.981141" style="stroke: #000000; stroke-width: 0.8"/>
      </g>
     </g>
     <g id="text_10">
      <!-- 0.0 -->
      <g transform="translate(20.878125 290.78036) scale(0.1 -0.1)">
       <defs>
        <path id="DejaVuSans-2e" d="M 684 794 
L 1344 794 
L 1344 0 
L 684 0 
L 684 794 
z
" transform="scale(0.015625)"/>
       </defs>
       <use xlink:href="#DejaVuSans-30"/>
       <use xlink:href="#DejaVuSans-2e" transform="translate(63.623047 0)"/>
       <use xlink:href="#DejaVuSans-30" transform="translate(95.410156 0)"/>
      </g>
     </g>
    </g>
    <g id="ytick_2">
     <g id="line2d_17">
      <path d="M 43.78125 236.568538 
L 434.38125 236.568538 
" clip-path="url(#p45bfb106da)" style="fill: none; stroke-dasharray: 0.7,1.155; stroke-dashoffset: 0; stroke: #b0b0b0; stroke-width: 0.7"/>
     </g>
     <g id="line2d_18">
      <g>
       <use xlink:href="#md0a68b7825" x="43.78125" y="236.568538" style="stroke: #000000; stroke-width: 0.8"/>
      </g>
     </g>
     <g id="text_11">
      <!-- 0.2 -->
      <g transform="translate(20.878125 240.367756) scale(0.1 -0.1)">
       <use xlink:href="#DejaVuSans-30"/>
       <use xlink:href="#DejaVuSans-2e" transform="translate(63.623047 0)"/>
       <use xlink:href="#DejaVuSans-32" transform="translate(95.410156 0)"/>
      </g>
     </g>
    </g>
    <g id="ytick_3">
     <g id="line2d_19">
      <path d="M 43.78125 186.155934 
L 434.38125 186.155934 
" clip-path="url(#p45bfb106da)" style="fill: none; stroke-dasharray: 0.7,1.155; stroke-dashoffset: 0; stroke: #b0b0b0; stroke-width: 0.7"/>
     </g>
     <g id="line2d_20">
      <g>
       <use xlink:href="#md0a68b7825" x="43.78125" y="186.155934" style="stroke: #000000; stroke-width: 0.8"/>
      </g>
     </g>
     <g id="text_12">
      <!-- 0.4 -->
      <g transform="translate(20.878125 189.955153) scale(0.1 -0.1)">
       <use xlink:href="#DejaVuSans-30"/>
       <use xlink:href="#DejaVuSans-2e" transform="translate(63.623047 0)"/>
       <use xlink:href="#DejaVuSans-34" transform="translate(95.410156 0)"/>
      </g>
     </g>
    </g>
    <g id="ytick_4">
     <g id="line2d_21">
      <path d="M 43.78125 135.743331 
L 434.38125 135.743331 
" clip-path="url(#p45bfb106da)" style="fill: none; stroke-dasharray: 0.7,1.155; stroke-dashoffset: 0; stroke: #b0b0b0; stroke-width: 0.7"/>
     </g>
     <g id="line2d_22">
      <g>
       <use xlink:href="#md0a68b7825" x="43.78125" y="135.743331" style="stroke: #000000; stroke-width: 0.8"/>
      </g>
     </g>
     <g id="text_13">
      <!-- 0.6 -->
      <g transform="translate(20.878125 139.54255) scale(0.1 -0.1)">
       <use xlink:href="#DejaVuSans-30"/>
       <use xlink:href="#DejaVuSans-2e" transform="translate(63.623047 0)"/>
       <use xlink:href="#DejaVuSans-36" transform="translate(95.410156 0)"/>
      </g>
     </g>
    </g>
    <g id="ytick_5">
     <g id="line2d_23">
      <path d="M 43.78125 85.330728 
L 434.38125 85.330728 
" clip-path="url(#p45bfb106da)" style="fill: none; stroke-dasharray: 0.7,1.155; stroke-dashoffset: 0; stroke: #b0b0b0; stroke-width: 0.7"/>
     </g>
     <g id="line2d_24">
      <g>
       <use xlink:href="#md0a68b7825" x="43.78125" y="85.330728" style="stroke: #000000; stroke-width: 0.8"/>
      </g>
     </g>
     <g id="text_14">
      <!-- 0.8 -->
      <g transform="translate(20.878125 89.129947) scale(0.1 -0.1)">
       <defs>
        <path id="DejaVuSans-38" d="M 2034 2216 
Q 1584 2216 1326 1975 
Q 1069 1734 1069 1313 
Q 1069 891 1326 650 
Q 1584 409 2034 409 
Q 2484 409 2743 651 
Q 3003 894 3003 1313 
Q 3003 1734 2745 1975 
Q 2488 2216 2034 2216 
z
M 1403 2484 
Q 997 2584 770 2862 
Q 544 3141 544 3541 
Q 544 4100 942 4425 
Q 1341 4750 2034 4750 
Q 2731 4750 3128 4425 
Q 3525 4100 3525 3541 
Q 3525 3141 3298 2862 
Q 3072 2584 2669 2484 
Q 3125 2378 3379 2068 
Q 3634 1759 3634 1313 
Q 3634 634 3220 271 
Q 2806 -91 2034 -91 
Q 1263 -91 848 271 
Q 434 634 434 1313 
Q 434 1759 690 2068 
Q 947 2378 1403 2484 
z
M 1172 3481 
Q 1172 3119 1398 2916 
Q 1625 2713 2034 2713 
Q 2441 2713 2670 2916 
Q 2900 3119 2900 3481 
Q 2900 3844 2670 4047 
Q 2441 4250 2034 4250 
Q 1625 4250 1398 4047 
Q 1172 3844 1172 3481 
z
" transform="scale(0.015625)"/>
       </defs>
       <use xlink:href="#DejaVuSans-30"/>
       <use xlink:href="#DejaVuSans-2e" transform="translate(63.623047 0)"/>
       <use xlink:href="#DejaVuSans-38" transform="translate(95.410156 0)"/>
      </g>
     </g>
    </g>
    <g id="ytick_6">
     <g id="line2d_25">
      <path d="M 43.78125 34.918125 
L 434.38125 34.918125 
" clip-path="url(#p45bfb106da)" style="fill: none; stroke-dasharray: 0.7,1.155; stroke-dashoffset: 0; stroke: #b0b0b0; stroke-width: 0.7"/>
     </g>
     <g id="line2d_26">
      <g>
       <use xlink:href="#md0a68b7825" x="43.78125" y="34.918125" style="stroke: #000000; stroke-width: 0.8"/>
      </g>
     </g>
     <g id="text_15">
      <!-- 1.0 -->
      <g transform="translate(20.878125 38.717344) scale(0.1 -0.1)">
       <use xlink:href="#DejaVuSans-31"/>
       <use xlink:href="#DejaVuSans-2e" transform="translate(63.623047 0)"/>
       <use xlink:href="#DejaVuSans-30" transform="translate(95.410156 0)"/>
      </g>
     </g>
    </g>
    <g id="text_16">
     <!-- ECDF -->
     <g transform="translate(14.798438 174.294688) rotate(-90) scale(0.1 -0.1)">
      <defs>
       <path id="DejaVuSans-45" d="M 628 4666 
L 3578 4666 
L 3578 4134 
L 1259 4134 
L 1259 2753 
L 3481 2753 
L 3481 2222 
L 1259 2222 
L 1259 531 
L 3634 531 
L 3634 0 
L 628 0 
L 628 4666 
z
" transform="scale(0.015625)"/>
       <path id="DejaVuSans-43" d="M 4122 4306 
L 4122 3641 
Q 3803 3938 3442 4084 
Q 3081 4231 2675 4231 
Q 1875 4231 1450 3742 
Q 1025 3253 1025 2328 
Q 1025 1406 1450 917 
Q 1875 428 2675 428 
Q 3081 428 3442 575 
Q 3803 722 4122 1019 
L 4122 359 
Q 3791 134 3420 21 
Q 3050 -91 2638 -91 
Q 1578 -91 968 557 
Q 359 1206 359 2328 
Q 359 3453 968 4101 
Q 1578 4750 2638 4750 
Q 3056 4750 3426 4639 
Q 3797 4528 4122 4306 
z
" transform="scale(0.015625)"/>
       <path id="DejaVuSans-44" d="M 1259 4147 
L 1259 519 
L 2022 519 
Q 2988 519 3436 956 
Q 3884 1394 3884 2338 
Q 3884 3275 3436 3711 
Q 2988 4147 2022 4147 
L 1259 4147 
z
M 628 4666 
L 1925 4666 
Q 3281 4666 3915 4102 
Q 4550 3538 4550 2338 
Q 4550 1131 3912 565 
Q 3275 0 1925 0 
L 628 0 
L 628 4666 
z
" transform="scale(0.015625)"/>
       <path id="DejaVuSans-46" d="M 628 4666 
L 3309 4666 
L 3309 4134 
L 1259 4134 
L 1259 2759 
L 3109 2759 
L 3109 2228 
L 1259 2228 
L 1259 0 
L 628 0 
L 628 4666 
z
" transform="scale(0.015625)"/>
      </defs>
      <use xlink:href="#DejaVuSans-45"/>
      <use xlink:href="#DejaVuSans-43" transform="translate(63.183594 0)"/>
      <use xlink:href="#DejaVuSans-44" transform="translate(133.007812 0)"/>
      <use xlink:href="#DejaVuSans-46" transform="translate(210.009766 0)"/>
     </g>
    </g>
   </g>
   <g id="line2d_27">
    <path d="M 61.535795 286.918125 
L 65.001582 286.729078 
L 65.700583 286.477015 
L 65.722086 286.350983 
L 65.936561 286.161936 
L 66.956503 285.531778 
L 67.974351 283.893369 
L 68.162912 283.641306 
L 68.355664 283.452259 
L 68.552882 283.263211 
L 68.699652 282.759085 
L 68.891521 282.570038 
L 69.382278 281.372739 
L 69.667822 281.183691 
L 69.77098 280.931628 
L 70.006296 280.301471 
L 70.151301 280.112424 
L 70.595248 278.663061 
L 70.680762 278.474014 
L 70.838614 277.906872 
L 70.982571 277.402746 
L 71.376732 276.709573 
L 71.514293 276.142431 
L 71.992589 274.945132 
L 72.207616 274.567037 
L 72.317941 274.125927 
L 72.589812 273.873864 
L 73.129528 272.29847 
L 73.210467 271.920376 
L 73.585715 271.227202 
L 74.148864 269.021651 
L 74.435952 268.202446 
L 74.574341 267.635304 
L 74.776466 267.131178 
L 75.084891 265.870863 
L 75.597095 263.917375 
L 75.734161 263.224202 
L 75.963026 262.404997 
L 76.387125 260.829603 
L 76.58947 260.073414 
L 77.014506 258.687067 
L 77.161496 258.182941 
L 77.232675 257.993894 
L 77.372608 257.363736 
L 77.554222 256.985642 
L 78.179012 254.275964 
L 78.315251 253.645807 
L 78.447575 252.889618 
L 78.743264 251.503271 
L 78.830984 251.125177 
L 79.009566 250.495019 
L 79.357192 248.793594 
L 79.474409 248.541531 
L 79.595651 248.037405 
L 80.218566 245.642806 
L 80.304522 245.327727 
L 80.46921 244.445507 
L 80.570217 244.067412 
L 80.658764 243.752334 
L 80.74268 243.500271 
L 80.942709 242.681066 
L 81.056729 241.987892 
L 81.121622 241.735829 
L 81.550021 240.034404 
L 81.673358 239.341231 
L 82.286625 237.072664 
L 82.810683 234.804096 
L 82.935454 234.552033 
L 83.077481 234.110923 
L 86.078976 221.381741 
L 86.176675 221.129678 
L 86.288654 220.310473 
L 86.375216 220.121426 
L 86.475121 219.680316 
L 86.592283 219.050158 
L 86.730947 218.293969 
L 86.774449 218.041906 
L 86.858915 217.222701 
L 86.948675 217.033654 
L 87.052825 216.403496 
L 87.162875 215.647307 
L 87.359321 214.765087 
L 87.549095 214.260961 
L 87.627773 214.071913 
L 87.741903 213.567787 
L 87.834474 213.315724 
L 87.94287 212.811598 
L 88.06538 212.181441 
L 88.154367 211.740331 
L 88.239055 211.425252 
L 88.471945 210.480015 
L 88.573283 210.101921 
L 88.780866 209.534779 
L 89.029856 208.652559 
L 89.143214 207.89637 
L 89.296544 207.140181 
L 89.767011 205.060661 
L 89.853408 204.556535 
L 89.988488 203.548283 
L 90.106036 203.359235 
L 90.310146 202.666062 
L 91.272031 198.633054 
L 91.387208 198.380991 
L 91.626163 197.246707 
L 91.70247 196.994644 
L 91.866662 196.301471 
L 91.922183 196.049408 
L 92.160421 194.97814 
L 92.285688 194.600045 
L 92.424739 194.095919 
L 92.714473 192.583541 
L 92.833896 192.268463 
L 92.943283 191.827352 
L 93.737007 187.605297 
L 93.810171 187.41625 
L 94.029719 186.534029 
L 94.145392 186.281966 
L 94.247116 185.903871 
L 94.425257 185.210698 
L 94.572853 184.328478 
L 94.701153 183.824352 
L 94.79797 183.635304 
L 94.882822 183.25721 
L 95.004726 183.005147 
L 95.091839 182.753084 
L 95.219477 182.374989 
L 95.429872 181.555784 
L 96.414693 177.207697 
L 96.52546 176.829603 
L 96.68094 176.325477 
L 96.772189 175.947382 
L 96.945809 175.506272 
L 97.061592 175.002146 
L 98.47801 170.654059 
L 98.606696 169.960886 
L 98.877574 169.141681 
L 98.959449 168.763586 
L 99.15766 167.755334 
L 99.300184 167.37724 
L 99.570069 166.242956 
L 99.738286 165.549783 
L 99.85837 165.045657 
L 100.138346 163.974389 
L 100.232902 163.533279 
L 100.391801 162.966137 
L 100.491816 162.651058 
L 100.71401 162.146932 
L 100.903565 161.201696 
L 101.006502 160.886617 
L 101.184036 160.25646 
L 101.346905 160.067412 
L 101.437106 159.752334 
L 101.598431 159.437255 
L 101.990772 158.61805 
L 102.027933 158.365987 
L 102.156728 158.17694 
L 102.428544 157.231703 
L 102.552542 157.042656 
L 103.070535 155.530278 
L 103.18891 155.215199 
L 103.289311 154.711073 
L 103.941117 152.568538 
L 104.034461 152.001396 
L 104.179466 151.623301 
L 104.439041 150.741081 
L 104.521192 150.489018 
L 104.699113 149.669813 
L 104.892527 148.724577 
L 105.013052 148.283466 
L 105.119573 147.653309 
L 105.879112 144.691568 
L 105.964241 144.502521 
L 106.22514 143.746332 
L 106.323997 143.557285 
L 106.76436 142.612048 
L 106.851087 142.359985 
L 106.990303 141.855859 
L 107.144185 141.477765 
L 107.662509 140.532529 
L 107.839107 139.902371 
L 108.148193 139.020151 
L 108.271586 138.831103 
L 108.385494 138.074914 
L 108.491574 137.822851 
L 109.466802 135.6173 
L 109.695392 134.987142 
L 109.853243 134.483016 
L 109.910418 134.230953 
L 110.296033 132.655559 
L 110.438722 132.214449 
L 110.581025 131.773339 
L 110.846555 130.891118 
L 111.181721 129.945882 
L 111.262329 129.693819 
L 111.566839 129.315724 
L 111.652409 129.000646 
L 111.853431 128.49652 
L 112.017127 127.992394 
L 112.129271 127.551283 
L 112.247481 127.29922 
L 112.375504 126.984142 
L 112.502921 126.290968 
L 112.694019 125.723826 
L 112.83318 125.534779 
L 112.967599 125.2197 
L 113.049254 125.030653 
L 113.148497 124.652559 
L 113.246196 124.463511 
L 113.403331 124.085417 
L 113.666049 123.266212 
L 113.895907 122.69907 
L 114.010036 122.447007 
L 114.049348 122.25796 
L 114.288137 122.068913 
L 114.439924 121.81685 
L 114.732195 121.060661 
L 114.808887 120.556535 
L 115.027773 120.367487 
L 115.174984 119.989393 
L 115.374407 119.674314 
L 115.513844 119.233204 
L 115.735486 118.918125 
L 115.952663 118.350983 
L 116.169123 117.972889 
L 116.270627 117.65781 
L 116.464371 117.342731 
L 116.611251 116.964637 
L 116.742472 116.649558 
L 116.893762 116.397495 
L 117.629374 115.011148 
L 117.792794 114.570038 
L 118.077125 113.876865 
L 118.378713 113.49877 
L 118.773756 112.490518 
L 118.975164 111.923376 
L 119.061505 111.608298 
L 119.267159 111.293219 
L 119.378697 111.104172 
L 119.492551 110.852108 
L 119.663414 110.53703 
L 119.768832 110.284967 
L 119.940523 109.591793 
L 120.065403 109.276715 
L 120.155604 108.835604 
L 120.285888 108.583541 
L 120.445504 108.142431 
L 120.514864 107.890368 
L 120.595857 107.449258 
L 120.824061 107.197195 
L 120.982354 106.882116 
L 121.168214 106.504021 
L 121.455743 105.93688 
L 121.798462 105.621801 
L 122.154027 105.054659 
L 122.376166 104.865612 
L 122.735591 103.542281 
L 122.944277 103.290218 
L 123.322118 102.66006 
L 123.475172 102.471013 
L 123.573092 102.281966 
L 123.889016 101.651808 
L 124.551628 100.832604 
L 124.666419 100.580541 
L 124.901129 100.13943 
L 125.047457 99.824352 
L 125.167431 99.635304 
L 125.684818 98.311973 
L 125.988501 97.933879 
L 126.265555 97.303721 
L 126.499051 97.114674 
L 126.499768 97.051658 
L 126.660928 96.862611 
L 126.71099 96.673564 
L 126.842046 96.484517 
L 127.527209 95.09817 
L 127.836461 94.846107 
L 127.977827 94.594044 
L 128.213088 94.404997 
L 128.323028 94.152934 
L 128.774252 93.900871 
L 129.051196 93.396745 
L 129.325437 92.514524 
L 129.652498 92.325477 
L 129.790666 91.947382 
L 130.130463 91.569288 
L 130.292781 91.380241 
L 130.858631 90.245957 
L 131.305886 89.552784 
L 131.457893 89.363736 
L 131.611886 89.048658 
L 131.78749 88.796595 
L 132.190968 88.292469 
L 132.256414 88.103421 
L 132.335146 87.851358 
L 132.548739 87.53628 
L 132.949957 86.969138 
L 133.516193 86.717075 
L 133.70255 86.528027 
L 133.894254 86.33898 
L 134.128853 86.023901 
L 134.202624 85.834854 
L 134.416162 85.582791 
L 134.585537 85.267712 
L 134.651368 85.141681 
L 134.784684 84.889618 
L 134.876539 84.574539 
L 135.051813 84.25946 
L 135.104081 84.133429 
L 135.241643 83.944382 
L 135.411349 83.629303 
L 135.504747 83.503271 
L 135.637733 83.251208 
L 136.10219 82.621051 
L 136.155175 82.495019 
L 136.340815 82.305972 
L 136.978285 81.612799 
L 137.076977 81.360736 
L 137.336167 81.045657 
L 137.681312 80.352484 
L 138.054245 80.037405 
L 138.230291 79.848358 
L 138.233985 79.785342 
L 138.937894 79.344232 
L 139.056434 78.966137 
L 140.140333 77.57979 
L 140.217136 77.390743 
L 140.651379 77.201696 
L 140.781939 77.012649 
L 141.298885 76.508523 
L 141.347128 76.193444 
L 141.649488 75.941381 
L 141.926431 75.626302 
L 142.779756 75.05916 
L 143.148554 74.492018 
L 143.422189 74.302971 
L 143.809402 73.546782 
L 143.994049 73.357735 
L 144.02294 73.294719 
L 144.222528 73.105672 
L 144.740025 72.475514 
L 145.043213 72.034404 
L 145.32793 71.845357 
L 145.360956 71.593294 
L 146.634188 70.90012 
L 146.956949 70.45901 
L 147.269013 70.143931 
L 147.598224 69.765837 
L 147.733856 69.57679 
L 149.988106 67.49727 
L 150.2044 67.308223 
L 150.321286 67.182191 
L 150.529807 66.993144 
L 150.539511 66.930128 
L 150.741856 66.741081 
L 150.966642 66.362986 
L 151.340567 66.110923 
L 151.465889 65.85886 
L 151.610618 65.606797 
L 152.110417 65.228703 
L 152.78141 64.724577 
L 152.866484 64.598545 
L 153.13863 64.409498 
L 153.805102 63.716325 
L 154.003202 63.527277 
L 154.538232 63.212199 
L 155.139755 62.645057 
L 155.210769 62.582041 
L 155.867537 62.392994 
L 156.090778 62.266962 
L 156.18936 62.140931 
L 156.615333 62.014899 
L 157.059059 61.69982 
L 157.495894 61.573789 
L 157.523517 61.510773 
L 157.921426 61.25871 
L 157.967905 61.195694 
L 158.417586 61.006647 
L 158.671041 60.8176 
L 159.041659 60.565537 
L 159.149393 60.439505 
L 159.294122 60.250458 
L 160.397649 59.557285 
L 160.601814 59.053159 
L 160.718535 58.927127 
L 161.135576 58.73808 
L 161.424263 58.549033 
L 162.451042 57.792844 
L 162.784443 57.603796 
L 163.413754 57.225702 
L 163.600551 57.09967 
L 164.934708 56.595544 
L 164.966687 56.532529 
L 167.332695 55.839355 
L 167.544579 55.713324 
L 168.455299 55.461261 
L 168.745474 55.083166 
L 169.190855 54.957135 
L 169.827002 54.768087 
L 170.314671 54.516024 
L 170.501303 54.13793 
L 170.920715 53.948883 
L 171.220319 53.570788 
L 171.54953 53.255709 
L 173.245097 52.940631 
L 173.287495 52.814599 
L 173.588698 52.625552 
L 173.754599 52.436505 
L 174.072618 52.247457 
L 174.124224 52.184442 
L 175.529946 51.869363 
L 176.470219 51.680316 
L 176.53809 51.554284 
L 177.676627 51.239205 
L 178.596665 50.987142 
L 178.756005 50.861111 
L 179.290043 50.609048 
L 179.735479 50.483016 
L 180.535432 50.104922 
L 181.101228 49.726827 
L 181.12273 49.663811 
L 182.289938 49.411748 
L 183.066735 48.907622 
L 183.991019 48.781591 
L 184.776196 48.466512 
L 185.418519 48.214449 
L 187.241723 47.836355 
L 188.292927 47.584292 
L 188.348889 47.521276 
L 189.009241 47.332229 
L 189.124473 47.143181 
L 189.760511 46.954134 
L 190.417554 46.828102 
L 191.36334 46.639055 
L 191.408716 46.576039 
L 192.694299 46.260961 
L 192.998865 46.134929 
L 195.001754 45.756835 
L 195.287298 45.567787 
L 195.460532 45.441756 
L 196.538532 45.252709 
L 197.937031 44.748583 
L 199.559379 44.370488 
L 199.962857 44.118425 
L 200.873576 43.929378 
L 202.338238 43.362236 
L 203.420483 43.173189 
L 204.70386 42.669063 
L 205.318174 42.480015 
L 205.726228 42.290968 
L 206.679954 42.038905 
L 207.615815 41.786842 
L 209.374236 41.471763 
L 209.384822 41.408748 
L 209.567319 41.345732 
L 211.01373 41.156685 
L 212.025954 40.904622 
L 212.879168 40.589543 
L 212.886556 40.526527 
L 213.187097 40.463511 
L 214.966028 40.274464 
L 215.543236 40.022401 
L 217.766279 39.833354 
L 218.273411 39.644307 
L 219.367841 39.455259 
L 219.758527 39.266212 
L 220.09055 39.140181 
L 222.050048 38.825102 
L 222.132585 38.762086 
L 222.464829 38.636054 
L 222.488813 38.510023 
L 223.81321 38.320976 
L 223.874465 38.25796 
L 225.650695 38.005897 
L 228.989339 37.81685 
L 229.046239 37.753834 
L 235.178795 37.501771 
L 237.75189 37.249708 
L 241.188841 36.997645 
L 241.534702 36.934629 
L 244.1862 36.682566 
L 244.441309 36.556535 
L 252.582268 36.430503 
L 253.065361 36.367487 
L 262.986904 35.989393 
L 263.572989 35.926377 
L 284.723548 35.611298 
L 286.318383 35.548283 
L 290.778584 35.485267 
L 309.447185 35.29622 
L 327.683527 35.170188 
L 413.428378 34.918125 
L 413.428378 34.918125 
" clip-path="url(#p45bfb106da)" style="fill: none; stroke: #1f77b4; stroke-width: 1.5; stroke-linecap: square"/>
   </g>
   <g id="line2d_28">
    <path d="M 62.423965 286.918125 
L 64.328769 286.603046 
L 65.588659 285.846857 
L 65.762775 285.468763 
L 65.815981 285.405747 
L 66.166033 285.2167 
L 66.333257 284.901621 
L 66.418661 284.775589 
L 66.699243 284.523526 
L 66.908922 284.334479 
L 67.171089 283.956385 
L 67.384682 283.767337 
L 67.752818 283.326227 
L 68.039575 282.885117 
L 68.699596 282.570038 
L 68.860756 282.380991 
L 69.158264 281.49877 
L 69.247638 281.309723 
L 69.38724 281.120676 
L 69.594768 280.490518 
L 69.781896 280.301471 
L 70.004421 279.860361 
L 70.314887 278.915124 
L 70.586978 278.663061 
L 70.799303 278.221951 
L 71.021883 277.717825 
L 71.144613 277.528778 
L 71.256041 277.150683 
L 71.638898 276.0164 
L 71.788811 275.764337 
L 72.034988 274.8191 
L 72.130648 274.567037 
L 72.447122 273.684817 
L 72.557778 273.495769 
L 72.681501 272.73958 
L 72.900608 272.550533 
L 74.514409 266.564036 
L 74.695693 265.870863 
L 74.842848 265.492769 
L 75.52768 263.035154 
L 75.608398 262.720075 
L 75.837098 261.648808 
L 76.209259 260.13643 
L 76.328737 259.695319 
L 76.669416 258.624051 
L 76.770699 258.308973 
L 76.899715 258.119925 
L 77.087725 257.489768 
L 77.23058 256.85961 
L 77.391023 256.229453 
L 77.60015 255.284217 
L 77.792461 254.465012 
L 77.867058 254.023901 
L 77.973028 253.45676 
L 78.064938 253.267712 
L 78.201893 252.322476 
L 78.320599 251.755334 
L 80.958919 240.916625 
L 81.099348 240.412499 
L 81.332128 239.152184 
L 81.412735 238.90012 
L 81.948813 237.135679 
L 82.045961 236.631553 
L 82.109476 236.253459 
L 82.212744 235.686317 
L 82.27444 235.308223 
L 82.439569 234.741081 
L 82.774239 233.228703 
L 82.875632 232.913624 
L 82.930657 232.598545 
L 84.774041 224.028403 
L 84.926158 223.77634 
L 85.052417 223.020151 
L 85.71536 220.436505 
L 85.981497 219.365237 
L 86.133835 218.861111 
L 86.332872 217.915874 
L 86.465913 217.159685 
L 86.709886 215.89937 
L 86.996146 215.332229 
L 88.110425 210.85811 
L 88.825416 207.077165 
L 88.991482 206.510023 
L 89.218252 205.501771 
L 89.492384 204.682566 
L 89.615059 204.115424 
L 89.839017 203.548283 
L 90.417604 200.964637 
L 90.470479 200.712574 
L 90.685009 199.704322 
L 90.785134 199.452259 
L 90.991449 198.633054 
L 91.05706 198.444006 
L 91.271866 197.687817 
L 91.661836 196.238455 
L 91.775083 195.797345 
L 91.953169 195.41925 
L 92.421817 193.906872 
L 92.581432 193.150683 
L 92.761614 192.709573 
L 93.583346 188.73958 
L 93.698743 188.361486 
L 93.862604 187.794344 
L 93.966865 187.605297 
L 94.214311 186.912123 
L 94.334891 186.407997 
L 94.414395 186.21895 
L 94.544514 185.525777 
L 94.619001 185.273714 
L 94.737045 184.643556 
L 94.864297 184.13943 
L 95.006931 183.887367 
L 95.209277 182.753084 
L 95.515386 181.681816 
L 96.651664 177.396745 
L 96.726537 177.081666 
L 97.755632 172.85961 
L 98.296561 171.095169 
L 98.396411 170.906122 
L 98.566171 170.401996 
L 98.984315 168.826602 
L 99.11504 167.881366 
L 99.185448 167.566287 
L 99.547519 166.305972 
L 99.66617 165.864862 
L 100.036622 164.667562 
L 100.136582 164.289468 
L 100.325088 164.037405 
L 100.435634 163.596295 
L 100.57893 163.029153 
L 101.901012 158.807097 
L 101.972412 158.429003 
L 102.066527 158.17694 
L 102.579999 156.916625 
L 103.220062 154.648057 
L 103.271889 154.395994 
L 103.358065 154.143931 
L 103.483166 153.891868 
L 103.592278 153.324727 
L 103.76044 153.072664 
L 103.928271 152.442506 
L 104.241052 150.867112 
L 104.420571 150.362986 
L 104.71422 149.41775 
L 104.831713 149.228703 
L 105.422484 147.590293 
L 105.526469 147.149183 
L 105.728428 146.582041 
L 105.809918 146.203946 
L 106.004986 145.951883 
L 106.175904 145.25871 
L 106.414308 144.565537 
L 106.662471 143.935379 
L 106.827104 142.990143 
L 106.942722 142.801096 
L 107.110773 142.233954 
L 107.200092 141.981891 
L 107.514527 141.09967 
L 107.626065 140.595544 
L 107.908356 139.902371 
L 108.263701 139.020151 
L 108.395805 138.263961 
L 108.687028 137.192694 
L 108.766202 136.877615 
L 108.897202 136.436505 
L 109.09431 136.184442 
L 109.256572 135.680316 
L 109.842051 133.852859 
L 109.985898 133.663811 
L 110.945413 131.521276 
L 111.250144 131.01715 
L 111.376679 130.702071 
L 111.622415 130.197945 
L 111.716751 129.81985 
L 111.823713 129.567787 
L 111.951571 129.315724 
L 112.101759 128.370488 
L 112.438468 127.866362 
L 112.548463 127.614299 
L 112.736363 127.236205 
L 112.867033 127.047157 
L 113.180585 126.164937 
L 113.275418 125.975889 
L 113.322503 125.849858 
L 113.49287 125.660811 
L 113.775492 124.77859 
L 113.863708 124.33748 
L 114.102939 123.89637 
L 114.672318 122.25796 
L 114.857517 122.068913 
L 114.986918 121.753834 
L 115.102978 121.375739 
L 115.203103 120.997645 
L 115.483078 120.61955 
L 115.864502 120.115424 
L 116.625972 118.666062 
L 116.75598 118.350983 
L 116.806649 118.161936 
L 116.91918 117.783841 
L 117.273257 116.838605 
L 117.453328 116.460511 
L 117.799686 115.704322 
L 117.976228 115.452259 
L 118.093776 115.200196 
L 118.993469 112.553534 
L 119.07573 112.364487 
L 119.186882 111.860361 
L 119.306856 111.671313 
L 119.609327 110.97814 
L 119.717226 110.789093 
L 119.893492 110.53703 
L 120.085197 110.284967 
L 120.230808 109.969888 
L 120.3193 109.780841 
L 120.398364 109.591793 
L 120.824612 109.024652 
L 120.998673 108.394494 
L 121.241653 107.890368 
L 121.70589 106.945132 
L 121.903659 106.756084 
L 122.021207 106.630053 
L 122.218701 106.441006 
L 122.469841 105.93688 
L 122.62885 105.747832 
L 122.686356 105.621801 
L 122.863725 105.369738 
L 123.000295 105.117675 
L 123.578385 104.73958 
L 123.608268 104.613549 
L 123.742246 104.487517 
L 123.863984 103.983391 
L 124.030657 103.605297 
L 124.212989 103.41625 
L 124.312177 103.227202 
L 124.511324 102.912123 
L 124.845718 102.155934 
L 124.970158 101.77784 
L 125.161476 101.525777 
L 125.434174 101.147682 
L 125.486993 100.958635 
L 125.585244 100.769588 
L 125.672798 100.391493 
L 126.33111 99.320226 
L 126.421807 99.131178 
L 126.509913 98.942131 
L 126.733761 98.501021 
L 126.832784 98.248958 
L 126.967423 97.870863 
L 127.115075 97.681816 
L 127.431439 96.73658 
L 127.570655 96.610548 
L 128.099455 95.665312 
L 128.268168 95.350233 
L 130.25154 91.821351 
L 130.713571 91.443256 
L 130.850416 91.191193 
L 132.637341 89.048658 
L 133.425717 87.662311 
L 133.532624 87.284217 
L 133.811276 86.906122 
L 134.424487 86.023901 
L 134.558686 85.771838 
L 134.880564 85.519775 
L 135.456339 84.763586 
L 135.860809 84.574539 
L 135.921899 84.448508 
L 136.11862 84.25946 
L 136.127718 84.196445 
L 136.325211 84.007397 
L 136.409899 83.881366 
L 136.777815 83.629303 
L 136.845465 83.37724 
L 137.499807 82.999145 
L 137.640732 82.747082 
L 137.829515 82.495019 
L 138.167382 82.116925 
L 138.255874 81.927877 
L 138.339017 81.73883 
L 138.648655 81.234704 
L 138.648986 81.171688 
L 138.814336 80.982641 
L 139.62653 79.344232 
L 139.866477 79.155184 
L 139.98612 78.966137 
L 140.362527 78.335979 
L 140.507311 77.957885 
L 140.744337 77.768838 
L 141.424096 77.201696 
L 141.532161 76.949633 
L 141.721715 76.760586 
L 141.737925 76.69757 
L 142.308407 76.508523 
L 142.457161 76.130428 
L 143.387454 74.870113 
L 143.52474 74.61805 
L 143.851525 74.365987 
L 143.960141 74.239955 
L 143.996971 74.113924 
L 144.392895 73.861861 
L 145.124316 73.105672 
L 145.442556 72.727577 
L 145.85265 72.034404 
L 146.337176 71.404247 
L 146.340925 71.341231 
L 146.637662 71.215199 
L 146.90843 70.774089 
L 147.014896 70.585042 
L 147.306394 70.332979 
L 147.542924 70.143931 
L 148.200078 69.891868 
L 148.316578 69.639805 
L 148.99529 68.820601 
L 149.472593 68.631553 
L 149.53848 68.505522 
L 149.819944 68.253459 
L 150.097769 67.875364 
L 150.173304 67.749333 
L 150.544032 67.434254 
L 151.031205 66.993144 
L 151.398404 66.741081 
L 151.719786 66.426002 
L 152.244285 65.984892 
L 152.26044 65.85886 
L 152.549788 65.669813 
L 152.704001 65.543781 
L 152.772478 65.480766 
L 153.288928 65.291718 
L 153.444353 65.039655 
L 153.586767 64.913624 
L 153.965434 64.724577 
L 154.844783 64.031403 
L 155.422542 63.77934 
L 155.768625 63.590293 
L 156.16273 63.33823 
L 158.349715 61.321726 
L 158.835013 61.132679 
L 158.998984 60.8176 
L 159.44839 60.37649 
L 160.913216 59.305222 
L 161.307597 59.116175 
L 161.635705 58.864111 
L 161.929189 58.73808 
L 161.994248 58.612048 
L 162.100328 58.423001 
L 162.249248 58.107922 
L 162.455453 57.918875 
L 162.974494 57.477765 
L 163.071476 57.225702 
L 164.594911 56.910623 
L 164.819586 56.721576 
L 165.352246 56.406497 
L 165.935464 56.21745 
L 166.060951 56.091418 
L 166.111399 56.028403 
L 166.507379 55.839355 
L 168.093006 55.146182 
L 168.160381 55.083166 
L 169.490293 54.831103 
L 169.920511 54.516024 
L 170.935877 54.074914 
L 170.945085 54.011898 
L 171.688194 53.759835 
L 171.708484 53.69682 
L 172.33581 53.507772 
L 172.921564 53.318725 
L 173.013475 53.255709 
L 173.509855 53.066662 
L 174.1288 52.751583 
L 174.752653 52.05841 
L 175.285698 51.806347 
L 175.900067 51.6173 
L 176.256129 51.365237 
L 176.263628 51.302221 
L 178.706108 50.42 
L 178.720554 50.293969 
L 180.149157 49.600796 
L 180.850364 49.411748 
L 181.464402 49.222701 
L 182.169413 49.033654 
L 182.893612 48.781591 
L 183.41563 48.655559 
L 183.545252 48.529528 
L 186.149499 47.773339 
L 186.167142 47.710323 
L 186.715074 47.45826 
L 186.743137 47.332229 
L 187.130847 47.206197 
L 188.363665 47.01715 
L 188.59446 46.891118 
L 188.874546 46.702071 
L 188.925877 46.639055 
L 190.120322 46.386992 
L 192.809807 45.693819 
L 193.625419 45.504772 
L 193.625915 45.441756 
L 194.792076 45.063661 
L 194.915302 45.000646 
L 198.541807 44.307472 
L 199.096796 44.118425 
L 199.856281 43.929378 
L 200.13179 43.803346 
L 201.725412 43.488268 
L 201.846544 43.29922 
L 202.718945 43.173189 
L 202.734328 43.110173 
L 204.304958 42.921126 
L 204.361086 42.85811 
L 206.364857 42.606047 
L 208.109108 42.417 
L 209.402851 42.101921 
L 215.999368 41.282716 
L 216.064813 41.2197 
L 218.510767 40.967637 
L 220.377748 40.526527 
L 224.982513 40.022401 
L 227.246301 39.770338 
L 227.4621 39.707322 
L 229.911417 39.392244 
L 230.010936 39.329228 
L 238.553553 38.447007 
L 242.856674 38.25796 
L 243.704981 38.131928 
L 248.719344 37.879865 
L 251.974239 37.501771 
L 252.023254 37.438755 
L 252.24192 37.375739 
L 254.514254 37.249708 
L 259.183306 37.060661 
L 259.703284 36.934629 
L 276.438135 36.241456 
L 302.760908 35.359235 
L 327.951925 35.233204 
L 330.054994 35.170188 
L 376.10281 34.918125 
L 376.10281 34.918125 
" clip-path="url(#p45bfb106da)" style="fill: none; stroke: #ff7f0e; stroke-width: 1.5; stroke-linecap: square"/>
   </g>
   <g id="line2d_29">
    <path d="M 62.234301 286.918125 
L 65.681948 286.413999 
L 65.712823 286.350983 
L 66.413368 286.09892 
L 66.437628 285.972889 
L 66.86112 285.594794 
L 66.935662 285.405747 
L 67.173515 285.2167 
L 67.337321 285.027652 
L 67.684451 284.649558 
L 67.729937 284.523526 
L 68.069789 284.271463 
L 68.145159 283.956385 
L 68.179398 283.767337 
L 68.462626 283.515274 
L 68.980675 282.759085 
L 69.187376 282.317975 
L 69.374669 281.93988 
L 69.500598 281.561786 
L 69.608166 281.309723 
L 69.735252 280.994644 
L 69.914937 280.742581 
L 70.072072 280.553534 
L 70.143031 280.364487 
L 70.305128 280.175439 
L 70.4369 279.734329 
L 70.55511 279.41925 
L 70.856808 278.97814 
L 71.000931 278.474014 
L 71.195944 278.221951 
L 72.657407 273.621801 
L 72.855563 273.369738 
L 72.946811 272.991643 
L 73.171927 272.613549 
L 73.324431 271.983391 
L 73.42213 271.479265 
L 73.548444 271.164187 
L 73.732154 270.912123 
L 74.171966 269.588793 
L 74.260678 269.33673 
L 74.450012 268.391493 
L 76.493425 260.829603 
L 76.629719 260.57754 
L 77.368252 258.371988 
L 77.4595 257.930878 
L 77.610405 257.426752 
L 77.846052 256.292469 
L 80.046049 247.407247 
L 80.149262 247.029153 
L 81.02861 242.807097 
L 81.277654 242.239955 
L 81.420068 241.609798 
L 81.517988 241.168688 
L 81.625501 240.601546 
L 81.95394 239.341231 
L 82.13765 239.152184 
L 82.644175 237.324727 
L 82.69931 236.883616 
L 82.936281 235.434254 
L 83.377526 233.543781 
L 83.46883 233.165687 
L 83.619458 232.913624 
L 83.78547 231.968388 
L 84.127031 230.645057 
L 84.345586 229.762836 
L 85.445805 224.910623 
L 85.556461 224.532529 
L 85.880986 222.705072 
L 86.012979 221.885867 
L 86.122753 221.444757 
L 86.321349 220.373489 
L 86.571166 219.302221 
L 86.736681 218.672063 
L 86.812437 218.167937 
L 86.959261 217.474764 
L 87.084307 217.285717 
L 87.184047 216.781591 
L 87.394993 216.214449 
L 87.523347 215.89937 
L 87.70419 214.765087 
L 87.946233 213.37874 
L 88.103478 212.622551 
L 88.290661 211.614299 
L 88.874817 209.975889 
L 89.002895 209.597795 
L 89.28673 207.89637 
L 89.399922 207.707322 
L 89.530151 207.329228 
L 89.637444 206.951133 
L 89.910417 206.068913 
L 90.101184 205.627802 
L 90.27927 204.61955 
L 90.335343 204.115424 
L 90.619067 202.981141 
L 90.798311 202.350983 
L 91.266904 200.145432 
L 91.32066 199.767337 
L 91.431647 199.326227 
L 91.51639 198.759085 
L 91.558182 198.507022 
L 91.65963 198.317975 
L 92.945654 192.835604 
L 93.08884 192.520526 
L 93.279221 191.953384 
L 93.404818 191.701321 
L 93.622271 191.008148 
L 93.755201 190.567037 
L 93.901585 189.558785 
L 94.089981 189.117675 
L 95.452477 183.509273 
L 95.859208 181.6188 
L 95.959995 181.366737 
L 96.128102 180.421501 
L 96.249343 180.043406 
L 96.579492 178.783091 
L 96.679121 178.341981 
L 96.802733 177.963886 
L 96.910467 177.207697 
L 97.119594 176.829603 
L 97.334896 176.388493 
L 98.061355 173.678815 
L 98.184637 173.363736 
L 98.308581 172.922626 
L 98.405894 172.733579 
L 98.67986 171.410248 
L 98.834183 171.032154 
L 99.034984 170.023901 
L 99.315566 168.763586 
L 99.383879 168.511523 
L 99.503797 168.133429 
L 99.708293 167.440256 
L 99.84172 166.93613 
L 99.913285 166.684066 
L 100.097987 165.801846 
L 100.226231 165.549783 
L 100.276845 165.234704 
L 100.428577 164.667562 
L 100.886473 162.903121 
L 100.967631 162.588042 
L 101.063621 162.209948 
L 101.313879 161.201696 
L 101.461476 160.382491 
L 101.575109 160.067412 
L 101.822059 159.311223 
L 101.964307 158.996145 
L 102.180491 158.113924 
L 102.303277 157.861861 
L 102.41895 157.483766 
L 102.505016 157.231703 
L 102.636568 156.790593 
L 102.970631 155.65631 
L 103.191005 154.711073 
L 103.370801 153.765837 
L 103.472304 153.198695 
L 103.54012 153.009648 
L 103.664395 152.37949 
L 103.814472 151.812349 
L 103.979657 151.434254 
L 104.350384 150.047907 
L 104.565852 149.41775 
L 104.6528 148.913624 
L 104.76941 148.598545 
L 104.889384 148.220451 
L 105.13479 147.149183 
L 105.254047 146.771088 
L 105.63288 145.321726 
L 105.729421 145.132679 
L 106.048928 144.124427 
L 106.155559 143.872364 
L 106.328628 143.368238 
L 106.569568 142.801096 
L 106.784429 142.486017 
L 107.139333 141.729828 
L 107.298563 140.973639 
L 107.543859 140.406497 
L 107.824 139.398245 
L 108.065381 139.020151 
L 108.213914 138.453009 
L 108.362999 138.200946 
L 108.491409 137.822851 
L 108.828339 136.814599 
L 108.940814 136.625552 
L 111.405128 130.828102 
L 111.495329 130.513024 
L 111.698391 129.630803 
L 111.822555 129.37874 
L 111.962433 129.063661 
L 113.14756 126.164937 
L 113.388665 125.849858 
L 113.491933 125.408748 
L 114.072118 123.89637 
L 114.395044 122.951133 
L 114.644144 122.69907 
L 115.320209 121.123676 
L 115.495043 120.808598 
L 115.600681 120.556535 
L 115.750704 119.926377 
L 115.935185 119.422251 
L 116.109908 119.107172 
L 116.253259 118.792093 
L 116.454061 118.035904 
L 116.674987 117.846857 
L 116.97459 117.279715 
L 117.34824 116.523526 
L 117.534211 116.0194 
L 117.809389 115.704322 
L 118.295018 114.759085 
L 118.393986 114.380991 
L 119.019603 113.624802 
L 119.168577 113.435754 
L 119.276752 113.246707 
L 119.682877 112.61655 
L 119.84773 112.364487 
L 119.962135 112.175439 
L 120.409225 111.356235 
L 120.716493 110.410998 
L 121.066931 109.969888 
L 121.154154 109.717825 
L 121.359863 109.465762 
L 121.474489 109.213699 
L 121.550354 108.835604 
L 121.613594 108.583541 
L 121.829117 108.394494 
L 122.660663 105.999895 
L 122.798059 105.684817 
L 123.022459 105.180691 
L 123.22927 104.991643 
L 123.351174 104.676565 
L 123.485152 104.487517 
L 123.634898 104.172439 
L 123.831124 103.920376 
L 124.003696 103.290218 
L 124.440586 102.723076 
L 124.582063 102.471013 
L 124.755958 102.281966 
L 125.017739 101.651808 
L 125.156569 101.462761 
L 125.213634 101.210698 
L 125.586071 100.832604 
L 125.650303 100.454509 
L 125.949135 100.265462 
L 125.982381 100.13943 
L 126.168462 99.950383 
L 126.296927 99.761336 
L 126.433331 99.509273 
L 126.566978 99.131178 
L 126.684691 98.816099 
L 127.208915 98.05991 
L 128.045699 96.799595 
L 128.17907 96.547532 
L 128.310843 96.295469 
L 128.470514 96.106422 
L 128.628806 95.854359 
L 128.731082 95.602296 
L 129.21434 95.161186 
L 129.322735 94.783091 
L 129.484887 94.594044 
L 129.546418 94.468012 
L 129.695062 94.278965 
L 129.791824 94.089918 
L 129.950778 93.837855 
L 130.227776 92.829603 
L 130.360762 92.57754 
L 130.367985 92.514524 
L 130.683136 92.262461 
L 131.297395 91.695319 
L 131.435068 91.380241 
L 131.56254 91.191193 
L 131.882984 90.624051 
L 132.211809 89.993894 
L 132.295174 89.741831 
L 132.433838 89.552784 
L 132.61038 89.237705 
L 132.876241 88.985642 
L 133.049917 88.355484 
L 133.326253 88.166437 
L 133.396936 87.97739 
L 133.494966 87.599295 
L 133.599392 87.410248 
L 133.835701 87.158185 
L 133.92342 86.843106 
L 134.516342 86.212949 
L 134.760866 85.708823 
L 134.905154 85.519775 
L 136.012045 84.25946 
L 136.283088 84.070413 
L 136.634905 83.440256 
L 136.815362 83.251208 
L 136.971173 82.93613 
L 137.471468 82.17994 
L 137.479904 82.116925 
L 137.747308 81.927877 
L 137.903065 81.612799 
L 138.001205 81.360736 
L 138.357873 81.045657 
L 138.813289 80.667562 
L 138.903159 80.478515 
L 139.239041 80.289468 
L 139.242294 80.226452 
L 139.619087 80.037405 
L 140.237205 79.344232 
L 140.352878 79.2182 
L 140.818714 79.029153 
L 140.839224 78.903121 
L 140.956551 78.714074 
L 141.079117 78.398995 
L 141.342166 78.146932 
L 141.620156 77.768838 
L 142.100051 77.327727 
L 142.529332 76.69757 
L 142.643572 76.508523 
L 142.822099 76.319475 
L 143.66765 75.563286 
L 144.207421 75.185192 
L 144.355845 74.933129 
L 146.478212 72.97964 
L 147.061319 72.601546 
L 147.168612 72.412499 
L 147.306505 72.223451 
L 149.010176 70.585042 
L 149.216546 70.45901 
L 149.749371 69.954884 
L 149.94102 69.765837 
L 150.011593 69.639805 
L 150.208976 69.324727 
L 150.289033 69.198695 
L 151.042507 68.883616 
L 151.079558 68.757585 
L 151.532272 68.505522 
L 152.27075 68.001396 
L 153.224365 67.245207 
L 153.337557 67.119175 
L 153.57563 66.930128 
L 153.603308 66.804096 
L 154.164968 66.29997 
L 154.280862 66.110923 
L 154.921034 65.795844 
L 155.087156 65.669813 
L 155.460089 65.354734 
L 155.539594 65.228703 
L 155.627203 65.165687 
L 155.991811 64.97664 
L 156.056429 64.850608 
L 156.623382 64.346482 
L 157.267249 64.157435 
L 157.405142 63.968388 
L 157.750452 63.77934 
L 158.000379 63.401246 
L 158.107617 63.212199 
L 158.36631 62.89712 
L 158.495877 62.582041 
L 158.714818 62.392994 
L 158.762621 62.329978 
L 159.078158 62.140931 
L 159.183907 61.951883 
L 159.363316 61.825852 
L 159.74237 61.510773 
L 159.85286 61.321726 
L 161.325295 59.746332 
L 162.094815 59.494269 
L 162.253162 59.305222 
L 164.220434 58.549033 
L 164.390526 58.359985 
L 165.12134 57.792844 
L 166.437192 57.162686 
L 168.260176 56.721576 
L 168.561103 56.406497 
L 169.961201 55.461261 
L 170.501303 55.020151 
L 170.671119 54.957135 
L 171.301037 54.831103 
L 171.409873 54.57904 
L 172.597701 54.13793 
L 172.602939 54.074914 
L 172.862956 53.885867 
L 172.8645 53.822851 
L 174.136299 53.192694 
L 175.328207 52.940631 
L 177.118882 52.247457 
L 177.317258 52.05841 
L 178.36791 51.743331 
L 179.101702 51.491268 
L 179.230166 51.428253 
L 179.77501 51.239205 
L 179.941684 51.050158 
L 180.325478 50.861111 
L 180.400682 50.735079 
L 181.473554 50.546032 
L 182.049164 50.293969 
L 182.719991 50.104922 
L 183.13819 49.852859 
L 183.445127 49.663811 
L 183.673386 49.53778 
L 183.931583 49.348733 
L 184.048083 49.222701 
L 184.301759 49.09667 
L 184.309754 49.033654 
L 186.553969 48.088418 
L 187.803218 47.89937 
L 188.407442 47.584292 
L 189.268155 47.206197 
L 189.304048 47.143181 
L 190.009831 47.01715 
L 192.071218 46.765087 
L 192.165058 46.639055 
L 193.02555 46.323976 
L 193.059954 46.260961 
L 194.125052 46.008898 
L 198.747957 44.93763 
L 198.759149 44.874614 
L 198.970427 44.811598 
L 199.659173 44.685567 
L 199.934462 44.307472 
L 201.57142 43.866362 
L 201.675295 43.677315 
L 202.82938 43.425252 
L 204.076534 43.173189 
L 205.813452 42.984142 
L 208.764773 42.669063 
L 211.090974 41.975889 
L 212.765645 41.849858 
L 212.944393 41.723826 
L 213.528107 41.660811 
L 215.874928 41.534779 
L 216.159425 41.345732 
L 217.729835 41.156685 
L 218.205926 40.967637 
L 220.137525 40.77859 
L 221.425755 40.589543 
L 224.725309 39.959385 
L 224.754255 39.89637 
L 226.117247 39.707322 
L 229.871444 39.455259 
L 230.148663 39.329228 
L 233.770261 39.077165 
L 235.415985 38.825102 
L 235.994076 38.636054 
L 249.301074 37.942881 
L 256.006813 37.753834 
L 256.677089 37.690818 
L 261.073224 37.501771 
L 261.158462 37.438755 
L 263.097064 37.312724 
L 263.169732 37.249708 
L 264.204285 37.123676 
L 264.286767 37.060661 
L 268.308204 36.871613 
L 268.796369 36.745582 
L 271.160558 36.61955 
L 279.356431 36.493519 
L 279.896368 36.367487 
L 299.008585 36.052409 
L 299.994013 35.863361 
L 308.504928 35.674314 
L 312.27947 35.485267 
L 314.503175 35.422251 
L 328.923238 35.29622 
L 335.584318 35.044157 
L 416.626705 34.918125 
L 416.626705 34.918125 
" clip-path="url(#p45bfb106da)" style="fill: none; stroke: #2ca02c; stroke-width: 1.5; stroke-linecap: square"/>
   </g>
   <g id="patch_3">
    <path d="M 43.78125 299.518125 
L 43.78125 22.318125 
" style="fill: none; stroke: #000000; stroke-width: 0.8; stroke-linejoin: miter; stroke-linecap: square"/>
   </g>
   <g id="patch_4">
    <path d="M 434.38125 299.518125 
L 434.38125 22.318125 
" style="fill: none; stroke: #000000; stroke-width: 0.8; stroke-linejoin: miter; stroke-linecap: square"/>
   </g>
   <g id="patch_5">
    <path d="M 43.78125 299.518125 
L 434.38125 299.518125 
" style="fill: none; stroke: #000000; stroke-width: 0.8; stroke-linejoin: miter; stroke-linecap: square"/>
   </g>
   <g id="patch_6">
    <path d="M 43.78125 22.318125 
L 434.38125 22.318125 
" style="fill: none; stroke: #000000; stroke-width: 0.8; stroke-linejoin: miter; stroke-linecap: square"/>
   </g>
   <g id="text_17">
    <!-- ECDF of Steps to Reach 1000 m -->
    <g transform="translate(143.509688 16.318125) scale(0.12 -0.12)">
     <defs>
      <path id="DejaVuSans-66" d="M 2375 4863 
L 2375 4384 
L 1825 4384 
Q 1516 4384 1395 4259 
Q 1275 4134 1275 3809 
L 1275 3500 
L 2222 3500 
L 2222 3053 
L 1275 3053 
L 1275 0 
L 697 0 
L 697 3053 
L 147 3053 
L 147 3500 
L 697 3500 
L 697 3744 
Q 697 4328 969 4595 
Q 1241 4863 1831 4863 
L 2375 4863 
z
" transform="scale(0.015625)"/>
      <path id="DejaVuSans-52" d="M 2841 2188 
Q 3044 2119 3236 1894 
Q 3428 1669 3622 1275 
L 4263 0 
L 3584 0 
L 2988 1197 
Q 2756 1666 2539 1819 
Q 2322 1972 1947 1972 
L 1259 1972 
L 1259 0 
L 628 0 
L 628 4666 
L 2053 4666 
Q 2853 4666 3247 4331 
Q 3641 3997 3641 3322 
Q 3641 2881 3436 2590 
Q 3231 2300 2841 2188 
z
M 1259 4147 
L 1259 2491 
L 2053 2491 
Q 2509 2491 2742 2702 
Q 2975 2913 2975 3322 
Q 2975 3731 2742 3939 
Q 2509 4147 2053 4147 
L 1259 4147 
z
" transform="scale(0.015625)"/>
      <path id="DejaVuSans-61" d="M 2194 1759 
Q 1497 1759 1228 1600 
Q 959 1441 959 1056 
Q 959 750 1161 570 
Q 1363 391 1709 391 
Q 2188 391 2477 730 
Q 2766 1069 2766 1631 
L 2766 1759 
L 2194 1759 
z
M 3341 1997 
L 3341 0 
L 2766 0 
L 2766 531 
Q 2569 213 2275 61 
Q 1981 -91 1556 -91 
Q 1019 -91 701 211 
Q 384 513 384 1019 
Q 384 1609 779 1909 
Q 1175 2209 1959 2209 
L 2766 2209 
L 2766 2266 
Q 2766 2663 2505 2880 
Q 2244 3097 1772 3097 
Q 1472 3097 1187 3025 
Q 903 2953 641 2809 
L 641 3341 
Q 956 3463 1253 3523 
Q 1550 3584 1831 3584 
Q 2591 3584 2966 3190 
Q 3341 2797 3341 1997 
z
" transform="scale(0.015625)"/>
      <path id="DejaVuSans-63" d="M 3122 3366 
L 3122 2828 
Q 2878 2963 2633 3030 
Q 2388 3097 2138 3097 
Q 1578 3097 1268 2742 
Q 959 2388 959 1747 
Q 959 1106 1268 751 
Q 1578 397 2138 397 
Q 2388 397 2633 464 
Q 2878 531 3122 666 
L 3122 134 
Q 2881 22 2623 -34 
Q 2366 -91 2075 -91 
Q 1284 -91 818 406 
Q 353 903 353 1747 
Q 353 2603 823 3093 
Q 1294 3584 2113 3584 
Q 2378 3584 2631 3529 
Q 2884 3475 3122 3366 
z
" transform="scale(0.015625)"/>
      <path id="DejaVuSans-68" d="M 3513 2113 
L 3513 0 
L 2938 0 
L 2938 2094 
Q 2938 2591 2744 2837 
Q 2550 3084 2163 3084 
Q 1697 3084 1428 2787 
Q 1159 2491 1159 1978 
L 1159 0 
L 581 0 
L 581 4863 
L 1159 4863 
L 1159 2956 
Q 1366 3272 1645 3428 
Q 1925 3584 2291 3584 
Q 2894 3584 3203 3211 
Q 3513 2838 3513 2113 
z
" transform="scale(0.015625)"/>
     </defs>
     <use xlink:href="#DejaVuSans-45"/>
     <use xlink:href="#DejaVuSans-43" transform="translate(63.183594 0)"/>
     <use xlink:href="#DejaVuSans-44" transform="translate(133.007812 0)"/>
     <use xlink:href="#DejaVuSans-46" transform="translate(210.009766 0)"/>
     <use xlink:href="#DejaVuSans-20" transform="translate(267.529297 0)"/>
     <use xlink:href="#DejaVuSans-6f" transform="translate(299.316406 0)"/>
     <use xlink:href="#DejaVuSans-66" transform="translate(360.498047 0)"/>
     <use xlink:href="#DejaVuSans-20" transform="translate(395.703125 0)"/>
     <use xlink:href="#DejaVuSans-53" transform="translate(427.490234 0)"/>
     <use xlink:href="#DejaVuSans-74" transform="translate(490.966797 0)"/>
     <use xlink:href="#DejaVuSans-65" transform="translate(530.175781 0)"/>
     <use xlink:href="#DejaVuSans-70" transform="translate(591.699219 0)"/>
     <use xlink:href="#DejaVuSans-73" transform="translate(655.175781 0)"/>
     <use xlink:href="#DejaVuSans-20" transform="translate(707.275391 0)"/>
     <use xlink:href="#DejaVuSans-74" transform="translate(739.0625 0)"/>
     <use xlink:href="#DejaVuSans-6f" transform="translate(778.271484 0)"/>
     <use xlink:href="#DejaVuSans-20" transform="translate(839.453125 0)"/>
     <use xlink:href="#DejaVuSans-52" transform="translate(871.240234 0)"/>
     <use xlink:href="#DejaVuSans-65" transform="translate(936.222656 0)"/>
     <use xlink:href="#DejaVuSans-61" transform="translate(997.746094 0)"/>
     <use xlink:href="#DejaVuSans-63" transform="translate(1059.025391 0)"/>
     <use xlink:href="#DejaVuSans-68" transform="translate(1114.005859 0)"/>
     <use xlink:href="#DejaVuSans-20" transform="translate(1177.384766 0)"/>
     <use xlink:href="#DejaVuSans-31" transform="translate(1209.171875 0)"/>
     <use xlink:href="#DejaVuSans-30" transform="translate(1272.794922 0)"/>
     <use xlink:href="#DejaVuSans-30" transform="translate(1336.417969 0)"/>
     <use xlink:href="#DejaVuSans-30" transform="translate(1400.041016 0)"/>
     <use xlink:href="#DejaVuSans-20" transform="translate(1463.664062 0)"/>
     <use xlink:href="#DejaVuSans-6d" transform="translate(1495.451172 0)"/>
    </g>
   </g>
   <g id="legend_1">
    <g id="patch_7">
     <path d="M 50.78125 74.3525 
L 118.3125 74.3525 
Q 120.3125 74.3525 120.3125 72.3525 
L 120.3125 29.318125 
Q 120.3125 27.318125 118.3125 27.318125 
L 50.78125 27.318125 
Q 48.78125 27.318125 48.78125 29.318125 
L 48.78125 72.3525 
Q 48.78125 74.3525 50.78125 74.3525 
z
" style="fill: #ffffff; opacity: 0.8; stroke: #cccccc; stroke-linejoin: miter"/>
    </g>
    <g id="line2d_30">
     <path d="M 52.78125 35.416562 
L 62.78125 35.416562 
L 72.78125 35.416562 
" style="fill: none; stroke: #1f77b4; stroke-width: 1.5; stroke-linecap: square"/>
    </g>
    <g id="text_18">
     <!-- Hiker 1 -->
     <g transform="translate(80.78125 38.916562) scale(0.1 -0.1)">
      <defs>
       <path id="DejaVuSans-48" d="M 628 4666 
L 1259 4666 
L 1259 2753 
L 3553 2753 
L 3553 4666 
L 4184 4666 
L 4184 0 
L 3553 0 
L 3553 2222 
L 1259 2222 
L 1259 0 
L 628 0 
L 628 4666 
z
" transform="scale(0.015625)"/>
       <path id="DejaVuSans-69" d="M 603 3500 
L 1178 3500 
L 1178 0 
L 603 0 
L 603 3500 
z
M 603 4863 
L 1178 4863 
L 1178 4134 
L 603 4134 
L 603 4863 
z
" transform="scale(0.015625)"/>
       <path id="DejaVuSans-6b" d="M 581 4863 
L 1159 4863 
L 1159 1991 
L 2875 3500 
L 3609 3500 
L 1753 1863 
L 3688 0 
L 2938 0 
L 1159 1709 
L 1159 0 
L 581 0 
L 581 4863 
z
" transform="scale(0.015625)"/>
       <path id="DejaVuSans-72" d="M 2631 2963 
Q 2534 3019 2420 3045 
Q 2306 3072 2169 3072 
Q 1681 3072 1420 2755 
Q 1159 2438 1159 1844 
L 1159 0 
L 581 0 
L 581 3500 
L 1159 3500 
L 1159 2956 
Q 1341 3275 1631 3429 
Q 1922 3584 2338 3584 
Q 2397 3584 2469 3576 
Q 2541 3569 2628 3553 
L 2631 2963 
z
" transform="scale(0.015625)"/>
      </defs>
      <use xlink:href="#DejaVuSans-48"/>
      <use xlink:href="#DejaVuSans-69" transform="translate(75.195312 0)"/>
      <use xlink:href="#DejaVuSans-6b" transform="translate(102.978516 0)"/>
      <use xlink:href="#DejaVuSans-65" transform="translate(157.263672 0)"/>
      <use xlink:href="#DejaVuSans-72" transform="translate(218.787109 0)"/>
      <use xlink:href="#DejaVuSans-20" transform="translate(259.900391 0)"/>
      <use xlink:href="#DejaVuSans-31" transform="translate(291.6875 0)"/>
     </g>
    </g>
    <g id="line2d_31">
     <path d="M 52.78125 50.094688 
L 62.78125 50.094688 
L 72.78125 50.094688 
" style="fill: none; stroke: #ff7f0e; stroke-width: 1.5; stroke-linecap: square"/>
    </g>
    <g id="text_19">
     <!-- Hiker 2 -->
     <g transform="translate(80.78125 53.594688) scale(0.1 -0.1)">
      <use xlink:href="#DejaVuSans-48"/>
      <use xlink:href="#DejaVuSans-69" transform="translate(75.195312 0)"/>
      <use xlink:href="#DejaVuSans-6b" transform="translate(102.978516 0)"/>
      <use xlink:href="#DejaVuSans-65" transform="translate(157.263672 0)"/>
      <use xlink:href="#DejaVuSans-72" transform="translate(218.787109 0)"/>
      <use xlink:href="#DejaVuSans-20" transform="translate(259.900391 0)"/>
      <use xlink:href="#DejaVuSans-32" transform="translate(291.6875 0)"/>
     </g>
    </g>
    <g id="line2d_32">
     <path d="M 52.78125 64.772812 
L 62.78125 64.772812 
L 72.78125 64.772812 
" style="fill: none; stroke: #2ca02c; stroke-width: 1.5; stroke-linecap: square"/>
    </g>
    <g id="text_20">
     <!-- Hiker 3 -->
     <g transform="translate(80.78125 68.272812) scale(0.1 -0.1)">
      <use xlink:href="#DejaVuSans-48"/>
      <use xlink:href="#DejaVuSans-69" transform="translate(75.195312 0)"/>
      <use xlink:href="#DejaVuSans-6b" transform="translate(102.978516 0)"/>
      <use xlink:href="#DejaVuSans-65" transform="translate(157.263672 0)"/>
      <use xlink:href="#DejaVuSans-72" transform="translate(218.787109 0)"/>
      <use xlink:href="#DejaVuSans-20" transform="translate(259.900391 0)"/>
      <use xlink:href="#DejaVuSans-33" transform="translate(291.6875 0)"/>
     </g>
    </g>
   </g>
  </g>
 </g>
 <defs>
  <clipPath id="p45bfb106da">
   <rect x="43.78125" y="22.318125" width="390.6" height="277.2"/>
  </clipPath>
 </defs>
</svg>
