<?xml version="1.0" encoding="utf-8" standalone="no"?>
<!DOCTYPE svg PUBLIC "-//W3C//DTD SVG 1.1//EN"
  "http://www.w3.org/Graphics/SVG/1.1/DTD/svg11.dtd">
<svg xmlns:xlink="http://www.w3.org/1999/xlink" width="449.85775pt" height="431.842263pt" viewBox="0 0 449.85775 431.842263" xmlns="http://www.w3.org/2000/svg" version="1.1">
 <metadata>
  <rdf:RDF xmlns:dc="http://purl.org/dc/elements/1.1/" xmlns:cc="http://creativecommons.org/ns#" xmlns:rdf="http://www.w3.org/1999/02/22-rdf-syntax-ns#">
   <cc:Work>
    <dc:type rdf:resource="http://purl.org/dc/dcmitype/StillImage"/>
    <dc:date>2025-11-02T01:06:32.173711</dc:date>
    <dc:format>image/svg+xml</dc:format>
    <dc:creator>
     <cc:Agent>
      <dc:title>Matplotlib v3.10.7, https://matplotlib.org/</dc:title>
     </cc:Agent>
    </dc:creator>
   </cc:Work>
  </rdf:RDF>
 </metadata>
 <defs>
  <style type="text/css">*{stroke-linejoin: round; stroke-linecap: butt}</style>
 </defs>
 <g id="figure_1">
  <g id="patch_1">
   <path d="M 0 431.842263 
L 449.85775 431.842263 
L 449.85775 0 
L 0 0 
z
" style="fill: #ffffff"/>
  </g>
  <g id="axes_1">
   <g id="patch_2">
    <path d="M 393.60375 225.6232 
C 393.60375 201.962179 388.943045 178.531232 379.888364 156.671299 
C 370.833684 134.811366 357.561118 114.947568 340.83025 98.2167 
C 324.099382 81.485832 304.235584 68.213266 282.375651 59.158586 
C 260.515718 50.103905 237.084771 45.4432 213.42375 45.4432 
C 189.762729 45.4432 166.331782 50.103905 144.471849 59.158586 
C 122.611916 68.213266 102.748118 81.485832 86.01725 98.2167 
C 69.286382 114.947568 56.013816 134.811366 46.959136 156.671299 
C 37.904455 178.531232 33.24375 201.962179 33.24375 225.6232 
C 33.24375 249.284221 37.904455 272.715168 46.959136 294.575101 
C 56.013816 316.435034 69.286382 336.298832 86.01725 353.0297 
C 102.748118 369.760568 122.611916 383.033134 144.471849 392.087814 
C 166.331782 401.142495 189.762729 405.8032 213.42375 405.8032 
C 237.084771 405.8032 260.515718 401.142495 282.375651 392.087814 
C 304.235584 383.033134 324.099382 369.760568 340.83025 353.0297 
C 357.561118 336.298832 370.833684 316.435034 379.888364 294.575101 
C 388.943045 272.715168 393.60375 249.284221 393.60375 225.6232 
M 213.42375 225.6232 
C 213.42375 225.6232 213.42375 225.6232 213.42375 225.6232 
C 213.42375 225.6232 213.42375 225.6232 213.42375 225.6232 
C 213.42375 225.6232 213.42375 225.6232 213.42375 225.6232 
C 213.42375 225.6232 213.42375 225.6232 213.42375 225.6232 
C 213.42375 225.6232 213.42375 225.6232 213.42375 225.6232 
C 213.42375 225.6232 213.42375 225.6232 213.42375 225.6232 
C 213.42375 225.6232 213.42375 225.6232 213.42375 225.6232 
C 213.42375 225.6232 213.42375 225.6232 213.42375 225.6232 
C 213.42375 225.6232 213.42375 225.6232 213.42375 225.6232 
C 213.42375 225.6232 213.42375 225.6232 213.42375 225.6232 
C 213.42375 225.6232 213.42375 225.6232 213.42375 225.6232 
C 213.42375 225.6232 213.42375 225.6232 213.42375 225.6232 
C 213.42375 225.6232 213.42375 225.6232 213.42375 225.6232 
C 213.42375 225.6232 213.42375 225.6232 213.42375 225.6232 
C 213.42375 225.6232 213.42375 225.6232 213.42375 225.6232 
C 213.42375 225.6232 213.42375 225.6232 213.42375 225.6232 
z
" style="fill: #ffffff"/>
   </g>
   <g id="patch_3">
    <path d="M 213.42375 225.6232 
C 213.42375 225.6232 213.42375 225.6232 213.42375 225.6232 
C 213.42375 225.6232 213.42375 225.6232 213.42375 225.6232 
L 356.12506 211.568348 
C 356.585097 216.239175 356.815531 220.929773 356.815531 225.6232 
C 356.815531 230.316627 356.585097 235.007225 356.12506 239.678052 
z
" clip-path="url(#p81ab6647ec)" style="fill: #1f77b4; opacity: 0.5"/>
   </g>
   <g id="patch_4">
    <path d="M 213.42375 225.6232 
C 213.42375 225.6232 213.42375 225.6232 213.42375 225.6232 
C 213.42375 225.6232 213.42375 225.6232 213.42375 225.6232 
L 341.643268 186.728234 
C 342.916358 190.925051 343.982629 195.181843 344.838229 199.483235 
C 345.693829 203.784627 346.337727 208.125434 346.767597 212.489977 
z
" clip-path="url(#p81ab6647ec)" style="fill: #1f77b4; opacity: 0.5"/>
   </g>
   <g id="patch_5">
    <path d="M 213.42375 225.6232 
C 213.42375 225.6232 213.42375 225.6232 213.42375 225.6232 
C 213.42375 225.6232 213.42375 225.6232 213.42375 225.6232 
L 346.103368 154.704467 
C 348.424644 159.047269 350.531301 163.501422 352.415731 168.050837 
C 354.30016 172.600252 355.96009 177.239445 357.389525 181.95166 
z
" clip-path="url(#p81ab6647ec)" style="fill: #1f77b4; opacity: 0.5"/>
   </g>
   <g id="patch_6">
    <path d="M 213.42375 225.6232 
C 213.42375 225.6232 213.42375 225.6232 213.42375 225.6232 
C 213.42375 225.6232 213.42375 225.6232 213.42375 225.6232 
L 333.352616 127.200124 
C 336.57415 131.125574 339.601014 135.206828 342.422274 139.429142 
C 345.243534 143.651456 347.85579 148.009742 350.249606 152.488256 
z
" clip-path="url(#p81ab6647ec)" style="fill: #1f77b4; opacity: 0.5"/>
   </g>
   <g id="patch_7">
    <path d="M 213.42375 225.6232 
C 213.42375 225.6232 213.42375 225.6232 213.42375 225.6232 
C 213.42375 225.6232 213.42375 225.6232 213.42375 225.6232 
L 307.37305 111.145646 
C 311.120071 114.220747 314.713855 117.477963 318.141421 120.905529 
C 321.568987 124.333095 324.826203 127.926879 327.901304 131.6739 
z
" clip-path="url(#p81ab6647ec)" style="fill: #1f77b4; opacity: 0.5"/>
   </g>
   <g id="patch_8">
    <path d="M 213.42375 225.6232 
C 213.42375 225.6232 213.42375 225.6232 213.42375 225.6232 
C 213.42375 225.6232 213.42375 225.6232 213.42375 225.6232 
L 288.774904 84.651106 
C 293.389131 87.117462 297.879486 89.808877 302.229749 92.71563 
C 306.580012 95.622383 310.78494 98.74097 314.829344 102.060126 
z
" clip-path="url(#p81ab6647ec)" style="fill: #1f77b4; opacity: 0.5"/>
   </g>
   <g id="patch_9">
    <path d="M 213.42375 225.6232 
C 213.42375 225.6232 213.42375 225.6232 213.42375 225.6232 
C 213.42375 225.6232 213.42375 225.6232 213.42375 225.6232 
L 262.895417 62.536971 
C 268.233472 64.156253 273.488809 66.036642 278.642443 68.171347 
C 283.796077 70.306052 288.841797 72.6925 293.761377 75.322071 
z
" clip-path="url(#p81ab6647ec)" style="fill: #1f77b4; opacity: 0.5"/>
   </g>
   <g id="patch_10">
    <path d="M 213.42375 225.6232 
C 213.42375 225.6232 213.42375 225.6232 213.42375 225.6232 
C 213.42375 225.6232 213.42375 225.6232 213.42375 225.6232 
L 225.635343 101.636816 
C 229.693602 102.036519 233.729792 102.635231 237.729332 103.430789 
C 241.728872 104.226347 245.686941 105.217792 249.589244 106.401543 
z
" clip-path="url(#p81ab6647ec)" style="fill: #1f77b4; opacity: 0.5"/>
   </g>
   <g id="patch_11">
    <path d="M 213.42375 225.6232 
C 213.42375 225.6232 213.42375 225.6232 213.42375 225.6232 
C 213.42375 225.6232 213.42375 225.6232 213.42375 225.6232 
L 197.295231 61.867598 
C 202.655196 61.339688 208.03785 61.075255 213.42375 61.075255 
C 218.80965 61.075255 224.192304 61.339688 229.552269 61.867598 
z
" clip-path="url(#p81ab6647ec)" style="fill: #1f77b4; opacity: 0.5"/>
   </g>
   <g id="patch_12">
    <path d="M 213.42375 225.6232 
C 213.42375 225.6232 213.42375 225.6232 213.42375 225.6232 
C 213.42375 225.6232 213.42375 225.6232 213.42375 225.6232 
L 169.411026 80.532693 
C 174.160055 79.092091 178.976951 77.885521 183.844316 76.917342 
C 188.711681 75.949163 193.623647 75.220542 198.562472 74.73411 
z
" clip-path="url(#p81ab6647ec)" style="fill: #1f77b4; opacity: 0.5"/>
   </g>
   <g id="patch_13">
    <path d="M 213.42375 225.6232 
C 213.42375 225.6232 213.42375 225.6232 213.42375 225.6232 
C 213.42375 225.6232 213.42375 225.6232 213.42375 225.6232 
L 132.53207 74.285511 
C 137.485578 71.637806 142.566096 69.2349 147.755273 67.085472 
C 152.94445 64.936045 158.236029 63.042687 163.610899 61.412238 
z
" clip-path="url(#p81ab6647ec)" style="fill: #1f77b4; opacity: 0.5"/>
   </g>
   <g id="patch_14">
    <path d="M 213.42375 225.6232 
C 213.42375 225.6232 213.42375 225.6232 213.42375 225.6232 
C 213.42375 225.6232 213.42375 225.6232 213.42375 225.6232 
L 113.509415 103.87723 
C 117.494342 100.606885 121.637433 97.53416 125.923721 94.670153 
C 130.21001 91.806146 134.63433 89.154311 139.180701 86.724225 
z
" clip-path="url(#p81ab6647ec)" style="fill: #1f77b4; opacity: 0.5"/>
   </g>
   <g id="patch_15">
    <path d="M 213.42375 225.6232 
C 213.42375 225.6232 213.42375 225.6232 213.42375 225.6232 
C 213.42375 225.6232 213.42375 225.6232 213.42375 225.6232 
L 107.123165 138.384564 
C 109.978615 134.905187 113.003173 131.568102 116.185913 128.385363 
C 119.368652 125.202623 122.705737 122.178065 126.185114 119.322615 
z
" clip-path="url(#p81ab6647ec)" style="fill: #1f77b4; opacity: 0.5"/>
   </g>
   <g id="patch_16">
    <path d="M 213.42375 225.6232 
C 213.42375 225.6232 213.42375 225.6232 213.42375 225.6232 
C 213.42375 225.6232 213.42375 225.6232 213.42375 225.6232 
L 86.963489 158.028782 
C 89.175956 153.889549 91.590313 149.861437 94.197842 145.958995 
C 96.80537 142.056553 99.602926 138.284485 102.580404 134.656417 
z
" clip-path="url(#p81ab6647ec)" style="fill: #1f77b4; opacity: 0.5"/>
   </g>
   <g id="patch_17">
    <path d="M 213.42375 225.6232 
C 213.42375 225.6232 213.42375 225.6232 213.42375 225.6232 
C 213.42375 225.6232 213.42375 225.6232 213.42375 225.6232 
L 95.326826 189.79889 
C 96.499409 185.933401 97.86107 182.127813 99.406891 178.395871 
C 100.952712 174.663929 102.680829 171.010131 104.585001 167.447677 
z
" clip-path="url(#p81ab6647ec)" style="fill: #1f77b4; opacity: 0.5"/>
   </g>
   <g id="patch_18">
    <path d="M 213.42375 225.6232 
C 213.42375 225.6232 213.42375 225.6232 213.42375 225.6232 
C 213.42375 225.6232 213.42375 225.6232 213.42375 225.6232 
L 69.552757 211.453144 
C 70.016564 206.744032 70.711296 202.060529 71.634443 197.419553 
C 72.557591 192.778578 73.708041 188.185723 75.081639 183.657579 
z
" clip-path="url(#p81ab6647ec)" style="fill: #1f77b4; opacity: 0.5"/>
   </g>
   <g id="patch_19">
    <path d="M 213.42375 225.6232 
C 213.42375 225.6232 213.42375 225.6232 213.42375 225.6232 
C 213.42375 225.6232 213.42375 225.6232 213.42375 225.6232 
L 60.195294 240.714886 
C 59.701321 235.69949 59.453887 230.662864 59.453887 225.6232 
C 59.453887 220.583536 59.701321 215.54691 60.195294 210.531514 
z
" clip-path="url(#p81ab6647ec)" style="fill: #1f77b4; opacity: 0.5"/>
   </g>
   <g id="patch_20">
    <path d="M 213.42375 225.6232 
C 213.42375 225.6232 213.42375 225.6232 213.42375 225.6232 
C 213.42375 225.6232 213.42375 225.6232 213.42375 225.6232 
L 66.083778 270.318292 
C 64.62084 265.495635 63.395564 260.604058 62.412375 255.66123 
C 61.429185 250.718402 60.689267 245.730282 60.195294 240.714886 
z
" clip-path="url(#p81ab6647ec)" style="fill: #1f77b4; opacity: 0.5"/>
   </g>
   <g id="patch_21">
    <path d="M 213.42375 225.6232 
C 213.42375 225.6232 213.42375 225.6232 213.42375 225.6232 
C 213.42375 225.6232 213.42375 225.6232 213.42375 225.6232 
L 96.292525 288.231144 
C 94.243273 284.397264 92.38349 280.465083 90.719892 276.448802 
C 89.056294 272.432522 87.590887 268.336984 86.328965 264.176982 
z
" clip-path="url(#p81ab6647ec)" style="fill: #1f77b4; opacity: 0.5"/>
   </g>
   <g id="patch_22">
    <path d="M 213.42375 225.6232 
C 213.42375 225.6232 213.42375 225.6232 213.42375 225.6232 
C 213.42375 225.6232 213.42375 225.6232 213.42375 225.6232 
L 107.123165 312.861836 
C 104.267714 309.382459 101.584812 305.764985 99.084149 302.022479 
C 96.583487 298.279973 94.268078 294.416947 92.146287 290.447355 
z
" clip-path="url(#p81ab6647ec)" style="fill: #1f77b4; opacity: 0.5"/>
   </g>
   <g id="patch_23">
    <path d="M 213.42375 225.6232 
C 213.42375 225.6232 213.42375 225.6232 213.42375 225.6232 
C 213.42375 225.6232 213.42375 225.6232 213.42375 225.6232 
L 126.930743 331.015233 
C 123.481105 328.184188 120.172542 325.185482 117.017005 322.029945 
C 113.861468 318.874408 110.862762 315.565845 108.031717 312.116207 
z
" clip-path="url(#p81ab6647ec)" style="fill: #1f77b4; opacity: 0.5"/>
   </g>
   <g id="patch_24">
    <path d="M 213.42375 225.6232 
C 213.42375 225.6232 213.42375 225.6232 213.42375 225.6232 
C 213.42375 225.6232 213.42375 225.6232 213.42375 225.6232 
L 144.167175 355.193139 
C 139.926157 352.926268 135.798993 350.452541 131.800589 347.780893 
C 127.802185 345.109245 123.937362 342.242897 120.220079 339.192202 
z
" clip-path="url(#p81ab6647ec)" style="fill: #1f77b4; opacity: 0.5"/>
   </g>
   <g id="patch_25">
    <path d="M 213.42375 225.6232 
C 213.42375 225.6232 213.42375 225.6232 213.42375 225.6232 
C 213.42375 225.6232 213.42375 225.6232 213.42375 225.6232 
L 173.846417 356.092183 
C 169.575972 354.796758 165.371703 353.292447 161.248796 351.584682 
C 157.125888 349.876918 153.089312 347.96776 149.153648 345.864104 
z
" clip-path="url(#p81ab6647ec)" style="fill: #1f77b4; opacity: 0.5"/>
   </g>
   <g id="patch_26">
    <path d="M 213.42375 225.6232 
C 213.42375 225.6232 213.42375 225.6232 213.42375 225.6232 
C 213.42375 225.6232 213.42375 225.6232 213.42375 225.6232 
L 201.212157 349.609584 
C 197.153898 349.209881 193.117708 348.611169 189.118168 347.815611 
C 185.118628 347.020053 181.160559 346.028608 177.258256 344.844857 
z
" clip-path="url(#p81ab6647ec)" style="fill: #1f77b4; opacity: 0.5"/>
   </g>
   <g id="patch_27">
    <path d="M 213.42375 225.6232 
C 213.42375 225.6232 213.42375 225.6232 213.42375 225.6232 
C 213.42375 225.6232 213.42375 225.6232 213.42375 225.6232 
L 229.206658 385.869753 
C 223.961549 386.386351 218.694238 386.645118 213.42375 386.645118 
C 208.153262 386.645118 202.885951 386.386351 197.640842 385.869753 
z
" clip-path="url(#p81ab6647ec)" style="fill: #1f77b4; opacity: 0.5"/>
   </g>
   <g id="patch_28">
    <path d="M 213.42375 225.6232 
C 213.42375 225.6232 213.42375 225.6232 213.42375 225.6232 
C 213.42375 225.6232 213.42375 225.6232 213.42375 225.6232 
L 261.189497 383.085766 
C 256.035512 384.64921 250.807873 385.958666 245.525462 387.009403 
C 240.24305 388.06014 234.912234 388.850891 229.552269 389.378802 
z
" clip-path="url(#p81ab6647ec)" style="fill: #1f77b4; opacity: 0.5"/>
   </g>
   <g id="patch_29">
    <path d="M 213.42375 225.6232 
C 213.42375 225.6232 213.42375 225.6232 213.42375 225.6232 
C 213.42375 225.6232 213.42375 225.6232 213.42375 225.6232 
L 271.045221 333.425389 
C 267.516694 335.311426 263.897695 337.023085 260.201295 338.554184 
C 256.504896 340.085283 252.735551 341.433976 248.906876 342.595392 
z
" clip-path="url(#p81ab6647ec)" style="fill: #1f77b4; opacity: 0.5"/>
   </g>
   <g id="patch_30">
    <path d="M 213.42375 225.6232 
C 213.42375 225.6232 213.42375 225.6232 213.42375 225.6232 
C 213.42375 225.6232 213.42375 225.6232 213.42375 225.6232 
L 303.644903 335.557993 
C 300.046573 338.511067 296.305425 341.285692 292.43497 343.871847 
C 288.564515 346.458002 284.56942 348.85257 280.464115 351.046901 
z
" clip-path="url(#p81ab6647ec)" style="fill: #1f77b4; opacity: 0.5"/>
   </g>
   <g id="patch_31">
    <path d="M 213.42375 225.6232 
C 213.42375 225.6232 213.42375 225.6232 213.42375 225.6232 
C 213.42375 225.6232 213.42375 225.6232 213.42375 225.6232 
L 334.261168 324.791906 
C 331.015228 328.747095 327.577056 332.540533 323.959069 336.158519 
C 320.341083 339.776506 316.547645 343.214678 312.592456 346.460618 
z
" clip-path="url(#p81ab6647ec)" style="fill: #1f77b4; opacity: 0.5"/>
   </g>
   <g id="patch_32">
    <path d="M 213.42375 225.6232 
C 213.42375 225.6232 213.42375 225.6232 213.42375 225.6232 
C 213.42375 225.6232 213.42375 225.6232 213.42375 225.6232 
L 348.176487 297.650038 
C 345.818941 302.060697 343.246265 306.352948 340.467751 310.511287 
C 337.689237 314.669627 334.708235 318.689043 331.535512 322.555018 
z
" clip-path="url(#p81ab6647ec)" style="fill: #1f77b4; opacity: 0.5"/>
   </g>
   <g id="patch_33">
    <path d="M 213.42375 225.6232 
C 213.42375 225.6232 213.42375 225.6232 213.42375 225.6232 
C 213.42375 225.6232 213.42375 225.6232 213.42375 225.6232 
L 361.888455 270.659476 
C 360.41435 275.518947 358.702548 280.303115 356.75923 284.9947 
C 354.815912 289.686284 352.643422 294.279629 350.249606 298.758144 
z
" clip-path="url(#p81ab6647ec)" style="fill: #1f77b4; opacity: 0.5"/>
   </g>
   <g id="patch_34">
    <path d="M 213.42375 225.6232 
C 213.42375 225.6232 213.42375 225.6232 213.42375 225.6232 
C 213.42375 225.6232 213.42375 225.6232 213.42375 225.6232 
L 357.294743 239.793256 
C 356.830936 244.502368 356.136204 249.185871 355.213057 253.826847 
C 354.289909 258.467822 353.139459 263.060677 351.765861 267.588821 
z
" clip-path="url(#p81ab6647ec)" style="fill: #1f77b4; opacity: 0.5"/>
   </g>
   <g id="patch_35">
    <path d="M 213.42375 225.6232 
C 213.42375 225.6232 213.42375 225.6232 213.42375 225.6232 
C 213.42375 225.6232 213.42375 225.6232 213.42375 225.6232 
L 345.597914 212.605181 
C 346.024014 216.931439 346.237449 221.276009 346.237449 225.6232 
C 346.237449 229.970391 346.024014 234.314961 345.597914 238.641219 
z
" clip-path="url(#p81ab6647ec)" style="fill: #ff7f0e; opacity: 0.5"/>
   </g>
   <g id="patch_36">
    <path d="M 213.42375 225.6232 
C 213.42375 225.6232 213.42375 225.6232 213.42375 225.6232 
C 213.42375 225.6232 213.42375 225.6232 213.42375 225.6232 
L 346.142198 185.363499 
C 347.459959 189.707572 348.563642 194.113725 349.449264 198.566043 
C 350.334885 203.018361 351.001376 207.511477 351.446329 212.029163 
z
" clip-path="url(#p81ab6647ec)" style="fill: #ff7f0e; opacity: 0.5"/>
   </g>
   <g id="patch_37">
    <path d="M 213.42375 225.6232 
C 213.42375 225.6232 213.42375 225.6232 213.42375 225.6232 
C 213.42375 225.6232 213.42375 225.6232 213.42375 225.6232 
L 337.810892 159.136888 
C 339.987088 163.208265 341.962079 167.384033 343.728732 171.649109 
C 345.495384 175.914186 347.051569 180.26343 348.391664 184.681131 
z
" clip-path="url(#p81ab6647ec)" style="fill: #ff7f0e; opacity: 0.5"/>
   </g>
   <g id="patch_38">
    <path d="M 213.42375 225.6232 
C 213.42375 225.6232 213.42375 225.6232 213.42375 225.6232 
C 213.42375 225.6232 213.42375 225.6232 213.42375 225.6232 
L 334.261168 126.454494 
C 337.507107 130.409683 340.556902 134.521855 343.399535 138.776157 
C 346.242169 143.030458 348.874214 147.421761 351.286165 151.934204 
z
" clip-path="url(#p81ab6647ec)" style="fill: #ff7f0e; opacity: 0.5"/>
   </g>
   <g id="patch_39">
    <path d="M 213.42375 225.6232 
C 213.42375 225.6232 213.42375 225.6232 213.42375 225.6232 
C 213.42375 225.6232 213.42375 225.6232 213.42375 225.6232 
L 302.153645 117.505511 
C 305.692498 120.409772 309.086627 123.486032 312.323773 126.723177 
C 315.560918 129.960323 318.637178 133.354452 321.541439 136.893305 
z
" clip-path="url(#p81ab6647ec)" style="fill: #ff7f0e; opacity: 0.5"/>
   </g>
   <g id="patch_40">
    <path d="M 213.42375 225.6232 
C 213.42375 225.6232 213.42375 225.6232 213.42375 225.6232 
C 213.42375 225.6232 213.42375 225.6232 213.42375 225.6232 
L 282.126273 97.08982 
C 286.333362 99.338556 290.427509 101.792494 294.393926 104.442769 
C 298.360342 107.093043 302.194247 109.936461 305.881791 112.96275 
z
" clip-path="url(#p81ab6647ec)" style="fill: #ff7f0e; opacity: 0.5"/>
   </g>
   <g id="patch_41">
    <path d="M 213.42375 225.6232 
C 213.42375 225.6232 213.42375 225.6232 213.42375 225.6232 
C 213.42375 225.6232 213.42375 225.6232 213.42375 225.6232 
L 254.365819 90.655286 
C 258.78352 91.995381 263.132764 93.551566 267.397841 95.318218 
C 271.662917 97.084871 275.838685 99.059862 279.910062 101.236058 
z
" clip-path="url(#p81ab6647ec)" style="fill: #ff7f0e; opacity: 0.5"/>
   </g>
   <g id="patch_42">
    <path d="M 213.42375 225.6232 
C 213.42375 225.6232 213.42375 225.6232 213.42375 225.6232 
C 213.42375 225.6232 213.42375 225.6232 213.42375 225.6232 
L 228.745843 70.055378 
C 233.83781 70.556893 238.902085 71.308107 243.920376 72.306308 
C 248.938667 73.304508 253.904924 74.54849 258.80121 76.033762 
z
" clip-path="url(#p81ab6647ec)" style="fill: #ff7f0e; opacity: 0.5"/>
   </g>
   <g id="patch_43">
    <path d="M 213.42375 225.6232 
C 213.42375 225.6232 213.42375 225.6232 213.42375 225.6232 
C 213.42375 225.6232 213.42375 225.6232 213.42375 225.6232 
L 198.447268 73.564427 
C 203.424379 73.074224 208.422557 72.828679 213.42375 72.828679 
C 218.424943 72.828679 223.423121 73.074224 228.400232 73.564427 
z
" clip-path="url(#p81ab6647ec)" style="fill: #ff7f0e; opacity: 0.5"/>
   </g>
   <g id="patch_44">
    <path d="M 213.42375 225.6232 
C 213.42375 225.6232 213.42375 225.6232 213.42375 225.6232 
C 213.42375 225.6232 213.42375 225.6232 213.42375 225.6232 
L 171.116945 86.156356 
C 175.681903 84.771591 180.312098 83.611788 184.990805 82.681135 
C 189.669513 81.750482 194.391092 81.050102 199.13849 80.582524 
z
" clip-path="url(#p81ab6647ec)" style="fill: #ff7f0e; opacity: 0.5"/>
   </g>
   <g id="patch_45">
    <path d="M 213.42375 225.6232 
C 213.42375 225.6232 213.42375 225.6232 213.42375 225.6232 
C 213.42375 225.6232 213.42375 225.6232 213.42375 225.6232 
L 136.410438 81.541428 
C 141.12645 79.020667 145.963381 76.732969 150.903762 74.686596 
C 155.844142 72.640224 160.882016 70.837643 165.999187 69.285367 
z
" clip-path="url(#p81ab6647ec)" style="fill: #ff7f0e; opacity: 0.5"/>
   </g>
   <g id="patch_46">
    <path d="M 213.42375 225.6232 
C 213.42375 225.6232 213.42375 225.6232 213.42375 225.6232 
C 213.42375 225.6232 213.42375 225.6232 213.42375 225.6232 
L 116.491932 107.511438 
C 120.357907 104.338715 124.377323 101.357713 128.535663 98.579199 
C 132.694002 95.800685 136.986253 93.228009 141.396912 90.870463 
z
" clip-path="url(#p81ab6647ec)" style="fill: #ff7f0e; opacity: 0.5"/>
   </g>
   <g id="patch_47">
    <path d="M 213.42375 225.6232 
C 213.42375 225.6232 213.42375 225.6232 213.42375 225.6232 
C 213.42375 225.6232 213.42375 225.6232 213.42375 225.6232 
L 101.671852 133.910788 
C 104.673737 130.252981 107.8534 126.744764 111.199357 123.398807 
C 114.545314 120.05285 118.053531 116.873187 121.711338 113.871302 
z
" clip-path="url(#p81ab6647ec)" style="fill: #ff7f0e; opacity: 0.5"/>
   </g>
   <g id="patch_48">
    <path d="M 213.42375 225.6232 
C 213.42375 225.6232 213.42375 225.6232 213.42375 225.6232 
C 213.42375 225.6232 213.42375 225.6232 213.42375 225.6232 
L 84.89037 156.920677 
C 87.139106 152.713588 89.593044 148.619441 92.243319 144.653024 
C 94.893593 140.686608 97.737011 136.852703 100.7633 133.165159 
z
" clip-path="url(#p81ab6647ec)" style="fill: #ff7f0e; opacity: 0.5"/>
   </g>
   <g id="patch_49">
    <path d="M 213.42375 225.6232 
C 213.42375 225.6232 213.42375 225.6232 213.42375 225.6232 
C 213.42375 225.6232 213.42375 225.6232 213.42375 225.6232 
L 50.337521 176.151533 
C 51.956803 170.813478 53.837192 165.558141 55.971897 160.404507 
C 58.106602 155.250873 60.49305 150.205153 63.122621 145.285573 
z
" clip-path="url(#p81ab6647ec)" style="fill: #ff7f0e; opacity: 0.5"/>
   </g>
   <g id="patch_50">
    <path d="M 213.42375 225.6232 
C 213.42375 225.6232 213.42375 225.6232 213.42375 225.6232 
C 213.42375 225.6232 213.42375 225.6232 213.42375 225.6232 
L 55.516562 210.0707 
C 56.025619 204.902161 56.78813 199.761732 57.80134 194.667978 
C 58.814551 189.574224 60.07724 184.533286 61.584847 179.563372 
z
" clip-path="url(#p81ab6647ec)" style="fill: #ff7f0e; opacity: 0.5"/>
   </g>
   <g id="patch_51">
    <path d="M 213.42375 225.6232 
C 213.42375 225.6232 213.42375 225.6232 213.42375 225.6232 
C 213.42375 225.6232 213.42375 225.6232 213.42375 225.6232 
L 90.607049 237.719589 
C 90.211116 233.699615 90.012791 229.662625 90.012791 225.6232 
C 90.012791 221.583775 90.211116 217.546785 90.607049 213.526811 
z
" clip-path="url(#p81ab6647ec)" style="fill: #ff7f0e; opacity: 0.5"/>
   </g>
   <g id="patch_52">
    <path d="M 213.42375 225.6232 
C 213.42375 225.6232 213.42375 225.6232 213.42375 225.6232 
C 213.42375 225.6232 213.42375 225.6232 213.42375 225.6232 
L 61.584847 271.683028 
C 60.07724 266.713114 58.814551 261.672176 57.80134 256.578422 
C 56.78813 251.484668 56.025619 246.344239 55.516562 241.1757 
z
" clip-path="url(#p81ab6647ec)" style="fill: #ff7f0e; opacity: 0.5"/>
   </g>
   <g id="patch_53">
    <path d="M 213.42375 225.6232 
C 213.42375 225.6232 213.42375 225.6232 213.42375 225.6232 
C 213.42375 225.6232 213.42375 225.6232 213.42375 225.6232 
L 107.69468 282.136566 
C 105.844913 278.675895 104.16617 275.126492 102.664516 271.501177 
C 101.162861 267.875862 99.840104 264.179005 98.701023 260.423959 
z
" clip-path="url(#p81ab6647ec)" style="fill: #ff7f0e; opacity: 0.5"/>
   </g>
   <g id="patch_54">
    <path d="M 213.42375 225.6232 
C 213.42375 225.6232 213.42375 225.6232 213.42375 225.6232 
C 213.42375 225.6232 213.42375 225.6232 213.42375 225.6232 
L 92.586332 324.791906 
C 89.340393 320.836717 86.290598 316.724545 83.447965 312.470243 
C 80.605331 308.215942 77.973286 303.824639 75.561335 299.312196 
z
" clip-path="url(#p81ab6647ec)" style="fill: #ff7f0e; opacity: 0.5"/>
   </g>
   <g id="patch_55">
    <path d="M 213.42375 225.6232 
C 213.42375 225.6232 213.42375 225.6232 213.42375 225.6232 
C 213.42375 225.6232 213.42375 225.6232 213.42375 225.6232 
L 120.965709 338.28365 
C 117.278164 335.25736 113.741424 332.051846 110.368264 328.678686 
C 106.995104 325.305526 103.78959 321.768786 100.7633 318.081241 
z
" clip-path="url(#p81ab6647ec)" style="fill: #ff7f0e; opacity: 0.5"/>
   </g>
   <g id="patch_56">
    <path d="M 213.42375 225.6232 
C 213.42375 225.6232 213.42375 225.6232 213.42375 225.6232 
C 213.42375 225.6232 213.42375 225.6232 213.42375 225.6232 
L 141.396912 360.375937 
C 136.986253 358.018391 132.694002 355.445715 128.535663 352.667201 
C 124.377323 349.888687 120.357907 346.907685 116.491932 343.734962 
z
" clip-path="url(#p81ab6647ec)" style="fill: #ff7f0e; opacity: 0.5"/>
   </g>
   <g id="patch_57">
    <path d="M 213.42375 225.6232 
C 213.42375 225.6232 213.42375 225.6232 213.42375 225.6232 
C 213.42375 225.6232 213.42375 225.6232 213.42375 225.6232 
L 168.728658 372.963172 
C 163.906001 371.500235 159.158076 369.801401 154.502034 367.872805 
C 149.845992 365.944209 145.287445 363.788177 140.842859 361.412496 
z
" clip-path="url(#p81ab6647ec)" style="fill: #ff7f0e; opacity: 0.5"/>
   </g>
   <g id="patch_58">
    <path d="M 213.42375 225.6232 
C 213.42375 225.6232 213.42375 225.6232 213.42375 225.6232 
C 213.42375 225.6232 213.42375 225.6232 213.42375 225.6232 
L 197.640842 385.869753 
C 192.395733 385.353155 187.179149 384.579348 182.009932 383.551127 
C 176.840715 382.522906 171.725097 381.24151 166.681555 379.711568 
z
" clip-path="url(#p81ab6647ec)" style="fill: #ff7f0e; opacity: 0.5"/>
   </g>
   <g id="patch_59">
    <path d="M 213.42375 225.6232 
C 213.42375 225.6232 213.42375 225.6232 213.42375 225.6232 
C 213.42375 225.6232 213.42375 225.6232 213.42375 225.6232 
L 228.054621 374.172925 
C 223.192367 374.651815 218.309531 374.891693 213.42375 374.891693 
C 208.537969 374.891693 203.655133 374.651815 198.792879 374.172925 
z
" clip-path="url(#p81ab6647ec)" style="fill: #ff7f0e; opacity: 0.5"/>
   </g>
   <g id="patch_60">
    <path d="M 213.42375 225.6232 
C 213.42375 225.6232 213.42375 225.6232 213.42375 225.6232 
C 213.42375 225.6232 213.42375 225.6232 213.42375 225.6232 
L 255.389371 363.965311 
C 250.861227 365.338909 246.268372 366.489359 241.627397 367.412507 
C 236.986421 368.335654 232.302918 369.030386 227.593806 369.494193 
z
" clip-path="url(#p81ab6647ec)" style="fill: #ff7f0e; opacity: 0.5"/>
   </g>
   <g id="patch_61">
    <path d="M 213.42375 225.6232 
C 213.42375 225.6232 213.42375 225.6232 213.42375 225.6232 
C 213.42375 225.6232 213.42375 225.6232 213.42375 225.6232 
L 272.707379 336.535068 
C 269.077067 338.47551 265.353674 340.236543 261.550648 341.811809 
C 257.747621 343.387074 253.869545 344.774672 249.930428 345.96959 
z
" clip-path="url(#p81ab6647ec)" style="fill: #ff7f0e; opacity: 0.5"/>
   </g>
   <g id="patch_62">
    <path d="M 213.42375 225.6232 
C 213.42375 225.6232 213.42375 225.6232 213.42375 225.6232 
C 213.42375 225.6232 213.42375 225.6232 213.42375 225.6232 
L 313.338085 347.36917 
C 309.353158 350.639515 305.210067 353.71224 300.923779 356.576247 
C 296.63749 359.440254 292.21317 362.092089 287.666799 364.522175 
z
" clip-path="url(#p81ab6647ec)" style="fill: #ff7f0e; opacity: 0.5"/>
   </g>
   <g id="patch_63">
    <path d="M 213.42375 225.6232 
C 213.42375 225.6232 213.42375 225.6232 213.42375 225.6232 
C 213.42375 225.6232 213.42375 225.6232 213.42375 225.6232 
L 315.181575 309.133689 
C 312.448152 312.464375 309.552849 315.658849 306.506124 318.705574 
C 303.459399 321.752299 300.264925 324.647602 296.934239 327.381025 
z
" clip-path="url(#p81ab6647ec)" style="fill: #ff7f0e; opacity: 0.5"/>
   </g>
   <g id="patch_64">
    <path d="M 213.42375 225.6232 
C 213.42375 225.6232 213.42375 225.6232 213.42375 225.6232 
C 213.42375 225.6232 213.42375 225.6232 213.42375 225.6232 
L 338.847451 292.663565 
C 336.65312 296.76887 334.258552 300.763965 331.672397 304.63442 
C 329.086242 308.504875 326.311617 312.246023 323.358543 315.844353 
z
" clip-path="url(#p81ab6647ec)" style="fill: #ff7f0e; opacity: 0.5"/>
   </g>
   <g id="patch_65">
    <path d="M 213.42375 225.6232 
C 213.42375 225.6232 213.42375 225.6232 213.42375 225.6232 
C 213.42375 225.6232 213.42375 225.6232 213.42375 225.6232 
L 340.518535 264.176982 
C 339.256613 268.336984 337.791206 272.432522 336.127608 276.448802 
C 334.46401 280.465083 332.604227 284.397264 330.554975 288.231144 
z
" clip-path="url(#p81ab6647ec)" style="fill: #ff7f0e; opacity: 0.5"/>
   </g>
   <g id="patch_66">
    <path d="M 213.42375 225.6232 
C 213.42375 225.6232 213.42375 225.6232 213.42375 225.6232 
C 213.42375 225.6232 213.42375 225.6232 213.42375 225.6232 
L 372.50062 241.290904 
C 371.987793 246.497728 371.219634 251.676235 370.198918 256.80772 
C 369.178202 261.939205 367.90616 267.017483 366.387385 272.024212 
z
" clip-path="url(#p81ab6647ec)" style="fill: #ff7f0e; opacity: 0.5"/>
   </g>
   <g id="patch_67">
    <path d="M 213.42375 225.6232 
C 213.42375 225.6232 213.42375 225.6232 213.42375 225.6232 
C 213.42375 225.6232 213.42375 225.6232 213.42375 225.6232 
L 371.330938 210.0707 
C 371.839994 215.239238 372.094983 220.429654 372.094983 225.6232 
C 372.094983 230.816746 371.839994 236.007162 371.330938 241.1757 
z
" clip-path="url(#p81ab6647ec)" style="fill: #2ca02c; opacity: 0.5"/>
   </g>
   <g id="patch_68">
    <path d="M 213.42375 225.6232 
C 213.42375 225.6232 213.42375 225.6232 213.42375 225.6232 
C 213.42375 225.6232 213.42375 225.6232 213.42375 225.6232 
L 355.140059 182.634028 
C 356.547159 187.272614 357.725669 191.977489 358.671332 196.73166 
C 359.616996 201.48583 360.328672 206.283564 360.803792 211.107533 
z
" clip-path="url(#p81ab6647ec)" style="fill: #2ca02c; opacity: 0.5"/>
   </g>
   <g id="patch_69">
    <path d="M 213.42375 225.6232 
C 213.42375 225.6232 213.42375 225.6232 213.42375 225.6232 
C 213.42375 225.6232 213.42375 225.6232 213.42375 225.6232 
L 351.286165 151.934204 
C 353.698116 156.446647 355.887065 161.07479 357.845105 165.801916 
C 359.803145 170.529043 361.527916 175.349455 363.013188 180.24574 
z
" clip-path="url(#p81ab6647ec)" style="fill: #2ca02c; opacity: 0.5"/>
   </g>
   <g id="patch_70">
    <path d="M 213.42375 225.6232 
C 213.42375 225.6232 213.42375 225.6232 213.42375 225.6232 
C 213.42375 225.6232 213.42375 225.6232 213.42375 225.6232 
L 341.529584 120.489459 
C 344.970768 124.682554 348.204009 129.042075 351.217628 133.552274 
C 354.231247 138.062474 357.021611 142.717915 359.578641 147.501783 
z
" clip-path="url(#p81ab6647ec)" style="fill: #2ca02c; opacity: 0.5"/>
   </g>
   <g id="patch_71">
    <path d="M 213.42375 225.6232 
C 213.42375 225.6232 213.42375 225.6232 213.42375 225.6232 
C 213.42375 225.6232 213.42375 225.6232 213.42375 225.6232 
L 312.592456 104.785782 
C 316.547645 108.031722 320.341083 111.469894 323.959069 115.087881 
C 327.577056 118.705867 331.015228 122.499305 334.261168 126.454494 
z
" clip-path="url(#p81ab6647ec)" style="fill: #2ca02c; opacity: 0.5"/>
   </g>
   <g id="patch_72">
    <path d="M 213.42375 225.6232 
C 213.42375 225.6232 213.42375 225.6232 213.42375 225.6232 
C 213.42375 225.6232 213.42375 225.6232 213.42375 225.6232 
L 272.707379 114.711332 
C 276.33769 116.651774 279.870542 118.769284 283.293176 121.056215 
C 286.715809 123.343145 290.024098 125.796739 293.206092 128.408135 
z
" clip-path="url(#p81ab6647ec)" style="fill: #2ca02c; opacity: 0.5"/>
   </g>
   <g id="patch_73">
    <path d="M 213.42375 225.6232 
C 213.42375 225.6232 213.42375 225.6232 213.42375 225.6232 
C 213.42375 225.6232 213.42375 225.6232 213.42375 225.6232 
L 246.177405 117.648869 
C 249.711566 118.720945 253.190961 119.965893 256.603023 121.379215 
C 260.015084 122.792537 263.355698 124.37253 266.6128 126.113487 
z
" clip-path="url(#p81ab6647ec)" style="fill: #2ca02c; opacity: 0.5"/>
   </g>
   <g id="patch_74">
    <path d="M 213.42375 225.6232 
C 213.42375 225.6232 213.42375 225.6232 213.42375 225.6232 
C 213.42375 225.6232 213.42375 225.6232 213.42375 225.6232 
L 228.285028 74.73411 
C 233.223853 75.220542 238.135819 75.949163 243.003184 76.917342 
C 247.870549 77.885521 252.687445 79.092091 257.436474 80.532693 
z
" clip-path="url(#p81ab6647ec)" style="fill: #2ca02c; opacity: 0.5"/>
   </g>
   <g id="patch_75">
    <path d="M 213.42375 225.6232 
C 213.42375 225.6232 213.42375 225.6232 213.42375 225.6232 
C 213.42375 225.6232 213.42375 225.6232 213.42375 225.6232 
L 199.023287 79.412841 
C 203.80897 78.941493 208.614911 78.705392 213.42375 78.705392 
C 218.232589 78.705392 223.03853 78.941493 227.824213 79.412841 
z
" clip-path="url(#p81ab6647ec)" style="fill: #2ca02c; opacity: 0.5"/>
   </g>
   <g id="patch_76">
    <path d="M 213.42375 225.6232 
C 213.42375 225.6232 213.42375 225.6232 213.42375 225.6232 
C 213.42375 225.6232 213.42375 225.6232 213.42375 225.6232 
L 167.363922 73.784297 
C 172.333836 72.27669 177.374774 71.014001 182.468528 70.00079 
C 187.562282 68.98758 192.702711 68.225069 197.87125 67.716012 
z
" clip-path="url(#p81ab6647ec)" style="fill: #2ca02c; opacity: 0.5"/>
   </g>
   <g id="patch_77">
    <path d="M 213.42375 225.6232 
C 213.42375 225.6232 213.42375 225.6232 213.42375 225.6232 
C 213.42375 225.6232 213.42375 225.6232 213.42375 225.6232 
L 145.27528 98.12638 
C 149.448441 95.895779 153.728604 93.871413 158.100307 92.060594 
C 162.472011 90.249775 166.929985 88.654686 171.458129 87.281089 
z
" clip-path="url(#p81ab6647ec)" style="fill: #2ca02c; opacity: 0.5"/>
   </g>
   <g id="patch_78">
    <path d="M 213.42375 225.6232 
C 213.42375 225.6232 213.42375 225.6232 213.42375 225.6232 
C 213.42375 225.6232 213.42375 225.6232 213.42375 225.6232 
L 114.255044 104.785782 
C 118.210233 101.539843 122.322405 98.490048 126.576707 95.647415 
C 130.831008 92.804781 135.222311 90.172736 139.734754 87.760785 
z
" clip-path="url(#p81ab6647ec)" style="fill: #2ca02c; opacity: 0.5"/>
   </g>
   <g id="patch_79">
    <path d="M 213.42375 225.6232 
C 213.42375 225.6232 213.42375 225.6232 213.42375 225.6232 
C 213.42375 225.6232 213.42375 225.6232 213.42375 225.6232 
L 99.854748 132.419529 
C 102.905444 128.702246 106.136809 125.136984 109.537172 121.736622 
C 112.937534 118.336259 116.502796 115.104894 120.220079 112.054198 
z
" clip-path="url(#p81ab6647ec)" style="fill: #2ca02c; opacity: 0.5"/>
   </g>
   <g id="patch_80">
    <path d="M 213.42375 225.6232 
C 213.42375 225.6232 213.42375 225.6232 213.42375 225.6232 
C 213.42375 225.6232 213.42375 225.6232 213.42375 225.6232 
L 89.036608 159.136888 
C 91.212805 155.065511 93.587583 151.103433 96.152365 147.264965 
C 98.717147 143.426498 101.468841 139.716268 104.397509 136.147676 
z
" clip-path="url(#p81ab6647ec)" style="fill: #2ca02c; opacity: 0.5"/>
   </g>
   <g id="patch_81">
    <path d="M 213.42375 225.6232 
C 213.42375 225.6232 213.42375 225.6232 213.42375 225.6232 
C 213.42375 225.6232 213.42375 225.6232 213.42375 225.6232 
L 66.083778 180.928108 
C 67.546715 176.105451 69.245549 171.357526 71.174145 166.701484 
C 73.102741 162.045442 75.258773 157.486895 77.634454 153.042309 
z
" clip-path="url(#p81ab6647ec)" style="fill: #2ca02c; opacity: 0.5"/>
   </g>
   <g id="patch_82">
    <path d="M 213.42375 225.6232 
C 213.42375 225.6232 213.42375 225.6232 213.42375 225.6232 
C 213.42375 225.6232 213.42375 225.6232 213.42375 225.6232 
L 99.964512 214.44844 
C 100.330278 210.73475 100.878156 207.041256 101.606167 203.3813 
C 102.334177 199.721343 103.241443 196.099336 104.324686 192.528361 
z
" clip-path="url(#p81ab6647ec)" style="fill: #2ca02c; opacity: 0.5"/>
   </g>
   <g id="patch_83">
    <path d="M 213.42375 225.6232 
C 213.42375 225.6232 213.42375 225.6232 213.42375 225.6232 
C 213.42375 225.6232 213.42375 225.6232 213.42375 225.6232 
L 77.740537 238.98683 
C 77.303125 234.545716 77.084024 230.085803 77.084024 225.6232 
C 77.084024 221.160597 77.303125 216.700684 77.740537 212.25957 
z
" clip-path="url(#p81ab6647ec)" style="fill: #2ca02c; opacity: 0.5"/>
   </g>
   <g id="patch_84">
    <path d="M 213.42375 225.6232 
C 213.42375 225.6232 213.42375 225.6232 213.42375 225.6232 
C 213.42375 225.6232 213.42375 225.6232 213.42375 225.6232 
L 73.956906 267.930005 
C 72.572141 263.365047 71.412338 258.734852 70.481685 254.056145 
C 69.551032 249.377437 68.850652 244.655858 68.383074 239.90846 
z
" clip-path="url(#p81ab6647ec)" style="fill: #2ca02c; opacity: 0.5"/>
   </g>
   <g id="patch_85">
    <path d="M 213.42375 225.6232 
C 213.42375 225.6232 213.42375 225.6232 213.42375 225.6232 
C 213.42375 225.6232 213.42375 225.6232 213.42375 225.6232 
L 75.561335 299.312196 
C 73.149384 294.799753 70.960435 290.17161 69.002395 285.444484 
C 67.044355 280.717357 65.319584 275.896945 63.834312 271.00066 
z
" clip-path="url(#p81ab6647ec)" style="fill: #2ca02c; opacity: 0.5"/>
   </g>
   <g id="patch_86">
    <path d="M 213.42375 225.6232 
C 213.42375 225.6232 213.42375 225.6232 213.42375 225.6232 
C 213.42375 225.6232 213.42375 225.6232 213.42375 225.6232 
L 84.409364 331.50257 
C 80.943774 327.279737 77.687603 322.889297 74.652611 318.347111 
C 71.617619 313.804924 68.807465 309.116466 66.232299 304.29867 
z
" clip-path="url(#p81ab6647ec)" style="fill: #2ca02c; opacity: 0.5"/>
   </g>
   <g id="patch_87">
    <path d="M 213.42375 225.6232 
C 213.42375 225.6232 213.42375 225.6232 213.42375 225.6232 
C 213.42375 225.6232 213.42375 225.6232 213.42375 225.6232 
L 109.781268 351.91193 
C 105.647649 348.519557 101.683078 344.926279 97.901875 341.145075 
C 94.120671 337.363872 90.527393 333.399301 87.13502 329.265682 
z
" clip-path="url(#p81ab6647ec)" style="fill: #2ca02c; opacity: 0.5"/>
   </g>
   <g id="patch_88">
    <path d="M 213.42375 225.6232 
C 213.42375 225.6232 213.42375 225.6232 213.42375 225.6232 
C 213.42375 225.6232 213.42375 225.6232 213.42375 225.6232 
L 140.288806 362.449056 
C 135.810292 360.05524 131.452006 357.442984 127.229692 354.621724 
C 123.007378 351.800464 118.926124 348.7736 115.000674 345.552066 
z
" clip-path="url(#p81ab6647ec)" style="fill: #2ca02c; opacity: 0.5"/>
   </g>
   <g id="patch_89">
    <path d="M 213.42375 225.6232 
C 213.42375 225.6232 213.42375 225.6232 213.42375 225.6232 
C 213.42375 225.6232 213.42375 225.6232 213.42375 225.6232 
L 174.187601 354.967451 
C 169.95397 353.683193 165.785945 352.19185 161.69858 350.498807 
C 157.611215 348.805765 153.609437 346.913065 149.707701 344.827544 
z
" clip-path="url(#p81ab6647ec)" style="fill: #2ca02c; opacity: 0.5"/>
   </g>
   <g id="patch_90">
    <path d="M 213.42375 225.6232 
C 213.42375 225.6232 213.42375 225.6232 213.42375 225.6232 
C 213.42375 225.6232 213.42375 225.6232 213.42375 225.6232 
L 201.442564 347.270219 
C 197.460876 346.878056 193.500841 346.290641 189.576764 345.510093 
C 185.652687 344.729546 181.769298 343.756808 177.940624 342.595392 
z
" clip-path="url(#p81ab6647ec)" style="fill: #2ca02c; opacity: 0.5"/>
   </g>
   <g id="patch_91">
    <path d="M 213.42375 225.6232 
C 213.42375 225.6232 213.42375 225.6232 213.42375 225.6232 
C 213.42375 225.6232 213.42375 225.6232 213.42375 225.6232 
L 228.285028 376.51229 
C 223.346203 376.998722 218.386472 377.242378 213.42375 377.242378 
C 208.461028 377.242378 203.501297 376.998722 198.562472 376.51229 
z
" clip-path="url(#p81ab6647ec)" style="fill: #2ca02c; opacity: 0.5"/>
   </g>
   <g id="patch_92">
    <path d="M 213.42375 225.6232 
C 213.42375 225.6232 213.42375 225.6232 213.42375 225.6232 
C 213.42375 225.6232 213.42375 225.6232 213.42375 225.6232 
L 252.659899 354.967451 
C 248.426269 356.251708 244.132137 357.327332 239.793013 358.190438 
C 235.453889 359.053543 231.075005 359.703089 226.672176 360.13673 
z
" clip-path="url(#p81ab6647ec)" style="fill: #2ca02c; opacity: 0.5"/>
   </g>
   <g id="patch_93">
    <path d="M 213.42375 225.6232 
C 213.42375 225.6232 213.42375 225.6232 213.42375 225.6232 
C 213.42375 225.6232 213.42375 225.6232 213.42375 225.6232 
L 284.342483 358.302818 
C 279.999681 360.624094 275.545528 362.730751 270.996113 364.615181 
C 266.446698 366.49961 261.807505 368.15954 257.09529 369.588975 
z
" clip-path="url(#p81ab6647ec)" style="fill: #2ca02c; opacity: 0.5"/>
   </g>
   <g id="patch_94">
    <path d="M 213.42375 225.6232 
C 213.42375 225.6232 213.42375 225.6232 213.42375 225.6232 
C 213.42375 225.6232 213.42375 225.6232 213.42375 225.6232 
L 309.609938 342.82641 
C 305.773702 345.974727 301.785205 348.932799 297.658852 351.689939 
C 293.532499 354.44708 289.273266 356.999966 284.896536 359.339377 
z
" clip-path="url(#p81ab6647ec)" style="fill: #2ca02c; opacity: 0.5"/>
   </g>
   <g id="patch_95">
    <path d="M 213.42375 225.6232 
C 213.42375 225.6232 213.42375 225.6232 213.42375 225.6232 
C 213.42375 225.6232 213.42375 225.6232 213.42375 225.6232 
L 336.986824 327.028794 
C 333.667667 331.073198 330.151942 334.952203 326.452347 338.651797 
C 322.752753 342.351392 318.873748 345.867117 314.829344 349.186274 
z
" clip-path="url(#p81ab6647ec)" style="fill: #2ca02c; opacity: 0.5"/>
   </g>
   <g id="patch_96">
    <path d="M 213.42375 225.6232 
C 213.42375 225.6232 213.42375 225.6232 213.42375 225.6232 
C 213.42375 225.6232 213.42375 225.6232 213.42375 225.6232 
L 347.139927 297.095986 
C 344.800516 301.472716 342.24763 305.731949 339.490489 309.858302 
C 336.733349 313.984655 333.775277 317.973152 330.62696 321.809388 
z
" clip-path="url(#p81ab6647ec)" style="fill: #2ca02c; opacity: 0.5"/>
   </g>
   <g id="patch_97">
    <path d="M 213.42375 225.6232 
C 213.42375 225.6232 213.42375 225.6232 213.42375 225.6232 
C 213.42375 225.6232 213.42375 225.6232 213.42375 225.6232 
L 349.516396 266.906453 
C 348.165134 271.360968 346.595981 275.746456 344.814607 280.047075 
C 343.033232 284.347694 341.041782 288.55826 338.847451 292.663565 
z
" clip-path="url(#p81ab6647ec)" style="fill: #2ca02c; opacity: 0.5"/>
   </g>
   <g id="patch_98">
    <path d="M 213.42375 225.6232 
C 213.42375 225.6232 213.42375 225.6232 213.42375 225.6232 
C 213.42375 225.6232 213.42375 225.6232 213.42375 225.6232 
L 352.616012 239.332441 
C 352.167288 243.888412 351.495149 248.419605 350.602022 252.909655 
C 349.708896 257.399705 348.595859 261.843198 347.266931 266.224085 
z
" clip-path="url(#p81ab6647ec)" style="fill: #2ca02c; opacity: 0.5"/>
   </g>
   <g id="matplotlib.axis_1">
    <g id="xtick_1">
     <g id="line2d_1">
      <path d="M 213.42375 225.6232 
L 393.60375 225.6232 
" clip-path="url(#p81ab6647ec)" style="fill: none; stroke: #b0b0b0; stroke-width: 0.8; stroke-linecap: square"/>
     </g>
     <g id="text_1">
      <!-- 0° -->
      <g transform="translate(401.9225 228.382575) scale(0.1 -0.1)">
       <defs>
        <path id="DejaVuSans-30" d="M 2034 4250 
Q 1547 4250 1301 3770 
Q 1056 3291 1056 2328 
Q 1056 1369 1301 889 
Q 1547 409 2034 409 
Q 2525 409 2770 889 
Q 3016 1369 3016 2328 
Q 3016 3291 2770 3770 
Q 2525 4250 2034 4250 
z
M 2034 4750 
Q 2819 4750 3233 4129 
Q 3647 3509 3647 2328 
Q 3647 1150 3233 529 
Q 2819 -91 2034 -91 
Q 1250 -91 836 529 
Q 422 1150 422 2328 
Q 422 3509 836 4129 
Q 1250 4750 2034 4750 
z
" transform="scale(0.015625)"/>
        <path id="DejaVuSans-b0" d="M 1600 4347 
Q 1350 4347 1178 4173 
Q 1006 4000 1006 3750 
Q 1006 3503 1178 3333 
Q 1350 3163 1600 3163 
Q 1850 3163 2022 3333 
Q 2194 3503 2194 3750 
Q 2194 3997 2020 4172 
Q 1847 4347 1600 4347 
z
M 1600 4750 
Q 1800 4750 1984 4673 
Q 2169 4597 2303 4453 
Q 2447 4313 2519 4134 
Q 2591 3956 2591 3750 
Q 2591 3338 2302 3052 
Q 2013 2766 1594 2766 
Q 1172 2766 890 3047 
Q 609 3328 609 3750 
Q 609 4169 896 4459 
Q 1184 4750 1600 4750 
z
" transform="scale(0.015625)"/>
       </defs>
       <use xlink:href="#DejaVuSans-30"/>
       <use xlink:href="#DejaVuSans-b0" transform="translate(63.623047 0)"/>
      </g>
     </g>
    </g>
    <g id="xtick_2">
     <g id="line2d_2">
      <path d="M 213.42375 225.6232 
L 340.83025 98.2167 
" clip-path="url(#p81ab6647ec)" style="fill: none; stroke: #b0b0b0; stroke-width: 0.8; stroke-linecap: square"/>
     </g>
     <g id="text_2">
      <!-- 45° -->
      <g transform="translate(341.867245 91.07658) scale(0.1 -0.1)">
       <defs>
        <path id="DejaVuSans-34" d="M 2419 4116 
L 825 1625 
L 2419 1625 
L 2419 4116 
z
M 2253 4666 
L 3047 4666 
L 3047 1625 
L 3713 1625 
L 3713 1100 
L 3047 1100 
L 3047 0 
L 2419 0 
L 2419 1100 
L 313 1100 
L 313 1709 
L 2253 4666 
z
" transform="scale(0.015625)"/>
        <path id="DejaVuSans-35" d="M 691 4666 
L 3169 4666 
L 3169 4134 
L 1269 4134 
L 1269 2991 
Q 1406 3038 1543 3061 
Q 1681 3084 1819 3084 
Q 2600 3084 3056 2656 
Q 3513 2228 3513 1497 
Q 3513 744 3044 326 
Q 2575 -91 1722 -91 
Q 1428 -91 1123 -41 
Q 819 9 494 109 
L 494 744 
Q 775 591 1075 516 
Q 1375 441 1709 441 
Q 2250 441 2565 725 
Q 2881 1009 2881 1497 
Q 2881 1984 2565 2268 
Q 2250 2553 1709 2553 
Q 1456 2553 1204 2497 
Q 953 2441 691 2322 
L 691 4666 
z
" transform="scale(0.015625)"/>
       </defs>
       <use xlink:href="#DejaVuSans-34"/>
       <use xlink:href="#DejaVuSans-35" transform="translate(63.623047 0)"/>
       <use xlink:href="#DejaVuSans-b0" transform="translate(127.246094 0)"/>
      </g>
     </g>
    </g>
    <g id="xtick_3">
     <g id="line2d_3">
      <path d="M 213.42375 225.6232 
L 213.42375 45.4432 
" clip-path="url(#p81ab6647ec)" style="fill: none; stroke: #b0b0b0; stroke-width: 0.8; stroke-linecap: square"/>
     </g>
     <g id="text_3">
      <!-- 90° -->
      <g transform="translate(204.56125 34.202575) scale(0.1 -0.1)">
       <defs>
        <path id="DejaVuSans-39" d="M 703 97 
L 703 672 
Q 941 559 1184 500 
Q 1428 441 1663 441 
Q 2288 441 2617 861 
Q 2947 1281 2994 2138 
Q 2813 1869 2534 1725 
Q 2256 1581 1919 1581 
Q 1219 1581 811 2004 
Q 403 2428 403 3163 
Q 403 3881 828 4315 
Q 1253 4750 1959 4750 
Q 2769 4750 3195 4129 
Q 3622 3509 3622 2328 
Q 3622 1225 3098 567 
Q 2575 -91 1691 -91 
Q 1453 -91 1209 -44 
Q 966 3 703 97 
z
M 1959 2075 
Q 2384 2075 2632 2365 
Q 2881 2656 2881 3163 
Q 2881 3666 2632 3958 
Q 2384 4250 1959 4250 
Q 1534 4250 1286 3958 
Q 1038 3666 1038 3163 
Q 1038 2656 1286 2365 
Q 1534 2075 1959 2075 
z
" transform="scale(0.015625)"/>
       </defs>
       <use xlink:href="#DejaVuSans-39"/>
       <use xlink:href="#DejaVuSans-30" transform="translate(63.623047 0)"/>
       <use xlink:href="#DejaVuSans-b0" transform="translate(127.246094 0)"/>
      </g>
     </g>
    </g>
    <g id="xtick_4">
     <g id="line2d_4">
      <path d="M 213.42375 225.6232 
L 86.01725 98.2167 
" clip-path="url(#p81ab6647ec)" style="fill: none; stroke: #b0b0b0; stroke-width: 0.8; stroke-linecap: square"/>
     </g>
     <g id="text_4">
      <!-- 135° -->
      <g transform="translate(64.074005 91.07658) scale(0.1 -0.1)">
       <defs>
        <path id="DejaVuSans-31" d="M 794 531 
L 1825 531 
L 1825 4091 
L 703 3866 
L 703 4441 
L 1819 4666 
L 2450 4666 
L 2450 531 
L 3481 531 
L 3481 0 
L 794 0 
L 794 531 
z
" transform="scale(0.015625)"/>
        <path id="DejaVuSans-33" d="M 2597 2516 
Q 3050 2419 3304 2112 
Q 3559 1806 3559 1356 
Q 3559 666 3084 287 
Q 2609 -91 1734 -91 
Q 1441 -91 1130 -33 
Q 819 25 488 141 
L 488 750 
Q 750 597 1062 519 
Q 1375 441 1716 441 
Q 2309 441 2620 675 
Q 2931 909 2931 1356 
Q 2931 1769 2642 2001 
Q 2353 2234 1838 2234 
L 1294 2234 
L 1294 2753 
L 1863 2753 
Q 2328 2753 2575 2939 
Q 2822 3125 2822 3475 
Q 2822 3834 2567 4026 
Q 2313 4219 1838 4219 
Q 1578 4219 1281 4162 
Q 984 4106 628 3988 
L 628 4550 
Q 988 4650 1302 4700 
Q 1616 4750 1894 4750 
Q 2613 4750 3031 4423 
Q 3450 4097 3450 3541 
Q 3450 3153 3228 2886 
Q 3006 2619 2597 2516 
z
" transform="scale(0.015625)"/>
       </defs>
       <use xlink:href="#DejaVuSans-31"/>
       <use xlink:href="#DejaVuSans-33" transform="translate(63.623047 0)"/>
       <use xlink:href="#DejaVuSans-35" transform="translate(127.246094 0)"/>
       <use xlink:href="#DejaVuSans-b0" transform="translate(190.869141 0)"/>
      </g>
     </g>
    </g>
    <g id="xtick_5">
     <g id="line2d_5">
      <path d="M 213.42375 225.6232 
L 33.24375 225.6232 
" clip-path="url(#p81ab6647ec)" style="fill: none; stroke: #b0b0b0; stroke-width: 0.8; stroke-linecap: square"/>
     </g>
     <g id="text_5">
      <!-- 180° -->
      <g transform="translate(7.2 228.382575) scale(0.1 -0.1)">
       <defs>
        <path id="DejaVuSans-38" d="M 2034 2216 
Q 1584 2216 1326 1975 
Q 1069 1734 1069 1313 
Q 1069 891 1326 650 
Q 1584 409 2034 409 
Q 2484 409 2743 651 
Q 3003 894 3003 1313 
Q 3003 1734 2745 1975 
Q 2488 2216 2034 2216 
z
M 1403 2484 
Q 997 2584 770 2862 
Q 544 3141 544 3541 
Q 544 4100 942 4425 
Q 1341 4750 2034 4750 
Q 2731 4750 3128 4425 
Q 3525 4100 3525 3541 
Q 3525 3141 3298 2862 
Q 3072 2584 2669 2484 
Q 3125 2378 3379 2068 
Q 3634 1759 3634 1313 
Q 3634 634 3220 271 
Q 2806 -91 2034 -91 
Q 1263 -91 848 271 
Q 434 634 434 1313 
Q 434 1759 690 2068 
Q 947 2378 1403 2484 
z
M 1172 3481 
Q 1172 3119 1398 2916 
Q 1625 2713 2034 2713 
Q 2441 2713 2670 2916 
Q 2900 3119 2900 3481 
Q 2900 3844 2670 4047 
Q 2441 4250 2034 4250 
Q 1625 4250 1398 4047 
Q 1172 3844 1172 3481 
z
" transform="scale(0.015625)"/>
       </defs>
       <use xlink:href="#DejaVuSans-31"/>
       <use xlink:href="#DejaVuSans-38" transform="translate(63.623047 0)"/>
       <use xlink:href="#DejaVuSans-30" transform="translate(127.246094 0)"/>
       <use xlink:href="#DejaVuSans-b0" transform="translate(190.869141 0)"/>
      </g>
     </g>
    </g>
    <g id="xtick_6">
     <g id="line2d_6">
      <path d="M 213.42375 225.6232 
L 86.01725 353.0297 
" clip-path="url(#p81ab6647ec)" style="fill: none; stroke: #b0b0b0; stroke-width: 0.8; stroke-linecap: square"/>
     </g>
     <g id="text_6">
      <!-- 225° -->
      <g transform="translate(64.074005 365.68857) scale(0.1 -0.1)">
       <defs>
        <path id="DejaVuSans-32" d="M 1228 531 
L 3431 531 
L 3431 0 
L 469 0 
L 469 531 
Q 828 903 1448 1529 
Q 2069 2156 2228 2338 
Q 2531 2678 2651 2914 
Q 2772 3150 2772 3378 
Q 2772 3750 2511 3984 
Q 2250 4219 1831 4219 
Q 1534 4219 1204 4116 
Q 875 4013 500 3803 
L 500 4441 
Q 881 4594 1212 4672 
Q 1544 4750 1819 4750 
Q 2544 4750 2975 4387 
Q 3406 4025 3406 3419 
Q 3406 3131 3298 2873 
Q 3191 2616 2906 2266 
Q 2828 2175 2409 1742 
Q 1991 1309 1228 531 
z
" transform="scale(0.015625)"/>
       </defs>
       <use xlink:href="#DejaVuSans-32"/>
       <use xlink:href="#DejaVuSans-32" transform="translate(63.623047 0)"/>
       <use xlink:href="#DejaVuSans-35" transform="translate(127.246094 0)"/>
       <use xlink:href="#DejaVuSans-b0" transform="translate(190.869141 0)"/>
      </g>
     </g>
    </g>
    <g id="xtick_7">
     <g id="line2d_7">
      <path d="M 213.42375 225.6232 
L 213.42375 405.8032 
" clip-path="url(#p81ab6647ec)" style="fill: none; stroke: #b0b0b0; stroke-width: 0.8; stroke-linecap: square"/>
     </g>
     <g id="text_7">
      <!-- 270° -->
      <g transform="translate(201.38 422.562575) scale(0.1 -0.1)">
       <defs>
        <path id="DejaVuSans-37" d="M 525 4666 
L 3525 4666 
L 3525 4397 
L 1831 0 
L 1172 0 
L 2766 4134 
L 525 4134 
L 525 4666 
z
" transform="scale(0.015625)"/>
       </defs>
       <use xlink:href="#DejaVuSans-32"/>
       <use xlink:href="#DejaVuSans-37" transform="translate(63.623047 0)"/>
       <use xlink:href="#DejaVuSans-30" transform="translate(127.246094 0)"/>
       <use xlink:href="#DejaVuSans-b0" transform="translate(190.869141 0)"/>
      </g>
     </g>
    </g>
    <g id="xtick_8">
     <g id="line2d_8">
      <path d="M 213.42375 225.6232 
L 340.83025 353.0297 
" clip-path="url(#p81ab6647ec)" style="fill: none; stroke: #b0b0b0; stroke-width: 0.8; stroke-linecap: square"/>
     </g>
     <g id="text_8">
      <!-- 315° -->
      <g transform="translate(338.685995 365.68857) scale(0.1 -0.1)">
       <use xlink:href="#DejaVuSans-33"/>
       <use xlink:href="#DejaVuSans-31" transform="translate(63.623047 0)"/>
       <use xlink:href="#DejaVuSans-35" transform="translate(127.246094 0)"/>
       <use xlink:href="#DejaVuSans-b0" transform="translate(190.869141 0)"/>
      </g>
     </g>
    </g>
   </g>
   <g id="matplotlib.axis_2">
    <g id="ytick_1">
     <g id="line2d_9">
      <path d="M 236.930599 225.6232 
C 236.930599 222.536309 236.322549 219.479434 235.141247 216.627518 
C 233.959945 213.775603 232.228364 211.184109 230.045603 209.001347 
C 227.862841 206.818586 225.271347 205.087005 222.419432 203.905703 
C 219.567516 202.724401 216.510641 202.116351 213.42375 202.116351 
C 210.336859 202.116351 207.279984 202.724401 204.428068 203.905703 
C 201.576153 205.087005 198.984659 206.818586 196.801897 209.001347 
C 194.619136 211.184109 192.887555 213.775603 191.706253 216.627518 
C 190.524951 219.479434 189.916901 222.536309 189.916901 225.6232 
C 189.916901 228.710091 190.524951 231.766966 191.706253 234.618882 
C 192.887555 237.470797 194.619136 240.062291 196.801897 242.245053 
C 198.984659 244.427814 201.576153 246.159395 204.428068 247.340697 
C 207.279984 248.521999 210.336859 249.130049 213.42375 249.130049 
C 216.510641 249.130049 219.567516 248.521999 222.419432 247.340697 
C 225.271347 246.159395 227.862841 244.427814 230.045603 242.245053 
C 232.228364 240.062291 233.959945 237.470797 235.141247 234.618882 
C 236.322549 231.766966 236.930599 228.710091 236.930599 225.6232 
" clip-path="url(#p81ab6647ec)" style="fill: none; stroke: #b0b0b0; stroke-width: 0.8; stroke-linecap: square"/>
     </g>
     <g id="text_9">
      <!-- 20 -->
      <g transform="translate(235.141247 214.547831) scale(0.1 -0.1)">
       <use xlink:href="#DejaVuSans-32"/>
       <use xlink:href="#DejaVuSans-30" transform="translate(63.623047 0)"/>
      </g>
     </g>
    </g>
    <g id="ytick_2">
     <g id="line2d_10">
      <path d="M 260.437449 225.6232 
C 260.437449 219.449418 259.221348 213.335668 256.858744 207.631836 
C 254.49614 201.928005 251.032978 196.745018 246.667455 192.379495 
C 242.301932 188.013972 237.118945 184.55081 231.415114 182.188206 
C 225.711282 179.825602 219.597532 178.609501 213.42375 178.609501 
C 207.249968 178.609501 201.136218 179.825602 195.432386 182.188206 
C 189.728555 184.55081 184.545568 188.013972 180.180045 192.379495 
C 175.814522 196.745018 172.35136 201.928005 169.988756 207.631836 
C 167.626152 213.335668 166.410051 219.449418 166.410051 225.6232 
C 166.410051 231.796982 167.626152 237.910732 169.988756 243.614564 
C 172.35136 249.318395 175.814522 254.501382 180.180045 258.866905 
C 184.545568 263.232428 189.728555 266.69559 195.432386 269.058194 
C 201.136218 271.420798 207.249968 272.636899 213.42375 272.636899 
C 219.597532 272.636899 225.711282 271.420798 231.415114 269.058194 
C 237.118945 266.69559 242.301932 263.232428 246.667455 258.866905 
C 251.032978 254.501382 254.49614 249.318395 256.858744 243.614564 
C 259.221348 237.910732 260.437449 231.796982 260.437449 225.6232 
" clip-path="url(#p81ab6647ec)" style="fill: none; stroke: #b0b0b0; stroke-width: 0.8; stroke-linecap: square"/>
     </g>
     <g id="text_10">
      <!-- 40 -->
      <g transform="translate(256.858744 205.552149) scale(0.1 -0.1)">
       <use xlink:href="#DejaVuSans-34"/>
       <use xlink:href="#DejaVuSans-30" transform="translate(63.623047 0)"/>
      </g>
     </g>
    </g>
    <g id="ytick_3">
     <g id="line2d_11">
      <path d="M 283.944298 225.6232 
C 283.944298 216.362526 282.120147 207.191901 278.576241 198.636155 
C 275.032335 190.080408 269.837593 182.305927 263.289308 175.757642 
C 256.741023 169.209357 248.966542 164.014615 240.410795 160.470709 
C 231.855049 156.926803 222.684424 155.102652 213.42375 155.102652 
C 204.163076 155.102652 194.992451 156.926803 186.436705 160.470709 
C 177.880958 164.014615 170.106477 169.209357 163.558192 175.757642 
C 157.009907 182.305927 151.815165 190.080408 148.271259 198.636155 
C 144.727353 207.191901 142.903202 216.362526 142.903202 225.6232 
C 142.903202 234.883874 144.727353 244.054499 148.271259 252.610245 
C 151.815165 261.165992 157.009907 268.940473 163.558192 275.488758 
C 170.106477 282.037043 177.880958 287.231785 186.436705 290.775691 
C 194.992451 294.319597 204.163076 296.143748 213.42375 296.143748 
C 222.684424 296.143748 231.855049 294.319597 240.410795 290.775691 
C 248.966542 287.231785 256.741023 282.037043 263.289308 275.488758 
C 269.837593 268.940473 275.032335 261.165992 278.576241 252.610245 
C 282.120147 244.054499 283.944298 234.883874 283.944298 225.6232 
" clip-path="url(#p81ab6647ec)" style="fill: none; stroke: #b0b0b0; stroke-width: 0.8; stroke-linecap: square"/>
     </g>
     <g id="text_11">
      <!-- 60 -->
      <g transform="translate(278.576241 196.556467) scale(0.1 -0.1)">
       <defs>
        <path id="DejaVuSans-36" d="M 2113 2584 
Q 1688 2584 1439 2293 
Q 1191 2003 1191 1497 
Q 1191 994 1439 701 
Q 1688 409 2113 409 
Q 2538 409 2786 701 
Q 3034 994 3034 1497 
Q 3034 2003 2786 2293 
Q 2538 2584 2113 2584 
z
M 3366 4563 
L 3366 3988 
Q 3128 4100 2886 4159 
Q 2644 4219 2406 4219 
Q 1781 4219 1451 3797 
Q 1122 3375 1075 2522 
Q 1259 2794 1537 2939 
Q 1816 3084 2150 3084 
Q 2853 3084 3261 2657 
Q 3669 2231 3669 1497 
Q 3669 778 3244 343 
Q 2819 -91 2113 -91 
Q 1303 -91 875 529 
Q 447 1150 447 2328 
Q 447 3434 972 4092 
Q 1497 4750 2381 4750 
Q 2619 4750 2861 4703 
Q 3103 4656 3366 4563 
z
" transform="scale(0.015625)"/>
       </defs>
       <use xlink:href="#DejaVuSans-36"/>
       <use xlink:href="#DejaVuSans-30" transform="translate(63.623047 0)"/>
      </g>
     </g>
    </g>
    <g id="ytick_4">
     <g id="line2d_12">
      <path d="M 307.451147 225.6232 
C 307.451147 213.275635 305.018946 201.048135 300.293738 189.640473 
C 295.568529 178.232811 288.642207 167.866836 279.91116 159.13579 
C 271.180114 150.404743 260.814139 143.478421 249.406477 138.753212 
C 237.998815 134.028004 225.771315 131.595803 213.42375 131.595803 
C 201.076185 131.595803 188.848685 134.028004 177.441023 138.753212 
C 166.033361 143.478421 155.667386 150.404743 146.93634 159.13579 
C 138.205293 167.866836 131.278971 178.232811 126.553762 189.640473 
C 121.828554 201.048135 119.396353 213.275635 119.396353 225.6232 
C 119.396353 237.970765 121.828554 250.198265 126.553762 261.605927 
C 131.278971 273.013589 138.205293 283.379564 146.93634 292.11061 
C 155.667386 300.841657 166.033361 307.767979 177.441023 312.493188 
C 188.848685 317.218396 201.076185 319.650597 213.42375 319.650597 
C 225.771315 319.650597 237.998815 317.218396 249.406477 312.493188 
C 260.814139 307.767979 271.180114 300.841657 279.91116 292.11061 
C 288.642207 283.379564 295.568529 273.013589 300.293738 261.605927 
C 305.018946 250.198265 307.451147 237.970765 307.451147 225.6232 
" clip-path="url(#p81ab6647ec)" style="fill: none; stroke: #b0b0b0; stroke-width: 0.8; stroke-linecap: square"/>
     </g>
     <g id="text_12">
      <!-- 80 -->
      <g transform="translate(300.293738 187.560785) scale(0.1 -0.1)">
       <use xlink:href="#DejaVuSans-38"/>
       <use xlink:href="#DejaVuSans-30" transform="translate(63.623047 0)"/>
      </g>
     </g>
    </g>
    <g id="ytick_5">
     <g id="line2d_13">
      <path d="M 330.957997 225.6232 
C 330.957997 210.188744 327.917745 194.904369 322.011235 180.644791 
C 316.104724 166.385213 307.446821 153.427746 296.533013 142.513937 
C 285.619204 131.600129 272.661737 122.942226 258.402159 117.035715 
C 244.142581 111.129205 228.858206 108.088953 213.42375 108.088953 
C 197.989294 108.088953 182.704919 111.129205 168.445341 117.035715 
C 154.185763 122.942226 141.228296 131.600129 130.314487 142.513937 
C 119.400679 153.427746 110.742776 166.385213 104.836265 180.644791 
C 98.929755 194.904369 95.889503 210.188744 95.889503 225.6232 
C 95.889503 241.057656 98.929755 256.342031 104.836265 270.601609 
C 110.742776 284.861187 119.400679 297.818654 130.314487 308.732463 
C 141.228296 319.646271 154.185763 328.304174 168.445341 334.210685 
C 182.704919 340.117195 197.989294 343.157447 213.42375 343.157447 
C 228.858206 343.157447 244.142581 340.117195 258.402159 334.210685 
C 272.661737 328.304174 285.619204 319.646271 296.533013 308.732463 
C 307.446821 297.818654 316.104724 284.861187 322.011235 270.601609 
C 327.917745 256.342031 330.957997 241.057656 330.957997 225.6232 
" clip-path="url(#p81ab6647ec)" style="fill: none; stroke: #b0b0b0; stroke-width: 0.8; stroke-linecap: square"/>
     </g>
     <g id="text_13">
      <!-- 100 -->
      <g transform="translate(322.011235 178.565104) scale(0.1 -0.1)">
       <use xlink:href="#DejaVuSans-31"/>
       <use xlink:href="#DejaVuSans-30" transform="translate(63.623047 0)"/>
       <use xlink:href="#DejaVuSans-30" transform="translate(127.246094 0)"/>
      </g>
     </g>
    </g>
    <g id="ytick_6">
     <g id="line2d_14">
      <path d="M 354.464846 225.6232 
C 354.464846 207.101853 350.816544 188.760603 343.728732 171.649109 
C 336.640919 154.537616 326.251435 138.988655 313.154865 125.892085 
C 300.058295 112.795515 284.509334 102.406031 267.397841 95.318218 
C 250.286347 88.230406 231.945097 84.582104 213.42375 84.582104 
C 194.902403 84.582104 176.561153 88.230406 159.449659 95.318218 
C 142.338166 102.406031 126.789205 112.795515 113.692635 125.892085 
C 100.596065 138.988655 90.206581 154.537616 83.118768 171.649109 
C 76.030956 188.760603 72.382654 207.101853 72.382654 225.6232 
C 72.382654 244.144547 76.030956 262.485797 83.118768 279.597291 
C 90.206581 296.708784 100.596065 312.257745 113.692635 325.354315 
C 126.789205 338.450885 142.338166 348.840369 159.449659 355.928182 
C 176.561153 363.015994 194.902403 366.664296 213.42375 366.664296 
C 231.945097 366.664296 250.286347 363.015994 267.397841 355.928182 
C 284.509334 348.840369 300.058295 338.450885 313.154865 325.354315 
C 326.251435 312.257745 336.640919 296.708784 343.728732 279.597291 
C 350.816544 262.485797 354.464846 244.144547 354.464846 225.6232 
" clip-path="url(#p81ab6647ec)" style="fill: none; stroke: #b0b0b0; stroke-width: 0.8; stroke-linecap: square"/>
     </g>
     <g id="text_14">
      <!-- 120 -->
      <g transform="translate(343.728732 169.569422) scale(0.1 -0.1)">
       <use xlink:href="#DejaVuSans-31"/>
       <use xlink:href="#DejaVuSans-32" transform="translate(63.623047 0)"/>
       <use xlink:href="#DejaVuSans-30" transform="translate(127.246094 0)"/>
      </g>
     </g>
    </g>
    <g id="ytick_7">
     <g id="line2d_15">
      <path d="M 377.971695 225.6232 
C 377.971695 204.014962 373.715343 182.616837 365.446229 162.653428 
C 357.177114 142.690019 345.05605 124.549564 329.776718 109.270232 
C 314.497386 93.9909 296.356931 81.869836 276.393522 73.600721 
C 256.430113 65.331607 235.031988 61.075255 213.42375 61.075255 
C 191.815512 61.075255 170.417387 65.331607 150.453978 73.600721 
C 130.490569 81.869836 112.350114 93.9909 97.070782 109.270232 
C 81.79145 124.549564 69.670386 142.690019 61.401271 162.653428 
C 53.132157 182.616837 48.875805 204.014962 48.875805 225.6232 
C 48.875805 247.231438 53.132157 268.629563 61.401271 288.592972 
C 69.670386 308.556381 81.79145 326.696836 97.070782 341.976168 
C 112.350114 357.2555 130.490569 369.376564 150.453978 377.645679 
C 170.417387 385.914793 191.815512 390.171145 213.42375 390.171145 
C 235.031988 390.171145 256.430113 385.914793 276.393522 377.645679 
C 296.356931 369.376564 314.497386 357.2555 329.776718 341.976168 
C 345.05605 326.696836 357.177114 308.556381 365.446229 288.592972 
C 373.715343 268.629563 377.971695 247.231438 377.971695 225.6232 
" clip-path="url(#p81ab6647ec)" style="fill: none; stroke: #b0b0b0; stroke-width: 0.8; stroke-linecap: square"/>
     </g>
     <g id="text_15">
      <!-- 140 -->
      <g transform="translate(365.446229 160.57374) scale(0.1 -0.1)">
       <use xlink:href="#DejaVuSans-31"/>
       <use xlink:href="#DejaVuSans-34" transform="translate(63.623047 0)"/>
       <use xlink:href="#DejaVuSans-30" transform="translate(127.246094 0)"/>
      </g>
     </g>
    </g>
   </g>
   <g id="patch_99">
    <path d="M 393.60375 225.6232 
C 393.60375 201.962179 388.943045 178.531232 379.888364 156.671299 
C 370.833684 134.811366 357.561118 114.947568 340.83025 98.2167 
C 324.099382 81.485832 304.235584 68.213266 282.375651 59.158586 
C 260.515718 50.103905 237.084771 45.4432 213.42375 45.4432 
C 189.762729 45.4432 166.331782 50.103905 144.471849 59.158586 
C 122.611916 68.213266 102.748118 81.485832 86.01725 98.2167 
C 69.286382 114.947568 56.013816 134.811366 46.959136 156.671299 
C 37.904455 178.531232 33.24375 201.962179 33.24375 225.6232 
C 33.24375 249.284221 37.904455 272.715168 46.959136 294.575101 
C 56.013816 316.435034 69.286382 336.298832 86.01725 353.0297 
C 102.748118 369.760568 122.611916 383.033134 144.471849 392.087814 
C 166.331782 401.142495 189.762729 405.8032 213.42375 405.8032 
C 237.084771 405.8032 260.515718 401.142495 282.375651 392.087814 
C 304.235584 383.033134 324.099382 369.760568 340.83025 353.0297 
C 357.561118 336.298832 370.833684 316.435034 379.888364 294.575101 
C 388.943045 272.715168 393.60375 249.284221 393.60375 225.6232 
" style="fill: none; stroke: #000000; stroke-width: 0.8; stroke-linejoin: miter; stroke-linecap: square"/>
   </g>
   <g id="text_16">
    <!-- Exit Angle Distribution (Rose Histogram) -->
    <g transform="translate(92.162813 20.604138) scale(0.12 -0.12)">
     <defs>
      <path id="DejaVuSans-45" d="M 628 4666 
L 3578 4666 
L 3578 4134 
L 1259 4134 
L 1259 2753 
L 3481 2753 
L 3481 2222 
L 1259 2222 
L 1259 531 
L 3634 531 
L 3634 0 
L 628 0 
L 628 4666 
z
" transform="scale(0.015625)"/>
      <path id="DejaVuSans-78" d="M 3513 3500 
L 2247 1797 
L 3578 0 
L 2900 0 
L 1881 1375 
L 863 0 
L 184 0 
L 1544 1831 
L 300 3500 
L 978 3500 
L 1906 2253 
L 2834 3500 
L 3513 3500 
z
" transform="scale(0.015625)"/>
      <path id="DejaVuSans-69" d="M 603 3500 
L 1178 3500 
L 1178 0 
L 603 0 
L 603 3500 
z
M 603 4863 
L 1178 4863 
L 1178 4134 
L 603 4134 
L 603 4863 
z
" transform="scale(0.015625)"/>
      <path id="DejaVuSans-74" d="M 1172 4494 
L 1172 3500 
L 2356 3500 
L 2356 3053 
L 1172 3053 
L 1172 1153 
Q 1172 725 1289 603 
Q 1406 481 1766 481 
L 2356 481 
L 2356 0 
L 1766 0 
Q 1100 0 847 248 
Q 594 497 594 1153 
L 594 3053 
L 172 3053 
L 172 3500 
L 594 3500 
L 594 4494 
L 1172 4494 
z
" transform="scale(0.015625)"/>
      <path id="DejaVuSans-20" transform="scale(0.015625)"/>
      <path id="DejaVuSans-41" d="M 2188 4044 
L 1331 1722 
L 3047 1722 
L 2188 4044 
z
M 1831 4666 
L 2547 4666 
L 4325 0 
L 3669 0 
L 3244 1197 
L 1141 1197 
L 716 0 
L 50 0 
L 1831 4666 
z
" transform="scale(0.015625)"/>
      <path id="DejaVuSans-6e" d="M 3513 2113 
L 3513 0 
L 2938 0 
L 2938 2094 
Q 2938 2591 2744 2837 
Q 2550 3084 2163 3084 
Q 1697 3084 1428 2787 
Q 1159 2491 1159 1978 
L 1159 0 
L 581 0 
L 581 3500 
L 1159 3500 
L 1159 2956 
Q 1366 3272 1645 3428 
Q 1925 3584 2291 3584 
Q 2894 3584 3203 3211 
Q 3513 2838 3513 2113 
z
" transform="scale(0.015625)"/>
      <path id="DejaVuSans-67" d="M 2906 1791 
Q 2906 2416 2648 2759 
Q 2391 3103 1925 3103 
Q 1463 3103 1205 2759 
Q 947 2416 947 1791 
Q 947 1169 1205 825 
Q 1463 481 1925 481 
Q 2391 481 2648 825 
Q 2906 1169 2906 1791 
z
M 3481 434 
Q 3481 -459 3084 -895 
Q 2688 -1331 1869 -1331 
Q 1566 -1331 1297 -1286 
Q 1028 -1241 775 -1147 
L 775 -588 
Q 1028 -725 1275 -790 
Q 1522 -856 1778 -856 
Q 2344 -856 2625 -561 
Q 2906 -266 2906 331 
L 2906 616 
Q 2728 306 2450 153 
Q 2172 0 1784 0 
Q 1141 0 747 490 
Q 353 981 353 1791 
Q 353 2603 747 3093 
Q 1141 3584 1784 3584 
Q 2172 3584 2450 3431 
Q 2728 3278 2906 2969 
L 2906 3500 
L 3481 3500 
L 3481 434 
z
" transform="scale(0.015625)"/>
      <path id="DejaVuSans-6c" d="M 603 4863 
L 1178 4863 
L 1178 0 
L 603 0 
L 603 4863 
z
" transform="scale(0.015625)"/>
      <path id="DejaVuSans-65" d="M 3597 1894 
L 3597 1613 
L 953 1613 
Q 991 1019 1311 708 
Q 1631 397 2203 397 
Q 2534 397 2845 478 
Q 3156 559 3463 722 
L 3463 178 
Q 3153 47 2828 -22 
Q 2503 -91 2169 -91 
Q 1331 -91 842 396 
Q 353 884 353 1716 
Q 353 2575 817 3079 
Q 1281 3584 2069 3584 
Q 2775 3584 3186 3129 
Q 3597 2675 3597 1894 
z
M 3022 2063 
Q 3016 2534 2758 2815 
Q 2500 3097 2075 3097 
Q 1594 3097 1305 2825 
Q 1016 2553 972 2059 
L 3022 2063 
z
" transform="scale(0.015625)"/>
      <path id="DejaVuSans-44" d="M 1259 4147 
L 1259 519 
L 2022 519 
Q 2988 519 3436 956 
Q 3884 1394 3884 2338 
Q 3884 3275 3436 3711 
Q 2988 4147 2022 4147 
L 1259 4147 
z
M 628 4666 
L 1925 4666 
Q 3281 4666 3915 4102 
Q 4550 3538 4550 2338 
Q 4550 1131 3912 565 
Q 3275 0 1925 0 
L 628 0 
L 628 4666 
z
" transform="scale(0.015625)"/>
      <path id="DejaVuSans-73" d="M 2834 3397 
L 2834 2853 
Q 2591 2978 2328 3040 
Q 2066 3103 1784 3103 
Q 1356 3103 1142 2972 
Q 928 2841 928 2578 
Q 928 2378 1081 2264 
Q 1234 2150 1697 2047 
L 1894 2003 
Q 2506 1872 2764 1633 
Q 3022 1394 3022 966 
Q 3022 478 2636 193 
Q 2250 -91 1575 -91 
Q 1294 -91 989 -36 
Q 684 19 347 128 
L 347 722 
Q 666 556 975 473 
Q 1284 391 1588 391 
Q 1994 391 2212 530 
Q 2431 669 2431 922 
Q 2431 1156 2273 1281 
Q 2116 1406 1581 1522 
L 1381 1569 
Q 847 1681 609 1914 
Q 372 2147 372 2553 
Q 372 3047 722 3315 
Q 1072 3584 1716 3584 
Q 2034 3584 2315 3537 
Q 2597 3491 2834 3397 
z
" transform="scale(0.015625)"/>
      <path id="DejaVuSans-72" d="M 2631 2963 
Q 2534 3019 2420 3045 
Q 2306 3072 2169 3072 
Q 1681 3072 1420 2755 
Q 1159 2438 1159 1844 
L 1159 0 
L 581 0 
L 581 3500 
L 1159 3500 
L 1159 2956 
Q 1341 3275 1631 3429 
Q 1922 3584 2338 3584 
Q 2397 3584 2469 3576 
Q 2541 3569 2628 3553 
L 2631 2963 
z
" transform="scale(0.015625)"/>
      <path id="DejaVuSans-62" d="M 3116 1747 
Q 3116 2381 2855 2742 
Q 2594 3103 2138 3103 
Q 1681 3103 1420 2742 
Q 1159 2381 1159 1747 
Q 1159 1113 1420 752 
Q 1681 391 2138 391 
Q 2594 391 2855 752 
Q 3116 1113 3116 1747 
z
M 1159 2969 
Q 1341 3281 1617 3432 
Q 1894 3584 2278 3584 
Q 2916 3584 3314 3078 
Q 3713 2572 3713 1747 
Q 3713 922 3314 415 
Q 2916 -91 2278 -91 
Q 1894 -91 1617 61 
Q 1341 213 1159 525 
L 1159 0 
L 581 0 
L 581 4863 
L 1159 4863 
L 1159 2969 
z
" transform="scale(0.015625)"/>
      <path id="DejaVuSans-75" d="M 544 1381 
L 544 3500 
L 1119 3500 
L 1119 1403 
Q 1119 906 1312 657 
Q 1506 409 1894 409 
Q 2359 409 2629 706 
Q 2900 1003 2900 1516 
L 2900 3500 
L 3475 3500 
L 3475 0 
L 2900 0 
L 2900 538 
Q 2691 219 2414 64 
Q 2138 -91 1772 -91 
Q 1169 -91 856 284 
Q 544 659 544 1381 
z
M 1991 3584 
L 1991 3584 
z
" transform="scale(0.015625)"/>
      <path id="DejaVuSans-6f" d="M 1959 3097 
Q 1497 3097 1228 2736 
Q 959 2375 959 1747 
Q 959 1119 1226 758 
Q 1494 397 1959 397 
Q 2419 397 2687 759 
Q 2956 1122 2956 1747 
Q 2956 2369 2687 2733 
Q 2419 3097 1959 3097 
z
M 1959 3584 
Q 2709 3584 3137 3096 
Q 3566 2609 3566 1747 
Q 3566 888 3137 398 
Q 2709 -91 1959 -91 
Q 1206 -91 779 398 
Q 353 888 353 1747 
Q 353 2609 779 3096 
Q 1206 3584 1959 3584 
z
" transform="scale(0.015625)"/>
      <path id="DejaVuSans-28" d="M 1984 4856 
Q 1566 4138 1362 3434 
Q 1159 2731 1159 2009 
Q 1159 1288 1364 580 
Q 1569 -128 1984 -844 
L 1484 -844 
Q 1016 -109 783 600 
Q 550 1309 550 2009 
Q 550 2706 781 3412 
Q 1013 4119 1484 4856 
L 1984 4856 
z
" transform="scale(0.015625)"/>
      <path id="DejaVuSans-52" d="M 2841 2188 
Q 3044 2119 3236 1894 
Q 3428 1669 3622 1275 
L 4263 0 
L 3584 0 
L 2988 1197 
Q 2756 1666 2539 1819 
Q 2322 1972 1947 1972 
L 1259 1972 
L 1259 0 
L 628 0 
L 628 4666 
L 2053 4666 
Q 2853 4666 3247 4331 
Q 3641 3997 3641 3322 
Q 3641 2881 3436 2590 
Q 3231 2300 2841 2188 
z
M 1259 4147 
L 1259 2491 
L 2053 2491 
Q 2509 2491 2742 2702 
Q 2975 2913 2975 3322 
Q 2975 3731 2742 3939 
Q 2509 4147 2053 4147 
L 1259 4147 
z
" transform="scale(0.015625)"/>
      <path id="DejaVuSans-48" d="M 628 4666 
L 1259 4666 
L 1259 2753 
L 3553 2753 
L 3553 4666 
L 4184 4666 
L 4184 0 
L 3553 0 
L 3553 2222 
L 1259 2222 
L 1259 0 
L 628 0 
L 628 4666 
z
" transform="scale(0.015625)"/>
      <path id="DejaVuSans-61" d="M 2194 1759 
Q 1497 1759 1228 1600 
Q 959 1441 959 1056 
Q 959 750 1161 570 
Q 1363 391 1709 391 
Q 2188 391 2477 730 
Q 2766 1069 2766 1631 
L 2766 1759 
L 2194 1759 
z
M 3341 1997 
L 3341 0 
L 2766 0 
L 2766 531 
Q 2569 213 2275 61 
Q 1981 -91 1556 -91 
Q 1019 -91 701 211 
Q 384 513 384 1019 
Q 384 1609 779 1909 
Q 1175 2209 1959 2209 
L 2766 2209 
L 2766 2266 
Q 2766 2663 2505 2880 
Q 2244 3097 1772 3097 
Q 1472 3097 1187 3025 
Q 903 2953 641 2809 
L 641 3341 
Q 956 3463 1253 3523 
Q 1550 3584 1831 3584 
Q 2591 3584 2966 3190 
Q 3341 2797 3341 1997 
z
" transform="scale(0.015625)"/>
      <path id="DejaVuSans-6d" d="M 3328 2828 
Q 3544 3216 3844 3400 
Q 4144 3584 4550 3584 
Q 5097 3584 5394 3201 
Q 5691 2819 5691 2113 
L 5691 0 
L 5113 0 
L 5113 2094 
Q 5113 2597 4934 2840 
Q 4756 3084 4391 3084 
Q 3944 3084 3684 2787 
Q 3425 2491 3425 1978 
L 3425 0 
L 2847 0 
L 2847 2094 
Q 2847 2600 2669 2842 
Q 2491 3084 2119 3084 
Q 1678 3084 1418 2786 
Q 1159 2488 1159 1978 
L 1159 0 
L 581 0 
L 581 3500 
L 1159 3500 
L 1159 2956 
Q 1356 3278 1631 3431 
Q 1906 3584 2284 3584 
Q 2666 3584 2933 3390 
Q 3200 3197 3328 2828 
z
" transform="scale(0.015625)"/>
      <path id="DejaVuSans-29" d="M 513 4856 
L 1013 4856 
Q 1481 4119 1714 3412 
Q 1947 2706 1947 2009 
Q 1947 1309 1714 600 
Q 1481 -109 1013 -844 
L 513 -844 
Q 928 -128 1133 580 
Q 1338 1288 1338 2009 
Q 1338 2731 1133 3434 
Q 928 4138 513 4856 
z
" transform="scale(0.015625)"/>
     </defs>
     <use xlink:href="#DejaVuSans-45"/>
     <use xlink:href="#DejaVuSans-78" transform="translate(63.183594 0)"/>
     <use xlink:href="#DejaVuSans-69" transform="translate(122.363281 0)"/>
     <use xlink:href="#DejaVuSans-74" transform="translate(150.146484 0)"/>
     <use xlink:href="#DejaVuSans-20" transform="translate(189.355469 0)"/>
     <use xlink:href="#DejaVuSans-41" transform="translate(221.142578 0)"/>
     <use xlink:href="#DejaVuSans-6e" transform="translate(289.550781 0)"/>
     <use xlink:href="#DejaVuSans-67" transform="translate(352.929688 0)"/>
     <use xlink:href="#DejaVuSans-6c" transform="translate(416.40625 0)"/>
     <use xlink:href="#DejaVuSans-65" transform="translate(444.189453 0)"/>
     <use xlink:href="#DejaVuSans-20" transform="translate(505.712891 0)"/>
     <use xlink:href="#DejaVuSans-44" transform="translate(537.5 0)"/>
     <use xlink:href="#DejaVuSans-69" transform="translate(614.501953 0)"/>
     <use xlink:href="#DejaVuSans-73" transform="translate(642.285156 0)"/>
     <use xlink:href="#DejaVuSans-74" transform="translate(694.384766 0)"/>
     <use xlink:href="#DejaVuSans-72" transform="translate(733.59375 0)"/>
     <use xlink:href="#DejaVuSans-69" transform="translate(774.707031 0)"/>
     <use xlink:href="#DejaVuSans-62" transform="translate(802.490234 0)"/>
     <use xlink:href="#DejaVuSans-75" transform="translate(865.966797 0)"/>
     <use xlink:href="#DejaVuSans-74" transform="translate(929.345703 0)"/>
     <use xlink:href="#DejaVuSans-69" transform="translate(968.554688 0)"/>
     <use xlink:href="#DejaVuSans-6f" transform="translate(996.337891 0)"/>
     <use xlink:href="#DejaVuSans-6e" transform="translate(1057.519531 0)"/>
     <use xlink:href="#DejaVuSans-20" transform="translate(1120.898438 0)"/>
     <use xlink:href="#DejaVuSans-28" transform="translate(1152.685547 0)"/>
     <use xlink:href="#DejaVuSans-52" transform="translate(1191.699219 0)"/>
     <use xlink:href="#DejaVuSans-6f" transform="translate(1256.681641 0)"/>
     <use xlink:href="#DejaVuSans-73" transform="translate(1317.863281 0)"/>
     <use xlink:href="#DejaVuSans-65" transform="translate(1369.962891 0)"/>
     <use xlink:href="#DejaVuSans-20" transform="translate(1431.486328 0)"/>
     <use xlink:href="#DejaVuSans-48" transform="translate(1463.273438 0)"/>
     <use xlink:href="#DejaVuSans-69" transform="translate(1538.46875 0)"/>
     <use xlink:href="#DejaVuSans-73" transform="translate(1566.251953 0)"/>
     <use xlink:href="#DejaVuSans-74" transform="translate(1618.351562 0)"/>
     <use xlink:href="#DejaVuSans-6f" transform="translate(1657.560547 0)"/>
     <use xlink:href="#DejaVuSans-67" transform="translate(1718.742188 0)"/>
     <use xlink:href="#DejaVuSans-72" transform="translate(1782.21875 0)"/>
     <use xlink:href="#DejaVuSans-61" transform="translate(1823.332031 0)"/>
     <use xlink:href="#DejaVuSans-6d" transform="translate(1884.611328 0)"/>
     <use xlink:href="#DejaVuSans-29" transform="translate(1982.023438 0)"/>
    </g>
   </g>
   <g id="legend_1">
    <g id="patch_100">
     <path d="M 373.1265 54.234375 
L 440.65775 54.234375 
Q 442.65775 54.234375 442.65775 52.234375 
L 442.65775 9.2 
Q 442.65775 7.2 440.65775 7.2 
L 373.1265 7.2 
Q 371.1265 7.2 371.1265 9.2 
L 371.1265 52.234375 
Q 371.1265 54.234375 373.1265 54.234375 
z
" style="fill: #ffffff; opacity: 0.8; stroke: #cccccc; stroke-linejoin: miter"/>
    </g>
    <g id="patch_101">
     <path d="M 375.1265 18.798437 
L 395.1265 18.798437 
L 395.1265 11.798437 
L 375.1265 11.798437 
z
" style="fill: #1f77b4; opacity: 0.5"/>
    </g>
    <g id="text_17">
     <!-- Hiker 1 -->
     <g transform="translate(403.1265 18.798437) scale(0.1 -0.1)">
      <defs>
       <path id="DejaVuSans-6b" d="M 581 4863 
L 1159 4863 
L 1159 1991 
L 2875 3500 
L 3609 3500 
L 1753 1863 
L 3688 0 
L 2938 0 
L 1159 1709 
L 1159 0 
L 581 0 
L 581 4863 
z
" transform="scale(0.015625)"/>
      </defs>
      <use xlink:href="#DejaVuSans-48"/>
      <use xlink:href="#DejaVuSans-69" transform="translate(75.195312 0)"/>
      <use xlink:href="#DejaVuSans-6b" transform="translate(102.978516 0)"/>
      <use xlink:href="#DejaVuSans-65" transform="translate(157.263672 0)"/>
      <use xlink:href="#DejaVuSans-72" transform="translate(218.787109 0)"/>
      <use xlink:href="#DejaVuSans-20" transform="translate(259.900391 0)"/>
      <use xlink:href="#DejaVuSans-31" transform="translate(291.6875 0)"/>
     </g>
    </g>
    <g id="patch_102">
     <path d="M 375.1265 33.476562 
L 395.1265 33.476562 
L 395.1265 26.476562 
L 375.1265 26.476562 
z
" style="fill: #ff7f0e; opacity: 0.5"/>
    </g>
    <g id="text_18">
     <!-- Hiker 2 -->
     <g transform="translate(403.1265 33.476562) scale(0.1 -0.1)">
      <use xlink:href="#DejaVuSans-48"/>
      <use xlink:href="#DejaVuSans-69" transform="translate(75.195312 0)"/>
      <use xlink:href="#DejaVuSans-6b" transform="translate(102.978516 0)"/>
      <use xlink:href="#DejaVuSans-65" transform="translate(157.263672 0)"/>
      <use xlink:href="#DejaVuSans-72" transform="translate(218.787109 0)"/>
      <use xlink:href="#DejaVuSans-20" transform="translate(259.900391 0)"/>
      <use xlink:href="#DejaVuSans-32" transform="translate(291.6875 0)"/>
     </g>
    </g>
    <g id="patch_103">
     <path d="M 375.1265 48.154687 
L 395.1265 48.154687 
L 395.1265 41.154687 
L 375.1265 41.154687 
z
" style="fill: #2ca02c; opacity: 0.5"/>
    </g>
    <g id="text_19">
     <!-- Hiker 3 -->
     <g transform="translate(403.1265 48.154687) scale(0.1 -0.1)">
      <use xlink:href="#DejaVuSans-48"/>
      <use xlink:href="#DejaVuSans-69" transform="translate(75.195312 0)"/>
      <use xlink:href="#DejaVuSans-6b" transform="translate(102.978516 0)"/>
      <use xlink:href="#DejaVuSans-65" transform="translate(157.263672 0)"/>
      <use xlink:href="#DejaVuSans-72" transform="translate(218.787109 0)"/>
      <use xlink:href="#DejaVuSans-20" transform="translate(259.900391 0)"/>
      <use xlink:href="#DejaVuSans-33" transform="translate(291.6875 0)"/>
     </g>
    </g>
   </g>
  </g>
 </g>
 <defs>
  <clipPath id="p81ab6647ec">
   <path d="M 393.60375 225.6232 
C 393.60375 201.962179 388.943045 178.531232 379.888364 156.671299 
C 370.833684 134.811366 357.561118 114.947568 340.83025 98.2167 
C 324.099382 81.485832 304.235584 68.213266 282.375651 59.158586 
C 260.515718 50.103905 237.084771 45.4432 213.42375 45.4432 
C 189.762729 45.4432 166.331782 50.103905 144.471849 59.158586 
C 122.611916 68.213266 102.748118 81.485832 86.01725 98.2167 
C 69.286382 114.947568 56.013816 134.811366 46.959136 156.671299 
C 37.904455 178.531232 33.24375 201.962179 33.24375 225.6232 
C 33.24375 249.284221 37.904455 272.715168 46.959136 294.575101 
C 56.013816 316.435034 69.286382 336.298832 86.01725 353.0297 
C 102.748118 369.760568 122.611916 383.033134 144.471849 392.087814 
C 166.331782 401.142495 189.762729 405.8032 213.42375 405.8032 
C 237.084771 405.8032 260.515718 401.142495 282.375651 392.087814 
C 304.235584 383.033134 324.099382 369.760568 340.83025 353.0297 
C 357.561118 336.298832 370.833684 316.435034 379.888364 294.575101 
C 388.943045 272.715168 393.60375 249.284221 393.60375 225.6232 
M 213.42375 225.6232 
C 213.42375 225.6232 213.42375 225.6232 213.42375 225.6232 
C 213.42375 225.6232 213.42375 225.6232 213.42375 225.6232 
C 213.42375 225.6232 213.42375 225.6232 213.42375 225.6232 
C 213.42375 225.6232 213.42375 225.6232 213.42375 225.6232 
C 213.42375 225.6232 213.42375 225.6232 213.42375 225.6232 
C 213.42375 225.6232 213.42375 225.6232 213.42375 225.6232 
C 213.42375 225.6232 213.42375 225.6232 213.42375 225.6232 
C 213.42375 225.6232 213.42375 225.6232 213.42375 225.6232 
C 213.42375 225.6232 213.42375 225.6232 213.42375 225.6232 
C 213.42375 225.6232 213.42375 225.6232 213.42375 225.6232 
C 213.42375 225.6232 213.42375 225.6232 213.42375 225.6232 
C 213.42375 225.6232 213.42375 225.6232 213.42375 225.6232 
C 213.42375 225.6232 213.42375 225.6232 213.42375 225.6232 
C 213.42375 225.6232 213.42375 225.6232 213.42375 225.6232 
C 213.42375 225.6232 213.42375 225.6232 213.42375 225.6232 
C 213.42375 225.6232 213.42375 225.6232 213.42375 225.6232 
z
"/>
  </clipPath>
 </defs>
</svg>
