<?xml version="1.0" encoding="utf-8" standalone="no"?>
<!DOCTYPE svg PUBLIC "-//W3C//DTD SVG 1.1//EN"
  "http://www.w3.org/Graphics/SVG/1.1/DTD/svg11.dtd">
<svg xmlns:xlink="http://www.w3.org/1999/xlink" width="576pt" height="432pt" viewBox="0 0 576 432" xmlns="http://www.w3.org/2000/svg" version="1.1">
 <metadata>
  <rdf:RDF xmlns:dc="http://purl.org/dc/elements/1.1/" xmlns:cc="http://creativecommons.org/ns#" xmlns:rdf="http://www.w3.org/1999/02/22-rdf-syntax-ns#">
   <cc:Work>
    <dc:type rdf:resource="http://purl.org/dc/dcmitype/StillImage"/>
    <dc:date>2025-11-02T19:26:31.504230</dc:date>
    <dc:format>image/svg+xml</dc:format>
    <dc:creator>
     <cc:Agent>
      <dc:title>Matplotlib v3.10.7, https://matplotlib.org/</dc:title>
     </cc:Agent>
    </dc:creator>
   </cc:Work>
  </rdf:RDF>
 </metadata>
 <defs>
  <style type="text/css">*{stroke-linejoin: round; stroke-linecap: butt}</style>
 </defs>
 <g id="figure_1">
  <g id="patch_1">
   <path d="M 0 432 
L 576 432 
L 576 0 
L 0 0 
z
" style="fill: #ffffff"/>
  </g>
  <g id="axes_1">
   <g id="patch_2">
    <path d="M 47.72 390.04 
L 565.2 390.04 
L 565.2 26.88 
L 47.72 26.88 
z
" style="fill: #ffffff"/>
   </g>
   <g id="matplotlib.axis_1">
    <g id="xtick_1">
     <g id="line2d_1">
      <path d="M 47.72 390.04 
L 47.72 26.88 
" clip-path="url(#pf4e84b82ec)" style="fill: none; stroke: #b0b0b0; stroke-opacity: 0.4; stroke-width: 0.8; stroke-linecap: square"/>
     </g>
     <g id="line2d_2">
      <defs>
       <path id="mb80438aa11" d="M 0 0 
L 0 3.5 
" style="stroke: #000000; stroke-width: 0.8"/>
      </defs>
      <g>
       <use xlink:href="#mb80438aa11" x="47.72" y="390.04" style="stroke: #000000; stroke-width: 0.8"/>
      </g>
     </g>
     <g id="text_1">
      <!-- 0 -->
      <g transform="translate(44.53875 404.638438) scale(0.1 -0.1)">
       <defs>
        <path id="DejaVuSans-30" d="M 2034 4250 
Q 1547 4250 1301 3770 
Q 1056 3291 1056 2328 
Q 1056 1369 1301 889 
Q 1547 409 2034 409 
Q 2525 409 2770 889 
Q 3016 1369 3016 2328 
Q 3016 3291 2770 3770 
Q 2525 4250 2034 4250 
z
M 2034 4750 
Q 2819 4750 3233 4129 
Q 3647 3509 3647 2328 
Q 3647 1150 3233 529 
Q 2819 -91 2034 -91 
Q 1250 -91 836 529 
Q 422 1150 422 2328 
Q 422 3509 836 4129 
Q 1250 4750 2034 4750 
z
" transform="scale(0.015625)"/>
       </defs>
       <use xlink:href="#DejaVuSans-30"/>
      </g>
     </g>
    </g>
    <g id="xtick_2">
     <g id="line2d_3">
      <path d="M 138.763281 390.04 
L 138.763281 26.88 
" clip-path="url(#pf4e84b82ec)" style="fill: none; stroke: #b0b0b0; stroke-opacity: 0.4; stroke-width: 0.8; stroke-linecap: square"/>
     </g>
     <g id="line2d_4">
      <g>
       <use xlink:href="#mb80438aa11" x="138.763281" y="390.04" style="stroke: #000000; stroke-width: 0.8"/>
      </g>
     </g>
     <g id="text_2">
      <!-- 1 -->
      <g transform="translate(135.582031 404.638438) scale(0.1 -0.1)">
       <defs>
        <path id="DejaVuSans-31" d="M 794 531 
L 1825 531 
L 1825 4091 
L 703 3866 
L 703 4441 
L 1819 4666 
L 2450 4666 
L 2450 531 
L 3481 531 
L 3481 0 
L 794 0 
L 794 531 
z
" transform="scale(0.015625)"/>
       </defs>
       <use xlink:href="#DejaVuSans-31"/>
      </g>
     </g>
    </g>
    <g id="xtick_3">
     <g id="line2d_5">
      <path d="M 229.806562 390.04 
L 229.806562 26.88 
" clip-path="url(#pf4e84b82ec)" style="fill: none; stroke: #b0b0b0; stroke-opacity: 0.4; stroke-width: 0.8; stroke-linecap: square"/>
     </g>
     <g id="line2d_6">
      <g>
       <use xlink:href="#mb80438aa11" x="229.806562" y="390.04" style="stroke: #000000; stroke-width: 0.8"/>
      </g>
     </g>
     <g id="text_3">
      <!-- 2 -->
      <g transform="translate(226.625312 404.638438) scale(0.1 -0.1)">
       <defs>
        <path id="DejaVuSans-32" d="M 1228 531 
L 3431 531 
L 3431 0 
L 469 0 
L 469 531 
Q 828 903 1448 1529 
Q 2069 2156 2228 2338 
Q 2531 2678 2651 2914 
Q 2772 3150 2772 3378 
Q 2772 3750 2511 3984 
Q 2250 4219 1831 4219 
Q 1534 4219 1204 4116 
Q 875 4013 500 3803 
L 500 4441 
Q 881 4594 1212 4672 
Q 1544 4750 1819 4750 
Q 2544 4750 2975 4387 
Q 3406 4025 3406 3419 
Q 3406 3131 3298 2873 
Q 3191 2616 2906 2266 
Q 2828 2175 2409 1742 
Q 1991 1309 1228 531 
z
" transform="scale(0.015625)"/>
       </defs>
       <use xlink:href="#DejaVuSans-32"/>
      </g>
     </g>
    </g>
    <g id="xtick_4">
     <g id="line2d_7">
      <path d="M 320.849843 390.04 
L 320.849843 26.88 
" clip-path="url(#pf4e84b82ec)" style="fill: none; stroke: #b0b0b0; stroke-opacity: 0.4; stroke-width: 0.8; stroke-linecap: square"/>
     </g>
     <g id="line2d_8">
      <g>
       <use xlink:href="#mb80438aa11" x="320.849843" y="390.04" style="stroke: #000000; stroke-width: 0.8"/>
      </g>
     </g>
     <g id="text_4">
      <!-- 3 -->
      <g transform="translate(317.668593 404.638438) scale(0.1 -0.1)">
       <defs>
        <path id="DejaVuSans-33" d="M 2597 2516 
Q 3050 2419 3304 2112 
Q 3559 1806 3559 1356 
Q 3559 666 3084 287 
Q 2609 -91 1734 -91 
Q 1441 -91 1130 -33 
Q 819 25 488 141 
L 488 750 
Q 750 597 1062 519 
Q 1375 441 1716 441 
Q 2309 441 2620 675 
Q 2931 909 2931 1356 
Q 2931 1769 2642 2001 
Q 2353 2234 1838 2234 
L 1294 2234 
L 1294 2753 
L 1863 2753 
Q 2328 2753 2575 2939 
Q 2822 3125 2822 3475 
Q 2822 3834 2567 4026 
Q 2313 4219 1838 4219 
Q 1578 4219 1281 4162 
Q 984 4106 628 3988 
L 628 4550 
Q 988 4650 1302 4700 
Q 1616 4750 1894 4750 
Q 2613 4750 3031 4423 
Q 3450 4097 3450 3541 
Q 3450 3153 3228 2886 
Q 3006 2619 2597 2516 
z
" transform="scale(0.015625)"/>
       </defs>
       <use xlink:href="#DejaVuSans-33"/>
      </g>
     </g>
    </g>
    <g id="xtick_5">
     <g id="line2d_9">
      <path d="M 411.893124 390.04 
L 411.893124 26.88 
" clip-path="url(#pf4e84b82ec)" style="fill: none; stroke: #b0b0b0; stroke-opacity: 0.4; stroke-width: 0.8; stroke-linecap: square"/>
     </g>
     <g id="line2d_10">
      <g>
       <use xlink:href="#mb80438aa11" x="411.893124" y="390.04" style="stroke: #000000; stroke-width: 0.8"/>
      </g>
     </g>
     <g id="text_5">
      <!-- 4 -->
      <g transform="translate(408.711874 404.638438) scale(0.1 -0.1)">
       <defs>
        <path id="DejaVuSans-34" d="M 2419 4116 
L 825 1625 
L 2419 1625 
L 2419 4116 
z
M 2253 4666 
L 3047 4666 
L 3047 1625 
L 3713 1625 
L 3713 1100 
L 3047 1100 
L 3047 0 
L 2419 0 
L 2419 1100 
L 313 1100 
L 313 1709 
L 2253 4666 
z
" transform="scale(0.015625)"/>
       </defs>
       <use xlink:href="#DejaVuSans-34"/>
      </g>
     </g>
    </g>
    <g id="xtick_6">
     <g id="line2d_11">
      <path d="M 502.936406 390.04 
L 502.936406 26.88 
" clip-path="url(#pf4e84b82ec)" style="fill: none; stroke: #b0b0b0; stroke-opacity: 0.4; stroke-width: 0.8; stroke-linecap: square"/>
     </g>
     <g id="line2d_12">
      <g>
       <use xlink:href="#mb80438aa11" x="502.936406" y="390.04" style="stroke: #000000; stroke-width: 0.8"/>
      </g>
     </g>
     <g id="text_6">
      <!-- 5 -->
      <g transform="translate(499.755156 404.638438) scale(0.1 -0.1)">
       <defs>
        <path id="DejaVuSans-35" d="M 691 4666 
L 3169 4666 
L 3169 4134 
L 1269 4134 
L 1269 2991 
Q 1406 3038 1543 3061 
Q 1681 3084 1819 3084 
Q 2600 3084 3056 2656 
Q 3513 2228 3513 1497 
Q 3513 744 3044 326 
Q 2575 -91 1722 -91 
Q 1428 -91 1123 -41 
Q 819 9 494 109 
L 494 744 
Q 775 591 1075 516 
Q 1375 441 1709 441 
Q 2250 441 2565 725 
Q 2881 1009 2881 1497 
Q 2881 1984 2565 2268 
Q 2250 2553 1709 2553 
Q 1456 2553 1204 2497 
Q 953 2441 691 2322 
L 691 4666 
z
" transform="scale(0.015625)"/>
       </defs>
       <use xlink:href="#DejaVuSans-35"/>
      </g>
     </g>
    </g>
    <g id="text_7">
     <!-- Days between accidents -->
     <g transform="translate(245.245937 418.316562) scale(0.1 -0.1)">
      <defs>
       <path id="DejaVuSans-44" d="M 1259 4147 
L 1259 519 
L 2022 519 
Q 2988 519 3436 956 
Q 3884 1394 3884 2338 
Q 3884 3275 3436 3711 
Q 2988 4147 2022 4147 
L 1259 4147 
z
M 628 4666 
L 1925 4666 
Q 3281 4666 3915 4102 
Q 4550 3538 4550 2338 
Q 4550 1131 3912 565 
Q 3275 0 1925 0 
L 628 0 
L 628 4666 
z
" transform="scale(0.015625)"/>
       <path id="DejaVuSans-61" d="M 2194 1759 
Q 1497 1759 1228 1600 
Q 959 1441 959 1056 
Q 959 750 1161 570 
Q 1363 391 1709 391 
Q 2188 391 2477 730 
Q 2766 1069 2766 1631 
L 2766 1759 
L 2194 1759 
z
M 3341 1997 
L 3341 0 
L 2766 0 
L 2766 531 
Q 2569 213 2275 61 
Q 1981 -91 1556 -91 
Q 1019 -91 701 211 
Q 384 513 384 1019 
Q 384 1609 779 1909 
Q 1175 2209 1959 2209 
L 2766 2209 
L 2766 2266 
Q 2766 2663 2505 2880 
Q 2244 3097 1772 3097 
Q 1472 3097 1187 3025 
Q 903 2953 641 2809 
L 641 3341 
Q 956 3463 1253 3523 
Q 1550 3584 1831 3584 
Q 2591 3584 2966 3190 
Q 3341 2797 3341 1997 
z
" transform="scale(0.015625)"/>
       <path id="DejaVuSans-79" d="M 2059 -325 
Q 1816 -950 1584 -1140 
Q 1353 -1331 966 -1331 
L 506 -1331 
L 506 -850 
L 844 -850 
Q 1081 -850 1212 -737 
Q 1344 -625 1503 -206 
L 1606 56 
L 191 3500 
L 800 3500 
L 1894 763 
L 2988 3500 
L 3597 3500 
L 2059 -325 
z
" transform="scale(0.015625)"/>
       <path id="DejaVuSans-73" d="M 2834 3397 
L 2834 2853 
Q 2591 2978 2328 3040 
Q 2066 3103 1784 3103 
Q 1356 3103 1142 2972 
Q 928 2841 928 2578 
Q 928 2378 1081 2264 
Q 1234 2150 1697 2047 
L 1894 2003 
Q 2506 1872 2764 1633 
Q 3022 1394 3022 966 
Q 3022 478 2636 193 
Q 2250 -91 1575 -91 
Q 1294 -91 989 -36 
Q 684 19 347 128 
L 347 722 
Q 666 556 975 473 
Q 1284 391 1588 391 
Q 1994 391 2212 530 
Q 2431 669 2431 922 
Q 2431 1156 2273 1281 
Q 2116 1406 1581 1522 
L 1381 1569 
Q 847 1681 609 1914 
Q 372 2147 372 2553 
Q 372 3047 722 3315 
Q 1072 3584 1716 3584 
Q 2034 3584 2315 3537 
Q 2597 3491 2834 3397 
z
" transform="scale(0.015625)"/>
       <path id="DejaVuSans-20" transform="scale(0.015625)"/>
       <path id="DejaVuSans-62" d="M 3116 1747 
Q 3116 2381 2855 2742 
Q 2594 3103 2138 3103 
Q 1681 3103 1420 2742 
Q 1159 2381 1159 1747 
Q 1159 1113 1420 752 
Q 1681 391 2138 391 
Q 2594 391 2855 752 
Q 3116 1113 3116 1747 
z
M 1159 2969 
Q 1341 3281 1617 3432 
Q 1894 3584 2278 3584 
Q 2916 3584 3314 3078 
Q 3713 2572 3713 1747 
Q 3713 922 3314 415 
Q 2916 -91 2278 -91 
Q 1894 -91 1617 61 
Q 1341 213 1159 525 
L 1159 0 
L 581 0 
L 581 4863 
L 1159 4863 
L 1159 2969 
z
" transform="scale(0.015625)"/>
       <path id="DejaVuSans-65" d="M 3597 1894 
L 3597 1613 
L 953 1613 
Q 991 1019 1311 708 
Q 1631 397 2203 397 
Q 2534 397 2845 478 
Q 3156 559 3463 722 
L 3463 178 
Q 3153 47 2828 -22 
Q 2503 -91 2169 -91 
Q 1331 -91 842 396 
Q 353 884 353 1716 
Q 353 2575 817 3079 
Q 1281 3584 2069 3584 
Q 2775 3584 3186 3129 
Q 3597 2675 3597 1894 
z
M 3022 2063 
Q 3016 2534 2758 2815 
Q 2500 3097 2075 3097 
Q 1594 3097 1305 2825 
Q 1016 2553 972 2059 
L 3022 2063 
z
" transform="scale(0.015625)"/>
       <path id="DejaVuSans-74" d="M 1172 4494 
L 1172 3500 
L 2356 3500 
L 2356 3053 
L 1172 3053 
L 1172 1153 
Q 1172 725 1289 603 
Q 1406 481 1766 481 
L 2356 481 
L 2356 0 
L 1766 0 
Q 1100 0 847 248 
Q 594 497 594 1153 
L 594 3053 
L 172 3053 
L 172 3500 
L 594 3500 
L 594 4494 
L 1172 4494 
z
" transform="scale(0.015625)"/>
       <path id="DejaVuSans-77" d="M 269 3500 
L 844 3500 
L 1563 769 
L 2278 3500 
L 2956 3500 
L 3675 769 
L 4391 3500 
L 4966 3500 
L 4050 0 
L 3372 0 
L 2619 2869 
L 1863 0 
L 1184 0 
L 269 3500 
z
" transform="scale(0.015625)"/>
       <path id="DejaVuSans-6e" d="M 3513 2113 
L 3513 0 
L 2938 0 
L 2938 2094 
Q 2938 2591 2744 2837 
Q 2550 3084 2163 3084 
Q 1697 3084 1428 2787 
Q 1159 2491 1159 1978 
L 1159 0 
L 581 0 
L 581 3500 
L 1159 3500 
L 1159 2956 
Q 1366 3272 1645 3428 
Q 1925 3584 2291 3584 
Q 2894 3584 3203 3211 
Q 3513 2838 3513 2113 
z
" transform="scale(0.015625)"/>
       <path id="DejaVuSans-63" d="M 3122 3366 
L 3122 2828 
Q 2878 2963 2633 3030 
Q 2388 3097 2138 3097 
Q 1578 3097 1268 2742 
Q 959 2388 959 1747 
Q 959 1106 1268 751 
Q 1578 397 2138 397 
Q 2388 397 2633 464 
Q 2878 531 3122 666 
L 3122 134 
Q 2881 22 2623 -34 
Q 2366 -91 2075 -91 
Q 1284 -91 818 406 
Q 353 903 353 1747 
Q 353 2603 823 3093 
Q 1294 3584 2113 3584 
Q 2378 3584 2631 3529 
Q 2884 3475 3122 3366 
z
" transform="scale(0.015625)"/>
       <path id="DejaVuSans-69" d="M 603 3500 
L 1178 3500 
L 1178 0 
L 603 0 
L 603 3500 
z
M 603 4863 
L 1178 4863 
L 1178 4134 
L 603 4134 
L 603 4863 
z
" transform="scale(0.015625)"/>
       <path id="DejaVuSans-64" d="M 2906 2969 
L 2906 4863 
L 3481 4863 
L 3481 0 
L 2906 0 
L 2906 525 
Q 2725 213 2448 61 
Q 2172 -91 1784 -91 
Q 1150 -91 751 415 
Q 353 922 353 1747 
Q 353 2572 751 3078 
Q 1150 3584 1784 3584 
Q 2172 3584 2448 3432 
Q 2725 3281 2906 2969 
z
M 947 1747 
Q 947 1113 1208 752 
Q 1469 391 1925 391 
Q 2381 391 2643 752 
Q 2906 1113 2906 1747 
Q 2906 2381 2643 2742 
Q 2381 3103 1925 3103 
Q 1469 3103 1208 2742 
Q 947 2381 947 1747 
z
" transform="scale(0.015625)"/>
      </defs>
      <use xlink:href="#DejaVuSans-44"/>
      <use xlink:href="#DejaVuSans-61" transform="translate(77.001953 0)"/>
      <use xlink:href="#DejaVuSans-79" transform="translate(138.28125 0)"/>
      <use xlink:href="#DejaVuSans-73" transform="translate(197.460938 0)"/>
      <use xlink:href="#DejaVuSans-20" transform="translate(249.560547 0)"/>
      <use xlink:href="#DejaVuSans-62" transform="translate(281.347656 0)"/>
      <use xlink:href="#DejaVuSans-65" transform="translate(344.824219 0)"/>
      <use xlink:href="#DejaVuSans-74" transform="translate(406.347656 0)"/>
      <use xlink:href="#DejaVuSans-77" transform="translate(445.556641 0)"/>
      <use xlink:href="#DejaVuSans-65" transform="translate(527.34375 0)"/>
      <use xlink:href="#DejaVuSans-65" transform="translate(588.867188 0)"/>
      <use xlink:href="#DejaVuSans-6e" transform="translate(650.390625 0)"/>
      <use xlink:href="#DejaVuSans-20" transform="translate(713.769531 0)"/>
      <use xlink:href="#DejaVuSans-61" transform="translate(745.556641 0)"/>
      <use xlink:href="#DejaVuSans-63" transform="translate(806.835938 0)"/>
      <use xlink:href="#DejaVuSans-63" transform="translate(861.816406 0)"/>
      <use xlink:href="#DejaVuSans-69" transform="translate(916.796875 0)"/>
      <use xlink:href="#DejaVuSans-64" transform="translate(944.580078 0)"/>
      <use xlink:href="#DejaVuSans-65" transform="translate(1008.056641 0)"/>
      <use xlink:href="#DejaVuSans-6e" transform="translate(1069.580078 0)"/>
      <use xlink:href="#DejaVuSans-74" transform="translate(1132.958984 0)"/>
      <use xlink:href="#DejaVuSans-73" transform="translate(1172.167969 0)"/>
     </g>
    </g>
   </g>
   <g id="matplotlib.axis_2">
    <g id="ytick_1">
     <g id="line2d_13">
      <path d="M 47.72 390.04 
L 565.2 390.04 
" clip-path="url(#pf4e84b82ec)" style="fill: none; stroke: #b0b0b0; stroke-opacity: 0.4; stroke-width: 0.8; stroke-linecap: square"/>
     </g>
     <g id="line2d_14">
      <defs>
       <path id="m57e3df454b" d="M 0 0 
L -3.5 0 
" style="stroke: #000000; stroke-width: 0.8"/>
      </defs>
      <g>
       <use xlink:href="#m57e3df454b" x="47.72" y="390.04" style="stroke: #000000; stroke-width: 0.8"/>
      </g>
     </g>
     <g id="text_8">
      <!-- 0.0 -->
      <g transform="translate(24.816875 393.839219) scale(0.1 -0.1)">
       <defs>
        <path id="DejaVuSans-2e" d="M 684 794 
L 1344 794 
L 1344 0 
L 684 0 
L 684 794 
z
" transform="scale(0.015625)"/>
       </defs>
       <use xlink:href="#DejaVuSans-30"/>
       <use xlink:href="#DejaVuSans-2e" transform="translate(63.623047 0)"/>
       <use xlink:href="#DejaVuSans-30" transform="translate(95.410156 0)"/>
      </g>
     </g>
    </g>
    <g id="ytick_2">
     <g id="line2d_15">
      <path d="M 47.72 318.832157 
L 565.2 318.832157 
" clip-path="url(#pf4e84b82ec)" style="fill: none; stroke: #b0b0b0; stroke-opacity: 0.4; stroke-width: 0.8; stroke-linecap: square"/>
     </g>
     <g id="line2d_16">
      <g>
       <use xlink:href="#m57e3df454b" x="47.72" y="318.832157" style="stroke: #000000; stroke-width: 0.8"/>
      </g>
     </g>
     <g id="text_9">
      <!-- 0.2 -->
      <g transform="translate(24.816875 322.631376) scale(0.1 -0.1)">
       <use xlink:href="#DejaVuSans-30"/>
       <use xlink:href="#DejaVuSans-2e" transform="translate(63.623047 0)"/>
       <use xlink:href="#DejaVuSans-32" transform="translate(95.410156 0)"/>
      </g>
     </g>
    </g>
    <g id="ytick_3">
     <g id="line2d_17">
      <path d="M 47.72 247.624314 
L 565.2 247.624314 
" clip-path="url(#pf4e84b82ec)" style="fill: none; stroke: #b0b0b0; stroke-opacity: 0.4; stroke-width: 0.8; stroke-linecap: square"/>
     </g>
     <g id="line2d_18">
      <g>
       <use xlink:href="#m57e3df454b" x="47.72" y="247.624314" style="stroke: #000000; stroke-width: 0.8"/>
      </g>
     </g>
     <g id="text_10">
      <!-- 0.4 -->
      <g transform="translate(24.816875 251.423532) scale(0.1 -0.1)">
       <use xlink:href="#DejaVuSans-30"/>
       <use xlink:href="#DejaVuSans-2e" transform="translate(63.623047 0)"/>
       <use xlink:href="#DejaVuSans-34" transform="translate(95.410156 0)"/>
      </g>
     </g>
    </g>
    <g id="ytick_4">
     <g id="line2d_19">
      <path d="M 47.72 176.416471 
L 565.2 176.416471 
" clip-path="url(#pf4e84b82ec)" style="fill: none; stroke: #b0b0b0; stroke-opacity: 0.4; stroke-width: 0.8; stroke-linecap: square"/>
     </g>
     <g id="line2d_20">
      <g>
       <use xlink:href="#m57e3df454b" x="47.72" y="176.416471" style="stroke: #000000; stroke-width: 0.8"/>
      </g>
     </g>
     <g id="text_11">
      <!-- 0.6 -->
      <g transform="translate(24.816875 180.215689) scale(0.1 -0.1)">
       <defs>
        <path id="DejaVuSans-36" d="M 2113 2584 
Q 1688 2584 1439 2293 
Q 1191 2003 1191 1497 
Q 1191 994 1439 701 
Q 1688 409 2113 409 
Q 2538 409 2786 701 
Q 3034 994 3034 1497 
Q 3034 2003 2786 2293 
Q 2538 2584 2113 2584 
z
M 3366 4563 
L 3366 3988 
Q 3128 4100 2886 4159 
Q 2644 4219 2406 4219 
Q 1781 4219 1451 3797 
Q 1122 3375 1075 2522 
Q 1259 2794 1537 2939 
Q 1816 3084 2150 3084 
Q 2853 3084 3261 2657 
Q 3669 2231 3669 1497 
Q 3669 778 3244 343 
Q 2819 -91 2113 -91 
Q 1303 -91 875 529 
Q 447 1150 447 2328 
Q 447 3434 972 4092 
Q 1497 4750 2381 4750 
Q 2619 4750 2861 4703 
Q 3103 4656 3366 4563 
z
" transform="scale(0.015625)"/>
       </defs>
       <use xlink:href="#DejaVuSans-30"/>
       <use xlink:href="#DejaVuSans-2e" transform="translate(63.623047 0)"/>
       <use xlink:href="#DejaVuSans-36" transform="translate(95.410156 0)"/>
      </g>
     </g>
    </g>
    <g id="ytick_5">
     <g id="line2d_21">
      <path d="M 47.72 105.208627 
L 565.2 105.208627 
" clip-path="url(#pf4e84b82ec)" style="fill: none; stroke: #b0b0b0; stroke-opacity: 0.4; stroke-width: 0.8; stroke-linecap: square"/>
     </g>
     <g id="line2d_22">
      <g>
       <use xlink:href="#m57e3df454b" x="47.72" y="105.208627" style="stroke: #000000; stroke-width: 0.8"/>
      </g>
     </g>
     <g id="text_12">
      <!-- 0.8 -->
      <g transform="translate(24.816875 109.007846) scale(0.1 -0.1)">
       <defs>
        <path id="DejaVuSans-38" d="M 2034 2216 
Q 1584 2216 1326 1975 
Q 1069 1734 1069 1313 
Q 1069 891 1326 650 
Q 1584 409 2034 409 
Q 2484 409 2743 651 
Q 3003 894 3003 1313 
Q 3003 1734 2745 1975 
Q 2488 2216 2034 2216 
z
M 1403 2484 
Q 997 2584 770 2862 
Q 544 3141 544 3541 
Q 544 4100 942 4425 
Q 1341 4750 2034 4750 
Q 2731 4750 3128 4425 
Q 3525 4100 3525 3541 
Q 3525 3141 3298 2862 
Q 3072 2584 2669 2484 
Q 3125 2378 3379 2068 
Q 3634 1759 3634 1313 
Q 3634 634 3220 271 
Q 2806 -91 2034 -91 
Q 1263 -91 848 271 
Q 434 634 434 1313 
Q 434 1759 690 2068 
Q 947 2378 1403 2484 
z
M 1172 3481 
Q 1172 3119 1398 2916 
Q 1625 2713 2034 2713 
Q 2441 2713 2670 2916 
Q 2900 3119 2900 3481 
Q 2900 3844 2670 4047 
Q 2441 4250 2034 4250 
Q 1625 4250 1398 4047 
Q 1172 3844 1172 3481 
z
" transform="scale(0.015625)"/>
       </defs>
       <use xlink:href="#DejaVuSans-30"/>
       <use xlink:href="#DejaVuSans-2e" transform="translate(63.623047 0)"/>
       <use xlink:href="#DejaVuSans-38" transform="translate(95.410156 0)"/>
      </g>
     </g>
    </g>
    <g id="ytick_6">
     <g id="line2d_23">
      <path d="M 47.72 34.000784 
L 565.2 34.000784 
" clip-path="url(#pf4e84b82ec)" style="fill: none; stroke: #b0b0b0; stroke-opacity: 0.4; stroke-width: 0.8; stroke-linecap: square"/>
     </g>
     <g id="line2d_24">
      <g>
       <use xlink:href="#m57e3df454b" x="47.72" y="34.000784" style="stroke: #000000; stroke-width: 0.8"/>
      </g>
     </g>
     <g id="text_13">
      <!-- 1.0 -->
      <g transform="translate(24.816875 37.800003) scale(0.1 -0.1)">
       <use xlink:href="#DejaVuSans-31"/>
       <use xlink:href="#DejaVuSans-2e" transform="translate(63.623047 0)"/>
       <use xlink:href="#DejaVuSans-30" transform="translate(95.410156 0)"/>
      </g>
     </g>
    </g>
    <g id="text_14">
     <!-- Empirical CDF -->
     <g transform="translate(18.737187 243.506094) rotate(-90) scale(0.1 -0.1)">
      <defs>
       <path id="DejaVuSans-45" d="M 628 4666 
L 3578 4666 
L 3578 4134 
L 1259 4134 
L 1259 2753 
L 3481 2753 
L 3481 2222 
L 1259 2222 
L 1259 531 
L 3634 531 
L 3634 0 
L 628 0 
L 628 4666 
z
" transform="scale(0.015625)"/>
       <path id="DejaVuSans-6d" d="M 3328 2828 
Q 3544 3216 3844 3400 
Q 4144 3584 4550 3584 
Q 5097 3584 5394 3201 
Q 5691 2819 5691 2113 
L 5691 0 
L 5113 0 
L 5113 2094 
Q 5113 2597 4934 2840 
Q 4756 3084 4391 3084 
Q 3944 3084 3684 2787 
Q 3425 2491 3425 1978 
L 3425 0 
L 2847 0 
L 2847 2094 
Q 2847 2600 2669 2842 
Q 2491 3084 2119 3084 
Q 1678 3084 1418 2786 
Q 1159 2488 1159 1978 
L 1159 0 
L 581 0 
L 581 3500 
L 1159 3500 
L 1159 2956 
Q 1356 3278 1631 3431 
Q 1906 3584 2284 3584 
Q 2666 3584 2933 3390 
Q 3200 3197 3328 2828 
z
" transform="scale(0.015625)"/>
       <path id="DejaVuSans-70" d="M 1159 525 
L 1159 -1331 
L 581 -1331 
L 581 3500 
L 1159 3500 
L 1159 2969 
Q 1341 3281 1617 3432 
Q 1894 3584 2278 3584 
Q 2916 3584 3314 3078 
Q 3713 2572 3713 1747 
Q 3713 922 3314 415 
Q 2916 -91 2278 -91 
Q 1894 -91 1617 61 
Q 1341 213 1159 525 
z
M 3116 1747 
Q 3116 2381 2855 2742 
Q 2594 3103 2138 3103 
Q 1681 3103 1420 2742 
Q 1159 2381 1159 1747 
Q 1159 1113 1420 752 
Q 1681 391 2138 391 
Q 2594 391 2855 752 
Q 3116 1113 3116 1747 
z
" transform="scale(0.015625)"/>
       <path id="DejaVuSans-72" d="M 2631 2963 
Q 2534 3019 2420 3045 
Q 2306 3072 2169 3072 
Q 1681 3072 1420 2755 
Q 1159 2438 1159 1844 
L 1159 0 
L 581 0 
L 581 3500 
L 1159 3500 
L 1159 2956 
Q 1341 3275 1631 3429 
Q 1922 3584 2338 3584 
Q 2397 3584 2469 3576 
Q 2541 3569 2628 3553 
L 2631 2963 
z
" transform="scale(0.015625)"/>
       <path id="DejaVuSans-6c" d="M 603 4863 
L 1178 4863 
L 1178 0 
L 603 0 
L 603 4863 
z
" transform="scale(0.015625)"/>
       <path id="DejaVuSans-43" d="M 4122 4306 
L 4122 3641 
Q 3803 3938 3442 4084 
Q 3081 4231 2675 4231 
Q 1875 4231 1450 3742 
Q 1025 3253 1025 2328 
Q 1025 1406 1450 917 
Q 1875 428 2675 428 
Q 3081 428 3442 575 
Q 3803 722 4122 1019 
L 4122 359 
Q 3791 134 3420 21 
Q 3050 -91 2638 -91 
Q 1578 -91 968 557 
Q 359 1206 359 2328 
Q 359 3453 968 4101 
Q 1578 4750 2638 4750 
Q 3056 4750 3426 4639 
Q 3797 4528 4122 4306 
z
" transform="scale(0.015625)"/>
       <path id="DejaVuSans-46" d="M 628 4666 
L 3309 4666 
L 3309 4134 
L 1259 4134 
L 1259 2759 
L 3109 2759 
L 3109 2228 
L 1259 2228 
L 1259 0 
L 628 0 
L 628 4666 
z
" transform="scale(0.015625)"/>
      </defs>
      <use xlink:href="#DejaVuSans-45"/>
      <use xlink:href="#DejaVuSans-6d" transform="translate(63.183594 0)"/>
      <use xlink:href="#DejaVuSans-70" transform="translate(160.595703 0)"/>
      <use xlink:href="#DejaVuSans-69" transform="translate(224.072266 0)"/>
      <use xlink:href="#DejaVuSans-72" transform="translate(251.855469 0)"/>
      <use xlink:href="#DejaVuSans-69" transform="translate(292.96875 0)"/>
      <use xlink:href="#DejaVuSans-63" transform="translate(320.751953 0)"/>
      <use xlink:href="#DejaVuSans-61" transform="translate(375.732422 0)"/>
      <use xlink:href="#DejaVuSans-6c" transform="translate(437.011719 0)"/>
      <use xlink:href="#DejaVuSans-20" transform="translate(464.794922 0)"/>
      <use xlink:href="#DejaVuSans-43" transform="translate(496.582031 0)"/>
      <use xlink:href="#DejaVuSans-44" transform="translate(566.40625 0)"/>
      <use xlink:href="#DejaVuSans-46" transform="translate(643.408203 0)"/>
     </g>
    </g>
   </g>
   <g id="line2d_25">
    <path d="M 47.720305 390.038863 
L 47.72802 389.928566 
L 47.839129 388.707346 
L 47.848445 388.59705 
L 47.959363 387.45315 
L 47.970362 387.342854 
L 48.081456 386.235341 
L 48.090706 386.125045 
L 48.201809 385.011846 
L 48.212335 384.90155 
L 48.323409 383.736046 
L 48.333003 383.62575 
L 48.443939 382.478439 
L 48.455438 382.368143 
L 48.566547 381.243574 
L 48.576945 381.133277 
L 48.688044 380.016668 
L 48.699332 379.906371 
L 48.81015 378.812504 
L 48.821385 378.702207 
L 48.932314 377.595831 
L 48.94287 377.485535 
L 49.053952 376.334813 
L 49.064129 376.224517 
L 49.175207 375.194325 
L 49.186387 375.084029 
L 49.297456 373.967419 
L 49.3079 373.857123 
L 49.418905 372.813286 
L 49.430614 372.70299 
L 49.54167 371.629589 
L 49.554167 371.519293 
L 49.6649 370.41974 
L 49.678518 370.309443 
L 49.789589 369.198519 
L 49.800818 369.088223 
L 49.911872 368.010274 
L 49.922578 367.899977 
L 50.033446 366.855004 
L 50.044427 366.744707 
L 50.155388 365.687226 
L 50.167988 365.57693 
L 50.278701 364.473965 
L 50.291244 364.363669 
L 50.402298 363.286857 
L 50.41455 363.17656 
L 50.525547 362.16911 
L 50.538598 362.058814 
L 50.649664 361.032034 
L 50.662156 360.921737 
L 50.773267 359.81991 
L 50.785145 359.709613 
L 50.896171 358.680559 
L 50.907533 358.570262 
L 51.018584 357.534385 
L 51.030005 357.424089 
L 51.141084 356.402994 
L 51.15137 356.292697 
L 51.262374 355.235216 
L 51.275524 355.12492 
L 51.386111 354.08222 
L 51.396976 353.971924 
L 51.508064 352.923539 
L 51.520824 352.813242 
L 51.631879 351.784188 
L 51.643202 351.673891 
L 51.753972 350.59708 
L 51.76654 350.486783 
L 51.877602 349.454318 
L 51.889397 349.344021 
L 52.000497 348.339982 
L 52.012473 348.229686 
L 52.123545 347.173341 
L 52.137758 347.063045 
L 52.248796 346.064692 
L 52.260994 345.954395 
L 52.372026 344.916244 
L 52.385864 344.805948 
L 52.496869 343.836021 
L 52.508331 343.725725 
L 52.619434 342.716 
L 52.631623 342.605704 
L 52.742715 341.597117 
L 52.75425 341.48682 
L 52.865345 340.490741 
L 52.876443 340.380445 
L 52.987482 339.407107 
L 52.999201 339.29681 
L 53.110125 338.27003 
L 53.119996 338.159734 
L 53.231087 337.186396 
L 53.244439 337.076099 
L 53.355412 336.150519 
L 53.368719 336.040222 
L 53.479684 335.096449 
L 53.493041 334.986152 
L 53.603962 334.01054 
L 53.619949 333.900244 
L 53.730981 332.955333 
L 53.743784 332.845037 
L 53.854854 331.89444 
L 53.868926 331.784144 
L 53.979942 330.898361 
L 53.993137 330.788065 
L 54.103999 329.772655 
L 54.116511 329.662359 
L 54.227527 328.664005 
L 54.238202 328.553709 
L 54.349237 327.595153 
L 54.36207 327.484857 
L 54.473172 326.505833 
L 54.485965 326.395537 
L 54.596992 325.492698 
L 54.612923 325.382402 
L 54.724003 324.504578 
L 54.735816 324.394282 
L 54.846831 323.475524 
L 54.859799 323.365227 
L 54.970798 322.433961 
L 54.982459 322.323665 
L 55.093447 321.440156 
L 55.104777 321.32986 
L 55.21563 320.409965 
L 55.230687 320.299668 
L 55.341629 319.362717 
L 55.355227 319.25242 
L 55.466264 318.260889 
L 55.480193 318.150593 
L 55.591028 317.259125 
L 55.604385 317.148828 
L 55.715486 316.248264 
L 55.7275 316.137967 
L 55.838453 315.284022 
L 55.853976 315.173726 
L 55.96503 314.301588 
L 55.978284 314.191292 
L 56.089379 313.23501 
L 56.104834 313.124714 
L 56.215914 312.193448 
L 56.229002 312.083151 
L 56.340112 311.215562 
L 56.352466 311.105265 
L 56.463443 310.234264 
L 56.476059 310.123968 
L 56.587122 309.218855 
L 56.599299 309.108558 
L 56.710187 308.213679 
L 56.725501 308.103382 
L 56.836571 307.206229 
L 56.849005 307.095932 
L 56.960041 306.237439 
L 56.974131 306.127143 
L 57.08522 305.270924 
L 57.100238 305.160628 
L 57.211323 304.278256 
L 57.226457 304.16796 
L 57.337478 303.294685 
L 57.351642 303.184388 
L 57.462679 302.328169 
L 57.475525 302.217873 
L 57.58651 301.363928 
L 57.602112 301.253632 
L 57.713187 300.348519 
L 57.72539 300.238222 
L 57.836466 299.367221 
L 57.849888 299.256925 
L 57.960924 298.429133 
L 57.974748 298.318836 
L 58.085393 297.486496 
L 58.102505 297.3762 
L 58.213547 296.507473 
L 58.228132 296.397177 
L 58.338401 295.553466 
L 58.353586 295.443169 
L 58.464417 294.584676 
L 58.479415 294.47438 
L 58.590276 293.594282 
L 58.602959 293.483986 
L 58.714049 292.608437 
L 58.727372 292.49814 
L 58.838268 291.770411 
L 58.854357 291.660115 
L 58.965428 290.782291 
L 58.978508 290.671995 
L 59.089525 289.868082 
L 59.102998 289.757785 
L 59.213999 288.937953 
L 59.229195 288.827656 
L 59.34029 287.980534 
L 59.354552 287.870238 
L 59.465368 287.037897 
L 59.481594 286.927601 
L 59.592543 286.195324 
L 59.60846 286.085027 
L 59.719462 285.29817 
L 59.733876 285.187873 
L 59.844939 284.358944 
L 59.861282 284.248648 
L 59.971952 283.428816 
L 59.985869 283.318519 
L 60.096747 282.453204 
L 60.110647 282.342907 
L 60.221695 281.554913 
L 60.239354 281.444617 
L 60.350258 280.605454 
L 60.365597 280.495157 
L 60.476616 279.71626 
L 60.492428 279.605963 
L 60.60337 278.844122 
L 60.616781 278.733826 
L 60.727848 277.939009 
L 60.74307 277.828712 
L 60.854141 277.080516 
L 60.8713 276.970219 
L 60.982267 276.209515 
L 60.996365 276.099219 
L 61.106959 275.303265 
L 61.121811 275.192968 
L 61.232856 274.395877 
L 61.248929 274.285581 
L 61.359672 273.547618 
L 61.374284 273.437322 
L 61.48526 272.658424 
L 61.503862 272.548128 
L 61.614841 271.799931 
L 61.630543 271.689635 
L 61.741298 270.899366 
L 61.755959 270.78907 
L 61.867008 269.964689 
L 61.883804 269.854393 
L 61.994542 269.057302 
L 62.010921 268.947005 
L 62.121994 268.260211 
L 62.135047 268.149915 
L 62.245854 267.363057 
L 62.26257 267.252761 
L 62.37346 266.497742 
L 62.38927 266.387446 
L 62.499987 265.62333 
L 62.519694 265.513033 
L 62.630459 264.769385 
L 62.647122 264.659089 
L 62.758205 263.922263 
L 62.774963 263.811967 
L 62.885946 263.075141 
L 62.904079 262.964844 
L 63.015014 262.264405 
L 63.032509 262.154109 
L 63.143208 261.436613 
L 63.159049 261.326317 
L 63.270072 260.582668 
L 63.286376 260.472372 
L 63.395923 259.743506 
L 63.413582 259.633209 
L 63.524655 258.880464 
L 63.53995 258.770168 
L 63.650788 258.098156 
L 63.669686 257.987859 
L 63.780687 257.261267 
L 63.800695 257.150971 
L 63.911556 256.395952 
L 63.930482 256.285655 
L 64.041328 255.545418 
L 64.059757 255.435122 
L 64.170513 254.77448 
L 64.188883 254.664184 
L 64.29999 253.953511 
L 64.316291 253.843214 
L 64.42731 253.104114 
L 64.443506 252.993818 
L 64.554363 252.320668 
L 64.572418 252.210372 
L 64.68352 251.546319 
L 64.702085 251.436023 
L 64.813174 250.77197 
L 64.829987 250.661673 
L 64.941067 249.907791 
L 64.956406 249.797495 
L 65.067176 249.06408 
L 65.087805 248.953784 
L 65.198551 248.287457 
L 65.216871 248.17716 
L 65.327902 247.44602 
L 65.343828 247.335724 
L 65.45459 246.628462 
L 65.472511 246.518165 
L 65.583376 245.838193 
L 65.602332 245.727897 
L 65.713347 245.033143 
L 65.729439 244.922847 
L 65.840468 244.24856 
L 65.856957 244.138264 
L 65.967888 243.431002 
L 65.989887 243.320705 
L 66.100903 242.665749 
L 66.11676 242.555453 
L 66.227716 241.87207 
L 66.245435 241.761773 
L 66.356545 241.113639 
L 66.370377 241.003343 
L 66.481359 240.341564 
L 66.499592 240.231268 
L 66.610655 239.546748 
L 66.629155 239.436451 
L 66.739841 238.797414 
L 66.757803 238.687117 
L 66.868866 238.008283 
L 66.888829 237.897986 
L 66.999841 237.250989 
L 67.019814 237.140693 
L 67.13087 236.469818 
L 67.147753 236.359521 
L 67.258826 235.740951 
L 67.277518 235.630655 
L 67.388505 234.938175 
L 67.409741 234.827879 
L 67.52083 234.178608 
L 67.541875 234.068311 
L 67.652751 233.461112 
L 67.670919 233.350816 
L 67.781653 232.720875 
L 67.798819 232.610579 
L 67.909579 231.936292 
L 67.926959 231.825996 
L 68.037887 231.182411 
L 68.055092 231.072114 
L 68.166181 230.413747 
L 68.186133 230.30345 
L 68.297151 229.668961 
L 68.319738 229.558665 
L 68.430553 228.936684 
L 68.449477 228.826387 
L 68.560563 228.204406 
L 68.584753 228.09411 
L 68.695078 227.466444 
L 68.716891 227.356147 
L 68.827893 226.786472 
L 68.849269 226.676175 
L 68.960217 226.022356 
L 68.981502 225.91206 
L 69.092317 225.311683 
L 69.114278 225.201387 
L 69.225261 224.557801 
L 69.245333 224.447505 
L 69.356383 223.843717 
L 69.375615 223.73342 
L 69.486663 223.121673 
L 69.512255 223.011377 
L 69.623298 222.397355 
L 69.643748 222.287059 
L 69.754426 221.64461 
L 69.771636 221.534314 
L 69.882742 220.911196 
L 69.903383 220.800899 
L 70.014309 220.219853 
L 70.034541 220.109557 
L 70.145324 219.512591 
L 70.165116 219.402295 
L 70.276208 218.821249 
L 70.296286 218.710952 
L 70.407359 218.128769 
L 70.429041 218.018472 
L 70.540062 217.437426 
L 70.562139 217.32713 
L 70.673097 216.732438 
L 70.694472 216.622142 
L 70.805085 215.989927 
L 70.827777 215.879631 
L 70.938846 215.322463 
L 70.9619 215.212167 
L 71.072951 214.664096 
L 71.093508 214.553799 
L 71.204427 214.021647 
L 71.22285 213.911351 
L 71.333433 213.305289 
L 71.358128 213.194992 
L 71.46922 212.594616 
L 71.494948 212.484319 
L 71.605855 211.914644 
L 71.629062 211.804348 
L 71.740157 211.191463 
L 71.766198 211.081167 
L 71.877246 210.489887 
L 71.900735 210.37959 
L 72.011766 209.806504 
L 72.033772 209.696207 
L 72.1446 209.134491 
L 72.165182 209.024195 
L 72.276141 208.439737 
L 72.29939 208.329441 
L 72.410448 207.721105 
L 72.434239 207.610808 
L 72.544702 207.030899 
L 72.568911 206.920603 
L 72.679383 206.338419 
L 72.70645 206.228123 
L 72.81681 205.700519 
L 72.836695 205.590223 
L 72.947762 205.058071 
L 72.966672 204.947774 
L 73.077638 204.367865 
L 73.097452 204.257569 
L 73.208464 203.701538 
L 73.227393 203.591242 
L 73.338305 203.027252 
L 73.362658 202.916955 
L 73.472811 202.370021 
L 73.498835 202.259725 
L 73.609941 201.745766 
L 73.63129 201.63547 
L 73.742296 201.039641 
L 73.763755 200.929345 
L 73.874677 200.381274 
L 73.901158 200.270978 
L 74.012103 199.734277 
L 74.034557 199.623981 
L 74.145534 199.081595 
L 74.168539 198.971299 
L 74.278982 198.453929 
L 74.303116 198.343632 
L 74.413495 197.842181 
L 74.435159 197.731885 
L 74.546074 197.237257 
L 74.574671 197.12696 
L 74.685644 196.583437 
L 74.709513 196.473141 
L 74.820604 195.969416 
L 74.84469 195.859119 
L 74.955566 195.354257 
L 74.978614 195.243961 
L 75.089057 194.725454 
L 75.111916 194.615157 
L 75.222915 194.102336 
L 75.251135 193.992039 
L 75.361799 193.514467 
L 75.385415 193.404171 
L 75.496375 192.883389 
L 75.520986 192.773093 
L 75.632026 192.244352 
L 75.660043 192.134056 
L 75.771144 191.657621 
L 75.796919 191.547324 
L 75.907596 191.026543 
L 75.931612 190.916247 
L 76.042481 190.384095 
L 76.064554 190.273798 
L 76.175283 189.788266 
L 76.200915 189.67797 
L 76.31168 189.196986 
L 76.335729 189.08669 
L 76.446795 188.589787 
L 76.471196 188.479491 
L 76.581906 187.981451 
L 76.609949 187.871155 
L 76.720916 187.364019 
L 76.748073 187.253722 
L 76.859146 186.743175 
L 76.882051 186.632878 
L 76.993054 186.146209 
L 77.014875 186.035913 
L 77.125846 185.549244 
L 77.151411 185.438948 
L 77.262404 184.946593 
L 77.290395 184.836297 
L 77.400953 184.395111 
L 77.427259 184.284815 
L 77.537792 183.728784 
L 77.563719 183.618488 
L 77.674755 183.185261 
L 77.702116 183.074965 
L 77.812964 182.599667 
L 77.842004 182.48937 
L 77.953078 181.940162 
L 77.978362 181.829866 
L 78.089381 181.353431 
L 78.111854 181.243134 
L 78.222541 180.801948 
L 78.245117 180.691652 
L 78.355745 180.228862 
L 78.383214 180.118565 
L 78.493956 179.630759 
L 78.51623 179.520463 
L 78.626649 179.045165 
L 78.651811 178.934868 
L 78.762899 178.417498 
L 78.786504 178.307202 
L 78.896384 177.851234 
L 78.926095 177.740938 
L 79.03709 177.299752 
L 79.06074 177.189455 
L 79.171728 176.701649 
L 79.201238 176.591353 
L 79.312297 176.120603 
L 79.344194 176.010307 
L 79.454694 175.579355 
L 79.483965 175.469058 
L 79.594858 175.033558 
L 79.628695 174.923261 
L 79.739805 174.474116 
L 79.771642 174.36382 
L 79.882719 173.915811 
L 79.908203 173.805515 
L 80.019266 173.327943 
L 80.051128 173.217646 
L 80.161639 172.750308 
L 80.191218 172.640011 
L 80.302223 172.204511 
L 80.325429 172.094214 
L 80.436055 171.62119 
L 80.465577 171.510894 
L 80.576519 171.060611 
L 80.603728 170.950315 
L 80.714512 170.492073 
L 80.742794 170.381777 
L 80.853856 169.911027 
L 80.881631 169.80073 
L 80.992058 169.370915 
L 81.021348 169.260619 
L 81.132438 168.813748 
L 81.157232 168.703451 
L 81.267968 168.27591 
L 81.300407 168.165614 
L 81.411489 167.718743 
L 81.438478 167.608446 
L 81.54932 167.199099 
L 81.580691 167.088802 
L 81.691754 166.680592 
L 81.718538 166.570295 
L 81.829506 166.118876 
L 81.859051 166.008579 
L 81.969658 165.598094 
L 81.998662 165.487798 
L 82.109194 165.072765 
L 82.139413 164.962468 
L 82.250197 164.54175 
L 82.277451 164.431454 
L 82.388345 163.982308 
L 82.421373 163.872012 
L 82.532344 163.449019 
L 82.559966 163.338723 
L 82.670762 162.922553 
L 82.703508 162.812256 
L 82.814367 162.399497 
L 82.851177 162.289201 
L 82.961443 161.863934 
L 82.994005 161.753638 
L 83.104827 161.307904 
L 83.135749 161.197607 
L 83.246343 160.808727 
L 83.275575 160.69843 
L 83.386391 160.28226 
L 83.420209 160.171964 
L 83.531191 159.810373 
L 83.563978 159.700077 
L 83.67494 159.280496 
L 83.704994 159.170199 
L 83.815849 158.779045 
L 83.85357 158.668748 
L 83.964135 158.276457 
L 83.999741 158.16616 
L 84.110847 157.717015 
L 84.140059 157.606719 
L 84.251106 157.19396 
L 84.284943 157.083663 
L 84.395648 156.693646 
L 84.428925 156.58335 
L 84.539952 156.216074 
L 84.569328 156.105777 
L 84.680256 155.697567 
L 84.713534 155.58727 
L 84.824359 155.241599 
L 84.858693 155.131302 
L 84.969292 154.724229 
L 84.99927 154.613932 
L 85.110062 154.202311 
L 85.138506 154.092014 
L 85.248796 153.736109 
L 85.287179 153.625813 
L 85.397876 153.194861 
L 85.427389 153.084564 
L 85.538185 152.728659 
L 85.563001 152.618363 
L 85.67397 152.183999 
L 85.707142 152.073703 
L 85.81794 151.692782 
L 85.853001 151.582486 
L 85.963938 151.233403 
L 85.998894 151.123107 
L 86.109843 150.75242 
L 86.143891 150.642123 
L 86.25449 150.245283 
L 86.29645 150.134987 
L 86.407299 149.759752 
L 86.450506 149.649455 
L 86.561391 149.292413 
L 86.595066 149.182117 
L 86.706074 148.779591 
L 86.741812 148.669295 
L 86.852727 148.269044 
L 86.888595 148.158747 
L 86.999459 147.780101 
L 87.029132 147.669804 
L 87.140144 147.330956 
L 87.173327 147.220659 
L 87.284432 146.871576 
L 87.319451 146.76128 
L 87.429833 146.39969 
L 87.462772 146.289393 
L 87.572878 145.913021 
L 87.611041 145.802724 
L 87.721749 145.470698 
L 87.74745 145.360401 
L 87.858528 144.996537 
L 87.892136 144.88624 
L 88.00319 144.536021 
L 88.039619 144.425724 
L 88.150688 144.08915 
L 88.188096 143.978853 
L 88.298769 143.630908 
L 88.331345 143.520611 
L 88.442271 143.156747 
L 88.474155 143.04645 
L 88.584588 142.670078 
L 88.626614 142.559781 
L 88.737624 142.230029 
L 88.771035 142.119733 
L 88.881838 141.775198 
L 88.913492 141.664902 
L 89.024313 141.30786 
L 89.06174 141.197563 
L 89.17261 140.862126 
L 89.220097 140.751829 
L 89.331079 140.408432 
L 89.369652 140.298135 
L 89.480471 139.936545 
L 89.516932 139.826249 
L 89.627999 139.489674 
L 89.66482 139.379377 
L 89.775223 139.048488 
L 89.810725 138.938192 
L 89.921435 138.622084 
L 89.96141 138.511788 
L 90.072295 138.179761 
L 90.118636 138.069465 
L 90.22941 137.76018 
L 90.268995 137.649884 
L 90.379682 137.314446 
L 90.415654 137.204149 
L 90.526633 136.85393 
L 90.56765 136.743633 
L 90.678707 136.420704 
L 90.71813 136.310407 
L 90.828918 136.001122 
L 90.866384 135.890826 
L 90.976207 135.557662 
L 91.01331 135.447366 
L 91.124134 135.154 
L 91.161361 135.043704 
L 91.271378 134.741241 
L 91.310243 134.630945 
L 91.42109 134.296644 
L 91.455439 134.186348 
L 91.565861 133.860007 
L 91.604585 133.74971 
L 91.715621 133.442699 
L 91.756285 133.332403 
L 91.866184 133.069738 
L 91.900784 132.959442 
L 92.01174 132.64902 
L 92.054803 132.538723 
L 92.165853 132.206697 
L 92.206404 132.0964 
L 92.317309 131.798486 
L 92.348574 131.68819 
L 92.459464 131.415291 
L 92.500154 131.304995 
L 92.611042 130.996847 
L 92.65008 130.886551 
L 92.761173 130.574992 
L 92.798548 130.464695 
L 92.90955 130.134943 
L 92.950159 130.024647 
L 93.061158 129.707402 
L 93.102637 129.597106 
L 93.213562 129.300329 
L 93.253237 129.190032 
L 93.363302 128.876199 
L 93.404397 128.765902 
L 93.51548 128.439561 
L 93.561292 128.329265 
L 93.672313 128.038173 
L 93.717987 127.927877 
L 93.828369 127.617455 
L 93.86647 127.507158 
L 93.977461 127.171721 
L 94.025244 127.061424 
L 94.135806 126.774881 
L 94.175344 126.664585 
L 94.284315 126.384864 
L 94.334053 126.274567 
L 94.444949 125.955049 
L 94.486703 125.844752 
L 94.597562 125.521822 
L 94.641742 125.411526 
L 94.751513 125.093144 
L 94.78962 124.982848 
L 94.900197 124.686071 
L 94.941519 124.575774 
L 95.052615 124.286957 
L 95.091462 124.176661 
L 95.202257 123.894665 
L 95.248218 123.784369 
L 95.359315 123.485318 
L 95.403159 123.375021 
L 95.514132 123.063462 
L 95.560332 122.953166 
L 95.670685 122.684816 
L 95.717298 122.574519 
L 95.827972 122.307306 
L 95.869725 122.19701 
L 95.980695 121.921837 
L 96.024465 121.811541 
L 96.135487 121.556836 
L 96.179446 121.446539 
L 96.290182 121.175915 
L 96.33631 121.065618 
L 96.447215 120.788172 
L 96.490575 120.677875 
L 96.601175 120.37655 
L 96.648016 120.266253 
L 96.758791 119.992218 
L 96.803333 119.881921 
L 96.914092 119.601063 
L 96.965956 119.490767 
L 97.077007 119.216731 
L 97.114193 119.106435 
L 97.22522 118.85173 
L 97.264652 118.741433 
L 97.37567 118.477632 
L 97.429308 118.367335 
L 97.54018 118.114904 
L 97.59258 118.004608 
L 97.703145 117.731709 
L 97.747383 117.621413 
L 97.858477 117.338281 
L 97.899437 117.227984 
L 98.009785 116.973279 
L 98.05261 116.862982 
L 98.163701 116.57985 
L 98.211556 116.469554 
L 98.322187 116.223945 
L 98.365845 116.113649 
L 98.476912 115.849847 
L 98.517713 115.739551 
L 98.6269 115.484845 
L 98.670701 115.374549 
L 98.780765 115.126666 
L 98.831052 115.01637 
L 98.94213 114.753705 
L 98.988888 114.643409 
L 99.099829 114.367099 
L 99.151355 114.256802 
L 99.261753 114.015742 
L 99.29994 113.905446 
L 99.410366 113.649603 
L 99.460438 113.539307 
L 99.571458 113.319851 
L 99.619995 113.209555 
L 99.730966 112.925285 
L 99.781842 112.814989 
L 99.892946 112.559147 
L 99.939611 112.44885 
L 100.050234 112.205516 
L 100.097903 112.095219 
L 100.208567 111.8462 
L 100.252718 111.735903 
L 100.363174 111.482335 
L 100.405613 111.372039 
L 100.516089 111.148034 
L 100.561828 111.037738 
L 100.672891 110.786444 
L 100.724308 110.676148 
L 100.835163 110.424854 
L 100.885093 110.314557 
L 100.99574 110.07236 
L 101.038828 109.962063 
L 101.149749 109.715318 
L 101.201263 109.605021 
L 101.312355 109.390114 
L 101.355127 109.279817 
L 101.466175 109.034209 
L 101.51713 108.923912 
L 101.627996 108.677167 
L 101.672869 108.56687 
L 101.782314 108.331495 
L 101.833802 108.221199 
L 101.944323 107.982413 
L 101.999443 107.872116 
L 102.109129 107.670854 
L 102.153786 107.560557 
L 102.264801 107.321771 
L 102.318737 107.211475 
L 102.428791 106.979511 
L 102.496131 106.869214 
L 102.606117 106.649759 
L 102.663053 106.539462 
L 102.77401 106.305224 
L 102.829444 106.194928 
L 102.940065 105.964101 
L 102.987759 105.853805 
L 103.098614 105.625252 
L 103.1632 105.514956 
L 103.273919 105.247743 
L 103.332934 105.137446 
L 103.44315 104.930498 
L 103.493811 104.820202 
L 103.604734 104.599609 
L 103.651916 104.489313 
L 103.76301 104.278953 
L 103.833404 104.168657 
L 103.94362 103.92646 
L 103.997024 103.816163 
L 104.107748 103.5842 
L 104.157745 103.473903 
L 104.268814 103.263544 
L 104.327639 103.153247 
L 104.438392 102.914461 
L 104.496596 102.804165 
L 104.60683 102.573338 
L 104.656923 102.463042 
L 104.767634 102.229941 
L 104.826202 102.119645 
L 104.93706 101.88427 
L 105.008433 101.773973 
L 105.11872 101.570436 
L 105.181937 101.46014 
L 105.293 101.237273 
L 105.352 101.126977 
L 105.462081 100.916617 
L 105.523667 100.806321 
L 105.634147 100.615292 
L 105.695717 100.504996 
L 105.806566 100.293499 
L 105.858328 100.183203 
L 105.969286 99.956925 
L 106.039564 99.846628 
L 106.150396 99.640817 
L 106.212462 99.530521 
L 106.322741 99.304242 
L 106.386936 99.193946 
L 106.497988 98.950612 
L 106.552642 98.840315 
L 106.663249 98.656109 
L 106.728661 98.545812 
L 106.839182 98.341138 
L 106.890566 98.230842 
L 107.001552 98.039813 
L 107.062109 97.929517 
L 107.173003 97.736214 
L 107.248656 97.625917 
L 107.358459 97.417832 
L 107.409294 97.307536 
L 107.519282 97.097176 
L 107.582544 96.98688 
L 107.692754 96.773109 
L 107.771096 96.662813 
L 107.881967 96.457002 
L 107.949127 96.346706 
L 108.059708 96.122702 
L 108.10597 96.012405 
L 108.216994 95.821376 
L 108.266032 95.71108 
L 108.376823 95.513228 
L 108.443791 95.402932 
L 108.553256 95.192573 
L 108.617306 95.082276 
L 108.72803 94.895796 
L 108.786207 94.785499 
L 108.895863 94.577414 
L 108.965375 94.467118 
L 109.074568 94.27154 
L 109.134664 94.161244 
L 109.244383 93.946337 
L 109.293137 93.83604 
L 109.40367 93.624544 
L 109.47732 93.514247 
L 109.588111 93.331178 
L 109.654071 93.220882 
L 109.765065 93.037812 
L 109.839282 92.927516 
L 109.949173 92.736487 
L 110.01078 92.62619 
L 110.121692 92.448806 
L 110.185561 92.33851 
L 110.296298 92.162263 
L 110.349717 92.051967 
L 110.459424 91.866623 
L 110.533463 91.756327 
L 110.643972 91.564161 
L 110.708293 91.453864 
L 110.818519 91.279891 
L 110.877475 91.169595 
L 110.988131 90.977429 
L 111.05667 90.867133 
L 111.167211 90.689749 
L 111.240083 90.579452 
L 111.350689 90.383875 
L 111.419767 90.273578 
L 111.53086 90.096194 
L 111.594244 89.985898 
L 111.705004 89.843763 
L 111.778167 89.733467 
L 111.889026 89.550398 
L 111.949763 89.440101 
L 112.060747 89.271814 
L 112.132425 89.161517 
L 112.242689 88.99323 
L 112.328245 88.882933 
L 112.436688 88.721469 
L 112.506288 88.611172 
L 112.617066 88.428103 
L 112.693678 88.317806 
L 112.804248 88.142696 
L 112.886194 88.0324 
L 112.996525 87.845919 
L 113.067221 87.735623 
L 113.177829 87.548005 
L 113.245828 87.437709 
L 113.356881 87.259188 
L 113.430859 87.148891 
L 113.541501 86.977193 
L 113.623697 86.866896 
L 113.734236 86.687238 
L 113.805794 86.576942 
L 113.91502 86.424573 
L 113.990732 86.314277 
L 114.100567 86.134619 
L 114.152817 86.024322 
L 114.26073 85.871954 
L 114.339268 85.761658 
L 114.449947 85.594507 
L 114.516452 85.484211 
L 114.627141 85.347762 
L 114.704109 85.237465 
L 114.815051 85.080549 
L 114.890441 84.970252 
L 115.00137 84.775812 
L 115.069664 84.665516 
L 115.180531 84.509736 
L 115.258732 84.39944 
L 115.369783 84.215233 
L 115.446821 84.104937 
L 115.556869 83.962802 
L 115.637204 83.852506 
L 115.747555 83.668299 
L 115.825245 83.558003 
L 115.93553 83.407909 
L 116.012299 83.297612 
L 116.123129 83.124777 
L 116.193472 83.01448 
L 116.30428 82.845056 
L 116.388324 82.734759 
L 116.498483 82.59831 
L 116.574895 82.488014 
L 116.68594 82.333371 
L 116.763661 82.223075 
L 116.871214 82.079803 
L 116.953408 81.969506 
L 117.064306 81.794397 
L 117.155748 81.6841 
L 117.266571 81.502168 
L 117.341706 81.391871 
L 117.452448 81.254285 
L 117.541661 81.143989 
L 117.652344 80.997306 
L 117.742848 80.887009 
L 117.853553 80.719859 
L 117.934457 80.609563 
L 118.04378 80.486758 
L 118.125137 80.376462 
L 118.234784 80.220682 
L 118.320176 80.110386 
L 118.430547 79.99213 
L 118.497645 79.881833 
L 118.608402 79.727191 
L 118.676979 79.616895 
L 118.785264 79.487268 
L 118.866566 79.376971 
L 118.977285 79.248482 
L 119.050298 79.138185 
L 119.161169 78.975583 
L 119.247173 78.865287 
L 119.356862 78.729975 
L 119.454045 78.619678 
L 119.564202 78.51393 
L 119.652054 78.403634 
L 119.762472 78.263773 
L 119.833889 78.153477 
L 119.944903 78.013616 
L 120.0386 77.90332 
L 120.149058 77.749814 
L 120.229972 77.639518 
L 120.339763 77.48715 
L 120.42662 77.376853 
L 120.537111 77.240404 
L 120.609036 77.130108 
L 120.718197 77.002755 
L 120.818432 76.892459 
L 120.929419 76.723034 
L 121.01993 76.612738 
L 121.12867 76.478563 
L 121.222618 76.368266 
L 121.331626 76.238639 
L 121.417399 76.128343 
L 121.528129 75.990757 
L 121.628929 75.88046 
L 121.74004 75.755382 
L 121.825286 75.645085 
L 121.93626 75.506362 
L 122.019082 75.396065 
L 122.129814 75.275535 
L 122.23063 75.165239 
L 122.341148 75.007185 
L 122.443627 74.896889 
L 122.554163 74.770673 
L 122.658894 74.660377 
L 122.769854 74.513694 
L 122.865145 74.403397 
L 122.971454 74.266948 
L 123.064132 74.156652 
L 123.17521 74.020203 
L 123.260153 73.909906 
L 123.369596 73.780279 
L 123.462579 73.669983 
L 123.573049 73.546042 
L 123.655996 73.435745 
L 123.766273 73.312941 
L 123.865346 73.202644 
L 123.976377 73.080977 
L 124.07291 72.970681 
L 124.18378 72.825135 
L 124.29485 72.714838 
L 124.404696 72.584075 
L 124.50703 72.473778 
L 124.616742 72.356659 
L 124.698993 72.246363 
L 124.80902 72.144026 
L 124.906182 72.033729 
L 125.015627 71.900691 
L 125.118476 71.790395 
L 125.229418 71.664179 
L 125.329405 71.553883 
L 125.439511 71.445861 
L 125.547498 71.335564 
L 125.65728 71.210486 
L 125.776646 71.100189 
L 125.887743 70.997852 
L 125.999016 70.887556 
L 126.109726 70.762477 
L 126.205036 70.652181 
L 126.314055 70.548707 
L 126.410449 70.438411 
L 126.519962 70.316743 
L 126.603615 70.206447 
L 126.714725 70.07682 
L 126.830574 69.966524 
L 126.940666 69.860776 
L 127.05117 69.750479 
L 127.162195 69.64132 
L 127.27278 69.531023 
L 127.382999 69.402534 
L 127.492334 69.292237 
L 127.603067 69.175118 
L 127.713732 69.064822 
L 127.824585 68.943155 
L 127.923333 68.832858 
L 128.033816 68.724836 
L 128.148581 68.614539 
L 128.256821 68.487187 
L 128.373724 68.37689 
L 128.484581 68.263183 
L 128.609211 68.152886 
L 128.719492 68.014163 
L 128.819438 67.903866 
L 128.93002 67.779925 
L 129.030715 67.669629 
L 129.14164 67.54455 
L 129.260852 67.434254 
L 129.370484 67.341013 
L 129.486842 67.230717 
L 129.59782 67.135202 
L 129.710221 67.024906 
L 129.820646 66.916884 
L 129.932021 66.806587 
L 130.041068 66.722444 
L 130.147094 66.612147 
L 130.256896 66.50981 
L 130.368263 66.399514 
L 130.479181 66.303999 
L 130.589483 66.193703 
L 130.699672 66.068624 
L 130.813168 65.958328 
L 130.921682 65.859402 
L 131.039085 65.749106 
L 131.150036 65.649043 
L 131.271617 65.538747 
L 131.382649 65.434136 
L 131.500563 65.323839 
L 131.611384 65.221502 
L 131.726861 65.111206 
L 131.837119 64.996361 
L 131.949076 64.886065 
L 132.057981 64.770083 
L 132.169458 64.659786 
L 132.279479 64.569957 
L 132.428167 64.459661 
L 132.538837 64.368695 
L 132.677028 64.258398 
L 132.788044 64.153787 
L 132.904079 64.043491 
L 133.014739 63.927509 
L 133.110727 63.817212 
L 133.221691 63.70919 
L 133.343514 63.598894 
L 133.452026 63.494283 
L 133.592448 63.383986 
L 133.701963 63.294157 
L 133.82995 63.183861 
L 133.940479 63.09858 
L 134.072132 62.988283 
L 134.182559 62.901866 
L 134.319361 62.791569 
L 134.428112 62.700603 
L 134.564269 62.590306 
L 134.669103 62.503889 
L 134.810234 62.393592 
L 134.918915 62.299215 
L 135.069246 62.188918 
L 135.179688 62.082033 
L 135.33076 61.971737 
L 135.441842 61.894415 
L 135.545816 61.784119 
L 135.656326 61.690879 
L 135.797905 61.580582 
L 135.908914 61.512358 
L 136.040791 61.402061 
L 136.151056 61.309958 
L 136.291742 61.199662 
L 136.401038 61.093913 
L 136.537436 60.983617 
L 136.64853 60.882417 
L 136.795246 60.772121 
L 136.905122 60.676606 
L 137.043815 60.56631 
L 137.154303 60.485577 
L 137.282161 60.375281 
L 137.388604 60.29796 
L 137.549303 60.187663 
L 137.657579 60.098971 
L 137.807843 59.988675 
L 137.918586 59.906805 
L 138.073203 59.796509 
L 138.183338 59.710091 
L 138.332398 59.599794 
L 138.442231 59.51224 
L 138.579913 59.401943 
L 138.689166 59.317799 
L 138.862665 59.207503 
L 138.971576 59.113126 
L 139.113677 59.002829 
L 139.224365 58.923234 
L 139.371264 58.812937 
L 139.478602 58.725382 
L 139.652062 58.615086 
L 139.760594 58.540039 
L 139.928798 58.429742 
L 140.039895 58.335365 
L 140.230763 58.225069 
L 140.341782 58.153433 
L 140.509763 58.043136 
L 140.620638 57.965815 
L 140.748995 57.855519 
L 140.858757 57.787294 
L 141.004785 57.676998 
L 141.115498 57.608773 
L 141.316507 57.498477 
L 141.42566 57.432526 
L 141.588921 57.32223 
L 141.699672 57.246045 
L 141.894569 57.135749 
L 142.00246 57.068661 
L 142.179666 56.958365 
L 142.288896 56.887866 
L 142.472753 56.77757 
L 142.58183 56.707071 
L 142.783739 56.596775 
L 142.892817 56.529687 
L 143.09444 56.419391 
L 143.204557 56.338658 
L 143.361313 56.228362 
L 143.471904 56.154452 
L 143.646285 56.044155 
L 143.755963 55.970245 
L 143.903947 55.859949 
L 144.013936 55.780353 
L 144.180179 55.670057 
L 144.290941 55.590462 
L 144.456903 55.480165 
L 144.565125 55.42786 
L 144.766346 55.317563 
L 144.877223 55.245927 
L 145.078486 55.135631 
L 145.187834 55.044665 
L 145.370259 54.934368 
L 145.48051 54.85591 
L 145.671676 54.745614 
L 145.775421 54.679663 
L 145.964723 54.569367 
L 146.075471 54.502279 
L 146.259674 54.391983 
L 146.362962 54.332855 
L 146.563592 54.222558 
L 146.673918 54.154334 
L 146.854865 54.044037 
L 146.965767 53.972401 
L 147.183423 53.862105 
L 147.293485 53.78251 
L 147.502257 53.672213 
L 147.610143 53.609674 
L 147.77878 53.499377 
L 147.88931 53.435701 
L 148.090795 53.325405 
L 148.200896 53.271962 
L 148.402425 53.161666 
L 148.509686 53.108223 
L 148.705919 52.997927 
L 148.816464 52.927428 
L 149.014886 52.817131 
L 149.125383 52.755729 
L 149.288218 52.645433 
L 149.397822 52.574934 
L 149.596411 52.464638 
L 149.70663 52.414606 
L 149.899256 52.30431 
L 150.009679 52.231537 
L 150.236582 52.12124 
L 150.344431 52.068935 
L 150.540157 51.958638 
L 150.650666 51.889277 
L 150.870499 51.77898 
L 150.980561 51.724401 
L 151.166501 51.614104 
L 151.272434 51.554976 
L 151.476702 51.44468 
L 151.578169 51.407156 
L 151.799573 51.29686 
L 151.910379 51.243417 
L 152.124976 51.133121 
L 152.23511 51.073993 
L 152.485675 50.963696 
L 152.594746 50.907979 
L 152.76698 50.797683 
L 152.87704 50.736281 
L 153.160442 50.625984 
L 153.270171 50.580501 
L 153.509238 50.470205 
L 153.617362 50.415625 
L 153.871945 50.305329 
L 153.978886 50.249612 
L 154.211484 50.139315 
L 154.322555 50.082462 
L 154.569028 49.972165 
L 154.677434 49.922134 
L 154.932638 49.811837 
L 155.043338 49.745887 
L 155.292846 49.63559 
L 155.399312 49.592381 
L 155.650317 49.482085 
L 155.757104 49.428642 
L 155.989507 49.318346 
L 156.098663 49.269452 
L 156.316914 49.159155 
L 156.419688 49.107987 
L 156.672305 48.99769 
L 156.782439 48.947659 
L 157.054275 48.837362 
L 157.164589 48.774823 
L 157.389186 48.664527 
L 157.498414 48.613358 
L 157.72459 48.503062 
L 157.834355 48.439386 
L 158.101483 48.329089 
L 158.21115 48.28588 
L 158.459721 48.175584 
L 158.568561 48.11873 
L 158.825766 48.008434 
L 158.934316 47.956128 
L 159.2342 47.845832 
L 159.344354 47.799211 
L 159.6251 47.688915 
L 159.736099 47.637746 
L 160.022016 47.52745 
L 160.128686 47.478556 
L 160.42732 47.368259 
L 160.536726 47.320502 
L 160.800131 47.210206 
L 160.909472 47.168134 
L 161.148819 47.057837 
L 161.253712 47.016903 
L 161.586708 46.906606 
L 161.696686 46.856575 
L 162.07311 46.746278 
L 162.183283 46.715577 
L 162.487917 46.605281 
L 162.597798 46.564346 
L 162.885501 46.45405 
L 162.993143 46.415389 
L 163.297938 46.305092 
L 163.409039 46.268706 
L 163.729177 46.15841 
L 163.832295 46.119749 
L 164.140195 46.009452 
L 164.24719 45.978751 
L 164.477456 45.868455 
L 164.584491 45.82752 
L 164.931644 45.717224 
L 165.039449 45.671741 
L 165.390581 45.561444 
L 165.500914 45.526195 
L 165.820331 45.415898 
L 165.929627 45.378375 
L 166.302576 45.268078 
L 166.411137 45.228281 
L 166.719329 45.117984 
L 166.829686 45.08842 
L 167.197653 44.978124 
L 167.30789 44.94856 
L 167.623593 44.838263 
L 167.731579 44.816659 
L 168.144718 44.706362 
L 168.255109 44.666565 
L 168.607636 44.556268 
L 168.711299 44.517608 
L 169.118735 44.407311 
L 169.227268 44.37661 
L 169.617948 44.266314 
L 169.713935 44.233339 
L 170.133225 44.123042 
L 170.242485 44.094615 
L 170.639934 43.984319 
L 170.751009 43.946795 
L 171.167409 43.836499 
L 171.278019 43.805798 
L 171.729104 43.695501 
L 171.834951 43.667074 
L 172.278858 43.556778 
L 172.380353 43.527214 
L 172.774514 43.416917 
L 172.884846 43.390765 
L 173.336557 43.280468 
L 173.44627 43.241808 
L 173.892356 43.131511 
L 174.002315 43.090576 
L 174.435898 42.98028 
L 174.541051 42.946168 
L 174.991359 42.835871 
L 175.097681 42.807444 
L 175.607979 42.697148 
L 175.718685 42.661898 
L 176.117359 42.551602 
L 176.224369 42.525449 
L 176.708093 42.415153 
L 176.81678 42.379903 
L 177.252424 42.269607 
L 177.355008 42.24118 
L 177.771826 42.130883 
L 177.880285 42.104731 
L 178.28288 41.994434 
L 178.387052 41.969419 
L 178.796365 41.859122 
L 178.904725 41.831832 
L 179.400737 41.721536 
L 179.510178 41.691972 
L 179.943361 41.581675 
L 180.052211 41.549837 
L 180.621166 41.439541 
L 180.726615 41.415662 
L 181.349849 41.305366 
L 181.456828 41.275802 
L 181.958667 41.165505 
L 182.062915 41.14049 
L 182.591539 41.030193 
L 182.698958 41.006315 
L 183.269884 40.896018 
L 183.377156 40.873277 
L 183.902302 40.76298 
L 184.013194 40.747061 
L 184.601282 40.636765 
L 184.709986 40.612886 
L 185.257498 40.502589 
L 185.360905 40.478711 
L 185.889137 40.368414 
L 185.994122 40.342262 
L 186.625536 40.231965 
L 186.730736 40.210361 
L 187.451304 40.100064 
L 187.560957 40.079597 
L 188.260557 39.9693 
L 188.351142 39.948833 
L 189.037869 39.838537 
L 189.146234 39.812384 
L 189.801585 39.702087 
L 189.909108 39.685031 
L 190.687844 39.574735 
L 190.79705 39.551993 
L 191.595994 39.441697 
L 191.706663 39.421229 
L 192.558008 39.310933 
L 192.662029 39.296151 
L 193.430294 39.185855 
L 193.540432 39.165387 
L 194.252593 39.055091 
L 194.360412 39.03576 
L 195.175251 38.925464 
L 195.264932 38.908408 
L 196.037394 38.798111 
L 196.104016 38.791289 
L 196.983268 38.680992 
L 197.090715 38.667348 
L 197.87474 38.557051 
L 197.985524 38.542269 
L 198.771417 38.431973 
L 198.846678 38.421739 
L 199.647614 38.311442 
L 199.757887 38.295523 
L 200.676991 38.185227 
L 200.775014 38.170445 
L 201.656104 38.060149 
L 201.746389 38.048778 
L 202.870123 37.938481 
L 202.96535 37.928248 
L 203.93866 37.817951 
L 204.041391 37.805443 
L 205.07832 37.695147 
L 205.181549 37.682639 
L 206.107625 37.572343 
L 206.203044 37.563246 
L 207.209055 37.45295 
L 207.315176 37.447264 
L 208.314507 37.336968 
L 208.393166 37.329008 
L 209.814877 37.218712 
L 209.916003 37.207341 
L 211.139403 37.097044 
L 211.2346 37.082262 
L 212.416848 36.971966 
L 212.503037 36.960595 
L 214.067143 36.850299 
L 214.167166 36.837791 
L 215.472751 36.727494 
L 215.577854 36.720672 
L 216.903779 36.610376 
L 217.012073 36.599005 
L 218.600818 36.488708 
L 218.702085 36.48416 
L 220.165555 36.373864 
L 220.267625 36.36363 
L 222.054581 36.253333 
L 222.143157 36.2431 
L 223.792362 36.132803 
L 223.868885 36.128255 
L 225.680867 36.017959 
L 225.762484 36.007725 
L 228.223517 35.897428 
L 228.332805 35.890606 
L 230.209003 35.78031 
L 230.293897 35.776898 
L 232.624842 35.666602 
L 232.729737 35.659779 
L 235.073234 35.549483 
L 235.151815 35.543798 
L 237.923759 35.433501 
L 238.002667 35.428953 
L 240.733471 35.318656 
L 240.83707 35.311834 
L 243.85841 35.201537 
L 243.867953 35.199263 
L 247.231035 35.088967 
L 247.324267 35.078733 
L 250.805764 34.968437 
L 250.88216 34.961614 
L 255.040084 34.851318 
L 255.040084 34.850181 
L 260.079934 34.739884 
L 260.150167 34.735336 
L 265.968705 34.625039 
L 266.074167 34.622765 
L 272.233914 34.512469 
L 272.308342 34.509058 
L 280.383347 34.398761 
L 280.393828 34.396487 
L 294.684091 34.286191 
L 294.718234 34.283916 
L 309.307578 34.17362 
L 309.392569 34.170209 
L 350.468365 34.059912 
L 350.468365 34.058775 
L 540.558095 34.001921 
L 540.558095 34.000784 
" clip-path="url(#pf4e84b82ec)" style="fill: none; stroke: #1f77b4; stroke-width: 1.5; stroke-linecap: square"/>
   </g>
   <g id="line2d_26">
    <path d="M 47.720069 390.039419 
L 47.726222 389.928413 
L 47.837326 387.710033 
L 47.843322 387.599027 
L 47.95443 385.428304 
L 47.959468 385.317298 
L 48.070516 383.161105 
L 48.075711 383.050098 
L 48.186795 380.857291 
L 48.193138 380.746284 
L 48.304246 378.6238 
L 48.310442 378.512794 
L 48.421435 376.354276 
L 48.4278 376.24327 
L 48.538883 374.084171 
L 48.544667 373.973164 
L 48.655773 371.794886 
L 48.661652 371.68388 
L 48.772762 369.570113 
L 48.778457 369.459107 
L 48.88956 367.358708 
L 48.894918 367.247702 
L 49.005991 365.135678 
L 49.011342 365.024672 
L 49.122443 362.982391 
L 49.128076 362.871385 
L 49.239179 360.782028 
L 49.245036 360.671022 
L 49.356121 358.63804 
L 49.362401 358.527034 
L 49.473437 356.467898 
L 49.47974 356.356892 
L 49.590813 354.375635 
L 49.597306 354.264629 
L 49.708402 352.199682 
L 49.713999 352.088676 
L 49.825099 350.076035 
L 49.831173 349.965029 
L 49.942263 347.971567 
L 49.949444 347.860561 
L 50.060544 345.914175 
L 50.067196 345.803169 
L 50.178301 343.881193 
L 50.184458 343.770187 
L 50.295557 341.889475 
L 50.302202 341.778469 
L 50.413236 339.876835 
L 50.418999 339.765828 
L 50.530066 337.893834 
L 50.536904 337.782828 
L 50.647961 335.885262 
L 50.655144 335.774256 
L 50.766207 333.85751 
L 50.77287 333.746504 
L 50.88395 331.916937 
L 50.890763 331.80593 
L 51.001873 329.970551 
L 51.008067 329.859545 
L 51.119171 328.01661 
L 51.125341 327.905604 
L 51.236374 326.083591 
L 51.242882 325.972585 
L 51.353965 324.127326 
L 51.361016 324.016319 
L 51.472123 322.127471 
L 51.478675 322.016465 
L 51.589771 320.202008 
L 51.596204 320.091002 
L 51.707295 318.302117 
L 51.714387 318.191111 
L 51.825464 316.425473 
L 51.832174 316.314467 
L 51.943274 314.541856 
L 51.951581 314.430849 
L 52.06265 312.648358 
L 52.070624 312.537351 
L 52.181712 310.798449 
L 52.18819 310.687442 
L 52.29929 308.945052 
L 52.306961 308.834046 
L 52.418037 307.057947 
L 52.426042 306.946941 
L 52.53713 305.304515 
L 52.545163 305.193509 
L 52.656168 303.524929 
L 52.664206 303.413923 
L 52.775308 301.708729 
L 52.783488 301.597722 
L 52.894587 299.913451 
L 52.901827 299.802445 
L 53.012905 298.155369 
L 53.020792 298.044363 
L 53.13187 296.437388 
L 53.139398 296.326382 
L 53.25045 294.672332 
L 53.258116 294.561326 
L 53.369217 292.938079 
L 53.377316 292.827073 
L 53.488417 291.24044 
L 53.495971 291.129434 
L 53.607042 289.477708 
L 53.614435 289.366702 
L 53.72551 287.725438 
L 53.732818 287.614432 
L 53.843868 286.063252 
L 53.851678 285.952245 
L 53.962743 284.359801 
L 53.971507 284.248795 
L 54.082559 282.684828 
L 54.089351 282.573822 
L 54.200428 281.020898 
L 54.208654 280.909892 
L 54.319531 279.366848 
L 54.327309 279.255842 
L 54.43828 277.702336 
L 54.445986 277.59133 
L 54.55709 276.081414 
L 54.565737 275.970408 
L 54.676804 274.476765 
L 54.68627 274.365758 
L 54.797355 272.877927 
L 54.806384 272.766921 
L 54.917489 271.227364 
L 54.925787 271.116358 
L 55.036884 269.666885 
L 55.046256 269.555878 
L 55.157336 268.045962 
L 55.165109 267.934956 
L 55.276192 266.497106 
L 55.284854 266.3861 
L 55.39594 264.959874 
L 55.403991 264.848868 
L 55.515052 263.363943 
L 55.524036 263.252936 
L 55.635145 261.778472 
L 55.642505 261.667466 
L 55.753561 260.248214 
L 55.762411 260.137208 
L 55.873456 258.708076 
L 55.882291 258.59707 
L 55.993237 257.220245 
L 56.000831 257.109239 
L 56.111914 255.774259 
L 56.120363 255.663253 
L 56.231464 254.29747 
L 56.241454 254.186464 
L 56.352516 252.803246 
L 56.362259 252.692239 
L 56.473354 251.291586 
L 56.482686 251.180579 
L 56.593698 249.780507 
L 56.602873 249.669501 
L 56.713772 248.306624 
L 56.722512 248.195618 
L 56.833574 246.915269 
L 56.843544 246.804263 
L 56.954646 245.463471 
L 56.964304 245.352465 
L 57.0754 243.9954 
L 57.085536 243.884394 
L 57.196647 242.548251 
L 57.205962 242.437245 
L 57.317015 241.09471 
L 57.326284 240.983704 
L 57.437258 239.663253 
L 57.446613 239.552247 
L 57.557611 238.264924 
L 57.566859 238.153918 
L 57.677714 236.902048 
L 57.687283 236.791041 
L 57.798358 235.507206 
L 57.80808 235.396199 
L 57.919106 234.097834 
L 57.928041 233.986828 
L 58.039046 232.698924 
L 58.048628 232.587918 
L 58.159667 231.308731 
L 58.16966 231.197725 
L 58.280623 229.958641 
L 58.291722 229.847634 
L 58.402812 228.595183 
L 58.414067 228.484176 
L 58.525175 227.252647 
L 58.53535 227.141641 
L 58.646395 225.925804 
L 58.656493 225.814798 
L 58.767555 224.660566 
L 58.77759 224.54956 
L 58.888688 223.323261 
L 58.899104 223.212255 
L 59.010108 222.055118 
L 59.021395 221.944111 
L 59.132394 220.798597 
L 59.142329 220.687591 
L 59.25339 219.571718 
L 59.264324 219.460712 
L 59.375395 218.243131 
L 59.386481 218.132125 
L 59.497552 216.977312 
L 59.507927 216.866306 
L 59.618871 215.693476 
L 59.630283 215.58247 
L 59.741307 214.459622 
L 59.75273 214.348616 
L 59.863808 213.191478 
L 59.875402 213.080472 
L 59.986418 211.997726 
L 59.996698 211.88672 
L 60.107742 210.803974 
L 60.120166 210.692968 
L 60.231251 209.584068 
L 60.2413 209.473062 
L 60.352361 208.336847 
L 60.36369 208.225841 
L 60.474762 207.116942 
L 60.48659 207.005935 
L 60.597676 205.945856 
L 60.609021 205.834849 
L 60.720027 204.769539 
L 60.732526 204.658533 
L 60.843552 203.578693 
L 60.854722 203.467686 
L 60.965824 202.42911 
L 60.977869 202.318104 
L 61.088922 201.266161 
L 61.10069 201.155155 
L 61.211792 200.073571 
L 61.22256 199.962565 
L 61.3336 198.93445 
L 61.34624 198.823444 
L 61.457339 197.82032 
L 61.468899 197.709314 
L 61.579995 196.692242 
L 61.592174 196.581235 
L 61.703259 195.569975 
L 61.714383 195.458969 
L 61.825356 194.462238 
L 61.838015 194.351232 
L 61.949061 193.317887 
L 61.961218 193.20688 
L 62.072297 192.177603 
L 62.083718 192.066597 
L 62.194801 191.104737 
L 62.207278 190.993731 
L 62.318371 190.012111 
L 62.331938 189.901105 
L 62.443021 188.952031 
L 62.455501 188.841025 
L 62.56645 187.890208 
L 62.579648 187.779202 
L 62.690726 186.82141 
L 62.70533 186.710404 
L 62.816386 185.736339 
L 62.830642 185.625333 
L 62.941723 184.684396 
L 62.953558 184.57339 
L 63.064639 183.583052 
L 63.077601 183.472046 
L 63.188686 182.507862 
L 63.201324 182.396855 
L 63.312406 181.448363 
L 63.325996 181.337357 
L 63.437041 180.397582 
L 63.449356 180.286576 
L 63.560308 179.353194 
L 63.574838 179.242188 
L 63.685946 178.352976 
L 63.699248 178.24197 
L 63.810345 177.408552 
L 63.824673 177.297546 
L 63.935766 176.366489 
L 63.950604 176.255483 
L 64.061706 175.378476 
L 64.074815 175.26747 
L 64.185926 174.432308 
L 64.199615 174.321302 
L 64.310635 173.474516 
L 64.325418 173.36351 
L 64.436482 172.480692 
L 64.449769 172.369685 
L 64.560811 171.528712 
L 64.573634 171.417706 
L 64.684587 170.530238 
L 64.698511 170.419231 
L 64.809617 169.592206 
L 64.824273 169.4812 
L 64.935332 168.623372 
L 64.950788 168.512366 
L 65.061867 167.665 
L 65.076083 167.553994 
L 65.187178 166.736849 
L 65.202611 166.625843 
L 65.313494 165.802305 
L 65.328565 165.691298 
L 65.439385 164.875897 
L 65.455459 164.764891 
L 65.566543 163.987848 
L 65.581268 163.876842 
L 65.692355 163.088756 
L 65.709698 162.97775 
L 65.820755 162.170485 
L 65.835677 162.059479 
L 65.946745 161.234197 
L 65.960045 161.123191 
L 66.071099 160.345567 
L 66.087045 160.234561 
L 66.198119 159.465073 
L 66.213581 159.354067 
L 66.324565 158.573536 
L 66.339668 158.46253 
L 66.450633 157.694786 
L 66.46686 157.58378 
L 66.577949 156.802668 
L 66.594338 156.691662 
L 66.705343 155.921012 
L 66.723376 155.810006 
L 66.834456 155.061441 
L 66.849376 154.950434 
L 66.960425 154.197801 
L 66.977753 154.086795 
L 67.088774 153.360896 
L 67.104459 153.24989 
L 67.215351 152.451343 
L 67.234464 152.340336 
L 67.34547 151.590609 
L 67.361793 151.479603 
L 67.472871 150.754866 
L 67.489197 150.64386 
L 67.600303 149.908081 
L 67.616136 149.797075 
L 67.727236 149.072919 
L 67.741553 148.961913 
L 67.852662 148.252868 
L 67.869223 148.141862 
L 67.980197 147.430493 
L 67.997552 147.319487 
L 68.108632 146.595912 
L 68.123759 146.484906 
L 68.234816 145.795622 
L 68.252228 145.684616 
L 68.363083 144.988357 
L 68.381998 144.877351 
L 68.492936 144.181092 
L 68.510938 144.070086 
L 68.621923 143.359298 
L 68.639394 143.248292 
L 68.750455 142.605502 
L 68.768557 142.494496 
L 68.879112 141.855193 
L 68.898489 141.744187 
L 69.009468 141.065945 
L 69.029232 140.954939 
L 69.140276 140.298782 
L 69.157715 140.187776 
L 69.268768 139.527551 
L 69.285688 139.416545 
L 69.396788 138.764456 
L 69.416274 138.65345 
L 69.52737 138.02519 
L 69.548357 137.914184 
L 69.659394 137.266163 
L 69.677142 137.155157 
L 69.787888 136.49377 
L 69.809051 136.382764 
L 69.919982 135.733581 
L 69.94157 135.622575 
L 70.052597 134.973973 
L 70.072842 134.862967 
L 70.183912 134.234126 
L 70.202564 134.12312 
L 70.313619 133.50997 
L 70.336482 133.398964 
L 70.447549 132.797439 
L 70.468537 132.686432 
L 70.57958 132.087813 
L 70.60071 131.976807 
L 70.711744 131.368307 
L 70.732145 131.257301 
L 70.843082 130.63369 
L 70.86507 130.522684 
L 70.976077 129.918834 
L 70.997842 129.807827 
L 71.108753 129.197003 
L 71.12847 129.085997 
L 71.239255 128.499001 
L 71.260617 128.387994 
L 71.37166 127.829477 
L 71.392077 127.71847 
L 71.50317 127.143679 
L 71.524826 127.032673 
L 71.635845 126.455557 
L 71.657482 126.344551 
L 71.768493 125.754068 
L 71.788974 125.643062 
L 71.900008 125.09268 
L 71.921643 124.981674 
L 72.032649 124.372593 
L 72.055331 124.261587 
L 72.166417 123.699582 
L 72.187019 123.588576 
L 72.298074 123.03122 
L 72.320528 122.920214 
L 72.431361 122.361115 
L 72.452928 122.250109 
L 72.563691 121.696821 
L 72.587109 121.585815 
L 72.698138 121.042408 
L 72.719163 120.931402 
L 72.829801 120.427515 
L 72.853294 120.316509 
L 72.964105 119.770196 
L 72.985076 119.65919 
L 73.09564 119.137868 
L 73.120789 119.026862 
L 73.231871 118.502052 
L 73.254813 118.391046 
L 73.365835 117.841827 
L 73.389287 117.730821 
L 73.500366 117.182183 
L 73.5227 117.071177 
L 73.633737 116.559735 
L 73.659027 116.448729 
L 73.770063 115.917526 
L 73.792713 115.80652 
L 73.903592 115.28636 
L 73.927164 115.175354 
L 74.038259 114.680767 
L 74.062317 114.56976 
L 74.173335 114.072848 
L 74.197201 113.961842 
L 74.308089 113.474228 
L 74.33553 113.363222 
L 74.446542 112.868053 
L 74.467919 112.757047 
L 74.579028 112.25781 
L 74.602865 112.146804 
L 74.713547 111.683019 
L 74.735776 111.572013 
L 74.84688 111.054759 
L 74.871857 110.943753 
L 74.982844 110.449746 
L 75.008231 110.33874 
L 75.119182 109.860425 
L 75.145077 109.749419 
L 75.25608 109.274011 
L 75.281337 109.163004 
L 75.392443 108.720142 
L 75.42101 108.609136 
L 75.532068 108.15465 
L 75.558847 108.043644 
L 75.669822 107.57056 
L 75.697321 107.459554 
L 75.808346 106.976008 
L 75.835741 106.865002 
L 75.946364 106.40761 
L 75.972248 106.296604 
L 76.083346 105.825264 
L 76.109551 105.714258 
L 76.220406 105.277207 
L 76.246974 105.166201 
L 76.358051 104.721014 
L 76.385337 104.610008 
L 76.49643 104.156684 
L 76.521177 104.045678 
L 76.632057 103.603978 
L 76.662797 103.492972 
L 76.773819 103.069289 
L 76.805102 102.958282 
L 76.915832 102.553197 
L 76.94791 102.442191 
L 77.058705 102.008046 
L 77.085638 101.89704 
L 77.196611 101.486724 
L 77.22689 101.375718 
L 77.337975 100.992137 
L 77.366627 100.88113 
L 77.477597 100.435362 
L 77.506625 100.324356 
L 77.617595 99.911715 
L 77.652424 99.800709 
L 77.763484 99.389231 
L 77.795523 99.278224 
L 77.906615 98.873139 
L 77.940452 98.762133 
L 78.051068 98.345424 
L 78.079947 98.234418 
L 78.191002 97.820615 
L 78.221659 97.709608 
L 78.33265 97.304523 
L 78.364309 97.193517 
L 78.474942 96.798893 
L 78.504437 96.687887 
L 78.615346 96.298493 
L 78.644305 96.187487 
L 78.755263 95.785308 
L 78.787497 95.674302 
L 78.898557 95.292464 
L 78.9297 95.181457 
L 79.040782 94.790902 
L 79.077119 94.679896 
L 79.188139 94.309681 
L 79.220102 94.198675 
L 79.330881 93.816256 
L 79.362266 93.70525 
L 79.472841 93.350727 
L 79.504391 93.239721 
L 79.615484 92.871832 
L 79.645995 92.760826 
L 79.756967 92.392355 
L 79.791458 92.281349 
L 79.902496 91.930313 
L 79.935931 91.819307 
L 80.046957 91.461298 
L 80.079973 91.350292 
L 80.190859 90.982983 
L 80.225408 90.871977 
L 80.336448 90.513386 
L 80.371219 90.40238 
L 80.482159 90.06355 
L 80.51581 89.952544 
L 80.626906 89.607902 
L 80.661614 89.496895 
L 80.772602 89.137724 
L 80.809494 89.026717 
L 80.9204 88.676263 
L 80.951542 88.565257 
L 81.062651 88.241538 
L 81.096289 88.130532 
L 81.207048 87.799838 
L 81.24489 87.688832 
L 81.355987 87.368018 
L 81.38751 87.257012 
L 81.498404 86.935036 
L 81.536471 86.82403 
L 81.647499 86.506703 
L 81.688653 86.395697 
L 81.799676 86.056285 
L 81.836171 85.945279 
L 81.94711 85.64132 
L 81.980169 85.530314 
L 82.090958 85.215893 
L 82.132595 85.104887 
L 82.243577 84.780005 
L 82.285307 84.668999 
L 82.396337 84.359809 
L 82.436772 84.248803 
L 82.547813 83.926245 
L 82.58514 83.815239 
L 82.695844 83.522904 
L 82.739259 83.411897 
L 82.850116 83.131186 
L 82.889723 83.020179 
L 83.000552 82.690648 
L 83.041245 82.579642 
L 83.15211 82.262896 
L 83.195673 82.15189 
L 83.306492 81.8427 
L 83.350254 81.731694 
L 83.461322 81.414368 
L 83.500075 81.303361 
L 83.611184 80.984291 
L 83.652102 80.873285 
L 83.762987 80.571651 
L 83.800706 80.460644 
L 83.911712 80.197368 
L 83.950251 80.086362 
L 84.060709 79.804488 
L 84.112083 79.693481 
L 84.222946 79.399402 
L 84.272103 79.288396 
L 84.381905 79.003616 
L 84.431176 78.89261 
L 84.542181 78.595625 
L 84.586621 78.484618 
L 84.697699 78.20565 
L 84.746667 78.094644 
L 84.857308 77.824974 
L 84.901549 77.713968 
L 85.012261 77.458828 
L 85.055186 77.347822 
L 85.165977 77.089195 
L 85.211703 76.978189 
L 85.322418 76.726536 
L 85.368187 76.61553 
L 85.478837 76.329588 
L 85.522448 76.218581 
L 85.633007 75.926827 
L 85.678761 75.815821 
L 85.789791 75.558937 
L 85.840594 75.447931 
L 85.951635 75.171288 
L 85.997536 75.060281 
L 86.108136 74.795843 
L 86.153503 74.684836 
L 86.264451 74.433184 
L 86.311967 74.322178 
L 86.422949 74.075174 
L 86.46998 73.964168 
L 86.580943 73.728789 
L 86.626876 73.617782 
L 86.73746 73.369617 
L 86.787258 73.258611 
L 86.898132 73.00812 
L 86.947244 72.897114 
L 87.058214 72.647205 
L 87.107523 72.536199 
L 87.217671 72.279896 
L 87.271552 72.16889 
L 87.382491 71.939323 
L 87.434318 71.828316 
L 87.544904 71.586544 
L 87.601971 71.475538 
L 87.712742 71.233765 
L 87.767136 71.122759 
L 87.878157 70.890866 
L 87.931445 70.77986 
L 88.042381 70.564822 
L 88.099571 70.453816 
L 88.210484 70.231804 
L 88.26157 70.120797 
L 88.372571 69.894136 
L 88.427373 69.783129 
L 88.538358 69.561698 
L 88.591559 69.450692 
L 88.702658 69.218218 
L 88.764667 69.107212 
L 88.875707 68.8852 
L 88.925195 68.774194 
L 89.035982 68.57136 
L 89.094991 68.460354 
L 89.205894 68.220906 
L 89.262755 68.1099 
L 89.37368 67.891956 
L 89.430526 67.78095 
L 89.541256 67.56475 
L 89.593254 67.453743 
L 89.703959 67.229406 
L 89.762677 67.1184 
L 89.873677 66.917892 
L 89.936373 66.806885 
L 90.047271 66.593591 
L 90.103601 66.482585 
L 90.214556 66.285563 
L 90.274288 66.174557 
L 90.384668 65.968818 
L 90.453194 65.857812 
L 90.563385 65.639286 
L 90.622635 65.52828 
L 90.733314 65.322541 
L 90.79003 65.211535 
L 90.901134 65.006958 
L 90.958731 64.895952 
L 91.069522 64.696606 
L 91.129807 64.5856 
L 91.240653 64.40427 
L 91.307669 64.293264 
L 91.418654 64.110772 
L 91.479862 63.999766 
L 91.590868 63.787634 
L 91.65634 63.676628 
L 91.766855 63.490649 
L 91.834589 63.379643 
L 91.945329 63.168092 
L 92.007479 63.057085 
L 92.118538 62.879243 
L 92.189797 62.768237 
L 92.300767 62.603762 
L 92.362637 62.492756 
L 92.473052 62.320144 
L 92.534347 62.209138 
L 92.644664 62.0435 
L 92.717237 61.932494 
L 92.827959 61.776737 
L 92.900767 61.665731 
L 93.011615 61.484401 
L 93.082366 61.373395 
L 93.192969 61.205433 
L 93.267028 61.094427 
L 93.378115 60.934601 
L 93.446296 60.823595 
L 93.557293 60.648658 
L 93.632638 60.537652 
L 93.742762 60.374921 
L 93.818934 60.263914 
L 93.929834 60.095371 
L 94.006425 59.984365 
L 94.11587 59.835 
L 94.195044 59.723994 
L 94.306019 59.557776 
L 94.381072 59.446769 
L 94.491519 59.2852 
L 94.572317 59.174194 
L 94.682878 59.021924 
L 94.770682 58.910918 
L 94.881785 58.753998 
L 94.961703 58.642992 
L 95.072729 58.494209 
L 95.139464 58.383203 
L 95.250192 58.21989 
L 95.328746 58.108884 
L 95.438901 57.960682 
L 95.53067 57.849675 
L 95.641447 57.696824 
L 95.727376 57.585818 
L 95.837349 57.418437 
L 95.929914 57.307431 
L 96.04078 57.171434 
L 96.12484 57.060427 
L 96.235044 56.927336 
L 96.326935 56.81633 
L 96.438044 56.665222 
L 96.527966 56.554216 
L 96.638326 56.414732 
L 96.723625 56.303726 
L 96.834299 56.162498 
L 96.924421 56.051492 
L 97.034518 55.912008 
L 97.122098 55.801001 
L 97.233071 55.66268 
L 97.325046 55.551673 
L 97.435993 55.422069 
L 97.529037 55.311063 
L 97.639279 55.182621 
L 97.729961 55.071615 
L 97.840694 54.942011 
L 97.937684 54.831005 
L 98.046816 54.70605 
L 98.14271 54.595044 
L 98.253505 54.464278 
L 98.358561 54.353272 
L 98.469228 54.227155 
L 98.560731 54.116149 
L 98.671536 53.980733 
L 98.779834 53.869726 
L 98.890452 53.746515 
L 98.992127 53.635509 
L 99.102237 53.509392 
L 99.219571 53.398386 
L 99.330356 53.278081 
L 99.44555 53.167075 
L 99.556338 53.041539 
L 99.672487 52.930533 
L 99.783412 52.807903 
L 99.883966 52.696897 
L 99.994964 52.576592 
L 100.108839 52.465586 
L 100.219404 52.363878 
L 100.325526 52.252872 
L 100.43659 52.147097 
L 100.550404 52.036091 
L 100.660824 51.919854 
L 100.764348 51.808848 
L 100.874971 51.692611 
L 100.990382 51.581605 
L 101.099938 51.476991 
L 101.214871 51.365985 
L 101.325737 51.254398 
L 101.433327 51.143392 
L 101.544437 51.025411 
L 101.657159 50.914405 
L 101.768079 50.802237 
L 101.878093 50.69123 
L 101.989026 50.593591 
L 102.090122 50.482585 
L 102.201166 50.36693 
L 102.314928 50.255924 
L 102.424932 50.162934 
L 102.542692 50.051928 
L 102.65322 49.941503 
L 102.77453 49.830497 
L 102.885087 49.725884 
L 103.007822 49.614877 
L 103.117919 49.515495 
L 103.236434 49.404489 
L 103.347007 49.310918 
L 103.487696 49.199912 
L 103.598273 49.090649 
L 103.720707 48.979643 
L 103.831603 48.891303 
L 103.960769 48.780297 
L 104.071786 48.700094 
L 104.209249 48.589087 
L 104.319739 48.505978 
L 104.456998 48.394972 
L 104.565427 48.303726 
L 104.710794 48.19272 
L 104.821667 48.099149 
L 104.9724 47.988143 
L 105.083444 47.898059 
L 105.228454 47.787053 
L 105.339405 47.692901 
L 105.473957 47.581895 
L 105.584709 47.493555 
L 105.746438 47.382549 
L 105.857477 47.298277 
L 106.023573 47.187271 
L 106.134502 47.115786 
L 106.273248 47.004779 
L 106.384111 46.915277 
L 106.530616 46.804271 
L 106.639956 46.721743 
L 106.813484 46.610737 
L 106.923172 46.539832 
L 107.074872 46.428826 
L 107.18564 46.360246 
L 107.339047 46.24924 
L 107.45004 46.155669 
L 107.619182 46.044663 
L 107.729584 45.976665 
L 107.876917 45.865659 
L 107.986963 45.790686 
L 108.13394 45.67968 
L 108.244676 45.618074 
L 108.411462 45.507068 
L 108.521632 45.423959 
L 108.691009 45.312952 
L 108.8021 45.233911 
L 108.979137 45.122905 
L 109.089623 45.05142 
L 109.271472 44.940413 
L 109.3817 44.876483 
L 109.566236 44.765477 
L 109.676958 44.694572 
L 109.882503 44.583566 
L 109.992481 44.518474 
L 110.190021 44.407468 
L 110.300984 44.355742 
L 110.497652 44.244736 
L 110.604522 44.182549 
L 110.823113 44.071543 
L 110.934033 44.007032 
L 111.132062 43.896025 
L 111.242094 43.836745 
L 111.439563 43.725739 
L 111.550495 43.661808 
L 111.778024 43.550802 
L 111.887782 43.50082 
L 112.092615 43.389814 
L 112.202676 43.335183 
L 112.413484 43.224177 
L 112.524425 43.161409 
L 112.746732 43.050403 
L 112.85675 42.99984 
L 113.080364 42.888833 
L 113.190917 42.824903 
L 113.424955 42.713897 
L 113.535872 42.656941 
L 113.769019 42.545935 
L 113.8793 42.492466 
L 114.09393 42.38146 
L 114.204869 42.322179 
L 114.433007 42.211173 
L 114.540803 42.153054 
L 114.804257 42.042048 
L 114.913887 42.003109 
L 115.208301 41.892103 
L 115.316171 41.854326 
L 115.577034 41.743319 
L 115.684852 41.697987 
L 115.950513 41.586981 
L 116.06116 41.531768 
L 116.331107 41.420762 
L 116.440663 41.373686 
L 116.695546 41.26268 
L 116.805655 41.21851 
L 117.119752 41.107504 
L 117.229829 41.068565 
L 117.498208 40.957558 
L 117.609052 40.906414 
L 117.875868 40.795408 
L 117.983121 40.750657 
L 118.267309 40.639651 
L 118.372351 40.600711 
L 118.692536 40.489705 
L 118.802872 40.444954 
L 119.088344 40.333948 
L 119.199082 40.286291 
L 119.529161 40.175285 
L 119.638471 40.130533 
L 119.954372 40.019527 
L 120.064796 39.975357 
L 120.402601 39.864351 
L 120.513267 39.834711 
L 120.864239 39.723705 
L 120.972016 39.68709 
L 121.36928 39.576084 
L 121.480227 39.536563 
L 121.868444 39.425557 
L 121.979236 39.390105 
L 122.369604 39.279099 
L 122.479253 39.237253 
L 122.819763 39.126247 
L 122.930184 39.089051 
L 123.325485 38.978045 
L 123.434706 38.944337 
L 123.832604 38.83333 
L 123.941575 38.80834 
L 124.316509 38.697333 
L 124.427374 38.665949 
L 124.864941 38.554943 
L 124.972914 38.526465 
L 125.422045 38.415459 
L 125.531526 38.389887 
L 126.009149 38.278881 
L 126.115865 38.24401 
L 126.591603 38.133004 
L 126.697523 38.107431 
L 127.133772 37.996425 
L 127.240395 37.970272 
L 127.755662 37.859266 
L 127.866098 37.838924 
L 128.452332 37.727918 
L 128.559996 37.705833 
L 129.128056 37.594827 
L 129.238145 37.572161 
L 129.851654 37.461155 
L 129.960967 37.436745 
L 130.500904 37.325739 
L 130.605866 37.304816 
L 131.217539 37.19381 
L 131.325191 37.173469 
L 131.970576 37.062462 
L 132.074893 37.04154 
L 132.752395 36.930534 
L 132.861834 36.909611 
L 133.536394 36.798605 
L 133.640925 36.778263 
L 134.384663 36.667257 
L 134.495673 36.642847 
L 135.305214 36.531841 
L 135.413465 36.507432 
L 136.207945 36.396425 
L 136.318911 36.379571 
L 137.183826 36.268565 
L 137.287839 36.258685 
L 138.247009 36.147679 
L 138.357947 36.134892 
L 139.236535 36.023886 
L 139.283915 36.016912 
L 140.373892 35.905906 
L 140.482979 35.894863 
L 141.633314 35.783857 
L 141.743941 35.771652 
L 143.003741 35.660646 
L 143.10447 35.65251 
L 144.507492 35.541503 
L 144.617759 35.529299 
L 145.792236 35.418292 
L 145.898323 35.407831 
L 147.492692 35.296825 
L 147.601052 35.286945 
L 149.190409 35.175939 
L 149.292422 35.169546 
L 151.110866 35.058539 
L 151.213643 35.053309 
L 153.144863 34.942303 
L 153.252473 34.935328 
L 155.332885 34.824322 
L 155.440484 34.817929 
L 158.344249 34.706923 
L 158.449747 34.70053 
L 161.966623 34.589524 
L 162.072788 34.586037 
L 166.275615 34.475031 
L 166.385753 34.470962 
L 170.548917 34.359956 
L 170.651025 34.357631 
L 177.638837 34.246625 
L 177.722573 34.245463 
L 187.925424 34.134457 
L 187.973664 34.132713 
L 219.282711 34.021707 
L 219.380329 34.020545 
L 286.060284 34.001365 
L 286.060284 34.000784 
" clip-path="url(#pf4e84b82ec)" style="fill: none; stroke: #ff7f0e; stroke-width: 1.5; stroke-linecap: square"/>
   </g>
   <g id="line2d_27">
    <path d="M 71.588273 390.04 
L 71.588273 26.88 
" clip-path="url(#pf4e84b82ec)" style="fill: none; stroke-dasharray: 5.55,2.4; stroke-dashoffset: 0; stroke: #0000ff; stroke-opacity: 0.6; stroke-width: 1.5"/>
   </g>
   <g id="line2d_28">
    <path d="M 59.984319 390.04 
L 59.984319 26.88 
" clip-path="url(#pf4e84b82ec)" style="fill: none; stroke-dasharray: 5.55,2.4; stroke-dashoffset: 0; stroke: #ff0000; stroke-opacity: 0.6; stroke-width: 1.5"/>
   </g>
   <g id="patch_3">
    <path d="M 47.72 390.04 
L 47.72 26.88 
" style="fill: none; stroke: #000000; stroke-width: 0.8; stroke-linejoin: miter; stroke-linecap: square"/>
   </g>
   <g id="patch_4">
    <path d="M 565.2 390.04 
L 565.2 26.88 
" style="fill: none; stroke: #000000; stroke-width: 0.8; stroke-linejoin: miter; stroke-linecap: square"/>
   </g>
   <g id="patch_5">
    <path d="M 47.72 390.04 
L 565.2 390.04 
" style="fill: none; stroke: #000000; stroke-width: 0.8; stroke-linejoin: miter; stroke-linecap: square"/>
   </g>
   <g id="patch_6">
    <path d="M 47.72 26.88 
L 565.2 26.88 
" style="fill: none; stroke: #000000; stroke-width: 0.8; stroke-linejoin: miter; stroke-linecap: square"/>
   </g>
   <g id="text_15">
    <!-- Interarrival ECDF  April vs September -->
    <g transform="translate(188.167187 20.88) scale(0.12 -0.12)">
     <defs>
      <path id="DejaVuSans-49" d="M 628 4666 
L 1259 4666 
L 1259 0 
L 628 0 
L 628 4666 
z
" transform="scale(0.015625)"/>
      <path id="DejaVuSans-76" d="M 191 3500 
L 800 3500 
L 1894 563 
L 2988 3500 
L 3597 3500 
L 2284 0 
L 1503 0 
L 191 3500 
z
" transform="scale(0.015625)"/>
      <path id="DejaVuSans-2014" d="M 313 1978 
L 6088 1978 
L 6088 1528 
L 313 1528 
L 313 1978 
z
" transform="scale(0.015625)"/>
      <path id="DejaVuSans-41" d="M 2188 4044 
L 1331 1722 
L 3047 1722 
L 2188 4044 
z
M 1831 4666 
L 2547 4666 
L 4325 0 
L 3669 0 
L 3244 1197 
L 1141 1197 
L 716 0 
L 50 0 
L 1831 4666 
z
" transform="scale(0.015625)"/>
      <path id="DejaVuSans-53" d="M 3425 4513 
L 3425 3897 
Q 3066 4069 2747 4153 
Q 2428 4238 2131 4238 
Q 1616 4238 1336 4038 
Q 1056 3838 1056 3469 
Q 1056 3159 1242 3001 
Q 1428 2844 1947 2747 
L 2328 2669 
Q 3034 2534 3370 2195 
Q 3706 1856 3706 1288 
Q 3706 609 3251 259 
Q 2797 -91 1919 -91 
Q 1588 -91 1214 -16 
Q 841 59 441 206 
L 441 856 
Q 825 641 1194 531 
Q 1563 422 1919 422 
Q 2459 422 2753 634 
Q 3047 847 3047 1241 
Q 3047 1584 2836 1778 
Q 2625 1972 2144 2069 
L 1759 2144 
Q 1053 2284 737 2584 
Q 422 2884 422 3419 
Q 422 4038 858 4394 
Q 1294 4750 2059 4750 
Q 2388 4750 2728 4690 
Q 3069 4631 3425 4513 
z
" transform="scale(0.015625)"/>
     </defs>
     <use xlink:href="#DejaVuSans-49"/>
     <use xlink:href="#DejaVuSans-6e" transform="translate(29.492188 0)"/>
     <use xlink:href="#DejaVuSans-74" transform="translate(92.871094 0)"/>
     <use xlink:href="#DejaVuSans-65" transform="translate(132.080078 0)"/>
     <use xlink:href="#DejaVuSans-72" transform="translate(193.603516 0)"/>
     <use xlink:href="#DejaVuSans-61" transform="translate(234.716797 0)"/>
     <use xlink:href="#DejaVuSans-72" transform="translate(295.996094 0)"/>
     <use xlink:href="#DejaVuSans-72" transform="translate(335.359375 0)"/>
     <use xlink:href="#DejaVuSans-69" transform="translate(376.472656 0)"/>
     <use xlink:href="#DejaVuSans-76" transform="translate(404.255859 0)"/>
     <use xlink:href="#DejaVuSans-61" transform="translate(463.435547 0)"/>
     <use xlink:href="#DejaVuSans-6c" transform="translate(524.714844 0)"/>
     <use xlink:href="#DejaVuSans-20" transform="translate(552.498047 0)"/>
     <use xlink:href="#DejaVuSans-45" transform="translate(584.285156 0)"/>
     <use xlink:href="#DejaVuSans-43" transform="translate(647.46875 0)"/>
     <use xlink:href="#DejaVuSans-44" transform="translate(717.292969 0)"/>
     <use xlink:href="#DejaVuSans-46" transform="translate(794.294922 0)"/>
     <use xlink:href="#DejaVuSans-20" transform="translate(851.814453 0)"/>
     <use xlink:href="#DejaVuSans-2014" transform="translate(883.601562 0)"/>
     <use xlink:href="#DejaVuSans-20" transform="translate(983.601562 0)"/>
     <use xlink:href="#DejaVuSans-41" transform="translate(1015.388672 0)"/>
     <use xlink:href="#DejaVuSans-70" transform="translate(1083.796875 0)"/>
     <use xlink:href="#DejaVuSans-72" transform="translate(1147.273438 0)"/>
     <use xlink:href="#DejaVuSans-69" transform="translate(1188.386719 0)"/>
     <use xlink:href="#DejaVuSans-6c" transform="translate(1216.169922 0)"/>
     <use xlink:href="#DejaVuSans-20" transform="translate(1243.953125 0)"/>
     <use xlink:href="#DejaVuSans-76" transform="translate(1275.740234 0)"/>
     <use xlink:href="#DejaVuSans-73" transform="translate(1334.919922 0)"/>
     <use xlink:href="#DejaVuSans-20" transform="translate(1387.019531 0)"/>
     <use xlink:href="#DejaVuSans-53" transform="translate(1418.806641 0)"/>
     <use xlink:href="#DejaVuSans-65" transform="translate(1482.283203 0)"/>
     <use xlink:href="#DejaVuSans-70" transform="translate(1543.806641 0)"/>
     <use xlink:href="#DejaVuSans-74" transform="translate(1607.283203 0)"/>
     <use xlink:href="#DejaVuSans-65" transform="translate(1646.492188 0)"/>
     <use xlink:href="#DejaVuSans-6d" transform="translate(1708.015625 0)"/>
     <use xlink:href="#DejaVuSans-62" transform="translate(1805.427734 0)"/>
     <use xlink:href="#DejaVuSans-65" transform="translate(1868.904297 0)"/>
     <use xlink:href="#DejaVuSans-72" transform="translate(1930.427734 0)"/>
    </g>
   </g>
   <g id="legend_1">
    <g id="patch_7">
     <path d="M 382.284375 385.04 
L 558.2 385.04 
Q 560.2 385.04 560.2 383.04 
L 560.2 354.68375 
Q 560.2 352.68375 558.2 352.68375 
L 382.284375 352.68375 
Q 380.284375 352.68375 380.284375 354.68375 
L 380.284375 383.04 
Q 380.284375 385.04 382.284375 385.04 
z
" style="fill: #ffffff; opacity: 0.8; stroke: #cccccc; stroke-linejoin: miter"/>
    </g>
    <g id="line2d_29">
     <path d="M 384.284375 360.782187 
L 394.284375 360.782187 
L 394.284375 360.782187 
L 404.284375 360.782187 
L 404.284375 360.782187 
" style="fill: none; stroke: #1f77b4; stroke-width: 1.5; stroke-linecap: square"/>
    </g>
    <g id="text_16">
     <!-- April (median=0.26 d) -->
     <g transform="translate(412.284375 364.282187) scale(0.1 -0.1)">
      <defs>
       <path id="DejaVuSans-28" d="M 1984 4856 
Q 1566 4138 1362 3434 
Q 1159 2731 1159 2009 
Q 1159 1288 1364 580 
Q 1569 -128 1984 -844 
L 1484 -844 
Q 1016 -109 783 600 
Q 550 1309 550 2009 
Q 550 2706 781 3412 
Q 1013 4119 1484 4856 
L 1984 4856 
z
" transform="scale(0.015625)"/>
       <path id="DejaVuSans-3d" d="M 678 2906 
L 4684 2906 
L 4684 2381 
L 678 2381 
L 678 2906 
z
M 678 1631 
L 4684 1631 
L 4684 1100 
L 678 1100 
L 678 1631 
z
" transform="scale(0.015625)"/>
       <path id="DejaVuSans-29" d="M 513 4856 
L 1013 4856 
Q 1481 4119 1714 3412 
Q 1947 2706 1947 2009 
Q 1947 1309 1714 600 
Q 1481 -109 1013 -844 
L 513 -844 
Q 928 -128 1133 580 
Q 1338 1288 1338 2009 
Q 1338 2731 1133 3434 
Q 928 4138 513 4856 
z
" transform="scale(0.015625)"/>
      </defs>
      <use xlink:href="#DejaVuSans-41"/>
      <use xlink:href="#DejaVuSans-70" transform="translate(68.408203 0)"/>
      <use xlink:href="#DejaVuSans-72" transform="translate(131.884766 0)"/>
      <use xlink:href="#DejaVuSans-69" transform="translate(172.998047 0)"/>
      <use xlink:href="#DejaVuSans-6c" transform="translate(200.78125 0)"/>
      <use xlink:href="#DejaVuSans-20" transform="translate(228.564453 0)"/>
      <use xlink:href="#DejaVuSans-28" transform="translate(260.351562 0)"/>
      <use xlink:href="#DejaVuSans-6d" transform="translate(299.365234 0)"/>
      <use xlink:href="#DejaVuSans-65" transform="translate(396.777344 0)"/>
      <use xlink:href="#DejaVuSans-64" transform="translate(458.300781 0)"/>
      <use xlink:href="#DejaVuSans-69" transform="translate(521.777344 0)"/>
      <use xlink:href="#DejaVuSans-61" transform="translate(549.560547 0)"/>
      <use xlink:href="#DejaVuSans-6e" transform="translate(610.839844 0)"/>
      <use xlink:href="#DejaVuSans-3d" transform="translate(674.21875 0)"/>
      <use xlink:href="#DejaVuSans-30" transform="translate(758.007812 0)"/>
      <use xlink:href="#DejaVuSans-2e" transform="translate(821.630859 0)"/>
      <use xlink:href="#DejaVuSans-32" transform="translate(853.417969 0)"/>
      <use xlink:href="#DejaVuSans-36" transform="translate(917.041016 0)"/>
      <use xlink:href="#DejaVuSans-20" transform="translate(980.664062 0)"/>
      <use xlink:href="#DejaVuSans-64" transform="translate(1012.451172 0)"/>
      <use xlink:href="#DejaVuSans-29" transform="translate(1075.927734 0)"/>
     </g>
    </g>
    <g id="line2d_30">
     <path d="M 384.284375 375.460312 
L 394.284375 375.460312 
L 394.284375 375.460312 
L 404.284375 375.460312 
L 404.284375 375.460312 
" style="fill: none; stroke: #ff7f0e; stroke-width: 1.5; stroke-linecap: square"/>
    </g>
    <g id="text_17">
     <!-- September (median=0.13 d) -->
     <g transform="translate(412.284375 378.960312) scale(0.1 -0.1)">
      <use xlink:href="#DejaVuSans-53"/>
      <use xlink:href="#DejaVuSans-65" transform="translate(63.476562 0)"/>
      <use xlink:href="#DejaVuSans-70" transform="translate(125 0)"/>
      <use xlink:href="#DejaVuSans-74" transform="translate(188.476562 0)"/>
      <use xlink:href="#DejaVuSans-65" transform="translate(227.685547 0)"/>
      <use xlink:href="#DejaVuSans-6d" transform="translate(289.208984 0)"/>
      <use xlink:href="#DejaVuSans-62" transform="translate(386.621094 0)"/>
      <use xlink:href="#DejaVuSans-65" transform="translate(450.097656 0)"/>
      <use xlink:href="#DejaVuSans-72" transform="translate(511.621094 0)"/>
      <use xlink:href="#DejaVuSans-20" transform="translate(552.734375 0)"/>
      <use xlink:href="#DejaVuSans-28" transform="translate(584.521484 0)"/>
      <use xlink:href="#DejaVuSans-6d" transform="translate(623.535156 0)"/>
      <use xlink:href="#DejaVuSans-65" transform="translate(720.947266 0)"/>
      <use xlink:href="#DejaVuSans-64" transform="translate(782.470703 0)"/>
      <use xlink:href="#DejaVuSans-69" transform="translate(845.947266 0)"/>
      <use xlink:href="#DejaVuSans-61" transform="translate(873.730469 0)"/>
      <use xlink:href="#DejaVuSans-6e" transform="translate(935.009766 0)"/>
      <use xlink:href="#DejaVuSans-3d" transform="translate(998.388672 0)"/>
      <use xlink:href="#DejaVuSans-30" transform="translate(1082.177734 0)"/>
      <use xlink:href="#DejaVuSans-2e" transform="translate(1145.800781 0)"/>
      <use xlink:href="#DejaVuSans-31" transform="translate(1177.587891 0)"/>
      <use xlink:href="#DejaVuSans-33" transform="translate(1241.210938 0)"/>
      <use xlink:href="#DejaVuSans-20" transform="translate(1304.833984 0)"/>
      <use xlink:href="#DejaVuSans-64" transform="translate(1336.621094 0)"/>
      <use xlink:href="#DejaVuSans-29" transform="translate(1400.097656 0)"/>
     </g>
    </g>
   </g>
  </g>
 </g>
 <defs>
  <clipPath id="pf4e84b82ec">
   <rect x="47.72" y="26.88" width="517.48" height="363.16"/>
  </clipPath>
 </defs>
</svg>
