<?xml version="1.0" encoding="utf-8" standalone="no"?>
<!DOCTYPE svg PUBLIC "-//W3C//DTD SVG 1.1//EN"
  "http://www.w3.org/Graphics/SVG/1.1/DTD/svg11.dtd">
<svg xmlns:xlink="http://www.w3.org/1999/xlink" width="568.8pt" height="583.918125pt" viewBox="0 0 568.8 583.918125" xmlns="http://www.w3.org/2000/svg" version="1.1">
 <metadata>
  <rdf:RDF xmlns:dc="http://purl.org/dc/elements/1.1/" xmlns:cc="http://creativecommons.org/ns#" xmlns:rdf="http://www.w3.org/1999/02/22-rdf-syntax-ns#">
   <cc:Work>
    <dc:type rdf:resource="http://purl.org/dc/dcmitype/StillImage"/>
    <dc:date>2025-11-04T21:40:05.792426</dc:date>
    <dc:format>image/svg+xml</dc:format>
    <dc:creator>
     <cc:Agent>
      <dc:title>Matplotlib v3.10.7, https://matplotlib.org/</dc:title>
     </cc:Agent>
    </dc:creator>
   </cc:Work>
  </rdf:RDF>
 </metadata>
 <defs>
  <style type="text/css">*{stroke-linejoin: round; stroke-linecap: butt}</style>
 </defs>
 <g id="figure_1">
  <g id="patch_1">
   <path d="M 0 583.918125 
L 568.8 583.918125 
L 568.8 0 
L 0 0 
z
" style="fill: #ffffff"/>
  </g>
  <g id="patch_2">
   <path d="M 7.2 576.718125 
L 561.6 576.718125 
L 561.6 22.318125 
L 7.2 22.318125 
z
" style="fill: #ffffff"/>
  </g>
  <g id="pane3d_1">
   <g id="patch_3">
    <path d="M 49.061023 440.020852 
L 232.142009 286.558739 
L 229.597008 65.238939 
L 37.754653 205.236752 
" style="fill: #f2f2f2; opacity: 0.5; stroke: #f2f2f2; stroke-linejoin: miter"/>
   </g>
  </g>
  <g id="pane3d_2">
   <g id="patch_4">
    <path d="M 232.142009 286.558739 
L 525.921668 371.948888 
L 536.405628 143.005981 
L 229.597008 65.238939 
" style="fill: #e6e6e6; opacity: 0.5; stroke: #e6e6e6; stroke-linejoin: miter"/>
   </g>
  </g>
  <g id="pane3d_3">
   <g id="patch_5">
    <path d="M 49.061023 440.020852 
L 360.48181 541.730881 
L 525.921668 371.948888 
L 232.142009 286.558739 
" style="fill: #ececec; opacity: 0.5; stroke: #ececec; stroke-linejoin: miter"/>
   </g>
  </g>
  <g id="grid3d_1">
   <g id="Line3DCollection_1">
    <path d="M 66.543455 445.730614 
L 248.70297 291.372357 
L 246.858016 69.614102 
" style="fill: none; stroke: #b0b0b0; stroke-width: 0.8"/>
    <path d="M 118.320331 462.640942 
L 297.702551 305.614601 
L 297.952904 82.565167 
" style="fill: none; stroke: #b0b0b0; stroke-width: 0.8"/>
    <path d="M 171.035159 479.857605 
L 347.515835 320.093356 
L 349.933164 95.740647 
" style="fill: none; stroke: #b0b0b0; stroke-width: 0.8"/>
    <path d="M 224.713657 497.389002 
L 398.163259 334.814562 
L 402.822008 109.146427 
" style="fill: none; stroke: #b0b0b0; stroke-width: 0.8"/>
    <path d="M 279.382494 515.243844 
L 449.665952 349.784362 
L 456.64347 122.788599 
" style="fill: none; stroke: #b0b0b0; stroke-width: 0.8"/>
    <path d="M 335.069332 533.431165 
L 502.045762 365.009105 
L 511.422436 136.67347 
" style="fill: none; stroke: #b0b0b0; stroke-width: 0.8"/>
   </g>
  </g>
  <g id="grid3d_2">
   <g id="Line3DCollection_2">
    <path d="M 58.983638 189.744806 
L 69.252173 423.09623 
L 378.799197 522.932736 
" style="fill: none; stroke: #b0b0b0; stroke-width: 0.8"/>
    <path d="M 89.921628 167.16767 
L 98.708036 398.405742 
L 405.489494 495.541925 
" style="fill: none; stroke: #b0b0b0; stroke-width: 0.8"/>
    <path d="M 120.013206 145.208207 
L 127.392633 374.361743 
L 431.444485 468.905719 
" style="fill: none; stroke: #b0b0b0; stroke-width: 0.8"/>
    <path d="M 149.292637 123.841412 
L 155.335866 350.939172 
L 456.694143 442.993358 
" style="fill: none; stroke: #b0b0b0; stroke-width: 0.8"/>
    <path d="M 177.792362 103.043611 
L 182.566109 328.114242 
L 481.266835 417.775732 
" style="fill: none; stroke: #b0b0b0; stroke-width: 0.8"/>
    <path d="M 205.543117 82.792374 
L 209.110306 305.86437 
L 505.189425 393.225269 
" style="fill: none; stroke: #b0b0b0; stroke-width: 0.8"/>
   </g>
  </g>
  <g id="grid3d_3">
   <g id="Line3DCollection_3">
    <path d="M 527.058052 347.13317 
L 231.86563 262.524119 
L 47.837338 414.610225 
" style="fill: none; stroke: #b0b0b0; stroke-width: 0.8"/>
    <path d="M 529.093134 302.692178 
L 231.370996 219.509446 
L 45.644794 369.080643 
" style="fill: none; stroke: #b0b0b0; stroke-width: 0.8"/>
    <path d="M 531.163746 257.475305 
L 230.868142 175.779976 
L 43.412499 322.725586 
" style="fill: none; stroke: #b0b0b0; stroke-width: 0.8"/>
    <path d="M 533.270826 211.462052 
L 230.356862 131.317741 
L 41.139361 275.522398 
" style="fill: none; stroke: #b0b0b0; stroke-width: 0.8"/>
    <path d="M 535.415347 164.631194 
L 229.836942 86.104168 
L 38.824248 227.447589 
" style="fill: none; stroke: #b0b0b0; stroke-width: 0.8"/>
   </g>
  </g>
  <g id="axis3d_1">
   <g id="line2d_1">
    <path d="M 49.061023 440.020852 
L 360.48181 541.730881 
" style="fill: none; stroke: #000000; stroke-width: 0.8; stroke-linecap: square"/>
   </g>
   <g id="xtick_1">
    <g id="line2d_2">
     <path d="M 68.129658 444.386497 
L 63.364242 448.424614 
" style="fill: none; stroke: #000000; stroke-width: 0.8; stroke-linecap: square"/>
    </g>
    <g id="text_1">
     <!-- −6 -->
     <g transform="translate(51.657181 469.004897) scale(0.1 -0.1)">
      <defs>
       <path id="DejaVuSans-2212" d="M 678 2272 
L 4684 2272 
L 4684 1741 
L 678 1741 
L 678 2272 
z
" transform="scale(0.015625)"/>
       <path id="DejaVuSans-36" d="M 2113 2584 
Q 1688 2584 1439 2293 
Q 1191 2003 1191 1497 
Q 1191 994 1439 701 
Q 1688 409 2113 409 
Q 2538 409 2786 701 
Q 3034 994 3034 1497 
Q 3034 2003 2786 2293 
Q 2538 2584 2113 2584 
z
M 3366 4563 
L 3366 3988 
Q 3128 4100 2886 4159 
Q 2644 4219 2406 4219 
Q 1781 4219 1451 3797 
Q 1122 3375 1075 2522 
Q 1259 2794 1537 2939 
Q 1816 3084 2150 3084 
Q 2853 3084 3261 2657 
Q 3669 2231 3669 1497 
Q 3669 778 3244 343 
Q 2819 -91 2113 -91 
Q 1303 -91 875 529 
Q 447 1150 447 2328 
Q 447 3434 972 4092 
Q 1497 4750 2381 4750 
Q 2619 4750 2861 4703 
Q 3103 4656 3366 4563 
z
" transform="scale(0.015625)"/>
      </defs>
      <use xlink:href="#DejaVuSans-2212"/>
      <use xlink:href="#DejaVuSans-36" transform="translate(83.789062 0)"/>
     </g>
    </g>
   </g>
   <g id="xtick_2">
    <g id="line2d_3">
     <path d="M 119.88349 461.272595 
L 115.187248 465.383559 
" style="fill: none; stroke: #000000; stroke-width: 0.8; stroke-linecap: square"/>
    </g>
    <g id="text_2">
     <!-- −4 -->
     <g transform="translate(103.459491 486.086568) scale(0.1 -0.1)">
      <defs>
       <path id="DejaVuSans-34" d="M 2419 4116 
L 825 1625 
L 2419 1625 
L 2419 4116 
z
M 2253 4666 
L 3047 4666 
L 3047 1625 
L 3713 1625 
L 3713 1100 
L 3047 1100 
L 3047 0 
L 2419 0 
L 2419 1100 
L 313 1100 
L 313 1709 
L 2253 4666 
z
" transform="scale(0.015625)"/>
      </defs>
      <use xlink:href="#DejaVuSans-2212"/>
      <use xlink:href="#DejaVuSans-34" transform="translate(83.789062 0)"/>
     </g>
    </g>
   </g>
   <g id="xtick_3">
    <g id="line2d_4">
     <path d="M 172.574174 478.464367 
L 167.950407 482.650166 
" style="fill: none; stroke: #000000; stroke-width: 0.8; stroke-linecap: square"/>
    </g>
    <g id="text_3">
     <!-- −2 -->
     <g transform="translate(156.201914 503.478237) scale(0.1 -0.1)">
      <defs>
       <path id="DejaVuSans-32" d="M 1228 531 
L 3431 531 
L 3431 0 
L 469 0 
L 469 531 
Q 828 903 1448 1529 
Q 2069 2156 2228 2338 
Q 2531 2678 2651 2914 
Q 2772 3150 2772 3378 
Q 2772 3750 2511 3984 
Q 2250 4219 1831 4219 
Q 1534 4219 1204 4116 
Q 875 4013 500 3803 
L 500 4441 
Q 881 4594 1212 4672 
Q 1544 4750 1819 4750 
Q 2544 4750 2975 4387 
Q 3406 4025 3406 3419 
Q 3406 3131 3298 2873 
Q 3191 2616 2906 2266 
Q 2828 2175 2409 1742 
Q 1991 1309 1228 531 
z
" transform="scale(0.015625)"/>
      </defs>
      <use xlink:href="#DejaVuSans-2212"/>
      <use xlink:href="#DejaVuSans-32" transform="translate(83.789062 0)"/>
     </g>
    </g>
   </g>
   <g id="xtick_4">
    <g id="line2d_5">
     <path d="M 226.227381 495.970187 
L 221.679537 500.232885 
" style="fill: none; stroke: #000000; stroke-width: 0.8; stroke-linecap: square"/>
    </g>
    <g id="text_4">
     <!-- 0 -->
     <g transform="translate(214.100119 521.188423) scale(0.1 -0.1)">
      <defs>
       <path id="DejaVuSans-30" d="M 2034 4250 
Q 1547 4250 1301 3770 
Q 1056 3291 1056 2328 
Q 1056 1369 1301 889 
Q 1547 409 2034 409 
Q 2525 409 2770 889 
Q 3016 1369 3016 2328 
Q 3016 3291 2770 3770 
Q 2525 4250 2034 4250 
z
M 2034 4750 
Q 2819 4750 3233 4129 
Q 3647 3509 3647 2328 
Q 3647 1150 3233 529 
Q 2819 -91 2034 -91 
Q 1250 -91 836 529 
Q 422 1150 422 2328 
Q 422 3509 836 4129 
Q 1250 4750 2034 4750 
z
" transform="scale(0.015625)"/>
      </defs>
      <use xlink:href="#DejaVuSans-30"/>
     </g>
    </g>
   </g>
   <g id="xtick_5">
    <g id="line2d_6">
     <path d="M 280.869728 513.798742 
L 276.40141 518.140476 
" style="fill: none; stroke: #000000; stroke-width: 0.8; stroke-linecap: square"/>
    </g>
    <g id="text_5">
     <!-- 2 -->
     <g transform="translate(268.801201 539.225955) scale(0.1 -0.1)">
      <use xlink:href="#DejaVuSans-32"/>
     </g>
    </g>
   </g>
   <g id="xtick_6">
    <g id="line2d_7">
     <path d="M 336.528823 531.959039 
L 332.143798 536.382028 
" style="fill: none; stroke: #000000; stroke-width: 0.8; stroke-linecap: square"/>
    </g>
    <g id="text_6">
     <!-- 4 -->
     <g transform="translate(324.522782 557.599993) scale(0.1 -0.1)">
      <use xlink:href="#DejaVuSans-34"/>
     </g>
    </g>
   </g>
   <g id="text_7">
    <!-- X-axis -->
    <g transform="translate(169.333261 522.622855) rotate(-341.912962) scale(0.1 -0.1)">
     <defs>
      <path id="DejaVuSans-58" d="M 403 4666 
L 1081 4666 
L 2241 2931 
L 3406 4666 
L 4084 4666 
L 2584 2425 
L 4184 0 
L 3506 0 
L 2194 1984 
L 872 0 
L 191 0 
L 1856 2491 
L 403 4666 
z
" transform="scale(0.015625)"/>
      <path id="DejaVuSans-2d" d="M 313 2009 
L 1997 2009 
L 1997 1497 
L 313 1497 
L 313 2009 
z
" transform="scale(0.015625)"/>
      <path id="DejaVuSans-61" d="M 2194 1759 
Q 1497 1759 1228 1600 
Q 959 1441 959 1056 
Q 959 750 1161 570 
Q 1363 391 1709 391 
Q 2188 391 2477 730 
Q 2766 1069 2766 1631 
L 2766 1759 
L 2194 1759 
z
M 3341 1997 
L 3341 0 
L 2766 0 
L 2766 531 
Q 2569 213 2275 61 
Q 1981 -91 1556 -91 
Q 1019 -91 701 211 
Q 384 513 384 1019 
Q 384 1609 779 1909 
Q 1175 2209 1959 2209 
L 2766 2209 
L 2766 2266 
Q 2766 2663 2505 2880 
Q 2244 3097 1772 3097 
Q 1472 3097 1187 3025 
Q 903 2953 641 2809 
L 641 3341 
Q 956 3463 1253 3523 
Q 1550 3584 1831 3584 
Q 2591 3584 2966 3190 
Q 3341 2797 3341 1997 
z
" transform="scale(0.015625)"/>
      <path id="DejaVuSans-78" d="M 3513 3500 
L 2247 1797 
L 3578 0 
L 2900 0 
L 1881 1375 
L 863 0 
L 184 0 
L 1544 1831 
L 300 3500 
L 978 3500 
L 1906 2253 
L 2834 3500 
L 3513 3500 
z
" transform="scale(0.015625)"/>
      <path id="DejaVuSans-69" d="M 603 3500 
L 1178 3500 
L 1178 0 
L 603 0 
L 603 3500 
z
M 603 4863 
L 1178 4863 
L 1178 4134 
L 603 4134 
L 603 4863 
z
" transform="scale(0.015625)"/>
      <path id="DejaVuSans-73" d="M 2834 3397 
L 2834 2853 
Q 2591 2978 2328 3040 
Q 2066 3103 1784 3103 
Q 1356 3103 1142 2972 
Q 928 2841 928 2578 
Q 928 2378 1081 2264 
Q 1234 2150 1697 2047 
L 1894 2003 
Q 2506 1872 2764 1633 
Q 3022 1394 3022 966 
Q 3022 478 2636 193 
Q 2250 -91 1575 -91 
Q 1294 -91 989 -36 
Q 684 19 347 128 
L 347 722 
Q 666 556 975 473 
Q 1284 391 1588 391 
Q 1994 391 2212 530 
Q 2431 669 2431 922 
Q 2431 1156 2273 1281 
Q 2116 1406 1581 1522 
L 1381 1569 
Q 847 1681 609 1914 
Q 372 2147 372 2553 
Q 372 3047 722 3315 
Q 1072 3584 1716 3584 
Q 2034 3584 2315 3537 
Q 2597 3491 2834 3397 
z
" transform="scale(0.015625)"/>
     </defs>
     <use xlink:href="#DejaVuSans-58"/>
     <use xlink:href="#DejaVuSans-2d" transform="translate(63.505859 0)"/>
     <use xlink:href="#DejaVuSans-61" transform="translate(99.589844 0)"/>
     <use xlink:href="#DejaVuSans-78" transform="translate(160.869141 0)"/>
     <use xlink:href="#DejaVuSans-69" transform="translate(220.048828 0)"/>
     <use xlink:href="#DejaVuSans-73" transform="translate(247.832031 0)"/>
    </g>
   </g>
  </g>
  <g id="axis3d_2">
   <g id="line2d_8">
    <path d="M 525.921668 371.948888 
L 360.48181 541.730881 
" style="fill: none; stroke: #000000; stroke-width: 0.8; stroke-linecap: square"/>
   </g>
   <g id="xtick_7">
    <g id="line2d_9">
     <path d="M 376.191108 522.091563 
L 384.022095 524.617249 
" style="fill: none; stroke: #000000; stroke-width: 0.8; stroke-linecap: square"/>
    </g>
    <g id="text_8">
     <!-- −8 -->
     <g transform="translate(384.260553 543.900184) scale(0.1 -0.1)">
      <defs>
       <path id="DejaVuSans-38" d="M 2034 2216 
Q 1584 2216 1326 1975 
Q 1069 1734 1069 1313 
Q 1069 891 1326 650 
Q 1584 409 2034 409 
Q 2484 409 2743 651 
Q 3003 894 3003 1313 
Q 3003 1734 2745 1975 
Q 2488 2216 2034 2216 
z
M 1403 2484 
Q 997 2584 770 2862 
Q 544 3141 544 3541 
Q 544 4100 942 4425 
Q 1341 4750 2034 4750 
Q 2731 4750 3128 4425 
Q 3525 4100 3525 3541 
Q 3525 3141 3298 2862 
Q 3072 2584 2669 2484 
Q 3125 2378 3379 2068 
Q 3634 1759 3634 1313 
Q 3634 634 3220 271 
Q 2806 -91 2034 -91 
Q 1263 -91 848 271 
Q 434 634 434 1313 
Q 434 1759 690 2068 
Q 947 2378 1403 2484 
z
M 1172 3481 
Q 1172 3119 1398 2916 
Q 1625 2713 2034 2713 
Q 2441 2713 2670 2916 
Q 2900 3119 2900 3481 
Q 2900 3844 2670 4047 
Q 2441 4250 2034 4250 
Q 1625 4250 1398 4047 
Q 1172 3844 1172 3481 
z
" transform="scale(0.015625)"/>
      </defs>
      <use xlink:href="#DejaVuSans-2212"/>
      <use xlink:href="#DejaVuSans-38" transform="translate(83.789062 0)"/>
     </g>
    </g>
   </g>
   <g id="xtick_8">
    <g id="line2d_10">
     <path d="M 402.906529 494.724081 
L 410.661987 497.179691 
" style="fill: none; stroke: #000000; stroke-width: 0.8; stroke-linecap: square"/>
    </g>
    <g id="text_9">
     <!-- −6 -->
     <g transform="translate(410.779101 516.314861) scale(0.1 -0.1)">
      <use xlink:href="#DejaVuSans-2212"/>
      <use xlink:href="#DejaVuSans-36" transform="translate(83.789062 0)"/>
     </g>
    </g>
   </g>
   <g id="xtick_9">
    <g id="line2d_11">
     <path d="M 428.886258 468.110247 
L 436.567348 470.498658 
" style="fill: none; stroke: #000000; stroke-width: 0.8; stroke-linecap: square"/>
    </g>
    <g id="text_10">
     <!-- −4 -->
     <g transform="translate(436.566871 489.489713) scale(0.1 -0.1)">
      <use xlink:href="#DejaVuSans-2212"/>
      <use xlink:href="#DejaVuSans-34" transform="translate(83.789062 0)"/>
     </g>
    </g>
   </g>
   <g id="xtick_10">
    <g id="line2d_12">
     <path d="M 454.160274 442.219352 
L 461.768146 444.543285 
" style="fill: none; stroke: #000000; stroke-width: 0.8; stroke-linecap: square"/>
    </g>
    <g id="text_11">
     <!-- −2 -->
     <g transform="translate(461.65366 463.393745) scale(0.1 -0.1)">
      <use xlink:href="#DejaVuSans-2212"/>
      <use xlink:href="#DejaVuSans-32" transform="translate(83.789062 0)"/>
     </g>
    </g>
   </g>
   <g id="xtick_11">
    <g id="line2d_13">
     <path d="M 478.756944 417.022334 
L 486.292737 419.284365 
" style="fill: none; stroke: #000000; stroke-width: 0.8; stroke-linecap: square"/>
    </g>
    <g id="text_12">
     <!-- 0 -->
     <g transform="translate(490.257511 437.997623) scale(0.1 -0.1)">
      <use xlink:href="#DejaVuSans-30"/>
     </g>
    </g>
   </g>
   <g id="xtick_12">
    <g id="line2d_14">
     <path d="M 502.703139 392.491668 
L 510.167979 394.694238 
" style="fill: none; stroke: #000000; stroke-width: 0.8; stroke-linecap: square"/>
    </g>
    <g id="text_13">
     <!-- 2 -->
     <g transform="translate(514.025441 413.273568) scale(0.1 -0.1)">
      <use xlink:href="#DejaVuSans-32"/>
     </g>
    </g>
   </g>
   <g id="text_14">
    <!-- Y-axis -->
    <g transform="translate(465.868635 493.185083) rotate(-45.742112) scale(0.1 -0.1)">
     <defs>
      <path id="DejaVuSans-59" d="M -13 4666 
L 666 4666 
L 1959 2747 
L 3244 4666 
L 3922 4666 
L 2272 2222 
L 2272 0 
L 1638 0 
L 1638 2222 
L -13 4666 
z
" transform="scale(0.015625)"/>
     </defs>
     <use xlink:href="#DejaVuSans-59"/>
     <use xlink:href="#DejaVuSans-2d" transform="translate(49.208984 0)"/>
     <use xlink:href="#DejaVuSans-61" transform="translate(85.292969 0)"/>
     <use xlink:href="#DejaVuSans-78" transform="translate(146.572266 0)"/>
     <use xlink:href="#DejaVuSans-69" transform="translate(205.751953 0)"/>
     <use xlink:href="#DejaVuSans-73" transform="translate(233.535156 0)"/>
    </g>
   </g>
  </g>
  <g id="axis3d_3">
   <g id="line2d_15">
    <path d="M 525.921668 371.948888 
L 536.405628 143.005981 
" style="fill: none; stroke: #000000; stroke-width: 0.8; stroke-linecap: square"/>
   </g>
   <g id="xtick_13">
    <g id="line2d_16">
     <path d="M 524.580011 346.422906 
L 532.020054 348.555396 
" style="fill: none; stroke: #000000; stroke-width: 0.8; stroke-linecap: square"/>
    </g>
    <g id="text_15">
     <!-- −6 -->
     <g transform="translate(538.051067 352.145834) scale(0.1 -0.1)">
      <use xlink:href="#DejaVuSans-2212"/>
      <use xlink:href="#DejaVuSans-36" transform="translate(83.789062 0)"/>
     </g>
    </g>
   </g>
   <g id="xtick_14">
    <g id="line2d_17">
     <path d="M 526.592841 301.993603 
L 534.099746 304.091012 
" style="fill: none; stroke: #000000; stroke-width: 0.8; stroke-linecap: square"/>
    </g>
    <g id="text_16">
     <!-- −4 -->
     <g transform="translate(540.241863 307.747422) scale(0.1 -0.1)">
      <use xlink:href="#DejaVuSans-2212"/>
      <use xlink:href="#DejaVuSans-34" transform="translate(83.789062 0)"/>
     </g>
    </g>
   </g>
   <g id="xtick_15">
    <g id="line2d_18">
     <path d="M 528.640798 256.788938 
L 536.215777 258.849708 
" style="fill: none; stroke: #000000; stroke-width: 0.8; stroke-linecap: square"/>
    </g>
    <g id="text_17">
     <!-- −2 -->
     <g transform="translate(542.470851 262.575014) scale(0.1 -0.1)">
      <use xlink:href="#DejaVuSans-2212"/>
      <use xlink:href="#DejaVuSans-32" transform="translate(83.789062 0)"/>
     </g>
    </g>
   </g>
   <g id="xtick_16">
    <g id="line2d_19">
     <path d="M 530.724809 210.788432 
L 538.369106 212.810944 
" style="fill: none; stroke: #000000; stroke-width: 0.8; stroke-linecap: square"/>
    </g>
    <g id="text_18">
     <!-- 0 -->
     <g transform="translate(548.928883 216.608193) scale(0.1 -0.1)">
      <use xlink:href="#DejaVuSans-30"/>
     </g>
    </g>
   </g>
   <g id="xtick_17">
    <g id="line2d_20">
     <path d="M 532.845836 163.970885 
L 540.560729 165.953445 
" style="fill: none; stroke: #000000; stroke-width: 0.8; stroke-linecap: square"/>
    </g>
    <g id="text_19">
     <!-- 2 -->
     <g transform="translate(551.237314 169.825815) scale(0.1 -0.1)">
      <use xlink:href="#DejaVuSans-32"/>
     </g>
    </g>
   </g>
   <g id="text_20">
    <!-- Z-axis -->
    <g transform="translate(573.627482 269.826171) rotate(-87.378092) scale(0.1 -0.1)">
     <defs>
      <path id="DejaVuSans-5a" d="M 359 4666 
L 4025 4666 
L 4025 4184 
L 1075 531 
L 4097 531 
L 4097 0 
L 288 0 
L 288 481 
L 3238 4134 
L 359 4134 
L 359 4666 
z
" transform="scale(0.015625)"/>
     </defs>
     <use xlink:href="#DejaVuSans-5a"/>
     <use xlink:href="#DejaVuSans-2d" transform="translate(66.755859 0)"/>
     <use xlink:href="#DejaVuSans-61" transform="translate(102.839844 0)"/>
     <use xlink:href="#DejaVuSans-78" transform="translate(164.119141 0)"/>
     <use xlink:href="#DejaVuSans-69" transform="translate(223.298828 0)"/>
     <use xlink:href="#DejaVuSans-73" transform="translate(251.082031 0)"/>
    </g>
   </g>
  </g>
  <g id="axes_1">
   <g id="line2d_21">
    <path d="M 353.152936 217.862692 
L 353.147389 218.629225 
L 351.80391 220.543371 
L 350.003585 222.092386 
L 351.592566 224.337494 
L 347.863243 226.008061 
L 347.224192 228.572413 
L 342.877896 228.797026 
L 347.257785 226.315865 
L 345.983234 224.635735 
L 344.120406 226.515619 
L 347.784855 228.257793 
L 348.343441 230.498919 
L 349.336853 230.363641 
L 345.783486 231.263657 
L 346.360768 232.761337 
L 346.756033 234.808579 
L 345.15727 232.107337 
L 347.566593 234.503749 
L 348.081219 235.460457 
L 344.797973 235.551884 
L 346.398396 236.463398 
L 348.513967 234.066375 
L 355.83495 239.642365 
L 353.086689 240.404985 
L 358.091374 240.513297 
L 349.363975 237.991898 
L 343.590306 239.759449 
L 339.346835 239.553065 
L 335.440279 242.790329 
L 336.47508 241.58677 
L 337.916187 243.76358 
L 338.545866 239.789492 
L 337.862012 239.763825 
L 342.820682 237.585455 
L 344.125631 239.500864 
L 343.714803 240.21605 
L 344.918824 241.160995 
L 348.919782 239.662574 
L 349.142378 240.872465 
L 349.34276 237.008554 
L 349.758195 237.516158 
L 349.432403 239.563656 
L 356.185629 239.49639 
L 352.131734 236.949682 
L 348.731461 237.444113 
L 349.382044 237.835747 
L 351.342014 237.298047 
L 350.984852 237.309882 
L 355.556749 243.488358 
L 354.981104 250.063797 
L 357.024494 252.771116 
L 357.755338 253.022123 
L 358.957124 260.530178 
L 364.840962 257.331824 
L 364.549576 256.434392 
L 362.97325 254.654748 
L 359.719398 251.20964 
L 358.11464 252.888176 
L 360.094406 251.416465 
L 359.71668 249.933634 
L 363.270884 247.16589 
L 362.772728 248.142366 
L 361.757343 244.856767 
L 367.204211 242.015512 
L 364.335817 236.077205 
L 363.997512 238.290431 
L 362.8342 236.612974 
L 361.362004 237.822342 
L 366.48275 241.306805 
L 364.829973 237.315131 
L 367.340512 236.435816 
L 375.171717 231.67306 
L 369.979967 228.815799 
L 367.408083 229.065433 
L 368.011875 230.275125 
L 373.157462 228.901717 
L 371.076278 226.267403 
L 369.333061 226.67992 
L 370.663497 228.236251 
L 376.643525 227.821638 
L 378.12056 230.339712 
L 369.922199 227.035554 
L 363.299604 222.723467 
L 362.884242 219.490608 
L 361.669683 214.689671 
L 356.486913 207.990012 
L 354.574699 207.466677 
L 354.220689 203.652068 
L 353.827564 202.130672 
L 359.328139 203.690649 
L 360.782087 203.291619 
L 359.86222 203.339731 
L 360.829148 207.42 
L 355.183363 211.528606 
L 354.470914 212.207332 
L 353.631257 209.714781 
L 347.270466 204.639115 
L 349.563054 206.304918 
L 355.517575 208.182658 
L 349.809485 210.627572 
L 349.128039 208.493726 
L 353.913833 206.31373 
L 347.45128 205.041905 
L 350.933418 203.669177 
L 355.990324 207.64358 
L 359.291146 211.244629 
L 366.6811 217.420535 
L 361.428634 220.316747 
L 363.617379 217.84269 
L 364.740806 218.771953 
L 366.577151 218.444984 
L 370.026932 215.97546 
L 370.172086 207.762229 
L 365.987684 207.606726 
L 367.688771 205.591102 
L 364.654858 208.077803 
L 369.722047 210.534194 
L 368.797504 212.416278 
L 367.316338 208.068298 
L 371.773145 206.483059 
L 370.163275 209.631485 
L 372.674225 211.579727 
L 369.561944 214.699834 
L 369.708065 213.47299 
L 369.205503 211.634403 
L 371.20857 207.250169 
L 374.961703 211.84365 
L 374.918453 213.687568 
L 373.754173 211.502915 
L 366.939361 215.754565 
L 362.264422 213.475524 
L 360.955409 218.65679 
L 364.519397 220.01595 
L 364.583722 220.371792 
L 368.812206 218.435044 
L 366.438235 216.709676 
L 361.420212 217.217305 
L 356.716208 217.904053 
L 356.310749 214.513843 
L 356.277488 214.689527 
L 356.034089 220.062952 
L 357.759563 221.502532 
L 359.460427 216.945109 
L 365.278355 213.142465 
L 367.874236 215.048275 
L 365.092514 213.119703 
L 368.993099 214.329243 
L 371.734448 217.559087 
L 377.314753 222.171152 
L 381.539698 221.203004 
L 380.790449 223.781391 
L 390.781019 230.342367 
L 387.341251 222.490664 
L 383.005785 223.725862 
L 385.817398 220.687792 
L 383.116341 222.521762 
L 384.484863 216.420498 
L 384.489389 217.286707 
L 384.720306 214.092337 
L 389.114066 213.419649 
L 391.792639 211.616427 
L 390.615416 209.841014 
L 385.883359 212.654937 
L 392.643426 210.491201 
L 390.911932 210.549096 
L 392.714885 210.075905 
L 390.752891 207.775398 
L 392.084292 210.839761 
L 394.023504 205.378441 
L 396.628564 204.755732 
L 393.137618 205.646391 
L 395.609416 205.249686 
L 400.155198 206.026283 
L 393.643874 207.859001 
L 393.69076 209.449964 
L 391.895535 204.87491 
L 386.410531 206.92446 
L 385.624712 203.543419 
L 386.638097 210.428979 
L 387.534403 208.66507 
L 390.156822 209.693479 
L 387.621527 210.711992 
L 387.708795 212.024488 
L 386.071637 214.112151 
L 383.5693 213.403764 
L 379.880955 212.221516 
L 384.192511 214.000604 
L 383.170533 213.844302 
L 388.149557 213.505297 
L 393.492386 218.105844 
L 396.313669 216.806799 
L 397.935905 214.605637 
L 392.932612 213.330266 
L 395.207226 209.219341 
L 398.080977 208.570485 
L 399.005962 205.604126 
L 397.379977 205.05493 
L 401.05675 202.741071 
L 401.091039 203.527142 
L 397.322192 202.297384 
L 394.04721 199.756388 
L 392.949352 201.504102 
L 396.176649 207.013789 
L 395.805501 204.28258 
L 391.939037 202.757128 
L 393.291064 203.90687 
L 397.026405 202.150532 
L 400.616056 200.866318 
L 398.328784 196.841837 
L 399.384353 197.02452 
L 400.889526 196.5403 
L 400.798744 197.075226 
L 404.236766 197.910712 
L 404.807748 197.440327 
L 404.529553 198.953461 
L 403.020795 203.018792 
L 406.214182 206.320902 
L 409.441804 207.787867 
L 408.370693 207.234845 
L 408.798175 209.622862 
L 407.832342 205.921317 
L 405.498661 204.867478 
L 404.404479 206.563473 
L 404.033159 206.32237 
L 405.669449 207.004964 
L 405.109973 205.635193 
L 408.155937 205.168757 
L 403.546078 203.526207 
L 399.689454 208.28075 
L 398.374735 208.856361 
L 397.091628 207.660092 
L 391.348458 204.847385 
L 389.310678 204.313422 
L 389.676455 203.500889 
L 392.721355 205.519033 
L 393.707908 207.27348 
L 394.119373 204.944716 
L 392.738148 203.325761 
L 385.239833 205.539136 
L 388.812284 210.472842 
L 392.154575 207.876532 
L 389.415803 209.177034 
L 391.797708 211.128467 
L 388.225549 214.220373 
L 382.351644 221.43035 
L 386.267908 222.098412 
L 390.397756 224.624349 
L 390.7396 221.189649 
L 388.055603 215.991229 
L 386.287391 217.704988 
L 388.052941 224.835356 
L 393.615039 220.460859 
L 392.614651 215.945755 
L 390.912042 212.572165 
L 394.787741 214.15019 
L 399.464482 215.767877 
L 403.332198 215.622229 
L 405.664565 220.870984 
L 401.374737 221.94471 
L 399.791646 225.281533 
L 403.99648 227.896823 
L 409.504662 223.723926 
L 405.335433 222.098679 
L 412.076364 221.611156 
L 416.749686 227.540223 
L 415.749502 227.860027 
L 417.406425 228.069329 
L 422.661808 226.343705 
L 423.556773 225.654914 
L 424.217028 229.060571 
L 423.879449 231.783968 
L 421.915327 231.704184 
L 421.970783 230.845529 
L 424.605579 229.581462 
L 424.63918 228.737756 
L 427.911403 230.050205 
L 426.992511 228.542108 
L 424.294231 226.998384 
L 427.170316 231.29278 
L 428.355433 228.841142 
L 427.549498 224.942335 
L 426.813617 226.051583 
L 428.952005 225.991829 
L 426.738142 225.754019 
L 426.13372 226.686938 
L 426.722679 223.856995 
L 424.614619 225.727618 
L 426.566218 229.315357 
L 421.872639 225.717186 
L 429.998484 224.529338 
L 431.235595 226.944004 
L 428.186536 224.387468 
L 425.715127 222.588126 
L 422.420053 220.741081 
L 420.259234 217.718658 
L 419.988087 215.710645 
L 420.743434 218.628964 
L 415.609358 217.099985 
L 412.556156 218.121591 
L 413.908437 215.445152 
L 410.215237 214.385893 
L 412.628468 217.679829 
L 417.52547 216.874184 
L 419.19631 218.035478 
L 417.790782 216.434618 
L 417.93401 217.270138 
L 415.089132 218.010705 
L 414.247689 216.331219 
L 414.152347 215.584017 
L 412.190032 214.493382 
L 415.004782 213.851295 
L 410.671959 212.018053 
L 410.243705 211.98311 
L 408.137788 209.609331 
L 406.046747 210.767161 
L 407.727986 216.334483 
L 407.751823 213.336107 
L 401.300655 213.649343 
L 397.650631 214.162318 
L 401.634567 217.088784 
L 402.674195 220.288817 
L 398.100002 220.545448 
L 395.577887 220.328924 
L 399.521547 218.560773 
L 404.270736 213.183468 
L 407.223754 210.11485 
L 405.253591 207.386535 
L 408.2951 208.071945 
L 408.405396 206.078019 
L 409.899978 209.509596 
L 412.43408 209.949242 
L 415.196303 211.612998 
L 415.509909 214.522022 
L 414.209617 212.489572 
L 415.473789 220.157331 
L 417.767179 219.743264 
L 420.243679 219.088005 
L 419.043292 215.770531 
L 416.621888 214.224864 
L 411.457465 211.819836 
L 408.103165 208.255375 
L 414.598597 206.890412 
L 412.805076 208.972559 
L 415.704398 208.614372 
L 415.785337 209.053302 
L 414.267611 209.728312 
L 411.399871 208.534258 
L 418.012068 206.189255 
L 417.246154 204.615532 
L 417.764954 205.524167 
L 413.42231 203.955153 
L 414.560424 203.681957 
L 415.886997 206.958471 
L 420.349301 205.864044 
L 421.550556 206.890258 
L 423.012301 209.40654 
L 422.80917 214.412834 
L 420.799947 210.862898 
L 419.927092 210.845787 
L 419.175347 214.779425 
L 424.752646 215.522353 
L 431.924 219.058058 
L 434.506531 223.086709 
L 437.734714 227.611215 
L 431.656523 228.171569 
L 427.736113 224.195206 
L 426.905156 222.61533 
L 424.615062 220.972691 
L 426.750643 221.886169 
L 428.317435 219.1234 
L 427.46003 218.397895 
L 427.245875 221.810328 
L 425.14244 219.84456 
L 428.139603 210.842169 
L 428.410318 217.422758 
L 429.108164 216.181093 
L 429.021334 213.014414 
L 429.657653 214.718933 
L 429.9657 216.093878 
L 430.30187 219.600883 
L 432.448775 220.788495 
L 429.834382 225.423872 
L 430.565991 227.151785 
L 430.473702 228.136135 
L 425.503944 228.492859 
L 428.104513 228.876726 
L 425.000193 226.171836 
L 425.429818 229.522102 
L 420.385852 227.380322 
L 418.751608 227.744131 
L 413.969421 227.241086 
L 414.486335 222.745155 
L 414.913279 224.25469 
L 413.053854 226.905546 
L 410.010867 227.642521 
L 410.552793 223.181275 
L 410.369111 226.749747 
L 410.359127 224.816717 
L 403.772411 225.184054 
L 407.599426 226.636771 
L 407.803768 231.35206 
L 412.118716 235.650045 
L 412.461916 231.106544 
L 406.483062 233.949243 
L 404.088691 229.933111 
L 401.085538 226.156994 
L 398.447595 223.729408 
L 402.741847 223.362748 
L 408.28398 223.361405 
L 413.188985 222.001004 
L 414.200566 224.335264 
L 408.33663 226.526974 
L 409.430546 226.50516 
L 408.933166 232.788594 
L 415.631587 228.111998 
L 414.035502 230.148378 
L 413.750654 229.410572 
L 414.238374 231.393718 
L 408.457046 232.23664 
L 403.761112 236.801782 
L 394.83814 234.862923 
L 396.284961 233.181516 
L 390.763226 236.559901 
L 388.801853 240.629369 
L 390.618217 235.857572 
L 389.876238 241.258735 
L 391.677342 241.375163 
L 390.888667 244.274299 
L 387.224571 240.321243 
L 385.045718 241.569124 
L 387.385217 240.887662 
L 386.266772 238.368016 
L 382.793641 236.495147 
L 382.116709 236.400418 
L 382.864012 233.296616 
L 383.86286 238.822849 
L 378.363643 238.124965 
L 377.273675 238.798186 
L 377.673033 239.724586 
L 375.488787 239.151018 
L 377.192034 233.080953 
L 376.978892 234.290804 
L 379.595944 232.029368 
L 376.420127 232.738981 
L 369.606127 226.454309 
L 366.400287 234.204453 
L 361.809179 230.65773 
L 363.367386 231.928918 
L 362.014235 230.179131 
L 365.682435 233.221276 
L 359.301636 234.530844 
L 358.111997 240.814179 
L 357.544627 242.340477 
L 359.380424 239.943164 
L 361.290991 242.048668 
L 357.048412 245.319467 
L 358.372732 241.844652 
L 361.948388 239.999051 
L 362.321549 240.593192 
L 351.87451 239.021779 
L 351.582606 233.530688 
L 353.112347 231.597034 
L 353.997637 233.970469 
L 357.55172 235.589098 
L 352.714433 236.839778 
L 353.885342 238.289523 
L 353.528375 232.699242 
L 353.580702 231.454587 
L 347.036693 231.165194 
L 352.898789 234.425565 
L 347.106774 233.576803 
L 343.420822 235.36351 
L 346.454406 235.181028 
L 348.497743 237.534519 
L 351.189332 233.967166 
L 350.901194 234.129851 
L 353.588386 232.074519 
L 355.286331 229.92748 
L 352.247497 225.688462 
L 354.631413 226.785801 
L 357.311496 227.865842 
L 353.013341 228.300679 
L 355.794876 226.091287 
L 353.515205 228.626028 
L 355.805466 231.802599 
L 351.80368 231.152945 
L 350.866937 230.704884 
L 351.583693 231.472012 
L 350.961504 232.007086 
L 354.748743 229.696492 
L 352.177841 228.916803 
L 356.732264 223.026946 
L 356.756622 222.040828 
L 360.449001 221.046163 
L 361.31517 222.456306 
L 364.375251 220.235168 
L 366.113244 220.243669 
L 365.97862 221.845126 
L 368.154987 224.534626 
L 366.271594 228.940289 
L 365.274638 227.119474 
L 372.648743 226.414666 
L 374.394212 225.423129 
L 374.367591 226.416051 
L 376.645832 224.056989 
L 376.669329 219.310683 
L 373.885339 219.910306 
L 372.161189 216.139604 
L 371.684624 213.831833 
L 371.226708 213.243885 
L 373.800294 213.41792 
L 370.975148 210.691742 
L 370.816437 213.851621 
L 374.347084 212.830465 
L 373.931848 213.617183 
L 379.207656 216.413272 
L 384.415903 215.53375 
L 379.128911 218.096538 
L 380.632958 214.799906 
L 382.258495 210.862362 
L 385.402227 212.387061 
L 382.816233 211.036029 
L 383.776954 208.511172 
L 382.932876 209.485635 
L 391.075729 213.546338 
L 390.855579 214.11775 
L 391.425786 213.370408 
L 386.322782 216.254927 
L 384.187161 215.570359 
L 385.43248 214.289451 
L 382.204562 215.544116 
L 385.955882 209.468609 
L 390.354193 209.840635 
L 392.17625 207.624179 
L 393.403432 205.575188 
L 391.945321 208.478112 
L 395.563301 209.543023 
L 391.158285 211.913045 
L 389.388975 205.706367 
L 390.571671 206.748992 
L 389.746754 201.504974 
L 391.503866 201.18751 
L 388.602857 203.885939 
L 383.443438 203.80082 
L 387.867436 200.596641 
L 391.019829 194.194649 
L 393.52945 193.982677 
L 398.846286 195.725918 
L 396.145139 198.559565 
L 399.029184 200.384424 
L 396.346555 203.366944 
L 395.873649 201.982379 
L 398.444872 202.978498 
L 402.530743 206.547903 
L 403.442564 209.238473 
L 402.070279 207.025745 
L 409.554653 206.446971 
L 407.560011 212.937952 
L 402.78595 209.127742 
L 403.968823 214.682662 
L 403.406473 214.177993 
L 399.566166 219.653449 
L 400.522402 217.763702 
L 399.012549 212.590955 
L 398.757677 212.927354 
L 395.603818 213.72927 
L 397.570582 213.371584 
L 398.301385 214.977343 
L 400.595558 214.157436 
L 406.177276 213.275738 
L 406.779575 213.678181 
L 405.392513 220.820981 
L 405.80773 219.814416 
L 405.848918 219.954309 
L 407.323586 223.525043 
L 408.406097 225.811217 
L 402.132095 224.684976 
L 402.938058 226.37646 
L 399.389213 223.989982 
L 400.330527 223.681994 
L 395.677674 222.919633 
L 398.240575 218.478391 
L 401.15316 219.858382 
L 396.075812 218.971143 
L 398.785463 219.090806 
L 404.216213 220.642512 
L 398.88321 221.315427 
L 398.991286 221.959346 
L 399.904478 217.547959 
L 395.570396 217.954729 
L 396.980669 219.437797 
L 398.676108 218.895659 
L 397.729124 218.608962 
L 392.160596 219.133978 
L 389.835478 220.151326 
L 390.044291 219.602372 
L 391.978147 217.965173 
L 392.286868 221.429319 
L 387.257132 222.592102 
L 389.565234 226.997926 
L 389.434716 225.43073 
L 386.981389 226.300796 
L 388.954293 225.483307 
L 389.368262 233.050533 
L 393.398873 232.189972 
L 399.134096 230.590194 
L 396.477309 231.373535 
L 397.306825 234.24497 
L 398.542012 233.523108 
L 395.164653 228.460858 
L 394.738034 229.240381 
L 398.46277 231.926822 
L 404.256833 229.531278 
L 407.334728 232.640835 
L 407.097187 231.879197 
L 409.894015 229.25053 
L 410.765748 228.967436 
L 411.335874 229.813294 
L 414.609429 227.801856 
L 413.889388 223.23223 
L 412.775045 221.716552 
L 414.927577 218.676488 
L 416.923122 221.119814 
L 415.360725 221.546365 
L 417.127122 220.234404 
L 418.958626 218.641203 
L 414.074075 214.536615 
L 407.912658 216.448796 
L 412.200369 217.645649 
L 411.040863 213.106793 
L 409.562888 210.2418 
L 401.32061 211.704272 
L 400.706764 209.509385 
L 395.292186 211.875715 
L 403.748024 216.922157 
L 403.640242 219.62148 
L 405.693235 217.576015 
L 411.695021 218.435343 
L 413.088544 214.37496 
L 410.674524 213.784677 
L 412.510973 214.100059 
L 409.198566 214.213324 
L 409.000951 218.20519 
L 411.518619 222.571471 
L 409.310269 223.956291 
L 410.057227 226.064574 
L 401.803614 224.41106 
L 401.500174 227.015029 
L 399.453947 228.261494 
L 403.523807 230.914846 
L 407.07417 227.427765 
L 407.365975 227.43268 
L 410.315073 227.735984 
L 410.312168 229.197656 
L 409.582524 220.789636 
L 421.808942 218.505177 
L 423.572361 218.559742 
L 420.396596 215.346235 
L 422.163841 213.654849 
L 422.201652 211.589862 
L 425.917239 212.619264 
L 425.90256 212.231583 
L 426.620873 215.265722 
L 419.114968 207.82609 
L 418.202591 208.980005 
L 419.86005 209.889268 
L 414.839542 208.464876 
L 412.453385 204.370269 
L 413.356419 204.879244 
L 419.135714 207.341183 
L 417.996627 205.365396 
L 419.974139 205.104601 
L 420.845323 209.780554 
L 421.397362 218.249164 
L 424.474479 214.918304 
L 426.665948 213.12817 
L 425.045417 214.000588 
L 423.650505 209.581126 
L 419.412183 208.554711 
L 414.202027 214.214705 
L 413.990349 213.104538 
L 413.998422 214.794483 
L 409.869639 212.941011 
L 412.652569 214.585695 
L 410.34283 214.489262 
L 409.936944 210.704827 
L 409.46935 211.294612 
L 409.991142 212.090397 
L 409.128058 217.189093 
L 405.799164 220.348855 
L 401.296165 218.76125 
L 399.870712 224.499578 
L 395.409757 223.510344 
L 395.435508 221.558763 
L 394.286183 219.977043 
L 392.603078 224.130792 
L 393.514168 223.820456 
L 390.567874 227.478793 
L 388.734768 221.150931 
L 389.25571 221.675215 
L 387.112239 217.225104 
L 392.312383 221.127592 
L 387.832119 224.581131 
L 389.554547 229.314983 
L 389.104832 234.143797 
L 387.72311 236.560387 
L 388.752153 240.012242 
L 386.856935 237.643704 
L 386.847529 238.747829 
L 390.441755 237.468257 
L 394.521283 235.721084 
L 396.617865 233.07874 
L 402.422188 231.636052 
L 403.545626 238.155041 
L 404.713071 241.499901 
L 400.67669 239.807861 
L 402.786981 237.17726 
L 402.526472 239.655924 
L 402.624916 241.257336 
L 400.641223 243.529961 
L 402.496096 244.404426 
L 404.665755 241.986042 
L 405.198441 250.5295 
L 407.644644 251.914455 
L 400.475583 254.795701 
L 395.825839 253.60584 
L 399.90152 253.696561 
L 399.846648 248.174502 
L 400.64584 245.579932 
L 402.645012 250.294847 
L 400.44519 252.10033 
L 399.051647 254.7985 
L 398.791346 252.625298 
L 399.631048 253.56107 
L 396.276229 256.885599 
L 396.532727 254.933065 
L 396.484053 263.35484 
L 395.005316 262.485297 
L 393.01638 262.520123 
L 394.006269 259.085772 
L 394.901236 260.519443 
L 391.723395 256.619722 
L 393.342531 253.232738 
L 394.820323 252.071552 
L 395.450816 256.470288 
L 392.224658 257.396748 
L 391.390211 261.35597 
L 393.992842 265.130087 
L 395.04975 261.940752 
L 390.703072 263.186814 
L 390.337056 259.432775 
L 389.292321 260.136359 
L 391.964659 261.801285 
L 387.531125 257.465817 
L 388.203023 261.493689 
L 387.825892 262.094002 
L 390.585941 264.103993 
L 388.242832 261.360471 
L 396.488868 260.567264 
L 394.569843 260.52898 
L 396.950339 261.482024 
L 396.216495 260.583513 
L 398.262206 263.111182 
L 397.124893 264.166078 
L 395.061076 263.119616 
L 394.621896 265.044781 
L 391.191348 264.220309 
L 392.210599 262.674708 
L 388.574359 265.847477 
L 393.801408 264.615731 
L 395.808037 269.181804 
L 393.657954 265.873665 
L 399.928809 270.243772 
L 405.3605 261.960243 
L 405.132742 265.193953 
L 399.181134 267.191792 
L 396.484933 268.238848 
L 397.193772 264.306853 
L 399.425735 265.576176 
L 394.9966 267.284576 
L 392.624146 268.83654 
L 390.416665 268.48967 
L 386.775663 262.897263 
L 387.151487 266.985768 
L 385.715344 267.986135 
L 383.576497 266.938861 
L 381.743613 270.274285 
L 381.41338 276.662257 
L 381.039935 280.834166 
L 381.402065 288.045817 
L 376.2484 289.229268 
L 378.597131 290.806412 
L 377.396045 288.60302 
L 378.689162 289.575492 
L 377.473465 284.083047 
L 378.534888 284.553005 
L 378.931948 283.760043 
L 376.118747 282.147015 
L 374.502429 280.334241 
L 376.305183 276.133619 
L 384.256886 277.165761 
L 381.121349 278.957402 
L 388.131565 274.519757 
L 391.185348 273.750832 
L 391.387607 274.22907 
L 390.671235 275.334374 
L 393.099431 276.919485 
L 394.206407 276.745584 
L 395.651964 279.650351 
L 393.966207 286.42677 
L 388.356123 285.650864 
L 389.730051 288.771155 
L 392.369632 289.49818 
L 388.672142 290.83539 
L 396.143047 291.048896 
L 393.569216 290.459948 
L 390.656509 292.940017 
L 391.743605 292.157162 
L 399.891304 289.828283 
L 396.88275 291.495016 
L 399.8236 292.009007 
L 398.897444 290.093641 
L 397.152219 289.791956 
L 397.503723 287.517062 
L 398.632097 291.842275 
L 399.210983 294.726277 
L 401.979766 296.285504 
L 404.728446 299.448461 
L 402.594779 299.036324 
L 404.460825 300.682225 
L 405.319189 298.141631 
L 404.907252 293.830999 
L 405.618411 292.907089 
L 398.306688 293.507788 
L 395.605159 289.516488 
L 395.007287 290.236849 
L 390.669978 288.386741 
L 388.619056 292.490441 
L 387.578101 288.34167 
L 386.239647 287.600734 
L 385.01183 293.887891 
L 382.171449 295.9156 
L 382.613142 298.793028 
L 385.798051 302.118918 
L 386.256773 300.38102 
L 383.818235 299.134447 
L 391.253096 299.785636 
L 389.659538 299.383882 
L 389.904269 297.742194 
L 393.483074 298.200733 
L 392.341651 296.244211 
L 394.717296 297.305993 
L 394.39881 298.40266 
L 404.046555 297.131887 
L 406.539258 295.497681 
L 406.77567 297.674714 
L 403.957069 296.393271 
L 402.969512 295.378697 
L 401.105495 297.378684 
L 400.353184 297.850437 
L 401.968013 300.22754 
L 408.299906 297.448216 
L 408.028134 298.058356 
L 408.678758 294.348088 
L 410.856845 290.92942 
L 405.853491 290.040056 
L 404.678263 288.830566 
L 406.578008 292.663791 
L 405.131225 292.633734 
L 409.445548 292.207761 
L 414.185934 287.268078 
L 415.035537 284.449626 
L 407.920739 284.130207 
L 408.908046 283.739347 
L 407.341909 279.4838 
L 412.170497 279.840563 
L 415.825679 282.132597 
L 409.395376 278.843481 
L 403.909464 278.525699 
L 408.065676 277.749156 
L 407.679078 272.636042 
L 409.230421 270.290517 
L 406.273484 274.977136 
L 411.977022 271.654758 
L 411.296329 271.598846 
L 411.060982 269.935374 
L 411.778346 271.383876 
L 415.157045 273.182684 
L 416.85202 277.27434 
L 419.68223 279.407119 
L 424.292991 276.497193 
L 424.24507 275.847035 
L 427.065194 275.141902 
L 433.210743 273.916469 
L 432.388877 276.312113 
L 428.884339 272.769554 
L 426.409542 275.000226 
L 423.795238 275.971356 
L 425.720658 274.959485 
L 420.836459 273.309523 
L 418.49354 276.161938 
L 418.474215 272.032104 
L 419.148183 270.996209 
L 418.969204 271.802151 
L 422.638655 277.630416 
L 422.810911 279.165663 
L 419.786124 275.413278 
L 422.300879 280.03323 
L 420.784822 275.354551 
L 421.100982 274.933642 
L 414.411381 277.51279 
L 415.926854 278.227658 
L 416.152686 276.651558 
L 421.442025 278.980576 
L 425.640575 277.119269 
L 428.445788 277.644194 
L 427.717359 277.388325 
L 424.749732 279.546749 
L 424.242008 281.781911 
L 417.650756 283.349145 
L 419.529048 281.506463 
L 417.516333 280.296255 
L 418.746041 282.980351 
L 414.350515 280.319507 
L 417.304073 281.877038 
L 411.711665 281.000034 
L 412.454615 281.368322 
L 412.318085 285.68583 
L 413.447945 283.58654 
L 407.750145 276.017905 
L 413.524122 276.485065 
L 415.851228 274.729676 
L 415.410391 270.734043 
L 414.596883 268.792224 
L 416.426355 264.961962 
L 419.059234 262.920158 
L 423.149729 259.428634 
L 418.741214 255.693026 
L 421.589784 255.585774 
L 419.817567 253.905444 
L 424.218285 253.520781 
L 422.913537 253.6256 
L 422.040101 258.388587 
L 420.57002 258.075361 
L 420.569452 257.206232 
L 419.313628 259.052147 
L 420.335799 264.090226 
L 416.517564 265.047227 
L 419.52614 261.951573 
L 418.290873 260.774343 
L 417.362859 264.478268 
L 417.579671 266.148441 
L 410.49408 264.806188 
L 412.607406 265.902252 
L 412.935081 265.343244 
L 417.104522 269.751971 
L 415.606803 269.164432 
L 418.86601 271.353512 
L 421.720114 268.65747 
L 418.971717 263.205488 
L 413.168841 261.8204 
L 413.130526 261.44934 
L 415.874895 266.268975 
L 418.304021 266.80477 
L 416.077904 268.733719 
L 409.253888 265.491661 
L 404.218153 264.891172 
L 398.960055 265.716451 
L 401.008447 265.590358 
L 403.353091 269.741119 
L 403.060296 272.969509 
L 402.55433 272.008983 
L 408.015619 266.993137 
L 408.553492 264.445169 
L 404.590978 261.42033 
L 405.595422 262.781334 
L 410.747452 264.98176 
L 410.142729 266.645403 
L 406.521761 260.539593 
L 409.594091 261.985797 
L 408.892301 261.916776 
L 409.8411 263.45449 
L 409.446441 259.361214 
L 412.794311 261.71633 
L 415.409661 262.446815 
L 412.002442 264.848123 
L 409.926954 267.527924 
L 411.541538 269.428243 
L 410.870034 269.663741 
L 410.870034 269.663741 
" clip-path="url(#p1a67032b90)" style="fill: none; stroke: #0000ff; stroke-opacity: 0.8; stroke-width: 1.5; stroke-linecap: square"/>
   </g>
   <g id="line2d_22">
    <path d="M 353.152936 217.862692 
L 337.709528 216.519483 
L 336.721018 219.023674 
L 340.903295 214.947163 
L 343.274098 213.1449 
L 333.74748 211.260514 
L 332.838611 213.917546 
L 316.102644 216.993586 
L 318.035295 224.681805 
L 314.663452 230.016338 
L 305.713451 233.475121 
L 304.675702 235.670524 
L 304.517591 219.454752 
L 314.173747 221.656193 
L 319.978334 221.924246 
L 308.002722 226.873088 
L 297.447227 214.998008 
L 304.441462 205.142289 
L 303.206614 203.4205 
L 304.943968 205.282023 
L 311.030097 193.115543 
L 320.72456 191.032124 
L 321.924163 205.583602 
L 324.836811 200.307093 
L 320.092802 197.42294 
L 322.471046 195.440382 
L 326.065186 190.320436 
L 326.08409 193.108907 
L 331.690553 193.735344 
L 341.37298 200.381356 
L 336.211245 209.600571 
L 340.861448 207.01518 
L 331.966691 201.619374 
L 336.279059 212.349016 
L 338.395491 203.982104 
L 334.652487 199.685839 
L 332.300687 197.608956 
L 324.877529 194.002116 
L 320.39065 201.21163 
L 325.082313 203.258539 
L 329.143854 205.556025 
L 330.159569 200.987189 
L 329.568603 191.419796 
L 330.50573 181.718274 
L 337.977973 185.512026 
L 335.806997 198.327281 
L 336.799001 202.166483 
L 338.552014 207.189 
L 335.795097 213.706511 
L 328.710648 213.709451 
L 326.925111 212.137901 
L 323.335408 214.11381 
L 314.092301 215.613056 
L 304.78714 214.908386 
L 305.7509 213.986325 
L 296.877497 209.209623 
L 297.532234 209.841594 
L 298.315213 207.915307 
L 294.783988 210.402798 
L 288.765069 207.42895 
L 290.672578 199.909791 
L 283.97835 191.612285 
L 286.037506 187.562555 
L 285.332895 198.49496 
L 271.160477 192.396977 
L 276.70162 197.01916 
L 279.659357 193.64263 
L 282.201028 193.539291 
L 282.653591 188.067492 
L 285.982444 193.023711 
L 284.32625 194.561394 
L 282.920207 202.80643 
L 288.954445 200.508581 
L 293.765701 203.213615 
L 286.432363 197.626976 
L 288.644741 197.500871 
L 283.913679 205.200214 
L 288.443603 209.752297 
L 282.718539 209.224961 
L 288.148456 208.019309 
L 287.56731 206.031289 
L 283.432457 205.317766 
L 280.380602 203.72685 
L 280.525129 207.685904 
L 278.385826 202.95041 
L 272.895639 201.319129 
L 269.556679 204.888696 
L 274.847163 200.912185 
L 274.631381 207.208162 
L 265.685925 211.774455 
L 258.340572 207.345647 
L 251.510075 200.418995 
L 248.489456 200.470646 
L 247.135869 193.696378 
L 243.648806 193.20947 
L 247.532613 184.526783 
L 245.40679 183.865535 
L 256.044264 184.047525 
L 256.890176 180.683295 
L 240.776258 181.969944 
L 246.180469 181.699456 
L 246.734774 179.570364 
L 235.988836 168.418045 
L 239.603078 173.077512 
L 239.162588 166.402314 
L 237.805129 159.512729 
L 246.110708 163.98612 
L 251.121055 158.547642 
L 255.251529 156.318955 
L 251.321382 153.382388 
L 248.175647 151.21893 
L 241.177284 144.394968 
L 238.330014 146.043744 
L 243.855235 139.031275 
L 250.176935 134.207792 
L 250.152798 140.569257 
L 244.22216 137.761271 
L 251.601678 141.553336 
L 243.298764 136.490991 
L 234.866844 134.251409 
L 237.174219 137.808317 
L 241.537252 138.734129 
L 235.382128 130.642976 
L 236.159461 138.995544 
L 233.97549 143.637867 
L 241.661838 145.710475 
L 249.917807 146.749105 
L 248.551809 152.928049 
L 249.781628 158.492544 
L 248.564651 149.202001 
L 241.947782 152.499793 
L 233.103007 149.306178 
L 227.838837 143.607446 
L 232.812721 151.764033 
L 225.337831 153.888425 
L 235.316704 154.1675 
L 236.908422 152.742907 
L 246.710391 153.348899 
L 248.284227 145.475834 
L 250.731195 155.179214 
L 250.459539 151.521588 
L 241.616816 148.645357 
L 247.588329 148.504213 
L 252.955745 138.877291 
L 238.869815 144.872102 
L 238.196967 140.779801 
L 230.980847 130.53386 
L 221.844663 134.635562 
L 215.75251 136.889285 
L 223.755103 138.461542 
L 221.431714 138.571352 
L 225.181268 139.815912 
L 214.529108 140.814507 
L 227.687695 147.259324 
L 229.939162 152.772525 
L 221.516585 154.734973 
L 224.513899 160.991018 
L 216.218734 163.087702 
L 203.461858 153.209949 
L 198.231772 164.163685 
L 201.310553 161.166512 
L 183.399448 162.690236 
L 185.796475 166.119855 
L 188.736721 173.284194 
L 180.441172 177.590958 
L 175.989953 176.041958 
L 179.019121 175.942193 
L 167.00342 170.901018 
L 171.283456 182.674713 
L 169.761718 183.392504 
L 170.546827 190.600895 
L 176.342774 192.208096 
L 181.267238 197.729736 
L 187.327047 196.152137 
L 190.707407 189.569526 
L 195.999338 185.479516 
L 200.514764 194.656892 
L 198.451046 192.795808 
L 196.740433 200.986177 
L 204.791002 199.921295 
L 203.364926 213.071252 
L 200.446905 224.748624 
L 189.871646 219.84752 
L 189.606861 217.357628 
L 182.657134 221.891432 
L 182.437776 209.22859 
L 181.585589 199.120137 
L 192.351901 197.874019 
L 189.846713 192.789621 
L 195.347212 192.843516 
L 195.145269 194.885845 
L 190.235452 198.001124 
L 190.802975 195.902703 
L 181.829229 209.022174 
L 180.524246 212.866481 
L 178.628669 213.531838 
L 173.029458 207.125931 
L 177.248835 199.758128 
L 180.589843 194.283109 
L 181.217679 203.877479 
L 186.502701 210.901372 
L 186.428119 218.891172 
L 202.161855 217.967005 
L 205.921012 211.592539 
L 206.626244 201.459552 
L 220.461756 200.873358 
L 219.08338 203.363309 
L 219.488439 206.540039 
L 230.534808 198.087977 
L 223.552128 199.006078 
L 228.865125 193.416665 
L 237.845397 187.288258 
L 239.021994 190.849064 
L 231.483011 186.433889 
L 238.164878 183.831849 
L 238.232792 189.061777 
L 230.850442 194.871598 
L 221.888418 202.565987 
L 223.213816 190.518468 
L 226.527234 184.94034 
L 221.485205 188.350529 
L 206.687455 182.939453 
L 204.933601 186.413495 
L 201.959528 178.846952 
L 200.456611 181.911701 
L 199.548274 170.020736 
L 206.271161 175.101397 
L 209.667658 180.130357 
L 212.785783 185.862249 
L 213.056637 194.543889 
L 218.055188 183.382099 
L 215.667909 187.23876 
L 229.791302 186.67348 
L 223.671344 192.548486 
L 224.788579 197.904503 
L 210.422535 201.693304 
L 201.517792 198.953224 
L 189.382634 200.490491 
L 189.477459 195.078636 
L 194.888045 190.220029 
L 193.52438 189.573795 
L 199.763315 197.82781 
L 210.965609 203.324444 
L 206.368304 206.146939 
L 204.826449 207.22552 
L 210.306169 208.978222 
L 212.093628 203.788829 
L 203.49271 197.377368 
L 206.777041 189.902765 
L 209.840016 194.415692 
L 213.969292 185.965122 
L 215.622703 194.466942 
L 218.63118 199.487787 
L 220.026157 206.687045 
L 212.326203 214.746399 
L 217.258634 210.466046 
L 214.324847 207.573245 
L 214.419379 206.900081 
L 220.899932 203.803788 
L 227.001113 204.498484 
L 227.121273 203.553318 
L 218.31083 203.771874 
L 223.520114 208.743217 
L 216.832198 204.936746 
L 212.894511 199.294746 
L 210.398922 203.293795 
L 212.256709 204.999293 
L 210.183629 195.493021 
L 214.098456 193.341283 
L 200.621436 194.271755 
L 210.176172 196.690995 
L 214.789906 201.012787 
L 209.688937 194.888914 
L 203.500023 194.433276 
L 204.5832 188.984085 
L 214.290782 198.40899 
L 225.186114 191.357366 
L 235.047094 190.886733 
L 248.385254 192.403919 
L 246.3132 194.141427 
L 257.30625 197.921223 
L 252.302824 197.020828 
L 256.788147 193.018831 
L 243.833581 191.581876 
L 249.462369 193.75359 
L 256.707194 190.362387 
L 254.444708 194.177653 
L 257.85615 199.448029 
L 251.848494 196.831146 
L 246.382722 198.082808 
L 241.627836 193.274376 
L 239.971791 195.479953 
L 237.176593 188.662141 
L 232.00693 174.949533 
L 229.178391 172.879017 
L 223.37106 171.306298 
L 227.636861 172.702854 
L 229.779144 168.384021 
L 235.882028 179.574285 
L 235.99497 178.941668 
L 251.427166 178.189015 
L 251.734146 177.536478 
L 247.674205 174.856393 
L 243.189491 180.504335 
L 243.948486 173.637634 
L 251.161486 171.428824 
L 252.542854 170.5841 
L 256.726035 171.048182 
L 260.965213 184.402172 
L 262.915676 182.445679 
L 263.797529 176.64842 
L 254.190291 175.364911 
L 247.670029 176.086211 
L 249.514798 170.123881 
L 253.22767 176.907595 
L 248.234907 185.611325 
L 251.448015 186.251421 
L 246.102916 184.143881 
L 243.92199 187.845438 
L 228.268401 189.726431 
L 221.940734 187.764242 
L 217.293612 196.216031 
L 217.655527 186.063081 
L 220.602998 190.081311 
L 216.09289 188.82498 
L 217.243249 189.688006 
L 223.089204 190.448793 
L 229.051995 188.227406 
L 236.848306 191.256154 
L 233.449499 186.000134 
L 232.024209 187.07191 
L 224.935044 188.727718 
L 230.094303 183.189991 
L 218.217465 184.751066 
L 222.045322 185.676223 
L 220.407222 195.192957 
L 219.867214 193.711573 
L 216.740288 194.516718 
L 208.814128 206.020958 
L 203.327809 204.220858 
L 190.622204 203.688916 
L 185.503154 205.294545 
L 185.466724 204.707221 
L 198.728147 196.876209 
L 201.814839 190.435721 
L 196.207512 186.993366 
L 193.943551 178.833158 
L 188.690864 180.995282 
L 193.606608 177.145956 
L 200.569481 177.585874 
L 199.82276 180.237405 
L 207.464377 184.645809 
L 207.48174 189.133405 
L 213.698684 187.894914 
L 201.645767 183.095238 
L 197.480581 195.378304 
L 195.219175 195.517948 
L 191.873022 189.894743 
L 198.286372 190.522644 
L 202.380131 205.648848 
L 214.070161 211.897875 
L 224.943369 207.337559 
L 224.228589 200.794259 
L 225.069268 204.722916 
L 223.163145 206.164774 
L 233.913425 206.981332 
L 240.312779 210.766787 
L 235.273397 199.444372 
L 233.516454 203.884683 
L 239.102217 210.102009 
L 241.274691 209.387876 
L 239.784973 211.406121 
L 240.047742 221.320744 
L 235.045257 220.583428 
L 233.926095 222.543428 
L 234.66183 221.228322 
L 241.231985 226.978902 
L 243.485507 227.689825 
L 235.54683 226.104716 
L 229.865343 226.755682 
L 223.443177 222.962046 
L 220.508572 226.640482 
L 218.90479 228.238654 
L 216.733376 231.144082 
L 222.749434 236.245775 
L 225.72878 241.958665 
L 227.116179 250.113048 
L 235.650177 247.557136 
L 239.957496 254.268765 
L 245.069396 246.848527 
L 244.679369 251.610766 
L 242.40886 251.595588 
L 240.061067 246.790944 
L 239.378578 244.929179 
L 242.417976 246.682572 
L 241.930553 249.576462 
L 238.529751 252.445925 
L 238.860669 256.196751 
L 229.230903 260.630314 
L 225.304492 263.784437 
L 228.098068 266.373364 
L 222.913344 269.435902 
L 221.184781 276.28848 
L 222.464498 272.852876 
L 215.825092 268.838026 
L 222.316066 276.697433 
L 208.260986 278.989025 
L 213.944708 278.13322 
L 209.775959 275.535454 
L 206.156473 274.627417 
L 204.263325 277.273187 
L 204.602931 286.79409 
L 204.370591 294.609722 
L 201.44291 303.889684 
L 206.029489 309.477195 
L 210.549182 306.449007 
L 209.636944 314.386111 
L 220.412313 317.357433 
L 216.696411 318.926859 
L 217.705249 319.204682 
L 220.99842 325.500385 
L 220.774646 335.039617 
L 210.910941 332.87819 
L 216.611029 343.640652 
L 225.710024 349.915045 
L 219.800664 354.856123 
L 211.771544 352.956808 
L 212.371724 353.676205 
L 202.66806 349.345555 
L 202.225341 348.293408 
L 218.081848 352.139118 
L 213.950634 354.435266 
L 220.056464 352.779444 
L 212.522512 348.972337 
L 217.403522 346.258526 
L 216.454641 345.345886 
L 216.050692 342.025516 
L 204.439783 330.644102 
L 194.524838 334.001991 
L 183.650306 335.822835 
L 180.482913 338.162528 
L 181.676336 333.940384 
L 182.248465 339.351643 
L 177.078938 345.147369 
L 172.302856 347.772455 
L 163.42079 342.535773 
L 160.305249 348.228323 
L 166.197728 353.858091 
L 175.355685 360.281254 
L 176.616262 358.897641 
L 168.607678 357.927429 
L 160.407228 368.017766 
L 167.261468 363.389119 
L 166.382197 364.781135 
L 167.063565 362.09119 
L 162.835511 370.6582 
L 157.494671 366.440371 
L 161.69901 373.706067 
L 171.924925 374.883105 
L 176.94758 382.779745 
L 188.935318 387.065779 
L 194.109851 383.38132 
L 202.544671 382.355359 
L 206.559272 387.076829 
L 206.897188 385.02931 
L 200.211215 388.662019 
L 207.175837 378.891887 
L 203.898382 389.239806 
L 214.720013 378.849135 
L 209.790184 377.88654 
L 214.291715 388.933741 
L 220.020198 388.862501 
L 217.106012 386.632665 
L 202.809953 379.951687 
L 210.403265 370.690377 
L 219.089834 365.675323 
L 212.15596 352.06863 
L 197.456956 353.776241 
L 190.230353 353.500273 
L 188.892698 348.424029 
L 198.955459 350.534336 
L 205.538155 350.754949 
L 210.231394 350.20207 
L 207.963888 346.93329 
L 202.821555 346.911387 
L 205.366478 346.80024 
L 205.880251 356.046883 
L 204.713237 355.187951 
L 194.730956 345.18316 
L 203.561548 352.817331 
L 202.969603 342.926879 
L 213.484118 352.197145 
L 217.855456 359.644229 
L 230.438115 356.817908 
L 224.112858 363.261075 
L 232.621843 366.013539 
L 239.820956 356.027405 
L 248.097618 352.780423 
L 245.544217 352.74081 
L 248.881497 363.667305 
L 248.932453 359.596322 
L 248.553167 363.909712 
L 248.584441 372.176226 
L 249.804327 374.384194 
L 255.557231 370.040846 
L 264.143329 361.394191 
L 266.031949 363.442066 
L 265.26512 358.46415 
L 267.547058 364.899245 
L 274.992762 360.106385 
L 267.359383 351.703499 
L 264.368476 351.300327 
L 256.291339 348.877517 
L 269.822029 345.12943 
L 261.417315 350.375188 
L 260.811308 347.882436 
L 257.621894 353.615456 
L 253.151814 358.739035 
L 247.07852 364.199638 
L 261.461073 359.099939 
L 267.032334 347.356143 
L 262.395873 349.279152 
L 267.307409 346.191858 
L 270.551141 346.49193 
L 275.453315 352.494722 
L 277.505116 349.379002 
L 280.404958 353.882052 
L 276.274057 355.823192 
L 281.053534 352.809383 
L 276.692202 358.906351 
L 277.902432 356.126672 
L 284.575798 356.586087 
L 285.993129 351.721732 
L 285.108797 358.546764 
L 288.141599 353.829758 
L 293.268315 354.696758 
L 293.959823 351.841967 
L 303.080132 345.58026 
L 295.475967 347.493542 
L 287.943922 345.266212 
L 285.89153 344.189878 
L 283.432165 350.883434 
L 279.225046 347.634871 
L 267.393789 339.870053 
L 270.837612 344.356736 
L 263.235978 339.109934 
L 263.395102 343.603006 
L 258.08811 347.634082 
L 252.165801 338.927645 
L 254.048141 339.204791 
L 258.594512 339.192375 
L 257.806331 328.81054 
L 254.589267 330.354389 
L 262.704224 330.764183 
L 265.353356 330.570952 
L 268.918459 337.671256 
L 269.562678 341.222467 
L 265.159043 336.764724 
L 257.77321 345.158162 
L 255.246282 337.1625 
L 261.171551 343.162434 
L 250.140791 346.80665 
L 237.249497 341.10926 
L 238.758919 342.916176 
L 230.032283 354.80151 
L 235.94815 352.184054 
L 242.430896 349.773096 
L 239.134274 339.408024 
L 247.917149 330.016934 
L 254.054056 334.92478 
L 245.419244 331.721124 
L 244.679252 344.023601 
L 234.033454 346.055228 
L 225.335081 345.048568 
L 227.630234 337.988027 
L 225.764615 342.818059 
L 228.106993 348.858209 
L 229.330373 359.719719 
L 228.933569 373.342265 
L 241.824351 372.650449 
L 235.613104 376.110494 
L 242.773636 382.065022 
L 245.151838 382.024668 
L 248.320208 381.473357 
L 242.890503 377.557416 
L 247.858378 378.572732 
L 244.771689 380.954301 
L 247.851697 376.357686 
L 248.580211 381.205239 
L 249.763062 378.771599 
L 252.893616 392.833514 
L 245.724462 390.19521 
L 244.341615 400.814342 
L 247.418317 397.765654 
L 251.964821 409.631641 
L 250.592212 407.968252 
L 254.963492 403.180748 
L 262.455418 403.644247 
L 253.801046 401.747196 
L 249.550988 406.529641 
L 245.408039 415.781326 
L 236.31491 421.755545 
L 243.349981 413.998091 
L 238.684923 409.07253 
L 237.672476 401.960037 
L 234.396192 397.813115 
L 227.669076 397.513528 
L 214.356907 400.817147 
L 207.693034 400.939281 
L 220.128388 395.193386 
L 222.788899 400.196091 
L 226.24368 405.916834 
L 230.746687 404.011787 
L 223.285766 407.321889 
L 229.747097 405.126924 
L 236.299876 405.519567 
L 229.506607 414.730459 
L 228.188678 418.097131 
L 230.304384 417.717771 
L 239.098882 414.499169 
L 240.160391 416.397041 
L 230.022124 416.610269 
L 222.362062 420.586784 
L 220.856129 424.845941 
L 216.247986 417.776131 
L 216.212876 414.539419 
L 219.043598 415.810314 
L 216.935085 413.502548 
L 215.340022 401.997299 
L 212.284756 398.816455 
L 209.637588 391.264508 
L 211.972336 391.499381 
L 210.555186 394.917825 
L 199.202235 389.513266 
L 197.461512 384.866887 
L 204.440505 387.722691 
L 211.950511 388.347775 
L 208.466114 387.350885 
L 210.819447 380.426879 
L 215.500338 381.254601 
L 217.995289 377.770899 
L 220.975267 368.871074 
L 221.51449 369.663322 
L 219.476716 366.930139 
L 222.883698 364.48092 
L 221.271856 363.745006 
L 217.971055 362.054239 
L 219.606754 356.480385 
L 220.67662 358.13697 
L 218.632404 356.441941 
L 221.179639 345.742792 
L 218.621672 347.57703 
L 222.612318 355.191693 
L 221.568177 357.150309 
L 232.503084 362.487207 
L 240.726789 365.351312 
L 234.360912 367.377968 
L 230.239357 371.163872 
L 243.147981 362.720617 
L 236.540871 360.991101 
L 235.97794 358.887496 
L 243.942666 359.638755 
L 245.004665 360.707621 
L 251.886613 358.927615 
L 246.365218 369.29783 
L 244.648849 376.83602 
L 245.574036 373.178188 
L 247.426978 372.286027 
L 233.459584 369.037618 
L 228.806491 370.905716 
L 240.898224 363.588771 
L 245.025616 361.77998 
L 241.705937 364.623513 
L 240.376223 354.063686 
L 253.780916 357.664203 
L 252.308113 364.096436 
L 255.03731 367.029819 
L 256.872508 369.462238 
L 260.362939 361.52465 
L 263.825778 362.019258 
L 276.476451 362.582819 
L 281.662548 367.459698 
L 281.803164 372.607499 
L 282.297592 371.812376 
L 294.292127 367.43762 
L 300.434609 367.729626 
L 295.613458 353.980923 
L 306.838031 352.320107 
L 304.968995 347.618641 
L 306.953278 355.07586 
L 307.306627 355.394418 
L 308.311632 354.951768 
L 300.842226 364.111223 
L 299.781217 355.680582 
L 300.82024 360.737649 
L 306.074543 356.179688 
L 300.13326 360.005885 
L 292.692655 353.186571 
L 297.647218 353.481824 
L 294.066941 364.086725 
L 297.913421 357.03343 
L 301.214099 364.289146 
L 304.632488 359.86715 
L 309.98717 351.992586 
L 317.259821 347.308387 
L 317.807051 343.979156 
L 317.638103 343.29298 
L 323.636975 351.237451 
L 315.8847 353.616997 
L 316.986962 348.080663 
L 321.429896 347.347293 
L 319.002788 335.332118 
L 315.203995 330.902061 
L 311.3934 319.977302 
L 315.975155 321.62914 
L 315.682929 319.644861 
L 321.002458 331.119559 
L 331.878804 330.881624 
L 331.754978 326.060648 
L 335.511928 330.326245 
L 332.855986 329.188293 
L 321.629512 329.071661 
L 319.854864 329.780697 
L 316.272418 326.013483 
L 321.858994 319.970511 
L 323.088912 322.136646 
L 325.576836 324.515057 
L 332.95072 323.054706 
L 331.575115 330.780203 
L 321.248246 336.563058 
L 324.108605 332.957763 
L 319.8778 322.312225 
L 324.857984 319.969898 
L 332.030738 322.500349 
L 330.885939 326.753796 
L 331.30985 327.55844 
L 327.247104 324.191759 
L 324.166946 327.568608 
L 323.758901 322.918611 
L 322.320528 317.98919 
L 321.024369 319.429638 
L 321.945401 330.590174 
L 315.081198 334.248346 
L 323.048425 340.381312 
L 320.37753 333.360878 
L 320.232056 329.591271 
L 321.798755 338.869992 
L 327.989321 346.956869 
L 328.420454 345.27174 
L 320.304888 330.293071 
L 318.233975 321.455842 
L 310.611093 321.476563 
L 313.785055 313.821056 
L 302.612404 316.587474 
L 306.207784 312.347983 
L 317.040377 308.643311 
L 320.762925 313.749429 
L 326.318196 311.01902 
L 318.123387 310.127963 
L 312.205443 313.143942 
L 312.511606 309.982187 
L 306.466968 309.392447 
L 300.086934 307.914072 
L 298.135566 307.709939 
L 291.332106 305.33301 
L 287.836227 304.552179 
L 285.738386 298.085492 
L 288.296775 296.129502 
L 297.934014 298.792092 
L 295.865601 288.877216 
L 301.293962 291.411949 
L 301.67926 301.069249 
L 302.15556 300.966028 
L 295.484734 299.976166 
L 296.94075 299.04907 
L 301.7103 301.043178 
L 300.222203 301.7918 
L 298.994299 294.021385 
L 291.882939 288.846439 
L 293.993428 292.556949 
L 296.346832 282.155219 
L 303.10439 275.315141 
L 301.803496 270.506986 
L 306.379443 272.803107 
L 313.600573 271.641809 
L 314.677941 276.974954 
L 321.0729 282.544055 
L 324.863487 284.472716 
L 325.651739 286.252675 
L 321.023839 284.874292 
L 319.665587 283.234774 
L 323.206781 284.100534 
L 317.222963 278.449341 
L 324.690651 273.417763 
L 314.698369 270.772292 
L 316.344054 264.540441 
L 320.33419 262.071004 
L 318.223714 256.10156 
L 319.664061 258.793213 
L 311.663002 257.789735 
L 318.736394 254.302093 
L 308.959112 252.059743 
L 319.636462 258.351546 
L 329.008812 259.069757 
L 319.64624 259.698659 
L 325.908776 258.365538 
L 325.314243 256.783645 
L 315.375655 254.225464 
L 317.765959 260.697469 
L 315.423004 261.143493 
L 318.812625 264.892992 
L 323.253559 282.496828 
L 323.292766 283.740849 
L 323.827469 289.052868 
L 324.515774 288.169485 
L 331.347779 282.929371 
L 327.850194 277.676347 
L 316.699008 272.520223 
L 314.02202 273.525372 
L 315.346292 272.520395 
L 317.310025 280.275203 
L 318.477774 286.398385 
L 317.076775 279.827955 
L 315.04805 275.352189 
L 312.245928 277.816407 
L 319.185645 274.266285 
L 327.327258 275.841789 
L 328.004406 280.677513 
L 326.936522 272.484044 
L 324.524053 272.977288 
L 322.579682 274.005825 
L 317.688975 275.810811 
L 313.044058 273.651393 
L 305.771762 278.7411 
L 315.433539 281.000665 
L 302.10874 282.716145 
L 310.16316 286.218588 
L 311.948715 281.761853 
L 309.692577 285.012425 
L 313.698369 281.662884 
L 304.963428 280.613052 
L 304.121869 273.481088 
L 305.014959 269.824681 
L 291.25333 271.951613 
L 289.810426 273.132752 
L 293.786245 272.626917 
L 300.510844 270.328796 
L 302.430886 276.621942 
L 291.501634 264.599212 
L 302.9539 260.061986 
L 299.07297 258.590906 
L 305.249556 257.011746 
L 301.31322 264.101356 
L 306.12785 265.383713 
L 303.886648 267.045111 
L 297.818802 260.735916 
L 296.824365 262.243664 
L 292.357308 264.664148 
L 295.918419 266.298817 
L 295.520161 270.740593 
L 293.380732 268.6242 
L 291.674252 265.558643 
L 298.653181 267.344381 
L 282.660513 272.290551 
L 279.563781 267.154772 
L 274.055977 267.923447 
L 271.818456 275.805415 
L 273.035535 263.943449 
L 274.350833 268.546052 
L 272.340956 259.414147 
L 276.087232 256.113508 
L 278.428396 258.975521 
L 277.083835 262.155822 
L 282.779108 258.537447 
L 282.664459 253.183354 
L 279.203859 255.414973 
L 276.590213 262.738227 
L 277.143673 265.664366 
L 283.485023 267.566118 
L 280.823998 268.623749 
L 283.954904 261.062101 
L 283.704403 268.944672 
L 287.111814 267.647755 
L 288.448218 261.577378 
L 297.876811 258.825615 
L 297.636681 262.353948 
L 299.676699 266.885487 
L 302.026204 270.66092 
L 304.955783 269.590624 
L 314.048723 259.279575 
L 306.030706 262.57484 
L 299.951567 260.70361 
L 301.254061 256.083605 
L 306.088773 255.182656 
L 308.100571 247.722997 
L 310.268812 240.797051 
L 315.937675 241.597609 
L 308.111437 235.583793 
L 311.843021 230.657632 
L 318.464726 232.652988 
L 316.172507 228.750843 
L 318.200031 222.297504 
L 322.611635 219.476075 
L 326.269911 220.338906 
L 324.878214 226.558853 
L 323.98124 218.363984 
L 316.633328 219.10203 
L 317.091444 209.489928 
L 310.721834 213.379089 
L 316.590036 220.675757 
L 312.665126 223.001738 
L 314.564686 217.924282 
L 327.479944 219.2008 
L 320.807169 221.465899 
L 320.479357 221.82024 
L 324.871972 218.620481 
L 332.356318 221.138861 
L 335.499177 213.754339 
L 347.84896 220.638468 
L 338.495795 223.978468 
L 333.097478 223.160592 
L 327.72607 218.289449 
L 330.923947 213.622396 
L 326.644115 219.629605 
L 334.228988 221.758517 
L 336.842957 219.009046 
L 339.94288 219.173299 
L 345.855078 216.216385 
L 331.421245 216.176773 
L 339.716845 226.542467 
L 341.782031 224.380725 
L 341.514173 234.195187 
L 353.560368 229.662146 
L 348.87978 225.155999 
L 343.789851 221.75664 
L 352.221746 212.597798 
L 351.125923 222.110705 
L 350.220128 224.565253 
L 351.93114 224.125478 
L 352.440011 229.238275 
L 355.960244 226.848948 
L 363.299224 235.17047 
L 368.914511 240.336176 
L 376.859149 244.726823 
L 379.381585 250.876162 
L 373.571029 253.358917 
L 369.097429 251.141214 
L 368.309276 248.223822 
L 368.87157 249.371257 
L 358.595621 250.193837 
L 352.292878 244.731641 
L 354.568467 244.054408 
L 358.97937 239.491371 
L 359.21737 239.523949 
L 342.66768 239.740002 
L 338.689432 230.765038 
L 331.509597 225.007129 
L 340.702946 222.229764 
L 344.685157 218.954261 
L 340.760921 211.186099 
L 346.516225 222.417364 
L 345.158743 223.414531 
L 346.131579 225.353887 
L 332.209832 224.753531 
L 337.258684 232.568406 
L 348.119882 231.977876 
L 351.257881 229.818005 
L 353.078179 227.787898 
L 351.15089 232.153937 
L 346.324833 227.798322 
L 341.662472 223.861503 
L 339.563777 231.983228 
L 336.332473 233.191032 
L 336.367516 231.038169 
L 336.716354 235.257696 
L 340.74378 229.894691 
L 350.083133 242.584383 
L 346.306951 248.025703 
L 341.140106 233.386425 
L 334.840173 234.715764 
L 341.414767 234.813177 
L 349.733655 233.017716 
L 349.608718 222.834766 
L 339.73569 231.256309 
L 336.687448 235.370372 
L 348.90439 237.689911 
L 355.104218 239.813246 
L 359.332143 246.049852 
L 352.685478 246.615999 
L 349.321724 242.874212 
L 349.814544 244.423103 
L 350.558319 245.792079 
L 339.995566 252.008579 
L 332.971846 252.195817 
L 332.971846 252.195817 
" clip-path="url(#p1a67032b90)" style="fill: none; stroke: #ff0000; stroke-opacity: 0.8; stroke-width: 1.5; stroke-linecap: square"/>
   </g>
   <g id="text_21">
    <!-- 3D Wiener Processes (T=10.00, μ=0.1) -->
    <g transform="translate(166.797187 16.318125) scale(0.12 -0.12)">
     <defs>
      <path id="DejaVuSans-33" d="M 2597 2516 
Q 3050 2419 3304 2112 
Q 3559 1806 3559 1356 
Q 3559 666 3084 287 
Q 2609 -91 1734 -91 
Q 1441 -91 1130 -33 
Q 819 25 488 141 
L 488 750 
Q 750 597 1062 519 
Q 1375 441 1716 441 
Q 2309 441 2620 675 
Q 2931 909 2931 1356 
Q 2931 1769 2642 2001 
Q 2353 2234 1838 2234 
L 1294 2234 
L 1294 2753 
L 1863 2753 
Q 2328 2753 2575 2939 
Q 2822 3125 2822 3475 
Q 2822 3834 2567 4026 
Q 2313 4219 1838 4219 
Q 1578 4219 1281 4162 
Q 984 4106 628 3988 
L 628 4550 
Q 988 4650 1302 4700 
Q 1616 4750 1894 4750 
Q 2613 4750 3031 4423 
Q 3450 4097 3450 3541 
Q 3450 3153 3228 2886 
Q 3006 2619 2597 2516 
z
" transform="scale(0.015625)"/>
      <path id="DejaVuSans-44" d="M 1259 4147 
L 1259 519 
L 2022 519 
Q 2988 519 3436 956 
Q 3884 1394 3884 2338 
Q 3884 3275 3436 3711 
Q 2988 4147 2022 4147 
L 1259 4147 
z
M 628 4666 
L 1925 4666 
Q 3281 4666 3915 4102 
Q 4550 3538 4550 2338 
Q 4550 1131 3912 565 
Q 3275 0 1925 0 
L 628 0 
L 628 4666 
z
" transform="scale(0.015625)"/>
      <path id="DejaVuSans-20" transform="scale(0.015625)"/>
      <path id="DejaVuSans-57" d="M 213 4666 
L 850 4666 
L 1831 722 
L 2809 4666 
L 3519 4666 
L 4500 722 
L 5478 4666 
L 6119 4666 
L 4947 0 
L 4153 0 
L 3169 4050 
L 2175 0 
L 1381 0 
L 213 4666 
z
" transform="scale(0.015625)"/>
      <path id="DejaVuSans-65" d="M 3597 1894 
L 3597 1613 
L 953 1613 
Q 991 1019 1311 708 
Q 1631 397 2203 397 
Q 2534 397 2845 478 
Q 3156 559 3463 722 
L 3463 178 
Q 3153 47 2828 -22 
Q 2503 -91 2169 -91 
Q 1331 -91 842 396 
Q 353 884 353 1716 
Q 353 2575 817 3079 
Q 1281 3584 2069 3584 
Q 2775 3584 3186 3129 
Q 3597 2675 3597 1894 
z
M 3022 2063 
Q 3016 2534 2758 2815 
Q 2500 3097 2075 3097 
Q 1594 3097 1305 2825 
Q 1016 2553 972 2059 
L 3022 2063 
z
" transform="scale(0.015625)"/>
      <path id="DejaVuSans-6e" d="M 3513 2113 
L 3513 0 
L 2938 0 
L 2938 2094 
Q 2938 2591 2744 2837 
Q 2550 3084 2163 3084 
Q 1697 3084 1428 2787 
Q 1159 2491 1159 1978 
L 1159 0 
L 581 0 
L 581 3500 
L 1159 3500 
L 1159 2956 
Q 1366 3272 1645 3428 
Q 1925 3584 2291 3584 
Q 2894 3584 3203 3211 
Q 3513 2838 3513 2113 
z
" transform="scale(0.015625)"/>
      <path id="DejaVuSans-72" d="M 2631 2963 
Q 2534 3019 2420 3045 
Q 2306 3072 2169 3072 
Q 1681 3072 1420 2755 
Q 1159 2438 1159 1844 
L 1159 0 
L 581 0 
L 581 3500 
L 1159 3500 
L 1159 2956 
Q 1341 3275 1631 3429 
Q 1922 3584 2338 3584 
Q 2397 3584 2469 3576 
Q 2541 3569 2628 3553 
L 2631 2963 
z
" transform="scale(0.015625)"/>
      <path id="DejaVuSans-50" d="M 1259 4147 
L 1259 2394 
L 2053 2394 
Q 2494 2394 2734 2622 
Q 2975 2850 2975 3272 
Q 2975 3691 2734 3919 
Q 2494 4147 2053 4147 
L 1259 4147 
z
M 628 4666 
L 2053 4666 
Q 2838 4666 3239 4311 
Q 3641 3956 3641 3272 
Q 3641 2581 3239 2228 
Q 2838 1875 2053 1875 
L 1259 1875 
L 1259 0 
L 628 0 
L 628 4666 
z
" transform="scale(0.015625)"/>
      <path id="DejaVuSans-6f" d="M 1959 3097 
Q 1497 3097 1228 2736 
Q 959 2375 959 1747 
Q 959 1119 1226 758 
Q 1494 397 1959 397 
Q 2419 397 2687 759 
Q 2956 1122 2956 1747 
Q 2956 2369 2687 2733 
Q 2419 3097 1959 3097 
z
M 1959 3584 
Q 2709 3584 3137 3096 
Q 3566 2609 3566 1747 
Q 3566 888 3137 398 
Q 2709 -91 1959 -91 
Q 1206 -91 779 398 
Q 353 888 353 1747 
Q 353 2609 779 3096 
Q 1206 3584 1959 3584 
z
" transform="scale(0.015625)"/>
      <path id="DejaVuSans-63" d="M 3122 3366 
L 3122 2828 
Q 2878 2963 2633 3030 
Q 2388 3097 2138 3097 
Q 1578 3097 1268 2742 
Q 959 2388 959 1747 
Q 959 1106 1268 751 
Q 1578 397 2138 397 
Q 2388 397 2633 464 
Q 2878 531 3122 666 
L 3122 134 
Q 2881 22 2623 -34 
Q 2366 -91 2075 -91 
Q 1284 -91 818 406 
Q 353 903 353 1747 
Q 353 2603 823 3093 
Q 1294 3584 2113 3584 
Q 2378 3584 2631 3529 
Q 2884 3475 3122 3366 
z
" transform="scale(0.015625)"/>
      <path id="DejaVuSans-28" d="M 1984 4856 
Q 1566 4138 1362 3434 
Q 1159 2731 1159 2009 
Q 1159 1288 1364 580 
Q 1569 -128 1984 -844 
L 1484 -844 
Q 1016 -109 783 600 
Q 550 1309 550 2009 
Q 550 2706 781 3412 
Q 1013 4119 1484 4856 
L 1984 4856 
z
" transform="scale(0.015625)"/>
      <path id="DejaVuSans-54" d="M -19 4666 
L 3928 4666 
L 3928 4134 
L 2272 4134 
L 2272 0 
L 1638 0 
L 1638 4134 
L -19 4134 
L -19 4666 
z
" transform="scale(0.015625)"/>
      <path id="DejaVuSans-3d" d="M 678 2906 
L 4684 2906 
L 4684 2381 
L 678 2381 
L 678 2906 
z
M 678 1631 
L 4684 1631 
L 4684 1100 
L 678 1100 
L 678 1631 
z
" transform="scale(0.015625)"/>
      <path id="DejaVuSans-31" d="M 794 531 
L 1825 531 
L 1825 4091 
L 703 3866 
L 703 4441 
L 1819 4666 
L 2450 4666 
L 2450 531 
L 3481 531 
L 3481 0 
L 794 0 
L 794 531 
z
" transform="scale(0.015625)"/>
      <path id="DejaVuSans-2e" d="M 684 794 
L 1344 794 
L 1344 0 
L 684 0 
L 684 794 
z
" transform="scale(0.015625)"/>
      <path id="DejaVuSans-2c" d="M 750 794 
L 1409 794 
L 1409 256 
L 897 -744 
L 494 -744 
L 750 256 
L 750 794 
z
" transform="scale(0.015625)"/>
      <path id="DejaVuSans-3bc" d="M 544 -1331 
L 544 3500 
L 1119 3500 
L 1119 1325 
Q 1119 872 1334 640 
Q 1550 409 1972 409 
Q 2434 409 2667 671 
Q 2900 934 2900 1459 
L 2900 3500 
L 3475 3500 
L 3475 806 
Q 3475 619 3529 530 
Q 3584 441 3700 441 
Q 3728 441 3778 458 
Q 3828 475 3916 513 
L 3916 50 
Q 3788 -22 3673 -56 
Q 3559 -91 3450 -91 
Q 3234 -91 3106 31 
Q 2978 153 2931 403 
Q 2775 156 2548 32 
Q 2322 -91 2016 -91 
Q 1697 -91 1473 31 
Q 1250 153 1119 397 
L 1119 -1331 
L 544 -1331 
z
" transform="scale(0.015625)"/>
      <path id="DejaVuSans-29" d="M 513 4856 
L 1013 4856 
Q 1481 4119 1714 3412 
Q 1947 2706 1947 2009 
Q 1947 1309 1714 600 
Q 1481 -109 1013 -844 
L 513 -844 
Q 928 -128 1133 580 
Q 1338 1288 1338 2009 
Q 1338 2731 1133 3434 
Q 928 4138 513 4856 
z
" transform="scale(0.015625)"/>
     </defs>
     <use xlink:href="#DejaVuSans-33"/>
     <use xlink:href="#DejaVuSans-44" transform="translate(63.623047 0)"/>
     <use xlink:href="#DejaVuSans-20" transform="translate(140.625 0)"/>
     <use xlink:href="#DejaVuSans-57" transform="translate(172.412109 0)"/>
     <use xlink:href="#DejaVuSans-69" transform="translate(269.039062 0)"/>
     <use xlink:href="#DejaVuSans-65" transform="translate(296.822266 0)"/>
     <use xlink:href="#DejaVuSans-6e" transform="translate(358.345703 0)"/>
     <use xlink:href="#DejaVuSans-65" transform="translate(421.724609 0)"/>
     <use xlink:href="#DejaVuSans-72" transform="translate(483.248047 0)"/>
     <use xlink:href="#DejaVuSans-20" transform="translate(524.361328 0)"/>
     <use xlink:href="#DejaVuSans-50" transform="translate(556.148438 0)"/>
     <use xlink:href="#DejaVuSans-72" transform="translate(614.701172 0)"/>
     <use xlink:href="#DejaVuSans-6f" transform="translate(653.564453 0)"/>
     <use xlink:href="#DejaVuSans-63" transform="translate(714.746094 0)"/>
     <use xlink:href="#DejaVuSans-65" transform="translate(769.726562 0)"/>
     <use xlink:href="#DejaVuSans-73" transform="translate(831.25 0)"/>
     <use xlink:href="#DejaVuSans-73" transform="translate(883.349609 0)"/>
     <use xlink:href="#DejaVuSans-65" transform="translate(935.449219 0)"/>
     <use xlink:href="#DejaVuSans-73" transform="translate(996.972656 0)"/>
     <use xlink:href="#DejaVuSans-20" transform="translate(1049.072266 0)"/>
     <use xlink:href="#DejaVuSans-28" transform="translate(1080.859375 0)"/>
     <use xlink:href="#DejaVuSans-54" transform="translate(1119.873047 0)"/>
     <use xlink:href="#DejaVuSans-3d" transform="translate(1180.957031 0)"/>
     <use xlink:href="#DejaVuSans-31" transform="translate(1264.746094 0)"/>
     <use xlink:href="#DejaVuSans-30" transform="translate(1328.369141 0)"/>
     <use xlink:href="#DejaVuSans-2e" transform="translate(1391.992188 0)"/>
     <use xlink:href="#DejaVuSans-30" transform="translate(1423.779297 0)"/>
     <use xlink:href="#DejaVuSans-30" transform="translate(1487.402344 0)"/>
     <use xlink:href="#DejaVuSans-2c" transform="translate(1551.025391 0)"/>
     <use xlink:href="#DejaVuSans-20" transform="translate(1582.8125 0)"/>
     <use xlink:href="#DejaVuSans-3bc" transform="translate(1614.599609 0)"/>
     <use xlink:href="#DejaVuSans-3d" transform="translate(1678.222656 0)"/>
     <use xlink:href="#DejaVuSans-30" transform="translate(1762.011719 0)"/>
     <use xlink:href="#DejaVuSans-2e" transform="translate(1825.634766 0)"/>
     <use xlink:href="#DejaVuSans-31" transform="translate(1857.421875 0)"/>
     <use xlink:href="#DejaVuSans-29" transform="translate(1921.044922 0)"/>
    </g>
   </g>
   <g id="legend_1">
    <g id="patch_6">
     <path d="M 396.526562 59.674375 
L 554.6 59.674375 
Q 556.6 59.674375 556.6 57.674375 
L 556.6 29.318125 
Q 556.6 27.318125 554.6 27.318125 
L 396.526562 27.318125 
Q 394.526562 27.318125 394.526562 29.318125 
L 394.526562 57.674375 
Q 394.526562 59.674375 396.526562 59.674375 
z
" style="fill: #ffffff; opacity: 0.8; stroke: #cccccc; stroke-linejoin: miter"/>
    </g>
    <g id="line2d_23">
     <path d="M 398.526562 35.416563 
L 408.526562 35.416563 
L 418.526562 35.416563 
" style="fill: none; stroke: #0000ff; stroke-opacity: 0.8; stroke-width: 1.5; stroke-linecap: square"/>
    </g>
    <g id="text_22">
     <!-- Process 1 (σ=1.0, μ=0.1) -->
     <g transform="translate(426.526562 38.916563) scale(0.1 -0.1)">
      <defs>
       <path id="DejaVuSans-3c3" d="M 1959 3044 
Q 1484 3044 1228 2700 
Q 959 2341 959 1747 
Q 959 1119 1226 758 
Q 1494 397 1959 397 
Q 2419 397 2687 759 
Q 2956 1122 2956 1747 
Q 2956 2319 2688 2700 
Q 2441 3044 1959 3044 
z
M 1959 3500 
L 3869 3500 
L 3869 2925 
L 3225 2925 
Q 3566 2438 3566 1747 
Q 3566 888 3138 400 
Q 2709 -91 1959 -91 
Q 1206 -91 781 400 
Q 353 888 353 1747 
Q 353 2613 781 3097 
Q 1134 3500 1959 3500 
z
" transform="scale(0.015625)"/>
      </defs>
      <use xlink:href="#DejaVuSans-50"/>
      <use xlink:href="#DejaVuSans-72" transform="translate(58.552734 0)"/>
      <use xlink:href="#DejaVuSans-6f" transform="translate(97.416016 0)"/>
      <use xlink:href="#DejaVuSans-63" transform="translate(158.597656 0)"/>
      <use xlink:href="#DejaVuSans-65" transform="translate(213.578125 0)"/>
      <use xlink:href="#DejaVuSans-73" transform="translate(275.101562 0)"/>
      <use xlink:href="#DejaVuSans-73" transform="translate(327.201172 0)"/>
      <use xlink:href="#DejaVuSans-20" transform="translate(379.300781 0)"/>
      <use xlink:href="#DejaVuSans-31" transform="translate(411.087891 0)"/>
      <use xlink:href="#DejaVuSans-20" transform="translate(474.710938 0)"/>
      <use xlink:href="#DejaVuSans-28" transform="translate(506.498047 0)"/>
      <use xlink:href="#DejaVuSans-3c3" transform="translate(545.511719 0)"/>
      <use xlink:href="#DejaVuSans-3d" transform="translate(608.890625 0)"/>
      <use xlink:href="#DejaVuSans-31" transform="translate(692.679688 0)"/>
      <use xlink:href="#DejaVuSans-2e" transform="translate(756.302734 0)"/>
      <use xlink:href="#DejaVuSans-30" transform="translate(788.089844 0)"/>
      <use xlink:href="#DejaVuSans-2c" transform="translate(851.712891 0)"/>
      <use xlink:href="#DejaVuSans-20" transform="translate(883.5 0)"/>
      <use xlink:href="#DejaVuSans-3bc" transform="translate(915.287109 0)"/>
      <use xlink:href="#DejaVuSans-3d" transform="translate(978.910156 0)"/>
      <use xlink:href="#DejaVuSans-30" transform="translate(1062.699219 0)"/>
      <use xlink:href="#DejaVuSans-2e" transform="translate(1126.322266 0)"/>
      <use xlink:href="#DejaVuSans-31" transform="translate(1158.109375 0)"/>
      <use xlink:href="#DejaVuSans-29" transform="translate(1221.732422 0)"/>
     </g>
    </g>
    <g id="line2d_24">
     <path d="M 398.526562 50.094688 
L 408.526562 50.094688 
L 418.526562 50.094688 
" style="fill: none; stroke: #ff0000; stroke-opacity: 0.8; stroke-width: 1.5; stroke-linecap: square"/>
    </g>
    <g id="text_23">
     <!-- Process 2 (σ=2.0, μ=0.1) -->
     <g transform="translate(426.526562 53.594688) scale(0.1 -0.1)">
      <use xlink:href="#DejaVuSans-50"/>
      <use xlink:href="#DejaVuSans-72" transform="translate(58.552734 0)"/>
      <use xlink:href="#DejaVuSans-6f" transform="translate(97.416016 0)"/>
      <use xlink:href="#DejaVuSans-63" transform="translate(158.597656 0)"/>
      <use xlink:href="#DejaVuSans-65" transform="translate(213.578125 0)"/>
      <use xlink:href="#DejaVuSans-73" transform="translate(275.101562 0)"/>
      <use xlink:href="#DejaVuSans-73" transform="translate(327.201172 0)"/>
      <use xlink:href="#DejaVuSans-20" transform="translate(379.300781 0)"/>
      <use xlink:href="#DejaVuSans-32" transform="translate(411.087891 0)"/>
      <use xlink:href="#DejaVuSans-20" transform="translate(474.710938 0)"/>
      <use xlink:href="#DejaVuSans-28" transform="translate(506.498047 0)"/>
      <use xlink:href="#DejaVuSans-3c3" transform="translate(545.511719 0)"/>
      <use xlink:href="#DejaVuSans-3d" transform="translate(608.890625 0)"/>
      <use xlink:href="#DejaVuSans-32" transform="translate(692.679688 0)"/>
      <use xlink:href="#DejaVuSans-2e" transform="translate(756.302734 0)"/>
      <use xlink:href="#DejaVuSans-30" transform="translate(788.089844 0)"/>
      <use xlink:href="#DejaVuSans-2c" transform="translate(851.712891 0)"/>
      <use xlink:href="#DejaVuSans-20" transform="translate(883.5 0)"/>
      <use xlink:href="#DejaVuSans-3bc" transform="translate(915.287109 0)"/>
      <use xlink:href="#DejaVuSans-3d" transform="translate(978.910156 0)"/>
      <use xlink:href="#DejaVuSans-30" transform="translate(1062.699219 0)"/>
      <use xlink:href="#DejaVuSans-2e" transform="translate(1126.322266 0)"/>
      <use xlink:href="#DejaVuSans-31" transform="translate(1158.109375 0)"/>
      <use xlink:href="#DejaVuSans-29" transform="translate(1221.732422 0)"/>
     </g>
    </g>
   </g>
  </g>
 </g>
 <defs>
  <clipPath id="p1a67032b90">
   <rect x="7.2" y="22.318125" width="554.4" height="554.4"/>
  </clipPath>
 </defs>
</svg>
