<?xml version="1.0" encoding="utf-8" standalone="no"?>
<!DOCTYPE svg PUBLIC "-//W3C//DTD SVG 1.1//EN"
  "http://www.w3.org/Graphics/SVG/1.1/DTD/svg11.dtd">
<svg xmlns:xlink="http://www.w3.org/1999/xlink" width="568.8pt" height="583.918125pt" viewBox="0 0 568.8 583.918125" xmlns="http://www.w3.org/2000/svg" version="1.1">
 <metadata>
  <rdf:RDF xmlns:dc="http://purl.org/dc/elements/1.1/" xmlns:cc="http://creativecommons.org/ns#" xmlns:rdf="http://www.w3.org/1999/02/22-rdf-syntax-ns#">
   <cc:Work>
    <dc:type rdf:resource="http://purl.org/dc/dcmitype/StillImage"/>
    <dc:date>2025-11-02T01:41:16.877090</dc:date>
    <dc:format>image/svg+xml</dc:format>
    <dc:creator>
     <cc:Agent>
      <dc:title>Matplotlib v3.10.7, https://matplotlib.org/</dc:title>
     </cc:Agent>
    </dc:creator>
   </cc:Work>
  </rdf:RDF>
 </metadata>
 <defs>
  <style type="text/css">*{stroke-linejoin: round; stroke-linecap: butt}</style>
 </defs>
 <g id="figure_1">
  <g id="patch_1">
   <path d="M 0 583.918125 
L 568.8 583.918125 
L 568.8 0 
L 0 0 
z
" style="fill: #ffffff"/>
  </g>
  <g id="patch_2">
   <path d="M 7.2 576.718125 
L 561.6 576.718125 
L 561.6 22.318125 
L 7.2 22.318125 
z
" style="fill: #ffffff"/>
  </g>
  <g id="pane3d_1">
   <g id="patch_3">
    <path d="M 49.061023 440.020852 
L 232.142009 286.558739 
L 229.597008 65.238939 
L 37.754653 205.236752 
" style="fill: #f2f2f2; opacity: 0.5; stroke: #f2f2f2; stroke-linejoin: miter"/>
   </g>
  </g>
  <g id="pane3d_2">
   <g id="patch_4">
    <path d="M 232.142009 286.558739 
L 525.921668 371.948888 
L 536.405628 143.005981 
L 229.597008 65.238939 
" style="fill: #e6e6e6; opacity: 0.5; stroke: #e6e6e6; stroke-linejoin: miter"/>
   </g>
  </g>
  <g id="pane3d_3">
   <g id="patch_5">
    <path d="M 49.061023 440.020852 
L 360.48181 541.730881 
L 525.921668 371.948888 
L 232.142009 286.558739 
" style="fill: #ececec; opacity: 0.5; stroke: #ececec; stroke-linejoin: miter"/>
   </g>
  </g>
  <g id="grid3d_1">
   <g id="Line3DCollection_1">
    <path d="M 80.50137 450.289269 
L 261.919281 295.213817 
L 260.63594 73.106404 
" style="fill: none; stroke: #b0b0b0; stroke-width: 0.8"/>
    <path d="M 135.259559 468.173294 
L 313.717532 310.269523 
L 314.660512 86.800058 
" style="fill: none; stroke: #b0b0b0; stroke-width: 0.8"/>
    <path d="M 191.064813 486.39929 
L 366.423488 325.589064 
L 369.673079 100.74414 
" style="fill: none; stroke: #b0b0b0; stroke-width: 0.8"/>
    <path d="M 247.947453 504.97716 
L 420.061219 341.179435 
L 425.700995 114.945584 
" style="fill: none; stroke: #b0b0b0; stroke-width: 0.8"/>
    <path d="M 305.938984 523.917194 
L 474.655655 357.047882 
L 482.772631 129.41158 
" style="fill: none; stroke: #b0b0b0; stroke-width: 0.8"/>
   </g>
  </g>
  <g id="grid3d_2">
   <g id="Line3DCollection_2">
    <path d="M 44.522721 200.297724 
L 55.496377 434.626611 
L 366.321896 535.737516 
" style="fill: none; stroke: #b0b0b0; stroke-width: 0.8"/>
    <path d="M 72.415046 179.943176 
L 82.035705 412.38082 
L 390.387166 511.040628 
" style="fill: none; stroke: #b0b0b0; stroke-width: 0.8"/>
    <path d="M 99.622859 160.088153 
L 107.95194 390.657318 
L 413.857679 486.954109 
" style="fill: none; stroke: #b0b0b0; stroke-width: 0.8"/>
    <path d="M 126.171053 140.714491 
L 133.266771 369.437925 
L 436.755213 463.455606 
" style="fill: none; stroke: #b0b0b0; stroke-width: 0.8"/>
    <path d="M 152.083327 121.804893 
L 158.000891 348.705294 
L 459.100498 440.523846 
" style="fill: none; stroke: #b0b0b0; stroke-width: 0.8"/>
    <path d="M 177.382261 103.342884 
L 182.174057 328.442868 
L 480.913274 418.138572 
" style="fill: none; stroke: #b0b0b0; stroke-width: 0.8"/>
    <path d="M 202.089376 85.312757 
L 205.805137 308.634828 
L 502.212354 396.280477 
" style="fill: none; stroke: #b0b0b0; stroke-width: 0.8"/>
    <path d="M 226.225198 67.699533 
L 228.912163 289.266061 
L 523.015671 374.931155 
" style="fill: none; stroke: #b0b0b0; stroke-width: 0.8"/>
   </g>
  </g>
  <g id="grid3d_3">
   <g id="Line3DCollection_3">
    <path d="M 527.057794 347.138793 
L 231.865693 262.529563 
L 47.837615 414.615984 
" style="fill: none; stroke: #b0b0b0; stroke-width: 0.8"/>
    <path d="M 529.050416 303.625027 
L 231.381374 220.411993 
L 45.690832 370.036649 
" style="fill: none; stroke: #b0b0b0; stroke-width: 0.8"/>
    <path d="M 531.077094 259.367553 
L 230.889177 177.609248 
L 43.505947 324.666084 
" style="fill: none; stroke: #b0b0b0; stroke-width: 0.8"/>
    <path d="M 533.138709 214.34714 
L 230.388907 134.10447 
L 41.281935 278.483037 
" style="fill: none; stroke: #b0b0b0; stroke-width: 0.8"/>
    <path d="M 535.236173 168.543888 
L 229.880363 89.880246 
L 39.017736 231.465485 
" style="fill: none; stroke: #b0b0b0; stroke-width: 0.8"/>
   </g>
  </g>
  <g id="axis3d_1">
   <g id="line2d_1">
    <path d="M 49.061023 440.020852 
L 360.48181 541.730881 
" style="fill: none; stroke: #000000; stroke-width: 0.8; stroke-linecap: square"/>
   </g>
   <g id="xtick_1">
    <g id="line2d_2">
     <path d="M 82.081426 448.938642 
L 77.334461 452.996332 
" style="fill: none; stroke: #000000; stroke-width: 0.8; stroke-linecap: square"/>
    </g>
    <g id="text_1">
     <!-- −6 -->
     <g transform="translate(65.621789 473.609689) scale(0.1 -0.1)">
      <defs>
       <path id="DejaVuSans-2212" d="M 678 2272 
L 4684 2272 
L 4684 1741 
L 678 1741 
L 678 2272 
z
" transform="scale(0.015625)"/>
       <path id="DejaVuSans-36" d="M 2113 2584 
Q 1688 2584 1439 2293 
Q 1191 2003 1191 1497 
Q 1191 994 1439 701 
Q 1688 409 2113 409 
Q 2538 409 2786 701 
Q 3034 994 3034 1497 
Q 3034 2003 2786 2293 
Q 2538 2584 2113 2584 
z
M 3366 4563 
L 3366 3988 
Q 3128 4100 2886 4159 
Q 2644 4219 2406 4219 
Q 1781 4219 1451 3797 
Q 1122 3375 1075 2522 
Q 1259 2794 1537 2939 
Q 1816 3084 2150 3084 
Q 2853 3084 3261 2657 
Q 3669 2231 3669 1497 
Q 3669 778 3244 343 
Q 2819 -91 2113 -91 
Q 1303 -91 875 529 
Q 447 1150 447 2328 
Q 447 3434 972 4092 
Q 1497 4750 2381 4750 
Q 2619 4750 2861 4703 
Q 3103 4656 3366 4563 
z
" transform="scale(0.015625)"/>
      </defs>
      <use xlink:href="#DejaVuSans-2212"/>
      <use xlink:href="#DejaVuSans-36" transform="translate(83.789062 0)"/>
     </g>
    </g>
   </g>
   <g id="xtick_2">
    <g id="line2d_3">
     <path d="M 136.815035 466.796973 
L 132.141856 470.93191 
" style="fill: none; stroke: #000000; stroke-width: 0.8; stroke-linecap: square"/>
    </g>
    <g id="text_2">
     <!-- −4 -->
     <g transform="translate(120.407399 491.675094) scale(0.1 -0.1)">
      <defs>
       <path id="DejaVuSans-34" d="M 2419 4116 
L 825 1625 
L 2419 1625 
L 2419 4116 
z
M 2253 4666 
L 3047 4666 
L 3047 1625 
L 3713 1625 
L 3713 1100 
L 3047 1100 
L 3047 0 
L 2419 0 
L 2419 1100 
L 313 1100 
L 313 1709 
L 2253 4666 
z
" transform="scale(0.015625)"/>
      </defs>
      <use xlink:href="#DejaVuSans-2212"/>
      <use xlink:href="#DejaVuSans-34" transform="translate(83.789062 0)"/>
     </g>
    </g>
   </g>
   <g id="xtick_3">
    <g id="line2d_4">
     <path d="M 192.594474 484.996535 
L 187.998787 489.210946 
" style="fill: none; stroke: #000000; stroke-width: 0.8; stroke-linecap: square"/>
    </g>
    <g id="text_3">
     <!-- −2 -->
     <g transform="translate(176.242503 510.086567) scale(0.1 -0.1)">
      <defs>
       <path id="DejaVuSans-32" d="M 1228 531 
L 3431 531 
L 3431 0 
L 469 0 
L 469 531 
Q 828 903 1448 1529 
Q 2069 2156 2228 2338 
Q 2531 2678 2651 2914 
Q 2772 3150 2772 3378 
Q 2772 3750 2511 3984 
Q 2250 4219 1831 4219 
Q 1534 4219 1204 4116 
Q 875 4013 500 3803 
L 500 4441 
Q 881 4594 1212 4672 
Q 1544 4750 1819 4750 
Q 2544 4750 2975 4387 
Q 3406 4025 3406 3419 
Q 3406 3131 3298 2873 
Q 3191 2616 2906 2266 
Q 2828 2175 2409 1742 
Q 1991 1309 1228 531 
z
" transform="scale(0.015625)"/>
      </defs>
      <use xlink:href="#DejaVuSans-2212"/>
      <use xlink:href="#DejaVuSans-32" transform="translate(83.789062 0)"/>
     </g>
    </g>
   </g>
   <g id="xtick_4">
    <g id="line2d_5">
     <path d="M 249.450009 503.547203 
L 244.935692 507.843401 
" style="fill: none; stroke: #000000; stroke-width: 0.8; stroke-linecap: square"/>
    </g>
    <g id="text_4">
     <!-- 0 -->
     <g transform="translate(237.347394 528.854148) scale(0.1 -0.1)">
      <defs>
       <path id="DejaVuSans-30" d="M 2034 4250 
Q 1547 4250 1301 3770 
Q 1056 3291 1056 2328 
Q 1056 1369 1301 889 
Q 1547 409 2034 409 
Q 2525 409 2770 889 
Q 3016 1369 3016 2328 
Q 3016 3291 2770 3770 
Q 2525 4250 2034 4250 
z
M 2034 4750 
Q 2819 4750 3233 4129 
Q 3647 3509 3647 2328 
Q 3647 1150 3233 529 
Q 2819 -91 2034 -91 
Q 1250 -91 836 529 
Q 422 1150 422 2328 
Q 422 3509 836 4129 
Q 1250 4750 2034 4750 
z
" transform="scale(0.015625)"/>
      </defs>
      <use xlink:href="#DejaVuSans-30"/>
     </g>
    </g>
   </g>
   <g id="xtick_5">
    <g id="line2d_6">
     <path d="M 307.413083 522.459235 
L 302.9842 526.839625 
" style="fill: none; stroke: #000000; stroke-width: 0.8; stroke-linecap: square"/>
    </g>
    <g id="text_5">
     <!-- 2 -->
     <g transform="translate(295.37402 547.988269) scale(0.1 -0.1)">
      <use xlink:href="#DejaVuSans-32"/>
     </g>
    </g>
   </g>
   <g id="text_6">
    <!-- X-axis -->
    <g transform="translate(169.333261 522.622855) rotate(-341.912962) scale(0.1 -0.1)">
     <defs>
      <path id="DejaVuSans-58" d="M 403 4666 
L 1081 4666 
L 2241 2931 
L 3406 4666 
L 4084 4666 
L 2584 2425 
L 4184 0 
L 3506 0 
L 2194 1984 
L 872 0 
L 191 0 
L 1856 2491 
L 403 4666 
z
" transform="scale(0.015625)"/>
      <path id="DejaVuSans-2d" d="M 313 2009 
L 1997 2009 
L 1997 1497 
L 313 1497 
L 313 2009 
z
" transform="scale(0.015625)"/>
      <path id="DejaVuSans-61" d="M 2194 1759 
Q 1497 1759 1228 1600 
Q 959 1441 959 1056 
Q 959 750 1161 570 
Q 1363 391 1709 391 
Q 2188 391 2477 730 
Q 2766 1069 2766 1631 
L 2766 1759 
L 2194 1759 
z
M 3341 1997 
L 3341 0 
L 2766 0 
L 2766 531 
Q 2569 213 2275 61 
Q 1981 -91 1556 -91 
Q 1019 -91 701 211 
Q 384 513 384 1019 
Q 384 1609 779 1909 
Q 1175 2209 1959 2209 
L 2766 2209 
L 2766 2266 
Q 2766 2663 2505 2880 
Q 2244 3097 1772 3097 
Q 1472 3097 1187 3025 
Q 903 2953 641 2809 
L 641 3341 
Q 956 3463 1253 3523 
Q 1550 3584 1831 3584 
Q 2591 3584 2966 3190 
Q 3341 2797 3341 1997 
z
" transform="scale(0.015625)"/>
      <path id="DejaVuSans-78" d="M 3513 3500 
L 2247 1797 
L 3578 0 
L 2900 0 
L 1881 1375 
L 863 0 
L 184 0 
L 1544 1831 
L 300 3500 
L 978 3500 
L 1906 2253 
L 2834 3500 
L 3513 3500 
z
" transform="scale(0.015625)"/>
      <path id="DejaVuSans-69" d="M 603 3500 
L 1178 3500 
L 1178 0 
L 603 0 
L 603 3500 
z
M 603 4863 
L 1178 4863 
L 1178 4134 
L 603 4134 
L 603 4863 
z
" transform="scale(0.015625)"/>
      <path id="DejaVuSans-73" d="M 2834 3397 
L 2834 2853 
Q 2591 2978 2328 3040 
Q 2066 3103 1784 3103 
Q 1356 3103 1142 2972 
Q 928 2841 928 2578 
Q 928 2378 1081 2264 
Q 1234 2150 1697 2047 
L 1894 2003 
Q 2506 1872 2764 1633 
Q 3022 1394 3022 966 
Q 3022 478 2636 193 
Q 2250 -91 1575 -91 
Q 1294 -91 989 -36 
Q 684 19 347 128 
L 347 722 
Q 666 556 975 473 
Q 1284 391 1588 391 
Q 1994 391 2212 530 
Q 2431 669 2431 922 
Q 2431 1156 2273 1281 
Q 2116 1406 1581 1522 
L 1381 1569 
Q 847 1681 609 1914 
Q 372 2147 372 2553 
Q 372 3047 722 3315 
Q 1072 3584 1716 3584 
Q 2034 3584 2315 3537 
Q 2597 3491 2834 3397 
z
" transform="scale(0.015625)"/>
     </defs>
     <use xlink:href="#DejaVuSans-58"/>
     <use xlink:href="#DejaVuSans-2d" transform="translate(63.505859 0)"/>
     <use xlink:href="#DejaVuSans-61" transform="translate(99.589844 0)"/>
     <use xlink:href="#DejaVuSans-78" transform="translate(160.869141 0)"/>
     <use xlink:href="#DejaVuSans-69" transform="translate(220.048828 0)"/>
     <use xlink:href="#DejaVuSans-73" transform="translate(247.832031 0)"/>
    </g>
   </g>
  </g>
  <g id="axis3d_2">
   <g id="line2d_7">
    <path d="M 525.921668 371.948888 
L 360.48181 541.730881 
" style="fill: none; stroke: #000000; stroke-width: 0.8; stroke-linecap: square"/>
   </g>
   <g id="xtick_6">
    <g id="line2d_8">
     <path d="M 363.702172 534.885325 
L 371.568139 537.444108 
" style="fill: none; stroke: #000000; stroke-width: 0.8; stroke-linecap: square"/>
    </g>
    <g id="text_7">
     <!-- −8 -->
     <g transform="translate(371.86347 556.79597) scale(0.1 -0.1)">
      <defs>
       <path id="DejaVuSans-38" d="M 2034 2216 
Q 1584 2216 1326 1975 
Q 1069 1734 1069 1313 
Q 1069 891 1326 650 
Q 1584 409 2034 409 
Q 2484 409 2743 651 
Q 3003 894 3003 1313 
Q 3003 1734 2745 1975 
Q 2488 2216 2034 2216 
z
M 1403 2484 
Q 997 2584 770 2862 
Q 544 3141 544 3541 
Q 544 4100 942 4425 
Q 1341 4750 2034 4750 
Q 2731 4750 3128 4425 
Q 3525 4100 3525 3541 
Q 3525 3141 3298 2862 
Q 3072 2584 2669 2484 
Q 3125 2378 3379 2068 
Q 3634 1759 3634 1313 
Q 3634 634 3220 271 
Q 2806 -91 2034 -91 
Q 1263 -91 848 271 
Q 434 634 434 1313 
Q 434 1759 690 2068 
Q 947 2378 1403 2484 
z
M 1172 3481 
Q 1172 3119 1398 2916 
Q 1625 2713 2034 2713 
Q 2441 2713 2670 2916 
Q 2900 3119 2900 3481 
Q 2900 3844 2670 4047 
Q 2441 4250 2034 4250 
Q 1625 4250 1398 4047 
Q 1172 3844 1172 3481 
z
" transform="scale(0.015625)"/>
      </defs>
      <use xlink:href="#DejaVuSans-2212"/>
      <use xlink:href="#DejaVuSans-38" transform="translate(83.789062 0)"/>
     </g>
    </g>
   </g>
   <g id="xtick_7">
    <g id="line2d_9">
     <path d="M 387.789946 510.209625 
L 395.588259 512.704765 
" style="fill: none; stroke: #000000; stroke-width: 0.8; stroke-linecap: square"/>
    </g>
    <g id="text_8">
     <!-- −6 -->
     <g transform="translate(395.773981 531.923599) scale(0.1 -0.1)">
      <use xlink:href="#DejaVuSans-2212"/>
      <use xlink:href="#DejaVuSans-36" transform="translate(83.789062 0)"/>
     </g>
    </g>
   </g>
   <g id="xtick_8">
    <g id="line2d_10">
     <path d="M 411.282657 486.143512 
L 419.014237 488.577354 
" style="fill: none; stroke: #000000; stroke-width: 0.8; stroke-linecap: square"/>
    </g>
    <g id="text_9">
     <!-- −4 -->
     <g transform="translate(419.093394 507.666104) scale(0.1 -0.1)">
      <use xlink:href="#DejaVuSans-2212"/>
      <use xlink:href="#DejaVuSans-34" transform="translate(83.789062 0)"/>
     </g>
    </g>
   </g>
   <g id="xtick_9">
    <g id="line2d_11">
     <path d="M 434.202086 462.664673 
L 441.867847 465.039449 
" style="fill: none; stroke: #000000; stroke-width: 0.8; stroke-linecap: square"/>
    </g>
    <g id="text_10">
     <!-- −2 -->
     <g transform="translate(441.843359 484.000965) scale(0.1 -0.1)">
      <use xlink:href="#DejaVuSans-2212"/>
      <use xlink:href="#DejaVuSans-32" transform="translate(83.789062 0)"/>
     </g>
    </g>
   </g>
   <g id="xtick_10">
    <g id="line2d_12">
     <path d="M 456.568965 439.75187 
L 464.169814 442.069705 
" style="fill: none; stroke: #000000; stroke-width: 0.8; stroke-linecap: square"/>
    </g>
    <g id="text_11">
     <!-- 0 -->
     <g transform="translate(468.234327 460.906745) scale(0.1 -0.1)">
      <use xlink:href="#DejaVuSans-30"/>
     </g>
    </g>
   </g>
   <g id="xtick_11">
    <g id="line2d_13">
     <path d="M 478.403037 417.384879 
L 485.939873 419.647795 
" style="fill: none; stroke: #000000; stroke-width: 0.8; stroke-linecap: square"/>
    </g>
    <g id="text_12">
     <!-- 2 -->
     <g transform="translate(489.906235 438.36303) scale(0.1 -0.1)">
      <use xlink:href="#DejaVuSans-32"/>
     </g>
    </g>
   </g>
   <g id="xtick_12">
    <g id="line2d_14">
     <path d="M 499.723117 395.544426 
L 507.196828 397.754353 
" style="fill: none; stroke: #000000; stroke-width: 0.8; stroke-linecap: square"/>
    </g>
    <g id="text_13">
     <!-- 4 -->
     <g transform="translate(511.067626 416.350369) scale(0.1 -0.1)">
      <use xlink:href="#DejaVuSans-34"/>
     </g>
    </g>
   </g>
   <g id="xtick_13">
    <g id="line2d_15">
     <path d="M 520.547142 374.212134 
L 527.958609 376.370911 
" style="fill: none; stroke: #000000; stroke-width: 0.8; stroke-linecap: square"/>
    </g>
    <g id="text_14">
     <!-- 6 -->
     <g transform="translate(531.736331 394.850214) scale(0.1 -0.1)">
      <use xlink:href="#DejaVuSans-36"/>
     </g>
    </g>
   </g>
   <g id="text_15">
    <!-- Y-axis -->
    <g transform="translate(465.868635 493.185083) rotate(-45.742112) scale(0.1 -0.1)">
     <defs>
      <path id="DejaVuSans-59" d="M -13 4666 
L 666 4666 
L 1959 2747 
L 3244 4666 
L 3922 4666 
L 2272 2222 
L 2272 0 
L 1638 0 
L 1638 2222 
L -13 4666 
z
" transform="scale(0.015625)"/>
     </defs>
     <use xlink:href="#DejaVuSans-59"/>
     <use xlink:href="#DejaVuSans-2d" transform="translate(49.208984 0)"/>
     <use xlink:href="#DejaVuSans-61" transform="translate(85.292969 0)"/>
     <use xlink:href="#DejaVuSans-78" transform="translate(146.572266 0)"/>
     <use xlink:href="#DejaVuSans-69" transform="translate(205.751953 0)"/>
     <use xlink:href="#DejaVuSans-73" transform="translate(233.535156 0)"/>
    </g>
   </g>
  </g>
  <g id="axis3d_3">
   <g id="line2d_16">
    <path d="M 525.921668 371.948888 
L 536.405628 143.005981 
" style="fill: none; stroke: #000000; stroke-width: 0.8; stroke-linecap: square"/>
   </g>
   <g id="xtick_14">
    <g id="line2d_17">
     <path d="M 524.579757 346.428527 
L 532.019791 348.561022 
" style="fill: none; stroke: #000000; stroke-width: 0.8; stroke-linecap: square"/>
    </g>
    <g id="text_16">
     <!-- −6 -->
     <g transform="translate(538.05079 352.151452) scale(0.1 -0.1)">
      <use xlink:href="#DejaVuSans-2212"/>
      <use xlink:href="#DejaVuSans-36" transform="translate(83.789062 0)"/>
     </g>
    </g>
   </g>
   <g id="xtick_15">
    <g id="line2d_18">
     <path d="M 526.55059 302.926204 
L 534.056092 305.024358 
" style="fill: none; stroke: #000000; stroke-width: 0.8; stroke-linecap: square"/>
    </g>
    <g id="text_17">
     <!-- −4 -->
     <g transform="translate(540.195877 308.679366) scale(0.1 -0.1)">
      <use xlink:href="#DejaVuSans-2212"/>
      <use xlink:href="#DejaVuSans-34" transform="translate(83.789062 0)"/>
     </g>
    </g>
   </g>
   <g id="xtick_16">
    <g id="line2d_19">
     <path d="M 528.555094 258.680669 
L 536.127224 260.742992 
" style="fill: none; stroke: #000000; stroke-width: 0.8; stroke-linecap: square"/>
    </g>
    <g id="text_18">
     <!-- −2 -->
     <g transform="translate(542.377573 264.465379) scale(0.1 -0.1)">
      <use xlink:href="#DejaVuSans-2212"/>
      <use xlink:href="#DejaVuSans-32" transform="translate(83.789062 0)"/>
     </g>
    </g>
   </g>
   <g id="xtick_17">
    <g id="line2d_20">
     <path d="M 530.594139 213.672711 
L 538.234088 215.697651 
" style="fill: none; stroke: #000000; stroke-width: 0.8; stroke-linecap: square"/>
    </g>
    <g id="text_19">
     <!-- 0 -->
     <g transform="translate(548.786667 219.490334) scale(0.1 -0.1)">
      <use xlink:href="#DejaVuSans-30"/>
     </g>
    </g>
   </g>
   <g id="xtick_18">
    <g id="line2d_21">
     <path d="M 532.668626 167.882454 
L 540.377618 169.868391 
" style="fill: none; stroke: #000000; stroke-width: 0.8; stroke-linecap: square"/>
    </g>
    <g id="text_20">
     <!-- 2 -->
     <g transform="translate(551.044448 173.734412) scale(0.1 -0.1)">
      <use xlink:href="#DejaVuSans-32"/>
     </g>
    </g>
   </g>
   <g id="text_21">
    <!-- Z-axis -->
    <g transform="translate(573.627482 269.826171) rotate(-87.378092) scale(0.1 -0.1)">
     <defs>
      <path id="DejaVuSans-5a" d="M 359 4666 
L 4025 4666 
L 4025 4184 
L 1075 531 
L 4097 531 
L 4097 0 
L 288 0 
L 288 481 
L 3238 4134 
L 359 4134 
L 359 4666 
z
" transform="scale(0.015625)"/>
     </defs>
     <use xlink:href="#DejaVuSans-5a"/>
     <use xlink:href="#DejaVuSans-2d" transform="translate(66.755859 0)"/>
     <use xlink:href="#DejaVuSans-61" transform="translate(102.839844 0)"/>
     <use xlink:href="#DejaVuSans-78" transform="translate(164.119141 0)"/>
     <use xlink:href="#DejaVuSans-69" transform="translate(223.298828 0)"/>
     <use xlink:href="#DejaVuSans-73" transform="translate(251.082031 0)"/>
    </g>
   </g>
  </g>
  <g id="axes_1">
   <g id="line2d_22">
    <path d="M 352.321626 247.729994 
L 358.68155 247.102004 
L 358.751602 247.674596 
L 357.611937 246.438242 
L 355.140934 244.204621 
L 351.069201 245.71918 
L 349.19986 246.249628 
L 345.659253 243.456657 
L 347.379413 242.342695 
L 340.783191 238.183629 
L 342.089828 237.831269 
L 339.115598 235.235667 
L 337.02296 236.637465 
L 336.021234 237.488965 
L 333.503164 237.604795 
L 331.46031 239.503931 
L 330.881465 239.719871 
L 332.429938 236.239813 
L 332.532754 234.796971 
L 336.281882 234.417596 
L 332.351565 232.22143 
L 334.300454 232.67504 
L 332.271214 226.962556 
L 330.994712 228.720577 
L 331.726703 228.907211 
L 334.158847 232.486763 
L 337.268413 235.503025 
L 340.595039 234.895839 
L 344.853946 236.728083 
L 345.875367 234.812911 
L 344.905246 230.225415 
L 345.846 228.901137 
L 343.83696 225.93995 
L 345.594032 223.738594 
L 334.159158 226.999128 
L 335.135021 228.152464 
L 334.838196 229.028517 
L 333.07459 233.120181 
L 329.134187 228.627146 
L 326.167433 225.497481 
L 328.401911 227.247402 
L 330.390006 231.837156 
L 334.819085 229.74791 
L 338.46555 227.862115 
L 342.360139 227.481535 
L 338.084318 232.973261 
L 337.292209 229.209807 
L 336.76011 229.771091 
L 334.683715 224.715325 
L 335.638263 228.699078 
L 336.479948 225.535666 
L 337.407434 228.479808 
L 344.618732 226.826119 
L 343.983911 224.305006 
L 347.92369 225.261086 
L 350.05883 225.069086 
L 353.012798 225.139003 
L 347.584872 222.371695 
L 347.12235 221.742344 
L 345.54952 223.302601 
L 344.490867 222.674533 
L 346.298043 224.620976 
L 349.700683 224.297541 
L 350.437585 226.975407 
L 347.878901 219.926576 
L 347.885061 223.87008 
L 348.217456 222.001499 
L 345.30054 226.663106 
L 345.14799 228.841729 
L 344.032331 231.245047 
L 341.876521 229.682234 
L 344.184274 230.310203 
L 347.880514 231.995496 
L 346.341364 231.879085 
L 347.449227 232.491316 
L 346.293149 234.776589 
L 346.316385 232.360462 
L 347.984913 235.627048 
L 349.563257 236.017902 
L 346.207371 236.689908 
L 348.553051 239.93682 
L 347.914165 244.903361 
L 352.231805 246.235209 
L 350.156264 242.899632 
L 350.193535 240.040789 
L 346.336196 243.445273 
L 344.435637 236.921614 
L 348.41062 241.575267 
L 341.737666 237.499795 
L 341.739492 235.657648 
L 339.921286 239.068969 
L 339.655449 238.096843 
L 339.031177 238.209665 
L 338.496953 237.735733 
L 339.619757 239.712144 
L 344.987508 237.519774 
L 336.532552 235.473802 
L 337.969091 234.217408 
L 338.767643 232.39632 
L 339.883644 235.030565 
L 340.719419 238.132706 
L 343.276645 238.315222 
L 343.146743 241.138189 
L 347.428402 243.141226 
L 345.42218 242.217551 
L 340.021236 243.128805 
L 332.992928 238.428585 
L 333.154274 235.760098 
L 330.54625 234.056279 
L 324.617312 232.988629 
L 329.529485 237.542453 
L 330.86118 234.707478 
L 328.423179 236.282204 
L 331.460329 233.83943 
L 327.602274 232.997652 
L 323.429756 233.597494 
L 324.477899 234.7654 
L 329.594483 232.933486 
L 329.223376 229.596918 
L 328.719465 230.302987 
L 323.087969 231.151528 
L 321.856629 235.202745 
L 325.791745 237.151666 
L 324.306234 235.228036 
L 327.219804 236.146291 
L 324.650319 235.863793 
L 328.472591 238.62363 
L 330.829742 241.523887 
L 329.046524 240.439437 
L 328.638538 237.407966 
L 326.453575 236.956099 
L 325.825032 241.94862 
L 325.281359 242.236645 
L 326.303913 239.760768 
L 325.298453 238.762581 
L 323.338299 241.171576 
L 320.959827 237.211681 
L 321.66574 240.120477 
L 325.348829 241.23634 
L 325.119065 242.084158 
L 330.857258 241.396782 
L 332.423042 237.05786 
L 328.857468 234.595505 
L 331.474673 237.268247 
L 332.184747 233.007125 
L 327.351438 230.89133 
L 330.964055 230.197755 
L 333.031232 235.976211 
L 329.426296 237.140747 
L 326.957519 241.750306 
L 325.25708 241.648748 
L 321.192794 238.904647 
L 320.356701 239.366786 
L 314.235138 242.380351 
L 310.033656 241.358437 
L 309.936904 243.668259 
L 312.890011 239.401072 
L 318.63093 240.32269 
L 318.353626 241.516878 
L 314.15735 244.021435 
L 308.689323 243.4923 
L 306.791272 244.530668 
L 311.536907 248.533127 
L 311.898824 250.667094 
L 310.134285 247.039467 
L 311.437714 247.206 
L 311.84586 250.170257 
L 315.071397 246.949977 
L 318.780944 245.831973 
L 312.276935 248.564269 
L 309.528066 244.922696 
L 308.456311 243.763644 
L 305.911426 244.343161 
L 306.945055 248.827104 
L 312.364463 250.963428 
L 306.212548 251.841284 
L 302.087423 250.007161 
L 302.212828 249.82179 
L 298.0338 244.020363 
L 296.792395 239.057404 
L 298.890812 239.547562 
L 303.96327 240.316478 
L 304.825689 241.279625 
L 305.059058 238.73524 
L 298.10917 239.333145 
L 298.200683 239.857373 
L 300.464082 239.398825 
L 306.586831 239.525028 
L 304.197303 239.531192 
L 307.222398 238.493133 
L 306.434551 234.955317 
L 304.30475 234.806323 
L 306.156211 233.087638 
L 305.420721 232.489152 
L 305.058756 236.511223 
L 307.647017 237.628561 
L 306.671499 237.650591 
L 308.899595 239.071761 
L 307.527508 238.468337 
L 310.570357 237.093069 
L 309.538987 238.924465 
L 306.253718 238.111997 
L 311.077495 233.473111 
L 312.450511 233.629703 
L 306.745552 236.529266 
L 309.582926 235.964886 
L 310.080341 236.408976 
L 303.008407 238.193584 
L 298.649911 237.659277 
L 297.830082 234.811418 
L 300.031461 233.306078 
L 303.188083 230.164231 
L 301.856494 231.103196 
L 305.193056 228.184044 
L 303.490947 231.30727 
L 299.448041 234.015212 
L 300.82898 239.99446 
L 299.348265 239.393674 
L 297.54479 235.628283 
L 298.313657 238.449627 
L 300.067709 239.370628 
L 302.418091 239.816549 
L 295.463927 237.75218 
L 296.911244 239.707121 
L 296.171627 237.437629 
L 292.191712 244.10457 
L 289.013705 241.211605 
L 284.671272 238.662 
L 283.962762 237.352446 
L 282.637864 237.722343 
L 282.786015 239.48755 
L 285.937072 240.213778 
L 283.902486 238.478267 
L 284.025821 239.953818 
L 285.976181 241.854183 
L 287.889635 245.17056 
L 290.046905 240.296714 
L 289.947767 239.521033 
L 286.976853 245.117065 
L 289.740232 246.356234 
L 289.99421 244.190311 
L 293.042627 239.844455 
L 291.734547 240.698263 
L 295.300196 242.082985 
L 295.396009 246.500941 
L 297.924976 246.531094 
L 293.918114 243.419894 
L 298.678933 242.399532 
L 294.413741 242.582166 
L 293.889315 242.173485 
L 293.743969 241.309341 
L 292.005542 239.553729 
L 295.453586 241.215584 
L 294.681574 242.754148 
L 296.890147 238.070834 
L 297.343367 236.316282 
L 299.054019 235.535915 
L 296.130327 234.39126 
L 295.591337 232.229597 
L 294.13099 228.221477 
L 297.203434 229.350628 
L 292.935572 226.747343 
L 291.930731 227.101396 
L 293.884286 227.076247 
L 293.05453 224.69296 
L 292.62799 228.418799 
L 296.576036 228.91189 
L 297.12436 226.34698 
L 293.262317 225.815464 
L 291.480563 225.426572 
L 295.657532 228.170031 
L 289.094104 228.590871 
L 288.10009 227.614707 
L 286.499314 227.957029 
L 286.265778 229.578875 
L 289.439647 230.596082 
L 285.452528 226.112422 
L 286.754976 228.278976 
L 285.313701 226.819125 
L 286.79904 225.942109 
L 286.076152 224.004475 
L 282.565269 229.675637 
L 286.393439 227.988843 
L 281.724505 227.072998 
L 282.337736 222.364644 
L 280.268045 224.237768 
L 281.360875 222.017348 
L 281.81638 221.546522 
L 286.90653 222.562989 
L 282.285931 224.049482 
L 288.639554 230.043253 
L 291.242144 232.929503 
L 291.650362 231.688651 
L 294.641459 230.011075 
L 293.331397 229.795593 
L 290.931173 229.837449 
L 287.618339 226.923054 
L 288.421066 224.540685 
L 286.982362 229.953405 
L 288.877061 233.614702 
L 291.719459 231.209871 
L 293.198068 230.230491 
L 292.842797 230.910802 
L 293.819027 227.05064 
L 293.091976 229.656529 
L 290.771366 226.205905 
L 284.176735 227.862113 
L 283.072841 230.536676 
L 277.030984 230.035044 
L 274.106358 226.0228 
L 273.142028 228.754182 
L 272.398025 227.058453 
L 270.857062 230.955928 
L 268.302611 230.067446 
L 270.212926 230.236249 
L 272.937354 233.570818 
L 272.65125 235.090918 
L 271.272004 233.060514 
L 269.836906 229.989957 
L 267.607805 230.762835 
L 267.112355 232.325877 
L 265.435225 235.46226 
L 265.603373 235.360549 
L 265.320296 237.433594 
L 264.605256 237.716732 
L 264.44186 236.243861 
L 261.896521 237.440059 
L 262.855008 230.230383 
L 261.206275 232.94041 
L 258.81649 235.670179 
L 259.981877 237.791464 
L 259.416709 235.934382 
L 255.698958 233.480823 
L 254.289037 236.003947 
L 259.409959 234.257507 
L 262.293014 229.553145 
L 264.058031 233.993522 
L 265.068837 237.842161 
L 261.779687 237.340696 
L 267.115963 242.107065 
L 264.879578 240.663064 
L 263.852294 239.662264 
L 267.909164 244.379623 
L 263.975886 247.488821 
L 265.366741 253.601633 
L 269.084756 257.60403 
L 269.553427 250.866798 
L 269.22745 244.4621 
L 263.037269 243.122498 
L 260.04463 243.698549 
L 259.836638 244.726681 
L 256.823354 248.11658 
L 259.95954 251.972346 
L 258.121671 255.198942 
L 261.3152 255.797913 
L 258.081806 254.506343 
L 261.130747 254.863096 
L 260.260615 255.626979 
L 265.93471 256.241482 
L 273.225122 257.633105 
L 273.949112 256.346347 
L 272.284576 260.217033 
L 268.799177 260.462739 
L 274.5538 262.016278 
L 270.952059 263.019211 
L 272.649577 262.429592 
L 265.993616 261.710909 
L 267.367191 263.884997 
L 262.280746 262.305036 
L 261.324683 263.670739 
L 255.982237 260.73979 
L 255.816016 260.882257 
L 255.110659 263.435316 
L 260.278749 261.588451 
L 261.202718 260.839189 
L 258.664442 260.288536 
L 260.991435 257.961206 
L 256.270387 255.256003 
L 257.439715 255.743497 
L 254.469211 257.729812 
L 257.539311 258.277429 
L 261.127451 254.459526 
L 263.650224 257.568686 
L 270.351903 255.805601 
L 269.453319 254.721847 
L 269.86345 256.146123 
L 271.967134 256.296359 
L 274.24524 253.833153 
L 279.598961 257.811854 
L 283.369575 256.289675 
L 283.829409 254.993325 
L 281.444619 257.626105 
L 282.580649 260.446713 
L 288.731368 261.447231 
L 288.692429 264.65627 
L 287.380048 267.830299 
L 288.270966 271.34262 
L 290.548213 273.023281 
L 296.758391 272.824744 
L 292.765891 273.234392 
L 291.212173 270.869412 
L 289.804648 271.201427 
L 289.356297 270.474894 
L 286.859317 267.043136 
L 289.459366 267.16407 
L 292.647311 269.490981 
L 290.656309 266.506916 
L 287.859419 265.022344 
L 287.695461 265.165941 
L 284.769893 265.401106 
L 287.002299 263.308185 
L 288.573343 262.381099 
L 290.763382 262.414324 
L 294.021429 262.120258 
L 292.336161 257.980103 
L 285.607813 254.195141 
L 289.508186 256.894267 
L 284.647138 259.929704 
L 287.221614 257.503818 
L 283.073844 253.999706 
L 280.872776 252.542847 
L 283.169283 249.298235 
L 283.235832 256.924748 
L 285.490551 259.246976 
L 288.222017 263.406534 
L 287.96031 264.636237 
L 286.335882 261.680186 
L 290.057899 268.529649 
L 290.836548 270.708282 
L 291.677519 271.477352 
L 299.628272 273.968391 
L 298.338689 277.673228 
L 302.808593 281.002944 
L 297.35673 283.308218 
L 295.103472 283.731977 
L 298.597769 283.675295 
L 296.474018 284.829686 
L 296.767792 280.40658 
L 291.960136 279.833627 
L 290.901139 282.152596 
L 290.337082 278.925638 
L 291.467007 282.942104 
L 288.338924 287.89956 
L 287.9178 287.128592 
L 288.059433 283.699051 
L 294.951033 285.809287 
L 294.732812 282.163657 
L 290.979892 278.295384 
L 292.387645 275.69761 
L 294.084343 277.953317 
L 292.469662 281.43617 
L 290.692546 277.995382 
L 288.944841 274.131299 
L 291.417853 273.303499 
L 291.931772 271.56539 
L 293.84294 270.503496 
L 293.862799 272.015253 
L 291.301918 273.192788 
L 291.83852 272.194748 
L 290.391208 272.297627 
L 289.74139 271.945308 
L 285.84702 269.253882 
L 284.176895 266.691726 
L 282.107943 264.622644 
L 283.320367 262.258283 
L 281.073597 260.918828 
L 282.323975 259.252013 
L 280.043876 262.885641 
L 279.268378 266.654699 
L 279.634076 267.349795 
L 281.466971 267.986763 
L 285.851666 262.929114 
L 284.582941 262.032728 
L 287.590917 264.901218 
L 286.274569 268.491233 
L 278.990923 266.152896 
L 277.734129 270.926843 
L 276.217175 270.212632 
L 269.16098 270.049704 
L 268.740187 271.324813 
L 269.231391 274.525418 
L 270.47234 272.839876 
L 267.308243 275.399369 
L 265.861925 270.469341 
L 264.725537 270.601316 
L 263.451533 266.863029 
L 260.187722 265.905305 
L 259.612759 264.335176 
L 258.036555 268.466745 
L 261.30755 270.355297 
L 259.143319 271.162924 
L 256.732852 270.701653 
L 248.598369 271.989023 
L 244.959703 274.477419 
L 247.390882 278.47739 
L 243.88401 280.936007 
L 249.133585 278.7017 
L 251.914823 282.468866 
L 248.378708 281.641864 
L 246.25564 287.022806 
L 248.406988 288.012565 
L 248.512938 292.549773 
L 247.031864 298.565546 
L 249.970407 299.534314 
L 247.789819 297.304998 
L 239.866174 299.442863 
L 240.56773 298.957869 
L 244.628003 297.090779 
L 246.846415 298.890738 
L 251.727522 296.621029 
L 251.150518 298.510342 
L 249.268453 299.186703 
L 246.999356 298.699847 
L 251.477573 301.402343 
L 244.949927 296.955247 
L 248.604485 297.727352 
L 245.305171 299.940808 
L 245.236662 299.443638 
L 244.974564 300.683801 
L 242.189398 302.718345 
L 241.42481 304.734796 
L 242.407143 302.016278 
L 245.252829 298.567542 
L 243.584046 295.075685 
L 244.683378 292.58183 
L 245.183868 288.878041 
L 245.555807 289.507956 
L 247.830858 285.859215 
L 245.122326 285.204936 
L 241.189086 282.483578 
L 238.404176 281.776108 
L 241.128519 280.139137 
L 237.791904 283.848336 
L 231.495771 282.550247 
L 232.378399 280.488536 
L 230.665134 282.444797 
L 225.881911 289.126473 
L 229.195568 286.227374 
L 227.360324 285.081308 
L 227.197587 278.820088 
L 228.33077 280.507474 
L 225.955708 275.539127 
L 227.317012 277.248655 
L 230.887829 279.351515 
L 232.770927 279.233006 
L 230.965341 275.440294 
L 232.70483 272.715588 
L 230.657355 276.111641 
L 233.699742 275.062127 
L 236.638908 274.370681 
L 236.457866 275.408944 
L 238.451323 274.02994 
L 235.202449 276.180614 
L 231.366809 272.120836 
L 227.133305 272.91896 
L 225.237907 271.756226 
L 228.962899 268.039955 
L 230.869331 267.211916 
L 228.328183 266.313439 
L 234.505272 265.320871 
L 240.823625 270.771586 
L 241.034025 269.729245 
L 238.055495 271.166847 
L 237.966878 271.383594 
L 240.602095 268.423027 
L 239.537217 267.934386 
L 236.101962 269.237833 
L 242.057203 271.044996 
L 242.568723 274.938461 
L 240.933141 276.993506 
L 238.15266 274.679384 
L 245.309068 273.379941 
L 243.156065 274.51964 
L 241.315573 273.793657 
L 240.742752 274.227963 
L 244.441492 272.803999 
L 249.300332 274.864593 
L 246.370331 276.134115 
L 244.17678 278.906083 
L 243.879682 284.900121 
L 244.549359 284.874621 
L 247.11227 287.43925 
L 245.959297 288.170706 
L 242.734844 289.987412 
L 246.881356 290.917961 
L 247.356686 291.474794 
L 245.052013 292.955919 
L 238.030014 293.362564 
L 239.973003 294.228097 
L 242.851254 296.892059 
L 245.843544 299.230085 
L 242.433585 296.879359 
L 245.851561 299.973201 
L 244.042571 297.152508 
L 239.856916 301.766722 
L 237.056155 302.561775 
L 240.449235 301.389552 
L 241.74241 294.831471 
L 240.245701 295.215501 
L 239.738333 295.897881 
L 241.851121 298.826373 
L 244.414354 299.426748 
L 244.044284 301.995836 
L 239.09995 304.338329 
L 235.318985 303.40934 
L 233.3328 301.469093 
L 232.170661 302.820851 
L 229.559377 301.27865 
L 227.643936 303.567425 
L 229.919789 304.152528 
L 227.501049 303.771739 
L 230.895314 303.908796 
L 231.660719 296.864173 
L 235.087738 299.376917 
L 241.050973 298.420581 
L 242.021744 300.259986 
L 240.760828 297.187779 
L 237.411953 291.571581 
L 242.173585 290.572948 
L 242.509898 292.840034 
L 243.059129 294.282696 
L 242.732345 295.291371 
L 243.999301 296.562647 
L 247.443525 296.393148 
L 241.506409 296.964703 
L 239.924447 301.306283 
L 235.799216 303.900287 
L 234.008028 304.520014 
L 230.240616 303.703639 
L 225.867979 301.857817 
L 227.485037 301.030031 
L 230.809311 304.435447 
L 230.935749 306.207303 
L 228.992231 306.298206 
L 228.60602 301.049069 
L 233.654165 302.054064 
L 236.816094 303.235528 
L 236.521094 304.344261 
L 235.777371 304.130272 
L 236.495604 303.579071 
L 235.765413 299.615331 
L 236.024379 298.103294 
L 229.452787 297.444993 
L 228.24096 297.511847 
L 231.310727 296.959924 
L 226.411681 297.300945 
L 226.796324 293.567847 
L 227.851072 293.16294 
L 231.295392 290.872733 
L 235.605118 292.650804 
L 232.84153 295.484574 
L 230.856384 289.66221 
L 227.19018 289.372338 
L 224.58261 289.668835 
L 219.64001 286.59279 
L 218.071571 289.422655 
L 219.83689 289.397333 
L 220.938942 292.613769 
L 221.889948 296.248655 
L 221.461867 294.127611 
L 219.050598 293.956313 
L 219.93453 295.732699 
L 222.885952 293.097908 
L 222.714216 292.352211 
L 224.803204 295.81002 
L 224.412038 297.914362 
L 221.440394 297.037943 
L 225.509101 298.969036 
L 225.225119 296.692967 
L 226.201357 293.394275 
L 227.413093 293.538384 
L 234.229788 295.804727 
L 239.050284 298.722211 
L 234.067382 299.546446 
L 235.35441 302.516923 
L 237.909204 305.040897 
L 234.858938 304.929749 
L 230.149573 306.825738 
L 226.674628 305.631499 
L 227.912197 305.552391 
L 233.519174 311.226123 
L 229.872928 313.229186 
L 233.987728 311.47665 
L 230.891418 312.261456 
L 230.124688 311.982496 
L 224.0411 312.732475 
L 220.819283 310.736847 
L 214.80711 309.424537 
L 215.916033 309.505717 
L 215.017042 313.599106 
L 221.069079 315.198056 
L 217.019588 316.667923 
L 215.547401 314.097887 
L 207.575601 314.379482 
L 209.176288 314.851856 
L 214.21067 315.149032 
L 214.185816 311.247572 
L 216.889308 311.684639 
L 217.807916 312.861833 
L 219.589859 313.385703 
L 218.357683 310.423805 
L 217.483987 314.444889 
L 217.374358 317.97348 
L 219.127281 317.350543 
L 224.33561 317.821865 
L 221.080922 321.281615 
L 227.236891 318.4 
L 225.726731 319.744959 
L 222.492728 319.638364 
L 220.258286 325.054319 
L 215.026779 324.914886 
L 214.764405 322.997302 
L 221.85472 326.88033 
L 218.51992 327.235266 
L 218.284357 329.612178 
L 216.724714 329.713043 
L 216.45769 328.045879 
L 220.460602 328.694508 
L 219.952565 326.268983 
L 217.004042 326.505136 
L 216.719972 327.160226 
L 217.946567 328.017683 
L 218.254898 328.584121 
L 221.391221 328.079257 
L 219.831943 329.329661 
L 224.046308 335.234775 
L 220.751272 338.026693 
L 217.963179 336.495107 
L 213.061027 336.726482 
L 213.599494 331.128688 
L 211.069981 335.730285 
L 206.772132 334.357155 
L 206.377188 336.180793 
L 208.768536 338.958641 
L 209.236441 338.654437 
L 210.824874 339.571777 
L 213.669786 341.355618 
L 212.128773 342.622456 
L 210.804678 342.618158 
L 211.796426 343.531381 
L 208.477284 340.918789 
L 212.603818 342.4205 
L 212.585205 341.0103 
L 214.580369 337.20971 
L 211.845623 337.881755 
L 213.791748 337.559291 
L 210.604971 338.212267 
L 212.129532 340.089943 
L 211.902078 339.875242 
L 213.378788 338.886983 
L 219.210451 332.828878 
L 218.03798 332.355497 
L 217.624108 331.072338 
L 221.287703 333.240308 
L 221.668944 334.467479 
L 221.267641 337.649766 
L 218.46932 337.706519 
L 219.649398 339.419074 
L 222.43822 337.547202 
L 220.276536 338.896955 
L 219.981817 343.308437 
L 219.486411 348.192447 
L 215.948223 345.60406 
L 212.381725 344.418405 
L 215.006111 350.008953 
L 218.830508 351.857677 
L 218.866166 350.39181 
L 209.718105 348.675707 
L 213.169694 350.740942 
L 215.648443 349.555539 
L 214.704123 355.728261 
L 213.577296 361.00922 
L 217.604691 360.984405 
L 217.567016 367.119226 
L 213.213745 373.355366 
L 212.421926 370.594662 
L 212.980129 369.141113 
L 211.889673 363.475837 
L 206.141935 361.662171 
L 205.817442 358.239829 
L 209.733152 359.503454 
L 205.364997 359.917345 
L 206.11532 361.356799 
L 210.342511 360.290405 
L 211.389738 355.567339 
L 214.144307 356.406266 
L 213.019155 353.802127 
L 213.575334 356.40662 
L 218.165784 355.111542 
L 219.307819 356.96952 
L 216.46279 355.733124 
L 211.646039 356.84298 
L 212.546842 359.107544 
L 211.065513 358.279831 
L 206.49876 358.311279 
L 201.817151 356.566012 
L 201.915262 354.787816 
L 199.864961 356.528952 
L 199.647495 356.986636 
L 197.421668 356.851836 
L 194.774386 355.113401 
L 197.084799 355.034581 
L 194.954935 356.642072 
L 200.153668 359.231594 
L 200.141671 359.371681 
L 202.519059 354.394279 
L 200.987686 354.469039 
L 199.844365 355.521091 
L 196.691079 357.257607 
L 197.621329 360.465778 
L 194.990834 360.257127 
L 199.355439 358.482009 
L 203.833322 357.27017 
L 203.413577 354.148372 
L 203.233795 350.686423 
L 208.878963 349.968622 
L 212.053366 351.708444 
L 210.221153 352.428863 
L 204.451457 352.058877 
L 208.234689 350.564082 
L 208.412712 346.74724 
L 217.232853 344.619007 
L 216.491194 341.735592 
L 214.607435 342.490214 
L 207.391923 339.335 
L 215.269424 336.940416 
L 215.737868 331.500868 
L 207.822124 333.929308 
L 205.924955 333.971364 
L 201.625928 337.000464 
L 204.464688 337.472435 
L 206.582284 339.07334 
L 202.421026 334.896133 
L 199.893329 331.785658 
L 201.65248 331.192702 
L 198.488836 328.603233 
L 202.076928 332.005074 
L 202.584562 331.153859 
L 207.042606 332.689088 
L 206.213353 334.93385 
L 204.844424 335.297805 
L 203.331876 334.283267 
L 206.591716 335.152245 
L 205.49289 335.423947 
L 208.195512 337.676296 
L 210.516489 340.636578 
L 212.896993 338.321788 
L 208.815395 339.295241 
L 205.731878 342.669022 
L 207.047011 343.209673 
L 207.954232 343.434674 
L 206.987107 342.342783 
L 207.59487 340.707073 
L 208.740783 344.711065 
L 211.917189 346.09558 
L 212.461611 345.458474 
L 214.789025 346.746457 
L 220.385397 346.594224 
L 217.260952 343.70819 
L 218.954683 342.287023 
L 220.53942 339.25089 
L 222.736195 339.161618 
L 223.184476 339.580923 
L 225.366185 343.861176 
L 225.816098 344.245977 
L 225.609302 342.646745 
L 225.975287 338.015346 
L 228.3768 338.282328 
L 225.52494 338.00365 
L 224.197913 337.930914 
L 227.254529 339.288927 
L 226.679466 338.661418 
L 229.740882 338.589723 
L 227.537028 336.520937 
L 227.196192 335.329809 
L 223.385193 337.409788 
L 222.800405 337.064334 
L 221.803566 337.141239 
L 221.130656 338.408765 
L 215.898629 340.177747 
L 213.674202 345.660564 
L 209.030672 345.86277 
L 211.033168 345.475607 
L 213.727171 348.173375 
L 215.979948 346.169232 
L 217.996365 346.489567 
L 221.472949 348.688458 
L 224.537836 345.638845 
L 221.042153 338.486558 
L 219.175258 337.061729 
L 218.239456 337.384218 
L 214.818125 332.717123 
L 212.949572 331.718513 
L 213.544277 330.981973 
L 213.559636 329.875398 
L 214.274011 327.472299 
L 213.983485 325.269113 
L 216.701882 327.875331 
L 214.256095 331.6384 
L 214.34445 332.158399 
L 210.082873 331.207925 
L 211.935646 330.596736 
L 214.024958 333.808668 
L 210.50341 338.375591 
L 208.633987 341.185241 
L 213.112476 342.377664 
L 209.795616 342.28249 
L 212.5277 335.94997 
L 215.759398 340.034326 
L 214.598796 339.012824 
L 212.098555 334.763873 
L 213.630764 339.643892 
L 218.563021 341.052729 
L 218.633383 342.100791 
L 213.899235 341.506132 
L 212.470009 339.112617 
L 210.657165 339.479009 
L 207.197152 337.706418 
L 208.682949 338.819798 
L 210.890202 338.506893 
L 216.241925 338.140949 
L 214.965699 337.948042 
L 216.235734 337.231877 
L 212.221034 338.346971 
L 210.257927 336.80222 
L 207.962981 336.024039 
L 209.572487 339.654422 
L 208.461452 338.627048 
L 211.830416 339.947762 
L 212.092171 339.882545 
L 213.23009 340.775824 
L 214.257223 342.453866 
L 215.24231 341.885936 
L 215.846353 342.400088 
L 211.426193 342.698536 
L 210.705965 344.68791 
L 216.028036 348.014064 
L 216.648856 345.424112 
L 221.615813 343.712803 
L 224.902924 344.739479 
L 220.094034 343.30261 
L 220.684006 340.030224 
L 219.891042 341.699278 
L 222.538836 342.739853 
L 222.534311 339.533455 
L 215.482428 337.15477 
L 211.000012 335.25387 
L 211.391797 338.229814 
L 213.235588 337.173319 
L 209.258349 335.42547 
L 209.314148 337.817955 
L 209.777539 338.927488 
L 207.885071 336.622599 
L 206.407846 339.617775 
L 201.021249 341.536249 
L 202.066427 339.932992 
L 202.901765 338.308178 
L 201.766199 337.634628 
L 198.653334 337.930453 
L 194.008891 340.256927 
L 192.499279 341.811087 
L 194.76874 341.275312 
L 189.946292 341.247105 
L 192.232895 341.651311 
L 193.150806 342.944665 
L 196.298266 336.405471 
L 197.810435 334.1646 
L 197.547015 337.180192 
L 201.097721 339.222267 
L 205.100691 332.429936 
L 207.138787 330.261928 
L 208.03926 332.379482 
L 211.328221 331.261424 
L 204.45904 328.808457 
L 201.192008 328.156251 
L 197.896172 332.569052 
L 193.1298 332.281063 
L 193.544155 331.138597 
L 188.897081 331.873845 
L 192.559813 332.220177 
L 192.559813 332.220177 
" clip-path="url(#p7a7cf52638)" style="fill: none; stroke: #0000ff; stroke-opacity: 0.8; stroke-width: 1.5; stroke-linecap: square"/>
   </g>
   <g id="line2d_23">
    <path d="M 352.321626 247.729994 
L 343.532805 244.193343 
L 351.410352 238.458942 
L 351.752066 240.091468 
L 345.511612 240.358493 
L 345.569331 240.067219 
L 340.493927 231.526132 
L 340.338699 233.159752 
L 341.814074 233.113851 
L 341.888379 245.494923 
L 337.113561 244.058711 
L 348.413194 242.138375 
L 347.559015 247.595073 
L 341.492734 242.114802 
L 338.384501 245.681406 
L 345.47665 245.172729 
L 351.376211 243.119714 
L 350.08017 243.970233 
L 342.661268 240.531204 
L 340.947827 234.029277 
L 330.916718 234.076091 
L 322.89748 243.198747 
L 322.60237 239.616928 
L 311.472823 235.433455 
L 313.647755 244.984121 
L 317.995627 247.833851 
L 312.680392 238.626643 
L 312.408938 238.899169 
L 306.560002 240.810471 
L 314.236676 243.359256 
L 319.130424 241.772405 
L 310.47611 238.45477 
L 302.677241 237.293927 
L 301.087708 231.895058 
L 311.012563 236.830543 
L 307.514657 241.190565 
L 314.628593 248.217963 
L 313.78433 246.371937 
L 318.787303 238.128142 
L 317.114649 237.566067 
L 319.022864 243.581649 
L 329.367405 245.065365 
L 332.383969 245.021619 
L 323.191165 243.530995 
L 327.162988 238.394051 
L 324.206832 230.586276 
L 321.904586 234.10846 
L 328.341601 229.914364 
L 326.490259 235.689399 
L 332.53244 232.672093 
L 326.487761 233.694415 
L 324.440007 242.291372 
L 324.673148 243.896379 
L 324.392371 241.431322 
L 332.61722 240.040297 
L 334.524008 241.719543 
L 338.524206 254.825088 
L 335.796101 254.641155 
L 327.726808 246.060949 
L 325.914346 245.946154 
L 324.51246 244.052917 
L 320.127967 231.665803 
L 312.601697 234.250313 
L 310.914787 229.992663 
L 307.29504 233.623197 
L 299.58818 227.983698 
L 292.227943 228.220265 
L 287.374478 215.267382 
L 289.308495 228.075543 
L 287.742958 221.495165 
L 285.308712 222.536852 
L 282.900819 209.595784 
L 286.176088 200.659213 
L 281.768416 210.38239 
L 278.740011 209.200765 
L 282.1672 208.647729 
L 280.490522 207.231524 
L 285.216905 210.681585 
L 292.29318 207.627192 
L 288.474823 199.128213 
L 284.039264 209.374737 
L 280.68269 206.515729 
L 277.342955 205.1669 
L 277.039316 211.242727 
L 269.590279 213.601099 
L 270.530726 215.231356 
L 272.381446 215.465495 
L 263.892768 219.394196 
L 252.40589 221.336739 
L 258.117019 221.10863 
L 257.562369 219.675133 
L 258.60031 210.019802 
L 271.12089 216.837706 
L 266.025686 211.595827 
L 260.599131 215.583115 
L 259.919213 210.306028 
L 250.853407 204.215182 
L 253.887999 193.496595 
L 242.200784 204.67135 
L 246.02404 214.004812 
L 250.368917 213.174698 
L 253.127343 215.049421 
L 245.898376 211.742314 
L 252.496407 218.900171 
L 248.493573 212.755155 
L 246.526312 211.337834 
L 254.431157 216.697636 
L 254.04487 214.845037 
L 241.760341 214.390708 
L 244.056789 209.558925 
L 245.220713 215.501401 
L 243.44395 217.185471 
L 241.725165 214.507369 
L 231.25827 211.189183 
L 234.003389 217.404178 
L 231.341462 213.133251 
L 223.473077 209.863729 
L 212.085377 196.498307 
L 206.761771 202.793804 
L 208.940434 210.577782 
L 211.793022 218.246681 
L 213.424688 226.446097 
L 216.684431 228.17978 
L 202.489991 225.978192 
L 189.395099 220.882527 
L 189.652508 220.096487 
L 187.651277 213.540748 
L 191.721086 216.929612 
L 199.327535 218.55675 
L 202.922568 218.232685 
L 207.607826 215.970574 
L 203.557465 212.612701 
L 207.6208 214.872154 
L 211.282763 215.201077 
L 212.204534 212.549042 
L 215.518285 218.464863 
L 206.941823 222.162921 
L 217.213289 225.92989 
L 210.416104 223.568408 
L 210.698511 219.410878 
L 205.076152 218.425877 
L 199.733917 225.923308 
L 196.678773 225.777479 
L 195.443434 224.297131 
L 186.888774 223.563393 
L 190.037048 220.036884 
L 193.12701 220.772532 
L 195.249712 211.68683 
L 197.764695 209.586368 
L 187.035918 201.417304 
L 194.841101 202.736737 
L 196.356525 204.587725 
L 195.431434 202.695316 
L 190.908961 200.930265 
L 196.347798 203.556531 
L 189.518053 200.90006 
L 198.751543 206.079072 
L 205.081089 206.126572 
L 209.448272 209.700121 
L 207.718696 207.581706 
L 202.565941 196.402619 
L 206.053673 195.33422 
L 207.442311 192.277452 
L 205.693505 193.65298 
L 214.554392 195.257837 
L 209.584239 199.1828 
L 207.40427 202.007184 
L 203.268583 205.706632 
L 203.78081 204.175697 
L 212.278484 213.218052 
L 220.736269 208.786406 
L 204.646374 205.017301 
L 211.643733 209.905007 
L 211.65717 210.539129 
L 213.823582 213.638573 
L 208.931716 212.758107 
L 205.429645 209.096975 
L 195.266928 216.676596 
L 192.824095 216.338908 
L 199.200151 227.700429 
L 196.731276 226.099919 
L 185.16647 231.628531 
L 189.317014 232.060249 
L 189.645 229.604503 
L 191.853468 221.562448 
L 192.864854 215.771422 
L 186.871507 208.705557 
L 194.033392 209.100908 
L 200.643709 225.258733 
L 193.14985 232.200621 
L 201.028612 228.082469 
L 205.24746 230.38352 
L 198.55766 239.007601 
L 204.701851 231.228493 
L 201.634428 237.377174 
L 204.87478 244.750708 
L 205.404761 243.227695 
L 214.427501 245.639842 
L 210.41371 234.354217 
L 213.21205 239.839599 
L 218.959023 239.162247 
L 218.33209 235.241147 
L 228.313599 232.930631 
L 218.066539 238.516224 
L 212.604753 230.719311 
L 214.975634 234.497123 
L 207.491308 230.505918 
L 203.469477 230.47127 
L 207.283037 232.602434 
L 200.142983 227.35598 
L 203.245529 224.196159 
L 187.863504 219.752645 
L 190.774017 218.745066 
L 189.931466 207.276489 
L 192.96748 214.116298 
L 200.232092 216.025653 
L 203.804326 216.526499 
L 213.538511 227.237215 
L 228.415406 228.80327 
L 227.001932 232.100632 
L 237.749537 229.638812 
L 237.144579 227.300658 
L 226.209342 228.516624 
L 233.044028 230.541181 
L 238.758348 232.88864 
L 241.465189 229.888803 
L 241.822015 233.827949 
L 246.3625 230.372547 
L 242.657298 225.672004 
L 239.5774 222.765927 
L 245.835649 217.314068 
L 255.81454 214.9254 
L 260.211935 214.20405 
L 257.779226 223.437491 
L 260.772125 226.888557 
L 263.38108 232.764189 
L 267.152532 230.406997 
L 271.063662 236.983879 
L 270.672457 234.040877 
L 273.785019 234.877381 
L 262.950792 231.464174 
L 270.464169 234.8087 
L 276.058721 226.744641 
L 270.782714 225.095953 
L 271.233975 228.63897 
L 270.196429 226.46014 
L 269.337582 226.275532 
L 266.171835 224.780875 
L 257.947537 228.03992 
L 261.735669 217.8883 
L 269.439897 218.116852 
L 277.581202 212.667625 
L 272.47522 220.679836 
L 269.438549 212.915203 
L 269.826041 216.991719 
L 266.772277 215.439759 
L 270.82063 216.392307 
L 274.522737 221.360893 
L 272.943924 223.602955 
L 266.568002 224.433359 
L 261.960644 227.839794 
L 254.997313 228.247605 
L 255.316214 233.635915 
L 261.290749 232.25909 
L 268.79933 232.083544 
L 261.57896 228.875477 
L 261.621885 223.942177 
L 263.463354 224.366655 
L 271.131429 227.958534 
L 266.517769 223.170518 
L 259.523073 222.416533 
L 256.051029 229.641427 
L 267.719542 229.680414 
L 258.747239 229.002036 
L 252.058677 233.544846 
L 248.072334 228.65903 
L 254.728092 218.544488 
L 259.766048 226.740968 
L 253.396117 228.65455 
L 247.925612 233.095889 
L 248.842535 240.058758 
L 255.074727 244.175861 
L 251.795261 242.897802 
L 234.636437 238.526638 
L 230.032314 240.144026 
L 225.090926 238.833398 
L 234.184667 234.369542 
L 236.741786 237.716982 
L 237.527841 243.549421 
L 237.133124 246.638168 
L 240.346817 245.779624 
L 232.58224 241.562094 
L 225.598367 240.949876 
L 224.107216 242.420446 
L 225.411769 244.653467 
L 233.54851 239.962512 
L 225.128029 231.968405 
L 234.137172 235.546906 
L 239.635413 232.033005 
L 253.148069 233.991327 
L 253.001651 234.864733 
L 249.55926 227.286287 
L 251.325529 226.222396 
L 248.410786 236.353769 
L 243.925473 236.239155 
L 243.791239 236.793537 
L 234.209255 220.81389 
L 231.449656 220.40093 
L 232.63971 221.409347 
L 233.623343 211.888428 
L 233.210862 214.457711 
L 237.662116 205.855739 
L 244.326198 210.535781 
L 247.305717 212.157464 
L 250.01411 205.540657 
L 256.474847 206.511969 
L 259.283042 204.944925 
L 258.643656 200.524931 
L 260.197214 196.154348 
L 265.923964 197.881452 
L 260.933093 197.53985 
L 259.670328 190.096539 
L 263.4729 199.346709 
L 252.032153 204.311923 
L 248.496952 203.248913 
L 248.778703 197.607542 
L 240.60257 201.038314 
L 236.826933 206.136477 
L 227.09577 197.870223 
L 234.196133 195.285481 
L 226.739485 196.79512 
L 230.950537 203.141062 
L 228.296527 192.347091 
L 232.428045 195.574546 
L 237.906711 195.595006 
L 241.203106 185.472876 
L 237.410863 185.737461 
L 236.563461 184.094023 
L 239.547278 181.654979 
L 244.128769 182.8124 
L 240.103522 184.210256 
L 248.153108 182.033753 
L 255.382568 181.50644 
L 253.736349 175.404987 
L 242.202251 179.769555 
L 244.687423 180.497077 
L 249.254679 174.100022 
L 250.388547 176.940503 
L 252.619116 176.638824 
L 252.493433 186.918235 
L 242.118311 181.140602 
L 234.880163 175.420664 
L 239.467113 182.300805 
L 232.11307 185.831873 
L 234.552487 179.712695 
L 236.575292 182.59254 
L 234.86053 182.992108 
L 236.994438 189.074353 
L 233.391455 182.57364 
L 240.661851 186.36564 
L 236.988885 184.101888 
L 244.105091 190.439659 
L 247.321431 204.319778 
L 239.712101 206.414854 
L 244.749141 215.253707 
L 243.436185 211.181803 
L 242.022601 210.54415 
L 234.577338 208.830097 
L 242.174565 217.487077 
L 237.778004 214.261421 
L 244.736296 220.811915 
L 253.779621 224.507496 
L 254.375088 235.359559 
L 250.714787 239.152273 
L 260.674673 234.469393 
L 258.66587 240.570539 
L 249.287143 233.540749 
L 244.111658 233.011664 
L 238.132123 230.655561 
L 241.937753 235.448027 
L 240.492243 240.192822 
L 243.471981 247.041133 
L 245.835015 244.592947 
L 239.62666 246.069842 
L 234.241894 249.856388 
L 232.177411 251.807891 
L 236.647503 257.053415 
L 225.948321 258.610105 
L 222.715594 264.462846 
L 217.680887 258.000356 
L 209.345101 251.004022 
L 219.890868 255.58992 
L 223.552055 255.138505 
L 228.281522 249.174998 
L 228.03153 247.776044 
L 231.983811 253.222684 
L 237.920526 251.962466 
L 230.081413 250.988312 
L 231.02038 247.199135 
L 228.654556 245.262501 
L 232.983151 244.558486 
L 236.445202 245.344978 
L 241.463119 237.069688 
L 236.488756 234.670955 
L 235.797026 237.725665 
L 243.295856 234.206558 
L 245.537645 234.07639 
L 246.796116 231.376904 
L 254.678107 243.336286 
L 253.447636 237.674369 
L 250.693425 238.871694 
L 254.804001 249.598967 
L 263.4608 256.280298 
L 265.774919 250.627228 
L 271.023093 253.065859 
L 279.257491 240.489075 
L 266.104769 239.212064 
L 264.843617 238.695791 
L 252.914542 236.543395 
L 248.910169 235.985884 
L 236.518441 227.163266 
L 235.275846 229.351712 
L 235.131963 238.877398 
L 234.21822 241.017425 
L 230.308233 244.748939 
L 232.661275 244.600698 
L 228.625101 237.804018 
L 230.004499 243.004449 
L 224.478109 234.589024 
L 223.978003 231.019724 
L 225.142317 232.995131 
L 228.290606 231.643642 
L 236.68698 231.111734 
L 236.150462 221.705036 
L 239.898553 216.843389 
L 241.135356 218.443495 
L 247.806837 212.060627 
L 242.23888 216.257358 
L 235.658771 216.306377 
L 235.307443 217.18517 
L 240.748554 206.380278 
L 239.833817 205.152609 
L 240.629641 204.592616 
L 240.398719 206.236431 
L 239.48128 205.939904 
L 231.938828 199.48843 
L 235.435642 196.193432 
L 240.921677 195.956653 
L 243.437646 200.321924 
L 240.064208 198.381438 
L 236.887642 191.72255 
L 237.509104 191.982692 
L 245.796788 190.981912 
L 246.593872 184.932969 
L 249.16265 193.263096 
L 249.194295 180.033192 
L 250.189228 180.560225 
L 245.279777 186.518263 
L 251.106897 199.178704 
L 247.598422 208.41895 
L 243.478436 216.504669 
L 250.28239 218.320579 
L 252.905228 217.864919 
L 254.843997 215.123353 
L 261.972893 214.525314 
L 265.526421 216.339458 
L 261.807087 209.183432 
L 260.305263 212.717094 
L 261.385769 208.147983 
L 264.417971 205.641243 
L 256.452456 204.353453 
L 254.131152 201.737224 
L 251.748067 199.958845 
L 256.600484 194.106981 
L 255.643728 196.827583 
L 262.483279 195.890017 
L 260.672128 197.071487 
L 255.97643 199.251382 
L 252.91127 197.056761 
L 251.223484 197.888682 
L 248.44891 193.312144 
L 245.263884 194.362305 
L 241.145563 201.21348 
L 247.252681 198.850816 
L 258.29162 199.806068 
L 255.816487 204.445165 
L 250.63157 204.204592 
L 252.396916 210.139726 
L 260.452979 213.725959 
L 253.118242 206.669627 
L 246.350047 204.365322 
L 234.312259 212.786581 
L 232.681833 221.352949 
L 244.193488 213.071517 
L 229.240324 217.31386 
L 235.352906 207.949745 
L 245.666156 209.599368 
L 240.107323 208.19499 
L 229.03756 196.091598 
L 243.029486 198.869508 
L 234.679605 196.121501 
L 216.023393 195.547415 
L 218.710367 203.77573 
L 227.721331 204.034636 
L 235.714186 201.497144 
L 233.089192 192.708915 
L 235.041161 196.303876 
L 231.472966 197.697715 
L 228.011254 193.059208 
L 230.040579 198.114503 
L 232.391002 206.491399 
L 232.852623 203.071402 
L 237.467026 201.799028 
L 231.282469 192.079851 
L 235.13937 198.281746 
L 241.16461 200.382524 
L 230.457094 196.511822 
L 234.128611 208.559354 
L 243.040913 205.907934 
L 249.432835 210.851574 
L 244.9952 202.61395 
L 239.451066 203.498338 
L 226.947072 212.376673 
L 231.840517 214.324427 
L 218.211922 211.463399 
L 216.773762 209.000248 
L 217.062588 209.35699 
L 225.398027 210.277972 
L 222.046782 210.402448 
L 224.808214 214.689787 
L 221.14076 211.166875 
L 217.721237 215.752797 
L 217.590799 222.190769 
L 226.560423 225.283738 
L 228.397395 237.832317 
L 225.067819 243.358137 
L 230.534684 236.918161 
L 224.504127 238.790707 
L 221.820534 232.9102 
L 216.217947 234.660252 
L 215.848109 232.054227 
L 214.933325 234.85129 
L 215.370603 231.026623 
L 218.10294 228.978412 
L 219.029986 235.189799 
L 213.409788 234.279756 
L 215.109445 229.343741 
L 214.228233 222.484304 
L 204.430349 219.477507 
L 210.754177 220.396403 
L 212.085342 225.249872 
L 220.94299 223.709971 
L 226.125511 218.667878 
L 220.19011 221.943563 
L 231.628794 221.202425 
L 236.922243 227.91513 
L 237.033575 229.008917 
L 239.250882 229.918479 
L 233.839216 230.894705 
L 238.191269 234.804076 
L 241.596426 232.651142 
L 228.970587 231.785979 
L 232.077575 236.668784 
L 232.27446 235.979462 
L 235.216792 240.063368 
L 230.356881 236.439849 
L 229.444472 237.500888 
L 218.06876 243.480028 
L 224.182831 240.13213 
L 221.077405 218.901246 
L 218.574924 222.162114 
L 209.838643 220.382003 
L 211.564491 223.812931 
L 211.512041 229.685298 
L 205.480299 230.682928 
L 200.553982 226.756518 
L 196.38716 238.473401 
L 206.858592 240.882962 
L 203.918368 244.630156 
L 202.00054 250.211729 
L 211.088874 246.476699 
L 203.399759 249.231428 
L 198.597506 248.264854 
L 195.373187 244.158948 
L 195.556037 249.552862 
L 189.589897 250.338993 
L 193.778272 256.209784 
L 188.558942 263.285685 
L 186.60681 263.836879 
L 189.73166 273.492941 
L 187.000582 283.857817 
L 181.657253 277.148869 
L 184.914972 273.285663 
L 175.328455 275.787397 
L 177.987347 268.635045 
L 181.335743 268.247046 
L 176.147058 268.424869 
L 178.634497 253.080785 
L 182.17046 256.457743 
L 181.858751 255.668104 
L 174.837164 262.547871 
L 172.116028 258.728747 
L 167.376781 262.505948 
L 166.540819 261.853816 
L 179.343 262.673212 
L 178.053605 264.013491 
L 170.794081 269.510349 
L 168.79288 269.333034 
L 164.440329 275.319566 
L 163.63568 277.661366 
L 171.475978 278.897563 
L 170.123499 286.155985 
L 184.10819 277.414928 
L 184.800693 273.770315 
L 181.24679 268.359453 
L 177.027401 265.326417 
L 170.768098 259.339853 
L 176.364754 257.460139 
L 169.408409 248.438696 
L 178.622598 251.28892 
L 192.623838 255.202852 
L 199.219396 255.719236 
L 186.754052 249.291301 
L 201.566383 254.452225 
L 196.5212 250.618742 
L 210.812807 243.677596 
L 217.575801 239.92408 
L 223.647363 239.746657 
L 212.444147 234.077799 
L 217.400249 228.914997 
L 217.544273 240.132169 
L 209.121179 238.967 
L 206.466043 232.916459 
L 203.144116 229.563151 
L 199.868004 229.068425 
L 188.12148 232.228984 
L 191.983545 226.116121 
L 181.923448 225.099296 
L 190.260057 226.69314 
L 195.827457 230.831318 
L 189.213463 224.691593 
L 199.368135 217.192579 
L 202.655013 230.879298 
L 202.800763 225.639002 
L 206.804501 237.238123 
L 200.084302 236.040162 
L 184.917409 229.555099 
L 180.033138 224.941291 
L 186.821845 228.626867 
L 181.625811 226.457038 
L 170.063311 244.356892 
L 160.15817 242.056426 
L 162.836964 239.676313 
L 160.045877 243.382962 
L 163.051704 241.469226 
L 166.976393 245.159239 
L 175.480111 252.253548 
L 179.17398 250.913947 
L 180.505461 250.706699 
L 180.8193 247.467074 
L 183.914872 250.880164 
L 185.979803 245.700441 
L 185.846083 244.458963 
L 193.927522 247.03718 
L 193.93626 242.012115 
L 189.967098 240.329417 
L 193.112828 239.619693 
L 197.962477 238.872907 
L 198.15427 238.409463 
L 199.245363 240.936787 
L 190.842184 235.843592 
L 197.993601 233.949353 
L 206.978131 232.617841 
L 211.52027 233.319677 
L 214.946251 234.492114 
L 218.5003 234.116355 
L 217.261176 235.033393 
L 216.5125 230.302523 
L 214.193522 233.752432 
L 219.923277 233.118315 
L 219.878357 232.446311 
L 219.420925 231.715844 
L 215.614562 245.504395 
L 216.901536 251.354901 
L 220.833336 243.626827 
L 213.160322 238.541809 
L 219.182318 235.124029 
L 211.715665 233.126126 
L 216.924235 240.83301 
L 210.822002 245.597658 
L 206.429184 240.253265 
L 211.281491 236.091672 
L 217.326258 240.357591 
L 223.446639 244.537003 
L 217.747667 243.728145 
L 222.44915 248.171242 
L 228.542475 250.744864 
L 216.912493 251.587389 
L 228.392055 253.254483 
L 240.196251 260.947545 
L 235.176087 253.629402 
L 241.797131 251.980459 
L 246.139881 251.646085 
L 244.61264 246.642546 
L 258.061773 255.999398 
L 260.485535 257.265867 
L 256.389562 260.758056 
L 260.850599 252.662658 
L 256.163882 249.482632 
L 258.575445 249.235854 
L 259.77947 245.827376 
L 263.981848 244.894957 
L 262.194137 244.955439 
L 267.562123 249.497807 
L 254.756399 247.502743 
L 259.366607 255.125281 
L 272.903877 266.713348 
L 273.559332 263.960388 
L 281.508425 267.950893 
L 276.644871 267.576418 
L 269.220907 274.162107 
L 269.486997 268.088065 
L 264.782631 261.994065 
L 264.470294 262.859 
L 261.686438 254.776335 
L 255.1444 258.682321 
L 251.812528 254.641765 
L 248.326291 255.831261 
L 250.017524 267.296251 
L 248.571647 265.249737 
L 249.999589 271.845003 
L 243.424036 256.970445 
L 239.190774 258.136504 
L 244.183527 264.372699 
L 248.994555 264.150067 
L 251.541433 260.827492 
L 252.678198 267.348239 
L 266.305733 270.403503 
L 260.435058 267.52797 
L 265.189358 257.751913 
L 270.064647 260.094091 
L 269.549114 257.530316 
L 266.271472 255.889999 
L 275.675074 261.615145 
L 275.216079 265.228713 
L 274.706387 261.101529 
L 269.013515 256.955949 
L 262.729279 255.995466 
L 270.974352 252.568941 
L 266.517258 263.158056 
L 270.103942 273.098959 
L 270.81749 277.974899 
L 274.745847 279.404367 
L 278.574449 283.84446 
L 268.664491 294.916685 
L 258.490495 292.731956 
L 254.279955 281.909269 
L 254.390022 278.273345 
L 252.613768 290.548666 
L 267.315597 291.663759 
L 265.802977 293.028816 
L 257.509008 280.686278 
L 253.181529 267.523074 
L 256.411487 260.001342 
L 254.136797 265.925411 
L 246.467563 272.417651 
L 240.941032 279.186844 
L 247.472936 279.249648 
L 253.961776 282.079156 
L 248.764465 280.580635 
L 257.465487 275.54221 
L 251.923826 274.679395 
L 243.6118 271.299234 
L 244.239977 268.592423 
L 242.311657 272.896443 
L 232.540375 275.607293 
L 238.413051 281.440956 
L 221.356554 273.199865 
L 219.249464 267.573251 
L 212.648673 265.608548 
L 204.622904 262.80974 
L 218.998422 258.084051 
L 229.84879 263.652343 
L 221.138439 259.688675 
L 212.646417 261.254672 
L 218.052017 267.43591 
L 215.5553 270.277206 
L 225.419305 282.024145 
L 236.887322 285.370704 
L 227.474312 282.935639 
L 242.896924 284.249533 
L 245.358007 283.410067 
L 262.480593 283.33141 
L 270.103818 290.660658 
L 279.688625 294.891873 
L 284.347623 301.340045 
L 282.156842 293.733166 
L 285.025095 292.716734 
L 281.649405 299.099297 
L 295.626324 305.205972 
L 297.943591 306.355249 
L 290.568013 308.925258 
L 295.481962 306.997252 
L 293.408845 296.108777 
L 291.419042 291.743249 
L 295.82981 283.92727 
L 301.959988 288.055914 
L 309.716621 287.059697 
L 314.284142 284.990891 
L 317.590815 288.771105 
L 325.677226 285.776158 
L 328.083822 293.860984 
L 316.236294 298.258038 
L 313.209942 313.49746 
L 306.05225 313.27703 
L 311.57393 319.997598 
L 311.436191 318.327041 
L 303.472871 312.53251 
L 314.741089 303.631028 
L 319.656462 303.365908 
L 318.625587 306.486386 
L 328.249638 305.714397 
L 327.663984 306.857899 
L 321.128857 301.655841 
L 318.895676 300.913427 
L 317.028641 298.110051 
L 323.323719 298.089183 
L 318.077554 291.716109 
L 328.083091 288.892886 
L 328.63335 291.171504 
L 332.055863 279.487572 
L 330.829804 283.174507 
L 328.016893 280.216012 
L 331.71348 275.355576 
L 334.639112 273.415399 
L 341.106128 274.849112 
L 344.994545 272.47648 
L 342.384634 272.514312 
L 336.15266 269.743505 
L 329.875036 271.314252 
L 333.857053 269.264233 
L 333.953224 273.087579 
L 329.105165 278.950047 
L 337.803298 290.402925 
L 332.857784 290.641869 
L 334.833434 292.605565 
L 330.970487 299.916497 
L 344.255714 299.931716 
L 353.224125 303.714371 
L 336.543411 298.00649 
L 332.273845 293.492337 
L 330.923677 298.222052 
L 323.734423 297.536771 
L 322.314077 293.678988 
L 321.334998 299.783895 
L 321.974987 303.926023 
L 318.392759 307.913019 
L 320.986884 312.092245 
L 319.729878 307.782945 
L 320.896209 305.906335 
L 317.134012 305.286817 
L 317.763894 303.842093 
L 322.340892 303.532928 
L 318.981076 308.666526 
L 314.317421 316.071631 
L 325.476188 319.852821 
L 331.261986 322.958502 
L 325.276336 329.217762 
L 318.186977 333.556723 
L 322.312811 333.09551 
L 337.879172 333.336595 
L 350.209713 329.004877 
L 352.87778 332.611874 
L 350.614068 331.83901 
L 345.586052 324.495396 
L 341.604846 320.876679 
L 348.59753 322.245493 
L 353.149948 330.720097 
L 349.105926 336.457587 
L 363.269736 343.689621 
L 369.288331 348.296782 
L 364.901926 350.134212 
L 363.681268 355.254741 
L 365.133449 356.710012 
L 365.052846 359.759439 
L 373.398326 366.564152 
L 368.024579 362.3123 
L 363.147321 352.780778 
L 356.841192 353.604897 
L 357.866086 352.745912 
L 351.453858 357.951478 
L 357.958852 359.472158 
L 357.777964 353.809069 
L 352.665214 343.171476 
L 363.509792 358.717867 
L 360.494359 345.765738 
L 350.136795 350.714954 
L 338.335583 357.061558 
L 340.957812 362.463779 
L 349.919292 367.608654 
L 343.746618 366.24266 
L 349.770977 365.281057 
L 350.373838 377.155268 
L 349.366709 383.323833 
L 349.814609 390.320374 
L 344.899099 386.583686 
L 337.152766 391.061722 
L 347.54842 393.484353 
L 346.68924 392.862712 
L 353.424516 383.886914 
L 354.086923 389.455028 
L 359.505342 391.136668 
L 362.385361 401.886629 
L 366.659006 406.047437 
L 359.996748 395.917694 
L 361.257491 396.403651 
L 364.20813 400.035156 
L 360.780031 398.431844 
L 354.80243 406.969069 
L 359.156072 406.517618 
L 353.622074 406.212445 
L 354.777437 409.029358 
L 343.210348 408.224209 
L 326.984882 393.904559 
L 330.428653 397.678472 
L 323.157135 403.58833 
L 322.484768 402.58366 
L 320.746611 406.810173 
L 322.802862 392.32272 
L 321.835804 388.715771 
L 314.731818 386.496595 
L 320.005405 382.383183 
L 329.434368 378.712967 
L 332.557158 383.606236 
L 329.416295 386.650248 
L 329.173181 383.04242 
L 334.63123 384.583676 
L 337.584296 381.809651 
L 332.676644 384.374041 
L 334.568981 393.857701 
L 331.477522 398.42452 
L 329.793784 406.507008 
L 327.178014 410.978069 
L 321.582171 415.459828 
L 327.73307 416.728688 
L 317.780216 412.488948 
L 326.483954 413.10795 
L 330.526745 417.763852 
L 319.906696 413.825813 
L 318.624786 419.318823 
L 331.930041 417.825601 
L 326.367076 417.426104 
L 331.079256 420.981021 
L 329.686792 411.364261 
L 326.620116 411.973559 
L 324.708994 400.32723 
L 321.176967 397.906745 
L 318.000309 401.738515 
L 324.704611 390.843011 
L 310.561898 385.275454 
L 310.806523 393.234739 
L 306.680456 394.118392 
L 303.950414 394.868899 
L 296.527038 390.352554 
L 294.549866 387.790001 
L 291.559002 379.272869 
L 289.542449 378.265963 
L 279.725189 376.391396 
L 276.660221 380.92721 
L 274.741908 381.536654 
L 279.896619 390.080773 
L 284.405926 388.674968 
L 288.105515 395.119407 
L 284.737374 395.842845 
L 283.363905 395.17037 
L 287.398741 388.358982 
L 293.167164 380.093872 
L 290.17652 374.844372 
L 282.300099 373.779303 
L 291.485782 368.550553 
L 287.972197 366.012726 
L 296.748933 368.227069 
L 300.712597 375.259946 
L 299.655618 377.850215 
L 302.868047 375.703097 
L 296.765092 377.176482 
L 298.043833 370.019065 
L 298.156603 365.249485 
L 290.539829 369.589729 
L 286.136922 362.161669 
L 274.799253 368.528926 
L 272.765256 379.812457 
L 275.358753 384.018692 
L 284.152823 383.07176 
L 278.860224 378.307869 
L 286.336483 388.287317 
L 293.578107 383.835404 
L 294.485555 384.221613 
L 294.485555 384.221613 
" clip-path="url(#p7a7cf52638)" style="fill: none; stroke: #ff0000; stroke-opacity: 0.8; stroke-width: 1.5; stroke-linecap: square"/>
   </g>
   <g id="text_22">
    <!-- 3D Wiener Processes (T=10.00, μ=0.1) -->
    <g transform="translate(166.797187 16.318125) scale(0.12 -0.12)">
     <defs>
      <path id="DejaVuSans-33" d="M 2597 2516 
Q 3050 2419 3304 2112 
Q 3559 1806 3559 1356 
Q 3559 666 3084 287 
Q 2609 -91 1734 -91 
Q 1441 -91 1130 -33 
Q 819 25 488 141 
L 488 750 
Q 750 597 1062 519 
Q 1375 441 1716 441 
Q 2309 441 2620 675 
Q 2931 909 2931 1356 
Q 2931 1769 2642 2001 
Q 2353 2234 1838 2234 
L 1294 2234 
L 1294 2753 
L 1863 2753 
Q 2328 2753 2575 2939 
Q 2822 3125 2822 3475 
Q 2822 3834 2567 4026 
Q 2313 4219 1838 4219 
Q 1578 4219 1281 4162 
Q 984 4106 628 3988 
L 628 4550 
Q 988 4650 1302 4700 
Q 1616 4750 1894 4750 
Q 2613 4750 3031 4423 
Q 3450 4097 3450 3541 
Q 3450 3153 3228 2886 
Q 3006 2619 2597 2516 
z
" transform="scale(0.015625)"/>
      <path id="DejaVuSans-44" d="M 1259 4147 
L 1259 519 
L 2022 519 
Q 2988 519 3436 956 
Q 3884 1394 3884 2338 
Q 3884 3275 3436 3711 
Q 2988 4147 2022 4147 
L 1259 4147 
z
M 628 4666 
L 1925 4666 
Q 3281 4666 3915 4102 
Q 4550 3538 4550 2338 
Q 4550 1131 3912 565 
Q 3275 0 1925 0 
L 628 0 
L 628 4666 
z
" transform="scale(0.015625)"/>
      <path id="DejaVuSans-20" transform="scale(0.015625)"/>
      <path id="DejaVuSans-57" d="M 213 4666 
L 850 4666 
L 1831 722 
L 2809 4666 
L 3519 4666 
L 4500 722 
L 5478 4666 
L 6119 4666 
L 4947 0 
L 4153 0 
L 3169 4050 
L 2175 0 
L 1381 0 
L 213 4666 
z
" transform="scale(0.015625)"/>
      <path id="DejaVuSans-65" d="M 3597 1894 
L 3597 1613 
L 953 1613 
Q 991 1019 1311 708 
Q 1631 397 2203 397 
Q 2534 397 2845 478 
Q 3156 559 3463 722 
L 3463 178 
Q 3153 47 2828 -22 
Q 2503 -91 2169 -91 
Q 1331 -91 842 396 
Q 353 884 353 1716 
Q 353 2575 817 3079 
Q 1281 3584 2069 3584 
Q 2775 3584 3186 3129 
Q 3597 2675 3597 1894 
z
M 3022 2063 
Q 3016 2534 2758 2815 
Q 2500 3097 2075 3097 
Q 1594 3097 1305 2825 
Q 1016 2553 972 2059 
L 3022 2063 
z
" transform="scale(0.015625)"/>
      <path id="DejaVuSans-6e" d="M 3513 2113 
L 3513 0 
L 2938 0 
L 2938 2094 
Q 2938 2591 2744 2837 
Q 2550 3084 2163 3084 
Q 1697 3084 1428 2787 
Q 1159 2491 1159 1978 
L 1159 0 
L 581 0 
L 581 3500 
L 1159 3500 
L 1159 2956 
Q 1366 3272 1645 3428 
Q 1925 3584 2291 3584 
Q 2894 3584 3203 3211 
Q 3513 2838 3513 2113 
z
" transform="scale(0.015625)"/>
      <path id="DejaVuSans-72" d="M 2631 2963 
Q 2534 3019 2420 3045 
Q 2306 3072 2169 3072 
Q 1681 3072 1420 2755 
Q 1159 2438 1159 1844 
L 1159 0 
L 581 0 
L 581 3500 
L 1159 3500 
L 1159 2956 
Q 1341 3275 1631 3429 
Q 1922 3584 2338 3584 
Q 2397 3584 2469 3576 
Q 2541 3569 2628 3553 
L 2631 2963 
z
" transform="scale(0.015625)"/>
      <path id="DejaVuSans-50" d="M 1259 4147 
L 1259 2394 
L 2053 2394 
Q 2494 2394 2734 2622 
Q 2975 2850 2975 3272 
Q 2975 3691 2734 3919 
Q 2494 4147 2053 4147 
L 1259 4147 
z
M 628 4666 
L 2053 4666 
Q 2838 4666 3239 4311 
Q 3641 3956 3641 3272 
Q 3641 2581 3239 2228 
Q 2838 1875 2053 1875 
L 1259 1875 
L 1259 0 
L 628 0 
L 628 4666 
z
" transform="scale(0.015625)"/>
      <path id="DejaVuSans-6f" d="M 1959 3097 
Q 1497 3097 1228 2736 
Q 959 2375 959 1747 
Q 959 1119 1226 758 
Q 1494 397 1959 397 
Q 2419 397 2687 759 
Q 2956 1122 2956 1747 
Q 2956 2369 2687 2733 
Q 2419 3097 1959 3097 
z
M 1959 3584 
Q 2709 3584 3137 3096 
Q 3566 2609 3566 1747 
Q 3566 888 3137 398 
Q 2709 -91 1959 -91 
Q 1206 -91 779 398 
Q 353 888 353 1747 
Q 353 2609 779 3096 
Q 1206 3584 1959 3584 
z
" transform="scale(0.015625)"/>
      <path id="DejaVuSans-63" d="M 3122 3366 
L 3122 2828 
Q 2878 2963 2633 3030 
Q 2388 3097 2138 3097 
Q 1578 3097 1268 2742 
Q 959 2388 959 1747 
Q 959 1106 1268 751 
Q 1578 397 2138 397 
Q 2388 397 2633 464 
Q 2878 531 3122 666 
L 3122 134 
Q 2881 22 2623 -34 
Q 2366 -91 2075 -91 
Q 1284 -91 818 406 
Q 353 903 353 1747 
Q 353 2603 823 3093 
Q 1294 3584 2113 3584 
Q 2378 3584 2631 3529 
Q 2884 3475 3122 3366 
z
" transform="scale(0.015625)"/>
      <path id="DejaVuSans-28" d="M 1984 4856 
Q 1566 4138 1362 3434 
Q 1159 2731 1159 2009 
Q 1159 1288 1364 580 
Q 1569 -128 1984 -844 
L 1484 -844 
Q 1016 -109 783 600 
Q 550 1309 550 2009 
Q 550 2706 781 3412 
Q 1013 4119 1484 4856 
L 1984 4856 
z
" transform="scale(0.015625)"/>
      <path id="DejaVuSans-54" d="M -19 4666 
L 3928 4666 
L 3928 4134 
L 2272 4134 
L 2272 0 
L 1638 0 
L 1638 4134 
L -19 4134 
L -19 4666 
z
" transform="scale(0.015625)"/>
      <path id="DejaVuSans-3d" d="M 678 2906 
L 4684 2906 
L 4684 2381 
L 678 2381 
L 678 2906 
z
M 678 1631 
L 4684 1631 
L 4684 1100 
L 678 1100 
L 678 1631 
z
" transform="scale(0.015625)"/>
      <path id="DejaVuSans-31" d="M 794 531 
L 1825 531 
L 1825 4091 
L 703 3866 
L 703 4441 
L 1819 4666 
L 2450 4666 
L 2450 531 
L 3481 531 
L 3481 0 
L 794 0 
L 794 531 
z
" transform="scale(0.015625)"/>
      <path id="DejaVuSans-2e" d="M 684 794 
L 1344 794 
L 1344 0 
L 684 0 
L 684 794 
z
" transform="scale(0.015625)"/>
      <path id="DejaVuSans-2c" d="M 750 794 
L 1409 794 
L 1409 256 
L 897 -744 
L 494 -744 
L 750 256 
L 750 794 
z
" transform="scale(0.015625)"/>
      <path id="DejaVuSans-3bc" d="M 544 -1331 
L 544 3500 
L 1119 3500 
L 1119 1325 
Q 1119 872 1334 640 
Q 1550 409 1972 409 
Q 2434 409 2667 671 
Q 2900 934 2900 1459 
L 2900 3500 
L 3475 3500 
L 3475 806 
Q 3475 619 3529 530 
Q 3584 441 3700 441 
Q 3728 441 3778 458 
Q 3828 475 3916 513 
L 3916 50 
Q 3788 -22 3673 -56 
Q 3559 -91 3450 -91 
Q 3234 -91 3106 31 
Q 2978 153 2931 403 
Q 2775 156 2548 32 
Q 2322 -91 2016 -91 
Q 1697 -91 1473 31 
Q 1250 153 1119 397 
L 1119 -1331 
L 544 -1331 
z
" transform="scale(0.015625)"/>
      <path id="DejaVuSans-29" d="M 513 4856 
L 1013 4856 
Q 1481 4119 1714 3412 
Q 1947 2706 1947 2009 
Q 1947 1309 1714 600 
Q 1481 -109 1013 -844 
L 513 -844 
Q 928 -128 1133 580 
Q 1338 1288 1338 2009 
Q 1338 2731 1133 3434 
Q 928 4138 513 4856 
z
" transform="scale(0.015625)"/>
     </defs>
     <use xlink:href="#DejaVuSans-33"/>
     <use xlink:href="#DejaVuSans-44" transform="translate(63.623047 0)"/>
     <use xlink:href="#DejaVuSans-20" transform="translate(140.625 0)"/>
     <use xlink:href="#DejaVuSans-57" transform="translate(172.412109 0)"/>
     <use xlink:href="#DejaVuSans-69" transform="translate(269.039062 0)"/>
     <use xlink:href="#DejaVuSans-65" transform="translate(296.822266 0)"/>
     <use xlink:href="#DejaVuSans-6e" transform="translate(358.345703 0)"/>
     <use xlink:href="#DejaVuSans-65" transform="translate(421.724609 0)"/>
     <use xlink:href="#DejaVuSans-72" transform="translate(483.248047 0)"/>
     <use xlink:href="#DejaVuSans-20" transform="translate(524.361328 0)"/>
     <use xlink:href="#DejaVuSans-50" transform="translate(556.148438 0)"/>
     <use xlink:href="#DejaVuSans-72" transform="translate(614.701172 0)"/>
     <use xlink:href="#DejaVuSans-6f" transform="translate(653.564453 0)"/>
     <use xlink:href="#DejaVuSans-63" transform="translate(714.746094 0)"/>
     <use xlink:href="#DejaVuSans-65" transform="translate(769.726562 0)"/>
     <use xlink:href="#DejaVuSans-73" transform="translate(831.25 0)"/>
     <use xlink:href="#DejaVuSans-73" transform="translate(883.349609 0)"/>
     <use xlink:href="#DejaVuSans-65" transform="translate(935.449219 0)"/>
     <use xlink:href="#DejaVuSans-73" transform="translate(996.972656 0)"/>
     <use xlink:href="#DejaVuSans-20" transform="translate(1049.072266 0)"/>
     <use xlink:href="#DejaVuSans-28" transform="translate(1080.859375 0)"/>
     <use xlink:href="#DejaVuSans-54" transform="translate(1119.873047 0)"/>
     <use xlink:href="#DejaVuSans-3d" transform="translate(1180.957031 0)"/>
     <use xlink:href="#DejaVuSans-31" transform="translate(1264.746094 0)"/>
     <use xlink:href="#DejaVuSans-30" transform="translate(1328.369141 0)"/>
     <use xlink:href="#DejaVuSans-2e" transform="translate(1391.992188 0)"/>
     <use xlink:href="#DejaVuSans-30" transform="translate(1423.779297 0)"/>
     <use xlink:href="#DejaVuSans-30" transform="translate(1487.402344 0)"/>
     <use xlink:href="#DejaVuSans-2c" transform="translate(1551.025391 0)"/>
     <use xlink:href="#DejaVuSans-20" transform="translate(1582.8125 0)"/>
     <use xlink:href="#DejaVuSans-3bc" transform="translate(1614.599609 0)"/>
     <use xlink:href="#DejaVuSans-3d" transform="translate(1678.222656 0)"/>
     <use xlink:href="#DejaVuSans-30" transform="translate(1762.011719 0)"/>
     <use xlink:href="#DejaVuSans-2e" transform="translate(1825.634766 0)"/>
     <use xlink:href="#DejaVuSans-31" transform="translate(1857.421875 0)"/>
     <use xlink:href="#DejaVuSans-29" transform="translate(1921.044922 0)"/>
    </g>
   </g>
   <g id="legend_1">
    <g id="patch_6">
     <path d="M 396.526562 59.674375 
L 554.6 59.674375 
Q 556.6 59.674375 556.6 57.674375 
L 556.6 29.318125 
Q 556.6 27.318125 554.6 27.318125 
L 396.526562 27.318125 
Q 394.526562 27.318125 394.526562 29.318125 
L 394.526562 57.674375 
Q 394.526562 59.674375 396.526562 59.674375 
z
" style="fill: #ffffff; opacity: 0.8; stroke: #cccccc; stroke-linejoin: miter"/>
    </g>
    <g id="line2d_24">
     <path d="M 398.526562 35.416563 
L 408.526562 35.416563 
L 418.526562 35.416563 
" style="fill: none; stroke: #0000ff; stroke-opacity: 0.8; stroke-width: 1.5; stroke-linecap: square"/>
    </g>
    <g id="text_23">
     <!-- Process 1 (σ=1.0, μ=0.1) -->
     <g transform="translate(426.526562 38.916563) scale(0.1 -0.1)">
      <defs>
       <path id="DejaVuSans-3c3" d="M 1959 3044 
Q 1484 3044 1228 2700 
Q 959 2341 959 1747 
Q 959 1119 1226 758 
Q 1494 397 1959 397 
Q 2419 397 2687 759 
Q 2956 1122 2956 1747 
Q 2956 2319 2688 2700 
Q 2441 3044 1959 3044 
z
M 1959 3500 
L 3869 3500 
L 3869 2925 
L 3225 2925 
Q 3566 2438 3566 1747 
Q 3566 888 3138 400 
Q 2709 -91 1959 -91 
Q 1206 -91 781 400 
Q 353 888 353 1747 
Q 353 2613 781 3097 
Q 1134 3500 1959 3500 
z
" transform="scale(0.015625)"/>
      </defs>
      <use xlink:href="#DejaVuSans-50"/>
      <use xlink:href="#DejaVuSans-72" transform="translate(58.552734 0)"/>
      <use xlink:href="#DejaVuSans-6f" transform="translate(97.416016 0)"/>
      <use xlink:href="#DejaVuSans-63" transform="translate(158.597656 0)"/>
      <use xlink:href="#DejaVuSans-65" transform="translate(213.578125 0)"/>
      <use xlink:href="#DejaVuSans-73" transform="translate(275.101562 0)"/>
      <use xlink:href="#DejaVuSans-73" transform="translate(327.201172 0)"/>
      <use xlink:href="#DejaVuSans-20" transform="translate(379.300781 0)"/>
      <use xlink:href="#DejaVuSans-31" transform="translate(411.087891 0)"/>
      <use xlink:href="#DejaVuSans-20" transform="translate(474.710938 0)"/>
      <use xlink:href="#DejaVuSans-28" transform="translate(506.498047 0)"/>
      <use xlink:href="#DejaVuSans-3c3" transform="translate(545.511719 0)"/>
      <use xlink:href="#DejaVuSans-3d" transform="translate(608.890625 0)"/>
      <use xlink:href="#DejaVuSans-31" transform="translate(692.679688 0)"/>
      <use xlink:href="#DejaVuSans-2e" transform="translate(756.302734 0)"/>
      <use xlink:href="#DejaVuSans-30" transform="translate(788.089844 0)"/>
      <use xlink:href="#DejaVuSans-2c" transform="translate(851.712891 0)"/>
      <use xlink:href="#DejaVuSans-20" transform="translate(883.5 0)"/>
      <use xlink:href="#DejaVuSans-3bc" transform="translate(915.287109 0)"/>
      <use xlink:href="#DejaVuSans-3d" transform="translate(978.910156 0)"/>
      <use xlink:href="#DejaVuSans-30" transform="translate(1062.699219 0)"/>
      <use xlink:href="#DejaVuSans-2e" transform="translate(1126.322266 0)"/>
      <use xlink:href="#DejaVuSans-31" transform="translate(1158.109375 0)"/>
      <use xlink:href="#DejaVuSans-29" transform="translate(1221.732422 0)"/>
     </g>
    </g>
    <g id="line2d_25">
     <path d="M 398.526562 50.094688 
L 408.526562 50.094688 
L 418.526562 50.094688 
" style="fill: none; stroke: #ff0000; stroke-opacity: 0.8; stroke-width: 1.5; stroke-linecap: square"/>
    </g>
    <g id="text_24">
     <!-- Process 2 (σ=2.0, μ=0.1) -->
     <g transform="translate(426.526562 53.594688) scale(0.1 -0.1)">
      <use xlink:href="#DejaVuSans-50"/>
      <use xlink:href="#DejaVuSans-72" transform="translate(58.552734 0)"/>
      <use xlink:href="#DejaVuSans-6f" transform="translate(97.416016 0)"/>
      <use xlink:href="#DejaVuSans-63" transform="translate(158.597656 0)"/>
      <use xlink:href="#DejaVuSans-65" transform="translate(213.578125 0)"/>
      <use xlink:href="#DejaVuSans-73" transform="translate(275.101562 0)"/>
      <use xlink:href="#DejaVuSans-73" transform="translate(327.201172 0)"/>
      <use xlink:href="#DejaVuSans-20" transform="translate(379.300781 0)"/>
      <use xlink:href="#DejaVuSans-32" transform="translate(411.087891 0)"/>
      <use xlink:href="#DejaVuSans-20" transform="translate(474.710938 0)"/>
      <use xlink:href="#DejaVuSans-28" transform="translate(506.498047 0)"/>
      <use xlink:href="#DejaVuSans-3c3" transform="translate(545.511719 0)"/>
      <use xlink:href="#DejaVuSans-3d" transform="translate(608.890625 0)"/>
      <use xlink:href="#DejaVuSans-32" transform="translate(692.679688 0)"/>
      <use xlink:href="#DejaVuSans-2e" transform="translate(756.302734 0)"/>
      <use xlink:href="#DejaVuSans-30" transform="translate(788.089844 0)"/>
      <use xlink:href="#DejaVuSans-2c" transform="translate(851.712891 0)"/>
      <use xlink:href="#DejaVuSans-20" transform="translate(883.5 0)"/>
      <use xlink:href="#DejaVuSans-3bc" transform="translate(915.287109 0)"/>
      <use xlink:href="#DejaVuSans-3d" transform="translate(978.910156 0)"/>
      <use xlink:href="#DejaVuSans-30" transform="translate(1062.699219 0)"/>
      <use xlink:href="#DejaVuSans-2e" transform="translate(1126.322266 0)"/>
      <use xlink:href="#DejaVuSans-31" transform="translate(1158.109375 0)"/>
      <use xlink:href="#DejaVuSans-29" transform="translate(1221.732422 0)"/>
     </g>
    </g>
   </g>
  </g>
 </g>
 <defs>
  <clipPath id="p7a7cf52638">
   <rect x="7.2" y="22.318125" width="554.4" height="554.4"/>
  </clipPath>
 </defs>
</svg>
