<?xml version="1.0" encoding="utf-8" standalone="no"?>
<!DOCTYPE svg PUBLIC "-//W3C//DTD SVG 1.1//EN"
  "http://www.w3.org/Graphics/SVG/1.1/DTD/svg11.dtd">
<svg xmlns:xlink="http://www.w3.org/1999/xlink" width="856.495625pt" height="349.53575pt" viewBox="0 0 856.495625 349.53575" xmlns="http://www.w3.org/2000/svg" version="1.1">
 <metadata>
  <rdf:RDF xmlns:dc="http://purl.org/dc/elements/1.1/" xmlns:cc="http://creativecommons.org/ns#" xmlns:rdf="http://www.w3.org/1999/02/22-rdf-syntax-ns#">
   <cc:Work>
    <dc:type rdf:resource="http://purl.org/dc/dcmitype/StillImage"/>
    <dc:date>2025-11-04T22:27:38.155386</dc:date>
    <dc:format>image/svg+xml</dc:format>
    <dc:creator>
     <cc:Agent>
      <dc:title>Matplotlib v3.10.7, https://matplotlib.org/</dc:title>
     </cc:Agent>
    </dc:creator>
   </cc:Work>
  </rdf:RDF>
 </metadata>
 <defs>
  <style type="text/css">*{stroke-linejoin: round; stroke-linecap: butt}</style>
 </defs>
 <g id="figure_1">
  <g id="patch_1">
   <path d="M 0 349.53575 
L 856.495625 349.53575 
L 856.495625 0 
L 0 0 
z
" style="fill: #ffffff"/>
  </g>
  <g id="axes_1">
   <g id="patch_2">
    <path d="M 46.965625 311.5795 
L 422.650625 311.5795 
L 422.650625 35.7555 
L 46.965625 35.7555 
z
" style="fill: #ffffff"/>
   </g>
   <g id="patch_3">
    <path d="M 64.042216 311.5795 
L 72.580511 311.5795 
L 72.580511 304.431486 
L 64.042216 304.431486 
z
" clip-path="url(#p187aee0c65)" style="fill: #87ceeb; stroke: #000000; stroke-linejoin: miter"/>
   </g>
   <g id="patch_4">
    <path d="M 72.580511 311.5795 
L 81.118807 311.5795 
L 81.118807 300.857479 
L 72.580511 300.857479 
z
" clip-path="url(#p187aee0c65)" style="fill: #87ceeb; stroke: #000000; stroke-linejoin: miter"/>
   </g>
   <g id="patch_5">
    <path d="M 81.118807 311.5795 
L 89.657102 311.5795 
L 89.657102 293.709464 
L 81.118807 293.709464 
z
" clip-path="url(#p187aee0c65)" style="fill: #87ceeb; stroke: #000000; stroke-linejoin: miter"/>
   </g>
   <g id="patch_6">
    <path d="M 89.657102 311.5795 
L 98.195398 311.5795 
L 98.195398 281.200439 
L 89.657102 281.200439 
z
" clip-path="url(#p187aee0c65)" style="fill: #87ceeb; stroke: #000000; stroke-linejoin: miter"/>
   </g>
   <g id="patch_7">
    <path d="M 98.195398 311.5795 
L 106.733693 311.5795 
L 106.733693 268.691414 
L 98.195398 268.691414 
z
" clip-path="url(#p187aee0c65)" style="fill: #87ceeb; stroke: #000000; stroke-linejoin: miter"/>
   </g>
   <g id="patch_8">
    <path d="M 106.733693 311.5795 
L 115.271989 311.5795 
L 115.271989 238.312354 
L 106.733693 238.312354 
z
" clip-path="url(#p187aee0c65)" style="fill: #87ceeb; stroke: #000000; stroke-linejoin: miter"/>
   </g>
   <g id="patch_9">
    <path d="M 115.271989 311.5795 
L 123.810284 311.5795 
L 123.810284 207.933293 
L 115.271989 207.933293 
z
" clip-path="url(#p187aee0c65)" style="fill: #87ceeb; stroke: #000000; stroke-linejoin: miter"/>
   </g>
   <g id="patch_10">
    <path d="M 123.810284 311.5795 
L 132.34858 311.5795 
L 132.34858 193.637265 
L 123.810284 193.637265 
z
" clip-path="url(#p187aee0c65)" style="fill: #87ceeb; stroke: #000000; stroke-linejoin: miter"/>
   </g>
   <g id="patch_11">
    <path d="M 132.34858 311.5795 
L 140.886875 311.5795 
L 140.886875 157.897194 
L 132.34858 157.897194 
z
" clip-path="url(#p187aee0c65)" style="fill: #87ceeb; stroke: #000000; stroke-linejoin: miter"/>
   </g>
   <g id="patch_12">
    <path d="M 140.886875 311.5795 
L 149.42517 311.5795 
L 149.42517 150.749179 
L 140.886875 150.749179 
z
" clip-path="url(#p187aee0c65)" style="fill: #87ceeb; stroke: #000000; stroke-linejoin: miter"/>
   </g>
   <g id="patch_13">
    <path d="M 149.42517 311.5795 
L 157.963466 311.5795 
L 157.963466 88.204055 
L 149.42517 88.204055 
z
" clip-path="url(#p187aee0c65)" style="fill: #87ceeb; stroke: #000000; stroke-linejoin: miter"/>
   </g>
   <g id="patch_14">
    <path d="M 157.963466 311.5795 
L 166.501761 311.5795 
L 166.501761 91.778062 
L 157.963466 91.778062 
z
" clip-path="url(#p187aee0c65)" style="fill: #87ceeb; stroke: #000000; stroke-linejoin: miter"/>
   </g>
   <g id="patch_15">
    <path d="M 166.501761 311.5795 
L 175.040057 311.5795 
L 175.040057 68.547015 
L 166.501761 68.547015 
z
" clip-path="url(#p187aee0c65)" style="fill: #87ceeb; stroke: #000000; stroke-linejoin: miter"/>
   </g>
   <g id="patch_16">
    <path d="M 175.040057 311.5795 
L 183.578352 311.5795 
L 183.578352 48.889976 
L 175.040057 48.889976 
z
" clip-path="url(#p187aee0c65)" style="fill: #87ceeb; stroke: #000000; stroke-linejoin: miter"/>
   </g>
   <g id="patch_17">
    <path d="M 183.578352 311.5795 
L 192.116648 311.5795 
L 192.116648 72.121023 
L 183.578352 72.121023 
z
" clip-path="url(#p187aee0c65)" style="fill: #87ceeb; stroke: #000000; stroke-linejoin: miter"/>
   </g>
   <g id="patch_18">
    <path d="M 192.116648 311.5795 
L 200.654943 311.5795 
L 200.654943 116.796112 
L 192.116648 116.796112 
z
" clip-path="url(#p187aee0c65)" style="fill: #87ceeb; stroke: #000000; stroke-linejoin: miter"/>
   </g>
   <g id="patch_19">
    <path d="M 200.654943 311.5795 
L 209.193239 311.5795 
L 209.193239 102.500083 
L 200.654943 102.500083 
z
" clip-path="url(#p187aee0c65)" style="fill: #87ceeb; stroke: #000000; stroke-linejoin: miter"/>
   </g>
   <g id="patch_20">
    <path d="M 209.193239 311.5795 
L 217.731534 311.5795 
L 217.731534 129.305137 
L 209.193239 129.305137 
z
" clip-path="url(#p187aee0c65)" style="fill: #87ceeb; stroke: #000000; stroke-linejoin: miter"/>
   </g>
   <g id="patch_21">
    <path d="M 217.731534 311.5795 
L 226.26983 311.5795 
L 226.26983 141.814161 
L 217.731534 141.814161 
z
" clip-path="url(#p187aee0c65)" style="fill: #87ceeb; stroke: #000000; stroke-linejoin: miter"/>
   </g>
   <g id="patch_22">
    <path d="M 226.26983 311.5795 
L 234.808125 311.5795 
L 234.808125 159.684197 
L 226.26983 159.684197 
z
" clip-path="url(#p187aee0c65)" style="fill: #87ceeb; stroke: #000000; stroke-linejoin: miter"/>
   </g>
   <g id="patch_23">
    <path d="M 234.808125 311.5795 
L 243.34642 311.5795 
L 243.34642 157.897194 
L 234.808125 157.897194 
z
" clip-path="url(#p187aee0c65)" style="fill: #87ceeb; stroke: #000000; stroke-linejoin: miter"/>
   </g>
   <g id="patch_24">
    <path d="M 243.34642 311.5795 
L 251.884716 311.5795 
L 251.884716 193.637265 
L 243.34642 193.637265 
z
" clip-path="url(#p187aee0c65)" style="fill: #87ceeb; stroke: #000000; stroke-linejoin: miter"/>
   </g>
   <g id="patch_25">
    <path d="M 251.884716 311.5795 
L 260.423011 311.5795 
L 260.423011 209.720297 
L 251.884716 209.720297 
z
" clip-path="url(#p187aee0c65)" style="fill: #87ceeb; stroke: #000000; stroke-linejoin: miter"/>
   </g>
   <g id="patch_26">
    <path d="M 260.423011 311.5795 
L 268.961307 311.5795 
L 268.961307 232.951343 
L 260.423011 232.951343 
z
" clip-path="url(#p187aee0c65)" style="fill: #87ceeb; stroke: #000000; stroke-linejoin: miter"/>
   </g>
   <g id="patch_27">
    <path d="M 268.961307 311.5795 
L 277.499602 311.5795 
L 277.499602 245.460368 
L 268.961307 245.460368 
z
" clip-path="url(#p187aee0c65)" style="fill: #87ceeb; stroke: #000000; stroke-linejoin: miter"/>
   </g>
   <g id="patch_28">
    <path d="M 277.499602 311.5795 
L 286.037898 311.5795 
L 286.037898 265.117407 
L 277.499602 265.117407 
z
" clip-path="url(#p187aee0c65)" style="fill: #87ceeb; stroke: #000000; stroke-linejoin: miter"/>
   </g>
   <g id="patch_29">
    <path d="M 286.037898 311.5795 
L 294.576193 311.5795 
L 294.576193 275.839429 
L 286.037898 275.839429 
z
" clip-path="url(#p187aee0c65)" style="fill: #87ceeb; stroke: #000000; stroke-linejoin: miter"/>
   </g>
   <g id="patch_30">
    <path d="M 294.576193 311.5795 
L 303.114489 311.5795 
L 303.114489 277.626432 
L 294.576193 277.626432 
z
" clip-path="url(#p187aee0c65)" style="fill: #87ceeb; stroke: #000000; stroke-linejoin: miter"/>
   </g>
   <g id="patch_31">
    <path d="M 303.114489 311.5795 
L 311.652784 311.5795 
L 311.652784 270.478418 
L 303.114489 270.478418 
z
" clip-path="url(#p187aee0c65)" style="fill: #87ceeb; stroke: #000000; stroke-linejoin: miter"/>
   </g>
   <g id="patch_32">
    <path d="M 311.652784 311.5795 
L 320.19108 311.5795 
L 320.19108 290.135457 
L 311.652784 290.135457 
z
" clip-path="url(#p187aee0c65)" style="fill: #87ceeb; stroke: #000000; stroke-linejoin: miter"/>
   </g>
   <g id="patch_33">
    <path d="M 320.19108 311.5795 
L 328.729375 311.5795 
L 328.729375 295.496468 
L 320.19108 295.496468 
z
" clip-path="url(#p187aee0c65)" style="fill: #87ceeb; stroke: #000000; stroke-linejoin: miter"/>
   </g>
   <g id="patch_34">
    <path d="M 328.729375 311.5795 
L 337.26767 311.5795 
L 337.26767 299.070475 
L 328.729375 299.070475 
z
" clip-path="url(#p187aee0c65)" style="fill: #87ceeb; stroke: #000000; stroke-linejoin: miter"/>
   </g>
   <g id="patch_35">
    <path d="M 337.26767 311.5795 
L 345.805966 311.5795 
L 345.805966 304.431486 
L 337.26767 304.431486 
z
" clip-path="url(#p187aee0c65)" style="fill: #87ceeb; stroke: #000000; stroke-linejoin: miter"/>
   </g>
   <g id="patch_36">
    <path d="M 345.805966 311.5795 
L 354.344261 311.5795 
L 354.344261 309.792496 
L 345.805966 309.792496 
z
" clip-path="url(#p187aee0c65)" style="fill: #87ceeb; stroke: #000000; stroke-linejoin: miter"/>
   </g>
   <g id="patch_37">
    <path d="M 354.344261 311.5795 
L 362.882557 311.5795 
L 362.882557 306.218489 
L 354.344261 306.218489 
z
" clip-path="url(#p187aee0c65)" style="fill: #87ceeb; stroke: #000000; stroke-linejoin: miter"/>
   </g>
   <g id="patch_38">
    <path d="M 362.882557 311.5795 
L 371.420852 311.5795 
L 371.420852 304.431486 
L 362.882557 304.431486 
z
" clip-path="url(#p187aee0c65)" style="fill: #87ceeb; stroke: #000000; stroke-linejoin: miter"/>
   </g>
   <g id="patch_39">
    <path d="M 371.420852 311.5795 
L 379.959148 311.5795 
L 379.959148 309.792496 
L 371.420852 309.792496 
z
" clip-path="url(#p187aee0c65)" style="fill: #87ceeb; stroke: #000000; stroke-linejoin: miter"/>
   </g>
   <g id="patch_40">
    <path d="M 379.959148 311.5795 
L 388.497443 311.5795 
L 388.497443 311.5795 
L 379.959148 311.5795 
z
" clip-path="url(#p187aee0c65)" style="fill: #87ceeb; stroke: #000000; stroke-linejoin: miter"/>
   </g>
   <g id="patch_41">
    <path d="M 388.497443 311.5795 
L 397.035739 311.5795 
L 397.035739 308.005493 
L 388.497443 308.005493 
z
" clip-path="url(#p187aee0c65)" style="fill: #87ceeb; stroke: #000000; stroke-linejoin: miter"/>
   </g>
   <g id="patch_42">
    <path d="M 397.035739 311.5795 
L 405.574034 311.5795 
L 405.574034 304.431486 
L 397.035739 304.431486 
z
" clip-path="url(#p187aee0c65)" style="fill: #87ceeb; stroke: #000000; stroke-linejoin: miter"/>
   </g>
   <g id="matplotlib.axis_1">
    <g id="xtick_1">
     <g id="line2d_1">
      <defs>
       <path id="m9935e48646" d="M 0 0 
L 0 3.5 
" style="stroke: #000000; stroke-width: 0.8"/>
      </defs>
      <g>
       <use xlink:href="#m9935e48646" x="102.189471" y="311.5795" style="stroke: #000000; stroke-width: 0.8"/>
      </g>
     </g>
     <g id="text_1">
      <!-- 0.8 -->
      <g transform="translate(94.237909 326.177937) scale(0.1 -0.1)">
       <defs>
        <path id="DejaVuSans-30" d="M 2034 4250 
Q 1547 4250 1301 3770 
Q 1056 3291 1056 2328 
Q 1056 1369 1301 889 
Q 1547 409 2034 409 
Q 2525 409 2770 889 
Q 3016 1369 3016 2328 
Q 3016 3291 2770 3770 
Q 2525 4250 2034 4250 
z
M 2034 4750 
Q 2819 4750 3233 4129 
Q 3647 3509 3647 2328 
Q 3647 1150 3233 529 
Q 2819 -91 2034 -91 
Q 1250 -91 836 529 
Q 422 1150 422 2328 
Q 422 3509 836 4129 
Q 1250 4750 2034 4750 
z
" transform="scale(0.015625)"/>
        <path id="DejaVuSans-2e" d="M 684 794 
L 1344 794 
L 1344 0 
L 684 0 
L 684 794 
z
" transform="scale(0.015625)"/>
        <path id="DejaVuSans-38" d="M 2034 2216 
Q 1584 2216 1326 1975 
Q 1069 1734 1069 1313 
Q 1069 891 1326 650 
Q 1584 409 2034 409 
Q 2484 409 2743 651 
Q 3003 894 3003 1313 
Q 3003 1734 2745 1975 
Q 2488 2216 2034 2216 
z
M 1403 2484 
Q 997 2584 770 2862 
Q 544 3141 544 3541 
Q 544 4100 942 4425 
Q 1341 4750 2034 4750 
Q 2731 4750 3128 4425 
Q 3525 4100 3525 3541 
Q 3525 3141 3298 2862 
Q 3072 2584 2669 2484 
Q 3125 2378 3379 2068 
Q 3634 1759 3634 1313 
Q 3634 634 3220 271 
Q 2806 -91 2034 -91 
Q 1263 -91 848 271 
Q 434 634 434 1313 
Q 434 1759 690 2068 
Q 947 2378 1403 2484 
z
M 1172 3481 
Q 1172 3119 1398 2916 
Q 1625 2713 2034 2713 
Q 2441 2713 2670 2916 
Q 2900 3119 2900 3481 
Q 2900 3844 2670 4047 
Q 2441 4250 2034 4250 
Q 1625 4250 1398 4047 
Q 1172 3844 1172 3481 
z
" transform="scale(0.015625)"/>
       </defs>
       <use xlink:href="#DejaVuSans-30"/>
       <use xlink:href="#DejaVuSans-2e" transform="translate(63.623047 0)"/>
       <use xlink:href="#DejaVuSans-38" transform="translate(95.410156 0)"/>
      </g>
     </g>
    </g>
    <g id="xtick_2">
     <g id="line2d_2">
      <g>
       <use xlink:href="#m9935e48646" x="184.017105" y="311.5795" style="stroke: #000000; stroke-width: 0.8"/>
      </g>
     </g>
     <g id="text_2">
      <!-- 1.0 -->
      <g transform="translate(176.065543 326.177937) scale(0.1 -0.1)">
       <defs>
        <path id="DejaVuSans-31" d="M 794 531 
L 1825 531 
L 1825 4091 
L 703 3866 
L 703 4441 
L 1819 4666 
L 2450 4666 
L 2450 531 
L 3481 531 
L 3481 0 
L 794 0 
L 794 531 
z
" transform="scale(0.015625)"/>
       </defs>
       <use xlink:href="#DejaVuSans-31"/>
       <use xlink:href="#DejaVuSans-2e" transform="translate(63.623047 0)"/>
       <use xlink:href="#DejaVuSans-30" transform="translate(95.410156 0)"/>
      </g>
     </g>
    </g>
    <g id="xtick_3">
     <g id="line2d_3">
      <g>
       <use xlink:href="#m9935e48646" x="265.844739" y="311.5795" style="stroke: #000000; stroke-width: 0.8"/>
      </g>
     </g>
     <g id="text_3">
      <!-- 1.2 -->
      <g transform="translate(257.893176 326.177937) scale(0.1 -0.1)">
       <defs>
        <path id="DejaVuSans-32" d="M 1228 531 
L 3431 531 
L 3431 0 
L 469 0 
L 469 531 
Q 828 903 1448 1529 
Q 2069 2156 2228 2338 
Q 2531 2678 2651 2914 
Q 2772 3150 2772 3378 
Q 2772 3750 2511 3984 
Q 2250 4219 1831 4219 
Q 1534 4219 1204 4116 
Q 875 4013 500 3803 
L 500 4441 
Q 881 4594 1212 4672 
Q 1544 4750 1819 4750 
Q 2544 4750 2975 4387 
Q 3406 4025 3406 3419 
Q 3406 3131 3298 2873 
Q 3191 2616 2906 2266 
Q 2828 2175 2409 1742 
Q 1991 1309 1228 531 
z
" transform="scale(0.015625)"/>
       </defs>
       <use xlink:href="#DejaVuSans-31"/>
       <use xlink:href="#DejaVuSans-2e" transform="translate(63.623047 0)"/>
       <use xlink:href="#DejaVuSans-32" transform="translate(95.410156 0)"/>
      </g>
     </g>
    </g>
    <g id="xtick_4">
     <g id="line2d_4">
      <g>
       <use xlink:href="#m9935e48646" x="347.672372" y="311.5795" style="stroke: #000000; stroke-width: 0.8"/>
      </g>
     </g>
     <g id="text_4">
      <!-- 1.4 -->
      <g transform="translate(339.72081 326.177937) scale(0.1 -0.1)">
       <defs>
        <path id="DejaVuSans-34" d="M 2419 4116 
L 825 1625 
L 2419 1625 
L 2419 4116 
z
M 2253 4666 
L 3047 4666 
L 3047 1625 
L 3713 1625 
L 3713 1100 
L 3047 1100 
L 3047 0 
L 2419 0 
L 2419 1100 
L 313 1100 
L 313 1709 
L 2253 4666 
z
" transform="scale(0.015625)"/>
       </defs>
       <use xlink:href="#DejaVuSans-31"/>
       <use xlink:href="#DejaVuSans-2e" transform="translate(63.623047 0)"/>
       <use xlink:href="#DejaVuSans-34" transform="translate(95.410156 0)"/>
      </g>
     </g>
    </g>
    <g id="text_5">
     <!-- Shape (k̂) -->
     <g transform="translate(210.764375 340.256062) scale(0.1 -0.1)">
      <defs>
       <path id="DejaVuSans-53" d="M 3425 4513 
L 3425 3897 
Q 3066 4069 2747 4153 
Q 2428 4238 2131 4238 
Q 1616 4238 1336 4038 
Q 1056 3838 1056 3469 
Q 1056 3159 1242 3001 
Q 1428 2844 1947 2747 
L 2328 2669 
Q 3034 2534 3370 2195 
Q 3706 1856 3706 1288 
Q 3706 609 3251 259 
Q 2797 -91 1919 -91 
Q 1588 -91 1214 -16 
Q 841 59 441 206 
L 441 856 
Q 825 641 1194 531 
Q 1563 422 1919 422 
Q 2459 422 2753 634 
Q 3047 847 3047 1241 
Q 3047 1584 2836 1778 
Q 2625 1972 2144 2069 
L 1759 2144 
Q 1053 2284 737 2584 
Q 422 2884 422 3419 
Q 422 4038 858 4394 
Q 1294 4750 2059 4750 
Q 2388 4750 2728 4690 
Q 3069 4631 3425 4513 
z
" transform="scale(0.015625)"/>
       <path id="DejaVuSans-68" d="M 3513 2113 
L 3513 0 
L 2938 0 
L 2938 2094 
Q 2938 2591 2744 2837 
Q 2550 3084 2163 3084 
Q 1697 3084 1428 2787 
Q 1159 2491 1159 1978 
L 1159 0 
L 581 0 
L 581 4863 
L 1159 4863 
L 1159 2956 
Q 1366 3272 1645 3428 
Q 1925 3584 2291 3584 
Q 2894 3584 3203 3211 
Q 3513 2838 3513 2113 
z
" transform="scale(0.015625)"/>
       <path id="DejaVuSans-61" d="M 2194 1759 
Q 1497 1759 1228 1600 
Q 959 1441 959 1056 
Q 959 750 1161 570 
Q 1363 391 1709 391 
Q 2188 391 2477 730 
Q 2766 1069 2766 1631 
L 2766 1759 
L 2194 1759 
z
M 3341 1997 
L 3341 0 
L 2766 0 
L 2766 531 
Q 2569 213 2275 61 
Q 1981 -91 1556 -91 
Q 1019 -91 701 211 
Q 384 513 384 1019 
Q 384 1609 779 1909 
Q 1175 2209 1959 2209 
L 2766 2209 
L 2766 2266 
Q 2766 2663 2505 2880 
Q 2244 3097 1772 3097 
Q 1472 3097 1187 3025 
Q 903 2953 641 2809 
L 641 3341 
Q 956 3463 1253 3523 
Q 1550 3584 1831 3584 
Q 2591 3584 2966 3190 
Q 3341 2797 3341 1997 
z
" transform="scale(0.015625)"/>
       <path id="DejaVuSans-70" d="M 1159 525 
L 1159 -1331 
L 581 -1331 
L 581 3500 
L 1159 3500 
L 1159 2969 
Q 1341 3281 1617 3432 
Q 1894 3584 2278 3584 
Q 2916 3584 3314 3078 
Q 3713 2572 3713 1747 
Q 3713 922 3314 415 
Q 2916 -91 2278 -91 
Q 1894 -91 1617 61 
Q 1341 213 1159 525 
z
M 3116 1747 
Q 3116 2381 2855 2742 
Q 2594 3103 2138 3103 
Q 1681 3103 1420 2742 
Q 1159 2381 1159 1747 
Q 1159 1113 1420 752 
Q 1681 391 2138 391 
Q 2594 391 2855 752 
Q 3116 1113 3116 1747 
z
" transform="scale(0.015625)"/>
       <path id="DejaVuSans-65" d="M 3597 1894 
L 3597 1613 
L 953 1613 
Q 991 1019 1311 708 
Q 1631 397 2203 397 
Q 2534 397 2845 478 
Q 3156 559 3463 722 
L 3463 178 
Q 3153 47 2828 -22 
Q 2503 -91 2169 -91 
Q 1331 -91 842 396 
Q 353 884 353 1716 
Q 353 2575 817 3079 
Q 1281 3584 2069 3584 
Q 2775 3584 3186 3129 
Q 3597 2675 3597 1894 
z
M 3022 2063 
Q 3016 2534 2758 2815 
Q 2500 3097 2075 3097 
Q 1594 3097 1305 2825 
Q 1016 2553 972 2059 
L 3022 2063 
z
" transform="scale(0.015625)"/>
       <path id="DejaVuSans-20" transform="scale(0.015625)"/>
       <path id="DejaVuSans-28" d="M 1984 4856 
Q 1566 4138 1362 3434 
Q 1159 2731 1159 2009 
Q 1159 1288 1364 580 
Q 1569 -128 1984 -844 
L 1484 -844 
Q 1016 -109 783 600 
Q 550 1309 550 2009 
Q 550 2706 781 3412 
Q 1013 4119 1484 4856 
L 1984 4856 
z
" transform="scale(0.015625)"/>
       <path id="DejaVuSans-6b" d="M 581 4863 
L 1159 4863 
L 1159 1991 
L 2875 3500 
L 3609 3500 
L 1753 1863 
L 3688 0 
L 2938 0 
L 1159 1709 
L 1159 0 
L 581 0 
L 581 4863 
z
" transform="scale(0.015625)"/>
       <path id="DejaVuSans-302" d="M -1831 5119 
L -1369 5119 
L -603 3944 
L -1038 3944 
L -1600 4709 
L -2163 3944 
L -2597 3944 
L -1831 5119 
z
M -1600 3584 
L -1600 3584 
z
" transform="scale(0.015625)"/>
       <path id="DejaVuSans-29" d="M 513 4856 
L 1013 4856 
Q 1481 4119 1714 3412 
Q 1947 2706 1947 2009 
Q 1947 1309 1714 600 
Q 1481 -109 1013 -844 
L 513 -844 
Q 928 -128 1133 580 
Q 1338 1288 1338 2009 
Q 1338 2731 1133 3434 
Q 928 4138 513 4856 
z
" transform="scale(0.015625)"/>
      </defs>
      <use xlink:href="#DejaVuSans-53"/>
      <use xlink:href="#DejaVuSans-68" transform="translate(63.476562 0)"/>
      <use xlink:href="#DejaVuSans-61" transform="translate(126.855469 0)"/>
      <use xlink:href="#DejaVuSans-70" transform="translate(188.134766 0)"/>
      <use xlink:href="#DejaVuSans-65" transform="translate(251.611328 0)"/>
      <use xlink:href="#DejaVuSans-20" transform="translate(313.134766 0)"/>
      <use xlink:href="#DejaVuSans-28" transform="translate(344.921875 0)"/>
      <use xlink:href="#DejaVuSans-6b" transform="translate(383.935547 0)"/>
      <use xlink:href="#DejaVuSans-302" transform="translate(441.845703 0)"/>
      <use xlink:href="#DejaVuSans-29" transform="translate(441.845703 0)"/>
     </g>
    </g>
   </g>
   <g id="matplotlib.axis_2">
    <g id="ytick_1">
     <g id="line2d_5">
      <defs>
       <path id="mf6146bc800" d="M 0 0 
L -3.5 0 
" style="stroke: #000000; stroke-width: 0.8"/>
      </defs>
      <g>
       <use xlink:href="#mf6146bc800" x="46.965625" y="311.5795" style="stroke: #000000; stroke-width: 0.8"/>
      </g>
     </g>
     <g id="text_6">
      <!-- 0 -->
      <g transform="translate(33.603125 315.378719) scale(0.1 -0.1)">
       <use xlink:href="#DejaVuSans-30"/>
      </g>
     </g>
    </g>
    <g id="ytick_2">
     <g id="line2d_6">
      <g>
       <use xlink:href="#mf6146bc800" x="46.965625" y="275.839429" style="stroke: #000000; stroke-width: 0.8"/>
      </g>
     </g>
     <g id="text_7">
      <!-- 20 -->
      <g transform="translate(27.240625 279.638647) scale(0.1 -0.1)">
       <use xlink:href="#DejaVuSans-32"/>
       <use xlink:href="#DejaVuSans-30" transform="translate(63.623047 0)"/>
      </g>
     </g>
    </g>
    <g id="ytick_3">
     <g id="line2d_7">
      <g>
       <use xlink:href="#mf6146bc800" x="46.965625" y="240.099357" style="stroke: #000000; stroke-width: 0.8"/>
      </g>
     </g>
     <g id="text_8">
      <!-- 40 -->
      <g transform="translate(27.240625 243.898576) scale(0.1 -0.1)">
       <use xlink:href="#DejaVuSans-34"/>
       <use xlink:href="#DejaVuSans-30" transform="translate(63.623047 0)"/>
      </g>
     </g>
    </g>
    <g id="ytick_4">
     <g id="line2d_8">
      <g>
       <use xlink:href="#mf6146bc800" x="46.965625" y="204.359286" style="stroke: #000000; stroke-width: 0.8"/>
      </g>
     </g>
     <g id="text_9">
      <!-- 60 -->
      <g transform="translate(27.240625 208.158505) scale(0.1 -0.1)">
       <defs>
        <path id="DejaVuSans-36" d="M 2113 2584 
Q 1688 2584 1439 2293 
Q 1191 2003 1191 1497 
Q 1191 994 1439 701 
Q 1688 409 2113 409 
Q 2538 409 2786 701 
Q 3034 994 3034 1497 
Q 3034 2003 2786 2293 
Q 2538 2584 2113 2584 
z
M 3366 4563 
L 3366 3988 
Q 3128 4100 2886 4159 
Q 2644 4219 2406 4219 
Q 1781 4219 1451 3797 
Q 1122 3375 1075 2522 
Q 1259 2794 1537 2939 
Q 1816 3084 2150 3084 
Q 2853 3084 3261 2657 
Q 3669 2231 3669 1497 
Q 3669 778 3244 343 
Q 2819 -91 2113 -91 
Q 1303 -91 875 529 
Q 447 1150 447 2328 
Q 447 3434 972 4092 
Q 1497 4750 2381 4750 
Q 2619 4750 2861 4703 
Q 3103 4656 3366 4563 
z
" transform="scale(0.015625)"/>
       </defs>
       <use xlink:href="#DejaVuSans-36"/>
       <use xlink:href="#DejaVuSans-30" transform="translate(63.623047 0)"/>
      </g>
     </g>
    </g>
    <g id="ytick_5">
     <g id="line2d_9">
      <g>
       <use xlink:href="#mf6146bc800" x="46.965625" y="168.619215" style="stroke: #000000; stroke-width: 0.8"/>
      </g>
     </g>
     <g id="text_10">
      <!-- 80 -->
      <g transform="translate(27.240625 172.418434) scale(0.1 -0.1)">
       <use xlink:href="#DejaVuSans-38"/>
       <use xlink:href="#DejaVuSans-30" transform="translate(63.623047 0)"/>
      </g>
     </g>
    </g>
    <g id="ytick_6">
     <g id="line2d_10">
      <g>
       <use xlink:href="#mf6146bc800" x="46.965625" y="132.879144" style="stroke: #000000; stroke-width: 0.8"/>
      </g>
     </g>
     <g id="text_11">
      <!-- 100 -->
      <g transform="translate(20.878125 136.678362) scale(0.1 -0.1)">
       <use xlink:href="#DejaVuSans-31"/>
       <use xlink:href="#DejaVuSans-30" transform="translate(63.623047 0)"/>
       <use xlink:href="#DejaVuSans-30" transform="translate(127.246094 0)"/>
      </g>
     </g>
    </g>
    <g id="ytick_7">
     <g id="line2d_11">
      <g>
       <use xlink:href="#mf6146bc800" x="46.965625" y="97.139072" style="stroke: #000000; stroke-width: 0.8"/>
      </g>
     </g>
     <g id="text_12">
      <!-- 120 -->
      <g transform="translate(20.878125 100.938291) scale(0.1 -0.1)">
       <use xlink:href="#DejaVuSans-31"/>
       <use xlink:href="#DejaVuSans-32" transform="translate(63.623047 0)"/>
       <use xlink:href="#DejaVuSans-30" transform="translate(127.246094 0)"/>
      </g>
     </g>
    </g>
    <g id="ytick_8">
     <g id="line2d_12">
      <g>
       <use xlink:href="#mf6146bc800" x="46.965625" y="61.399001" style="stroke: #000000; stroke-width: 0.8"/>
      </g>
     </g>
     <g id="text_13">
      <!-- 140 -->
      <g transform="translate(20.878125 65.19822) scale(0.1 -0.1)">
       <use xlink:href="#DejaVuSans-31"/>
       <use xlink:href="#DejaVuSans-34" transform="translate(63.623047 0)"/>
       <use xlink:href="#DejaVuSans-30" transform="translate(127.246094 0)"/>
      </g>
     </g>
    </g>
    <g id="text_14">
     <!-- Frequency -->
     <g transform="translate(14.798437 199.497187) rotate(-90) scale(0.1 -0.1)">
      <defs>
       <path id="DejaVuSans-46" d="M 628 4666 
L 3309 4666 
L 3309 4134 
L 1259 4134 
L 1259 2759 
L 3109 2759 
L 3109 2228 
L 1259 2228 
L 1259 0 
L 628 0 
L 628 4666 
z
" transform="scale(0.015625)"/>
       <path id="DejaVuSans-72" d="M 2631 2963 
Q 2534 3019 2420 3045 
Q 2306 3072 2169 3072 
Q 1681 3072 1420 2755 
Q 1159 2438 1159 1844 
L 1159 0 
L 581 0 
L 581 3500 
L 1159 3500 
L 1159 2956 
Q 1341 3275 1631 3429 
Q 1922 3584 2338 3584 
Q 2397 3584 2469 3576 
Q 2541 3569 2628 3553 
L 2631 2963 
z
" transform="scale(0.015625)"/>
       <path id="DejaVuSans-71" d="M 947 1747 
Q 947 1113 1208 752 
Q 1469 391 1925 391 
Q 2381 391 2643 752 
Q 2906 1113 2906 1747 
Q 2906 2381 2643 2742 
Q 2381 3103 1925 3103 
Q 1469 3103 1208 2742 
Q 947 2381 947 1747 
z
M 2906 525 
Q 2725 213 2448 61 
Q 2172 -91 1784 -91 
Q 1150 -91 751 415 
Q 353 922 353 1747 
Q 353 2572 751 3078 
Q 1150 3584 1784 3584 
Q 2172 3584 2448 3432 
Q 2725 3281 2906 2969 
L 2906 3500 
L 3481 3500 
L 3481 -1331 
L 2906 -1331 
L 2906 525 
z
" transform="scale(0.015625)"/>
       <path id="DejaVuSans-75" d="M 544 1381 
L 544 3500 
L 1119 3500 
L 1119 1403 
Q 1119 906 1312 657 
Q 1506 409 1894 409 
Q 2359 409 2629 706 
Q 2900 1003 2900 1516 
L 2900 3500 
L 3475 3500 
L 3475 0 
L 2900 0 
L 2900 538 
Q 2691 219 2414 64 
Q 2138 -91 1772 -91 
Q 1169 -91 856 284 
Q 544 659 544 1381 
z
M 1991 3584 
L 1991 3584 
z
" transform="scale(0.015625)"/>
       <path id="DejaVuSans-6e" d="M 3513 2113 
L 3513 0 
L 2938 0 
L 2938 2094 
Q 2938 2591 2744 2837 
Q 2550 3084 2163 3084 
Q 1697 3084 1428 2787 
Q 1159 2491 1159 1978 
L 1159 0 
L 581 0 
L 581 3500 
L 1159 3500 
L 1159 2956 
Q 1366 3272 1645 3428 
Q 1925 3584 2291 3584 
Q 2894 3584 3203 3211 
Q 3513 2838 3513 2113 
z
" transform="scale(0.015625)"/>
       <path id="DejaVuSans-63" d="M 3122 3366 
L 3122 2828 
Q 2878 2963 2633 3030 
Q 2388 3097 2138 3097 
Q 1578 3097 1268 2742 
Q 959 2388 959 1747 
Q 959 1106 1268 751 
Q 1578 397 2138 397 
Q 2388 397 2633 464 
Q 2878 531 3122 666 
L 3122 134 
Q 2881 22 2623 -34 
Q 2366 -91 2075 -91 
Q 1284 -91 818 406 
Q 353 903 353 1747 
Q 353 2603 823 3093 
Q 1294 3584 2113 3584 
Q 2378 3584 2631 3529 
Q 2884 3475 3122 3366 
z
" transform="scale(0.015625)"/>
       <path id="DejaVuSans-79" d="M 2059 -325 
Q 1816 -950 1584 -1140 
Q 1353 -1331 966 -1331 
L 506 -1331 
L 506 -850 
L 844 -850 
Q 1081 -850 1212 -737 
Q 1344 -625 1503 -206 
L 1606 56 
L 191 3500 
L 800 3500 
L 1894 763 
L 2988 3500 
L 3597 3500 
L 2059 -325 
z
" transform="scale(0.015625)"/>
      </defs>
      <use xlink:href="#DejaVuSans-46"/>
      <use xlink:href="#DejaVuSans-72" transform="translate(50.269531 0)"/>
      <use xlink:href="#DejaVuSans-65" transform="translate(89.132812 0)"/>
      <use xlink:href="#DejaVuSans-71" transform="translate(150.65625 0)"/>
      <use xlink:href="#DejaVuSans-75" transform="translate(214.132812 0)"/>
      <use xlink:href="#DejaVuSans-65" transform="translate(277.511719 0)"/>
      <use xlink:href="#DejaVuSans-6e" transform="translate(339.035156 0)"/>
      <use xlink:href="#DejaVuSans-63" transform="translate(402.414062 0)"/>
      <use xlink:href="#DejaVuSans-79" transform="translate(457.394531 0)"/>
     </g>
    </g>
   </g>
   <g id="line2d_13">
    <path d="M 184.017105 311.5795 
L 184.017105 35.7555 
" clip-path="url(#p187aee0c65)" style="fill: none; stroke-dasharray: 5.55,2.4; stroke-dashoffset: 0; stroke: #ff0000; stroke-width: 1.5"/>
   </g>
   <g id="line2d_14">
    <path d="M 193.773537 311.5795 
L 193.773537 35.7555 
" clip-path="url(#p187aee0c65)" style="fill: none; stroke: #ffa500; stroke-width: 1.5; stroke-linecap: square"/>
   </g>
   <g id="patch_43">
    <path d="M 46.965625 311.5795 
L 46.965625 35.7555 
" style="fill: none; stroke: #000000; stroke-width: 0.8; stroke-linejoin: miter; stroke-linecap: square"/>
   </g>
   <g id="patch_44">
    <path d="M 422.650625 311.5795 
L 422.650625 35.7555 
" style="fill: none; stroke: #000000; stroke-width: 0.8; stroke-linejoin: miter; stroke-linecap: square"/>
   </g>
   <g id="patch_45">
    <path d="M 46.965625 311.5795 
L 422.650625 311.5795 
" style="fill: none; stroke: #000000; stroke-width: 0.8; stroke-linejoin: miter; stroke-linecap: square"/>
   </g>
   <g id="patch_46">
    <path d="M 46.965625 35.7555 
L 422.650625 35.7555 
" style="fill: none; stroke: #000000; stroke-width: 0.8; stroke-linejoin: miter; stroke-linecap: square"/>
   </g>
   <g id="text_15">
    <!-- Gamma Shape Parameter Estimates -->
    <g transform="translate(125.764688 16.318125) scale(0.12 -0.12)">
     <defs>
      <path id="DejaVuSans-47" d="M 3809 666 
L 3809 1919 
L 2778 1919 
L 2778 2438 
L 4434 2438 
L 4434 434 
Q 4069 175 3628 42 
Q 3188 -91 2688 -91 
Q 1594 -91 976 548 
Q 359 1188 359 2328 
Q 359 3472 976 4111 
Q 1594 4750 2688 4750 
Q 3144 4750 3555 4637 
Q 3966 4525 4313 4306 
L 4313 3634 
Q 3963 3931 3569 4081 
Q 3175 4231 2741 4231 
Q 1884 4231 1454 3753 
Q 1025 3275 1025 2328 
Q 1025 1384 1454 906 
Q 1884 428 2741 428 
Q 3075 428 3337 486 
Q 3600 544 3809 666 
z
" transform="scale(0.015625)"/>
      <path id="DejaVuSans-6d" d="M 3328 2828 
Q 3544 3216 3844 3400 
Q 4144 3584 4550 3584 
Q 5097 3584 5394 3201 
Q 5691 2819 5691 2113 
L 5691 0 
L 5113 0 
L 5113 2094 
Q 5113 2597 4934 2840 
Q 4756 3084 4391 3084 
Q 3944 3084 3684 2787 
Q 3425 2491 3425 1978 
L 3425 0 
L 2847 0 
L 2847 2094 
Q 2847 2600 2669 2842 
Q 2491 3084 2119 3084 
Q 1678 3084 1418 2786 
Q 1159 2488 1159 1978 
L 1159 0 
L 581 0 
L 581 3500 
L 1159 3500 
L 1159 2956 
Q 1356 3278 1631 3431 
Q 1906 3584 2284 3584 
Q 2666 3584 2933 3390 
Q 3200 3197 3328 2828 
z
" transform="scale(0.015625)"/>
      <path id="DejaVuSans-50" d="M 1259 4147 
L 1259 2394 
L 2053 2394 
Q 2494 2394 2734 2622 
Q 2975 2850 2975 3272 
Q 2975 3691 2734 3919 
Q 2494 4147 2053 4147 
L 1259 4147 
z
M 628 4666 
L 2053 4666 
Q 2838 4666 3239 4311 
Q 3641 3956 3641 3272 
Q 3641 2581 3239 2228 
Q 2838 1875 2053 1875 
L 1259 1875 
L 1259 0 
L 628 0 
L 628 4666 
z
" transform="scale(0.015625)"/>
      <path id="DejaVuSans-74" d="M 1172 4494 
L 1172 3500 
L 2356 3500 
L 2356 3053 
L 1172 3053 
L 1172 1153 
Q 1172 725 1289 603 
Q 1406 481 1766 481 
L 2356 481 
L 2356 0 
L 1766 0 
Q 1100 0 847 248 
Q 594 497 594 1153 
L 594 3053 
L 172 3053 
L 172 3500 
L 594 3500 
L 594 4494 
L 1172 4494 
z
" transform="scale(0.015625)"/>
      <path id="DejaVuSans-45" d="M 628 4666 
L 3578 4666 
L 3578 4134 
L 1259 4134 
L 1259 2753 
L 3481 2753 
L 3481 2222 
L 1259 2222 
L 1259 531 
L 3634 531 
L 3634 0 
L 628 0 
L 628 4666 
z
" transform="scale(0.015625)"/>
      <path id="DejaVuSans-73" d="M 2834 3397 
L 2834 2853 
Q 2591 2978 2328 3040 
Q 2066 3103 1784 3103 
Q 1356 3103 1142 2972 
Q 928 2841 928 2578 
Q 928 2378 1081 2264 
Q 1234 2150 1697 2047 
L 1894 2003 
Q 2506 1872 2764 1633 
Q 3022 1394 3022 966 
Q 3022 478 2636 193 
Q 2250 -91 1575 -91 
Q 1294 -91 989 -36 
Q 684 19 347 128 
L 347 722 
Q 666 556 975 473 
Q 1284 391 1588 391 
Q 1994 391 2212 530 
Q 2431 669 2431 922 
Q 2431 1156 2273 1281 
Q 2116 1406 1581 1522 
L 1381 1569 
Q 847 1681 609 1914 
Q 372 2147 372 2553 
Q 372 3047 722 3315 
Q 1072 3584 1716 3584 
Q 2034 3584 2315 3537 
Q 2597 3491 2834 3397 
z
" transform="scale(0.015625)"/>
      <path id="DejaVuSans-69" d="M 603 3500 
L 1178 3500 
L 1178 0 
L 603 0 
L 603 3500 
z
M 603 4863 
L 1178 4863 
L 1178 4134 
L 603 4134 
L 603 4863 
z
" transform="scale(0.015625)"/>
     </defs>
     <use xlink:href="#DejaVuSans-47"/>
     <use xlink:href="#DejaVuSans-61" transform="translate(77.490234 0)"/>
     <use xlink:href="#DejaVuSans-6d" transform="translate(138.769531 0)"/>
     <use xlink:href="#DejaVuSans-6d" transform="translate(236.181641 0)"/>
     <use xlink:href="#DejaVuSans-61" transform="translate(333.59375 0)"/>
     <use xlink:href="#DejaVuSans-20" transform="translate(394.873047 0)"/>
     <use xlink:href="#DejaVuSans-53" transform="translate(426.660156 0)"/>
     <use xlink:href="#DejaVuSans-68" transform="translate(490.136719 0)"/>
     <use xlink:href="#DejaVuSans-61" transform="translate(553.515625 0)"/>
     <use xlink:href="#DejaVuSans-70" transform="translate(614.794922 0)"/>
     <use xlink:href="#DejaVuSans-65" transform="translate(678.271484 0)"/>
     <use xlink:href="#DejaVuSans-20" transform="translate(739.794922 0)"/>
     <use xlink:href="#DejaVuSans-50" transform="translate(771.582031 0)"/>
     <use xlink:href="#DejaVuSans-61" transform="translate(827.384766 0)"/>
     <use xlink:href="#DejaVuSans-72" transform="translate(888.664062 0)"/>
     <use xlink:href="#DejaVuSans-61" transform="translate(929.777344 0)"/>
     <use xlink:href="#DejaVuSans-6d" transform="translate(991.056641 0)"/>
     <use xlink:href="#DejaVuSans-65" transform="translate(1088.46875 0)"/>
     <use xlink:href="#DejaVuSans-74" transform="translate(1149.992188 0)"/>
     <use xlink:href="#DejaVuSans-65" transform="translate(1189.201172 0)"/>
     <use xlink:href="#DejaVuSans-72" transform="translate(1250.724609 0)"/>
     <use xlink:href="#DejaVuSans-20" transform="translate(1291.837891 0)"/>
     <use xlink:href="#DejaVuSans-45" transform="translate(1323.625 0)"/>
     <use xlink:href="#DejaVuSans-73" transform="translate(1386.808594 0)"/>
     <use xlink:href="#DejaVuSans-74" transform="translate(1438.908203 0)"/>
     <use xlink:href="#DejaVuSans-69" transform="translate(1478.117188 0)"/>
     <use xlink:href="#DejaVuSans-6d" transform="translate(1505.900391 0)"/>
     <use xlink:href="#DejaVuSans-61" transform="translate(1603.3125 0)"/>
     <use xlink:href="#DejaVuSans-74" transform="translate(1664.591797 0)"/>
     <use xlink:href="#DejaVuSans-65" transform="translate(1703.800781 0)"/>
     <use xlink:href="#DejaVuSans-73" transform="translate(1765.324219 0)"/>
    </g>
    <!-- λ=2.0, S=101, Samples=2000 -->
    <g transform="translate(142.84875 29.7555) scale(0.12 -0.12)">
     <defs>
      <path id="DejaVuSans-3bb" d="M 1981 4316 
L 3597 0 
L 2988 0 
L 2006 2588 
L 800 0 
L 191 0 
L 1725 3356 
L 1494 3975 
Q 1347 4369 1013 4369 
L 713 4369 
L 713 4863 
L 1078 4856 
Q 1784 4847 1981 4316 
z
" transform="scale(0.015625)"/>
      <path id="DejaVuSans-3d" d="M 678 2906 
L 4684 2906 
L 4684 2381 
L 678 2381 
L 678 2906 
z
M 678 1631 
L 4684 1631 
L 4684 1100 
L 678 1100 
L 678 1631 
z
" transform="scale(0.015625)"/>
      <path id="DejaVuSans-2c" d="M 750 794 
L 1409 794 
L 1409 256 
L 897 -744 
L 494 -744 
L 750 256 
L 750 794 
z
" transform="scale(0.015625)"/>
      <path id="DejaVuSans-6c" d="M 603 4863 
L 1178 4863 
L 1178 0 
L 603 0 
L 603 4863 
z
" transform="scale(0.015625)"/>
     </defs>
     <use xlink:href="#DejaVuSans-3bb"/>
     <use xlink:href="#DejaVuSans-3d" transform="translate(59.179688 0)"/>
     <use xlink:href="#DejaVuSans-32" transform="translate(142.96875 0)"/>
     <use xlink:href="#DejaVuSans-2e" transform="translate(206.591797 0)"/>
     <use xlink:href="#DejaVuSans-30" transform="translate(238.378906 0)"/>
     <use xlink:href="#DejaVuSans-2c" transform="translate(302.001953 0)"/>
     <use xlink:href="#DejaVuSans-20" transform="translate(333.789062 0)"/>
     <use xlink:href="#DejaVuSans-53" transform="translate(365.576172 0)"/>
     <use xlink:href="#DejaVuSans-3d" transform="translate(429.052734 0)"/>
     <use xlink:href="#DejaVuSans-31" transform="translate(512.841797 0)"/>
     <use xlink:href="#DejaVuSans-30" transform="translate(576.464844 0)"/>
     <use xlink:href="#DejaVuSans-31" transform="translate(640.087891 0)"/>
     <use xlink:href="#DejaVuSans-2c" transform="translate(703.710938 0)"/>
     <use xlink:href="#DejaVuSans-20" transform="translate(735.498047 0)"/>
     <use xlink:href="#DejaVuSans-53" transform="translate(767.285156 0)"/>
     <use xlink:href="#DejaVuSans-61" transform="translate(830.761719 0)"/>
     <use xlink:href="#DejaVuSans-6d" transform="translate(892.041016 0)"/>
     <use xlink:href="#DejaVuSans-70" transform="translate(989.453125 0)"/>
     <use xlink:href="#DejaVuSans-6c" transform="translate(1052.929688 0)"/>
     <use xlink:href="#DejaVuSans-65" transform="translate(1080.712891 0)"/>
     <use xlink:href="#DejaVuSans-73" transform="translate(1142.236328 0)"/>
     <use xlink:href="#DejaVuSans-3d" transform="translate(1194.335938 0)"/>
     <use xlink:href="#DejaVuSans-32" transform="translate(1278.125 0)"/>
     <use xlink:href="#DejaVuSans-30" transform="translate(1341.748047 0)"/>
     <use xlink:href="#DejaVuSans-30" transform="translate(1405.371094 0)"/>
     <use xlink:href="#DejaVuSans-30" transform="translate(1468.994141 0)"/>
    </g>
   </g>
   <g id="legend_1">
    <g id="patch_47">
     <path d="M 310.427188 73.11175 
L 415.650625 73.11175 
Q 417.650625 73.11175 417.650625 71.11175 
L 417.650625 42.7555 
Q 417.650625 40.7555 415.650625 40.7555 
L 310.427188 40.7555 
Q 308.427188 40.7555 308.427188 42.7555 
L 308.427188 71.11175 
Q 308.427188 73.11175 310.427188 73.11175 
z
" style="fill: #ffffff; opacity: 0.8; stroke: #cccccc; stroke-linejoin: miter"/>
    </g>
    <g id="line2d_15">
     <path d="M 312.427188 48.853937 
L 322.427188 48.853937 
L 332.427188 48.853937 
" style="fill: none; stroke-dasharray: 5.55,2.4; stroke-dashoffset: 0; stroke: #ff0000; stroke-width: 1.5"/>
    </g>
    <g id="text_16">
     <!-- True k=1 -->
     <g transform="translate(340.427188 52.353937) scale(0.1 -0.1)">
      <defs>
       <path id="DejaVuSans-54" d="M -19 4666 
L 3928 4666 
L 3928 4134 
L 2272 4134 
L 2272 0 
L 1638 0 
L 1638 4134 
L -19 4134 
L -19 4666 
z
" transform="scale(0.015625)"/>
      </defs>
      <use xlink:href="#DejaVuSans-54"/>
      <use xlink:href="#DejaVuSans-72" transform="translate(46.333984 0)"/>
      <use xlink:href="#DejaVuSans-75" transform="translate(87.447266 0)"/>
      <use xlink:href="#DejaVuSans-65" transform="translate(150.826172 0)"/>
      <use xlink:href="#DejaVuSans-20" transform="translate(212.349609 0)"/>
      <use xlink:href="#DejaVuSans-6b" transform="translate(244.136719 0)"/>
      <use xlink:href="#DejaVuSans-3d" transform="translate(302.046875 0)"/>
      <use xlink:href="#DejaVuSans-31" transform="translate(385.835938 0)"/>
     </g>
    </g>
    <g id="line2d_16">
     <path d="M 312.427188 63.532062 
L 322.427188 63.532062 
L 332.427188 63.532062 
" style="fill: none; stroke: #ffa500; stroke-width: 1.5; stroke-linecap: square"/>
    </g>
    <g id="text_17">
     <!-- Mean k̂=1.024 -->
     <g transform="translate(340.427188 67.032062) scale(0.1 -0.1)">
      <defs>
       <path id="DejaVuSans-4d" d="M 628 4666 
L 1569 4666 
L 2759 1491 
L 3956 4666 
L 4897 4666 
L 4897 0 
L 4281 0 
L 4281 4097 
L 3078 897 
L 2444 897 
L 1241 4097 
L 1241 0 
L 628 0 
L 628 4666 
z
" transform="scale(0.015625)"/>
      </defs>
      <use xlink:href="#DejaVuSans-4d"/>
      <use xlink:href="#DejaVuSans-65" transform="translate(86.279297 0)"/>
      <use xlink:href="#DejaVuSans-61" transform="translate(147.802734 0)"/>
      <use xlink:href="#DejaVuSans-6e" transform="translate(209.082031 0)"/>
      <use xlink:href="#DejaVuSans-20" transform="translate(272.460938 0)"/>
      <use xlink:href="#DejaVuSans-6b" transform="translate(304.248047 0)"/>
      <use xlink:href="#DejaVuSans-302" transform="translate(362.158203 0)"/>
      <use xlink:href="#DejaVuSans-3d" transform="translate(362.158203 0)"/>
      <use xlink:href="#DejaVuSans-31" transform="translate(445.947266 0)"/>
      <use xlink:href="#DejaVuSans-2e" transform="translate(509.570312 0)"/>
      <use xlink:href="#DejaVuSans-30" transform="translate(541.357422 0)"/>
      <use xlink:href="#DejaVuSans-32" transform="translate(604.980469 0)"/>
      <use xlink:href="#DejaVuSans-34" transform="translate(668.603516 0)"/>
     </g>
    </g>
   </g>
  </g>
  <g id="axes_2">
   <g id="patch_48">
    <path d="M 473.610625 311.5795 
L 849.295625 311.5795 
L 849.295625 35.7555 
L 473.610625 35.7555 
z
" style="fill: #ffffff"/>
   </g>
   <g id="patch_49">
    <path d="M 490.687216 311.5795 
L 499.225511 311.5795 
L 499.225511 310.034268 
L 490.687216 310.034268 
z
" clip-path="url(#pcb928de988)" style="fill: #90ee90; stroke: #000000; stroke-linejoin: miter"/>
   </g>
   <g id="patch_50">
    <path d="M 499.225511 311.5795 
L 507.763807 311.5795 
L 507.763807 305.39857 
L 499.225511 305.39857 
z
" clip-path="url(#pcb928de988)" style="fill: #90ee90; stroke: #000000; stroke-linejoin: miter"/>
   </g>
   <g id="patch_51">
    <path d="M 507.763807 311.5795 
L 516.302102 311.5795 
L 516.302102 303.853338 
L 507.763807 303.853338 
z
" clip-path="url(#pcb928de988)" style="fill: #90ee90; stroke: #000000; stroke-linejoin: miter"/>
   </g>
   <g id="patch_52">
    <path d="M 516.302102 311.5795 
L 524.840398 311.5795 
L 524.840398 293.03671 
L 516.302102 293.03671 
z
" clip-path="url(#pcb928de988)" style="fill: #90ee90; stroke: #000000; stroke-linejoin: miter"/>
   </g>
   <g id="patch_53">
    <path d="M 524.840398 311.5795 
L 533.378693 311.5795 
L 533.378693 297.672408 
L 524.840398 297.672408 
z
" clip-path="url(#pcb928de988)" style="fill: #90ee90; stroke: #000000; stroke-linejoin: miter"/>
   </g>
   <g id="patch_54">
    <path d="M 533.378693 311.5795 
L 541.916989 311.5795 
L 541.916989 257.496363 
L 533.378693 257.496363 
z
" clip-path="url(#pcb928de988)" style="fill: #90ee90; stroke: #000000; stroke-linejoin: miter"/>
   </g>
   <g id="patch_55">
    <path d="M 541.916989 311.5795 
L 550.455284 311.5795 
L 550.455284 251.315433 
L 541.916989 251.315433 
z
" clip-path="url(#pcb928de988)" style="fill: #90ee90; stroke: #000000; stroke-linejoin: miter"/>
   </g>
   <g id="patch_56">
    <path d="M 550.455284 311.5795 
L 558.99358 311.5795 
L 558.99358 231.22741 
L 550.455284 231.22741 
z
" clip-path="url(#pcb928de988)" style="fill: #90ee90; stroke: #000000; stroke-linejoin: miter"/>
   </g>
   <g id="patch_57">
    <path d="M 558.99358 311.5795 
L 567.531875 311.5795 
L 567.531875 194.141831 
L 558.99358 194.141831 
z
" clip-path="url(#pcb928de988)" style="fill: #90ee90; stroke: #000000; stroke-linejoin: miter"/>
   </g>
   <g id="patch_58">
    <path d="M 567.531875 311.5795 
L 576.07017 311.5795 
L 576.07017 166.327646 
L 567.531875 166.327646 
z
" clip-path="url(#pcb928de988)" style="fill: #90ee90; stroke: #000000; stroke-linejoin: miter"/>
   </g>
   <g id="patch_59">
    <path d="M 576.07017 311.5795 
L 584.608466 311.5795 
L 584.608466 129.242066 
L 576.07017 129.242066 
z
" clip-path="url(#pcb928de988)" style="fill: #90ee90; stroke: #000000; stroke-linejoin: miter"/>
   </g>
   <g id="patch_60">
    <path d="M 584.608466 311.5795 
L 593.146761 311.5795 
L 593.146761 126.151601 
L 584.608466 126.151601 
z
" clip-path="url(#pcb928de988)" style="fill: #90ee90; stroke: #000000; stroke-linejoin: miter"/>
   </g>
   <g id="patch_61">
    <path d="M 593.146761 311.5795 
L 601.685057 311.5795 
L 601.685057 79.794626 
L 593.146761 79.794626 
z
" clip-path="url(#pcb928de988)" style="fill: #90ee90; stroke: #000000; stroke-linejoin: miter"/>
   </g>
   <g id="patch_62">
    <path d="M 601.685057 311.5795 
L 610.223352 311.5795 
L 610.223352 48.889976 
L 601.685057 48.889976 
z
" clip-path="url(#pcb928de988)" style="fill: #90ee90; stroke: #000000; stroke-linejoin: miter"/>
   </g>
   <g id="patch_63">
    <path d="M 610.223352 311.5795 
L 618.761648 311.5795 
L 618.761648 96.792183 
L 610.223352 96.792183 
z
" clip-path="url(#pcb928de988)" style="fill: #90ee90; stroke: #000000; stroke-linejoin: miter"/>
   </g>
   <g id="patch_64">
    <path d="M 618.761648 311.5795 
L 627.299943 311.5795 
L 627.299943 96.792183 
L 618.761648 96.792183 
z
" clip-path="url(#pcb928de988)" style="fill: #90ee90; stroke: #000000; stroke-linejoin: miter"/>
   </g>
   <g id="patch_65">
    <path d="M 627.299943 311.5795 
L 635.838239 311.5795 
L 635.838239 129.242066 
L 627.299943 129.242066 
z
" clip-path="url(#pcb928de988)" style="fill: #90ee90; stroke: #000000; stroke-linejoin: miter"/>
   </g>
   <g id="patch_66">
    <path d="M 635.838239 311.5795 
L 644.376534 311.5795 
L 644.376534 138.513461 
L 635.838239 138.513461 
z
" clip-path="url(#pcb928de988)" style="fill: #90ee90; stroke: #000000; stroke-linejoin: miter"/>
   </g>
   <g id="patch_67">
    <path d="M 644.376534 311.5795 
L 652.91483 311.5795 
L 652.91483 152.420553 
L 644.376534 152.420553 
z
" clip-path="url(#pcb928de988)" style="fill: #90ee90; stroke: #000000; stroke-linejoin: miter"/>
   </g>
   <g id="patch_68">
    <path d="M 652.91483 311.5795 
L 661.453125 311.5795 
L 661.453125 118.425438 
L 652.91483 118.425438 
z
" clip-path="url(#pcb928de988)" style="fill: #90ee90; stroke: #000000; stroke-linejoin: miter"/>
   </g>
   <g id="patch_69">
    <path d="M 661.453125 311.5795 
L 669.99142 311.5795 
L 669.99142 183.325203 
L 661.453125 183.325203 
z
" clip-path="url(#pcb928de988)" style="fill: #90ee90; stroke: #000000; stroke-linejoin: miter"/>
   </g>
   <g id="patch_70">
    <path d="M 669.99142 311.5795 
L 678.529716 311.5795 
L 678.529716 225.04648 
L 669.99142 225.04648 
z
" clip-path="url(#pcb928de988)" style="fill: #90ee90; stroke: #000000; stroke-linejoin: miter"/>
   </g>
   <g id="patch_71">
    <path d="M 678.529716 311.5795 
L 687.068011 311.5795 
L 687.068011 228.136945 
L 678.529716 228.136945 
z
" clip-path="url(#pcb928de988)" style="fill: #90ee90; stroke: #000000; stroke-linejoin: miter"/>
   </g>
   <g id="patch_72">
    <path d="M 687.068011 311.5795 
L 695.606307 311.5795 
L 695.606307 246.679735 
L 687.068011 246.679735 
z
" clip-path="url(#pcb928de988)" style="fill: #90ee90; stroke: #000000; stroke-linejoin: miter"/>
   </g>
   <g id="patch_73">
    <path d="M 695.606307 311.5795 
L 704.144602 311.5795 
L 704.144602 262.13206 
L 695.606307 262.13206 
z
" clip-path="url(#pcb928de988)" style="fill: #90ee90; stroke: #000000; stroke-linejoin: miter"/>
   </g>
   <g id="patch_74">
    <path d="M 704.144602 311.5795 
L 712.682898 311.5795 
L 712.682898 266.767758 
L 704.144602 266.767758 
z
" clip-path="url(#pcb928de988)" style="fill: #90ee90; stroke: #000000; stroke-linejoin: miter"/>
   </g>
   <g id="patch_75">
    <path d="M 712.682898 311.5795 
L 721.221193 311.5795 
L 721.221193 276.039153 
L 712.682898 276.039153 
z
" clip-path="url(#pcb928de988)" style="fill: #90ee90; stroke: #000000; stroke-linejoin: miter"/>
   </g>
   <g id="patch_76">
    <path d="M 721.221193 311.5795 
L 729.759489 311.5795 
L 729.759489 282.220083 
L 721.221193 282.220083 
z
" clip-path="url(#pcb928de988)" style="fill: #90ee90; stroke: #000000; stroke-linejoin: miter"/>
   </g>
   <g id="patch_77">
    <path d="M 729.759489 311.5795 
L 738.297784 311.5795 
L 738.297784 291.491478 
L 729.759489 291.491478 
z
" clip-path="url(#pcb928de988)" style="fill: #90ee90; stroke: #000000; stroke-linejoin: miter"/>
   </g>
   <g id="patch_78">
    <path d="M 738.297784 311.5795 
L 746.83608 311.5795 
L 746.83608 297.672408 
L 738.297784 297.672408 
z
" clip-path="url(#pcb928de988)" style="fill: #90ee90; stroke: #000000; stroke-linejoin: miter"/>
   </g>
   <g id="patch_79">
    <path d="M 746.83608 311.5795 
L 755.374375 311.5795 
L 755.374375 303.853338 
L 746.83608 303.853338 
z
" clip-path="url(#pcb928de988)" style="fill: #90ee90; stroke: #000000; stroke-linejoin: miter"/>
   </g>
   <g id="patch_80">
    <path d="M 755.374375 311.5795 
L 763.91267 311.5795 
L 763.91267 303.853338 
L 755.374375 303.853338 
z
" clip-path="url(#pcb928de988)" style="fill: #90ee90; stroke: #000000; stroke-linejoin: miter"/>
   </g>
   <g id="patch_81">
    <path d="M 763.91267 311.5795 
L 772.450966 311.5795 
L 772.450966 310.034268 
L 763.91267 310.034268 
z
" clip-path="url(#pcb928de988)" style="fill: #90ee90; stroke: #000000; stroke-linejoin: miter"/>
   </g>
   <g id="patch_82">
    <path d="M 772.450966 311.5795 
L 780.989261 311.5795 
L 780.989261 308.489035 
L 772.450966 308.489035 
z
" clip-path="url(#pcb928de988)" style="fill: #90ee90; stroke: #000000; stroke-linejoin: miter"/>
   </g>
   <g id="patch_83">
    <path d="M 780.989261 311.5795 
L 789.527557 311.5795 
L 789.527557 310.034268 
L 780.989261 310.034268 
z
" clip-path="url(#pcb928de988)" style="fill: #90ee90; stroke: #000000; stroke-linejoin: miter"/>
   </g>
   <g id="patch_84">
    <path d="M 789.527557 311.5795 
L 798.065852 311.5795 
L 798.065852 306.943803 
L 789.527557 306.943803 
z
" clip-path="url(#pcb928de988)" style="fill: #90ee90; stroke: #000000; stroke-linejoin: miter"/>
   </g>
   <g id="patch_85">
    <path d="M 798.065852 311.5795 
L 806.604148 311.5795 
L 806.604148 311.5795 
L 798.065852 311.5795 
z
" clip-path="url(#pcb928de988)" style="fill: #90ee90; stroke: #000000; stroke-linejoin: miter"/>
   </g>
   <g id="patch_86">
    <path d="M 806.604148 311.5795 
L 815.142443 311.5795 
L 815.142443 310.034268 
L 806.604148 310.034268 
z
" clip-path="url(#pcb928de988)" style="fill: #90ee90; stroke: #000000; stroke-linejoin: miter"/>
   </g>
   <g id="patch_87">
    <path d="M 815.142443 311.5795 
L 823.680739 311.5795 
L 823.680739 311.5795 
L 815.142443 311.5795 
z
" clip-path="url(#pcb928de988)" style="fill: #90ee90; stroke: #000000; stroke-linejoin: miter"/>
   </g>
   <g id="patch_88">
    <path d="M 823.680739 311.5795 
L 832.219034 311.5795 
L 832.219034 310.034268 
L 823.680739 310.034268 
z
" clip-path="url(#pcb928de988)" style="fill: #90ee90; stroke: #000000; stroke-linejoin: miter"/>
   </g>
   <g id="matplotlib.axis_3">
    <g id="xtick_5">
     <g id="line2d_17">
      <g>
       <use xlink:href="#m9935e48646" x="504.451497" y="311.5795" style="stroke: #000000; stroke-width: 0.8"/>
      </g>
     </g>
     <g id="text_18">
      <!-- 0.3 -->
      <g transform="translate(496.499935 326.177937) scale(0.1 -0.1)">
       <defs>
        <path id="DejaVuSans-33" d="M 2597 2516 
Q 3050 2419 3304 2112 
Q 3559 1806 3559 1356 
Q 3559 666 3084 287 
Q 2609 -91 1734 -91 
Q 1441 -91 1130 -33 
Q 819 25 488 141 
L 488 750 
Q 750 597 1062 519 
Q 1375 441 1716 441 
Q 2309 441 2620 675 
Q 2931 909 2931 1356 
Q 2931 1769 2642 2001 
Q 2353 2234 1838 2234 
L 1294 2234 
L 1294 2753 
L 1863 2753 
Q 2328 2753 2575 2939 
Q 2822 3125 2822 3475 
Q 2822 3834 2567 4026 
Q 2313 4219 1838 4219 
Q 1578 4219 1281 4162 
Q 984 4106 628 3988 
L 628 4550 
Q 988 4650 1302 4700 
Q 1616 4750 1894 4750 
Q 2613 4750 3031 4423 
Q 3450 4097 3450 3541 
Q 3450 3153 3228 2886 
Q 3006 2619 2597 2516 
z
" transform="scale(0.015625)"/>
       </defs>
       <use xlink:href="#DejaVuSans-30"/>
       <use xlink:href="#DejaVuSans-2e" transform="translate(63.623047 0)"/>
       <use xlink:href="#DejaVuSans-33" transform="translate(95.410156 0)"/>
      </g>
     </g>
    </g>
    <g id="xtick_6">
     <g id="line2d_18">
      <g>
       <use xlink:href="#m9935e48646" x="563.952128" y="311.5795" style="stroke: #000000; stroke-width: 0.8"/>
      </g>
     </g>
     <g id="text_19">
      <!-- 0.4 -->
      <g transform="translate(556.000565 326.177937) scale(0.1 -0.1)">
       <use xlink:href="#DejaVuSans-30"/>
       <use xlink:href="#DejaVuSans-2e" transform="translate(63.623047 0)"/>
       <use xlink:href="#DejaVuSans-34" transform="translate(95.410156 0)"/>
      </g>
     </g>
    </g>
    <g id="xtick_7">
     <g id="line2d_19">
      <g>
       <use xlink:href="#m9935e48646" x="623.452758" y="311.5795" style="stroke: #000000; stroke-width: 0.8"/>
      </g>
     </g>
     <g id="text_20">
      <!-- 0.5 -->
      <g transform="translate(615.501196 326.177937) scale(0.1 -0.1)">
       <defs>
        <path id="DejaVuSans-35" d="M 691 4666 
L 3169 4666 
L 3169 4134 
L 1269 4134 
L 1269 2991 
Q 1406 3038 1543 3061 
Q 1681 3084 1819 3084 
Q 2600 3084 3056 2656 
Q 3513 2228 3513 1497 
Q 3513 744 3044 326 
Q 2575 -91 1722 -91 
Q 1428 -91 1123 -41 
Q 819 9 494 109 
L 494 744 
Q 775 591 1075 516 
Q 1375 441 1709 441 
Q 2250 441 2565 725 
Q 2881 1009 2881 1497 
Q 2881 1984 2565 2268 
Q 2250 2553 1709 2553 
Q 1456 2553 1204 2497 
Q 953 2441 691 2322 
L 691 4666 
z
" transform="scale(0.015625)"/>
       </defs>
       <use xlink:href="#DejaVuSans-30"/>
       <use xlink:href="#DejaVuSans-2e" transform="translate(63.623047 0)"/>
       <use xlink:href="#DejaVuSans-35" transform="translate(95.410156 0)"/>
      </g>
     </g>
    </g>
    <g id="xtick_8">
     <g id="line2d_20">
      <g>
       <use xlink:href="#m9935e48646" x="682.953389" y="311.5795" style="stroke: #000000; stroke-width: 0.8"/>
      </g>
     </g>
     <g id="text_21">
      <!-- 0.6 -->
      <g transform="translate(675.001827 326.177937) scale(0.1 -0.1)">
       <use xlink:href="#DejaVuSans-30"/>
       <use xlink:href="#DejaVuSans-2e" transform="translate(63.623047 0)"/>
       <use xlink:href="#DejaVuSans-36" transform="translate(95.410156 0)"/>
      </g>
     </g>
    </g>
    <g id="xtick_9">
     <g id="line2d_21">
      <g>
       <use xlink:href="#m9935e48646" x="742.45402" y="311.5795" style="stroke: #000000; stroke-width: 0.8"/>
      </g>
     </g>
     <g id="text_22">
      <!-- 0.7 -->
      <g transform="translate(734.502457 326.177937) scale(0.1 -0.1)">
       <defs>
        <path id="DejaVuSans-37" d="M 525 4666 
L 3525 4666 
L 3525 4397 
L 1831 0 
L 1172 0 
L 2766 4134 
L 525 4134 
L 525 4666 
z
" transform="scale(0.015625)"/>
       </defs>
       <use xlink:href="#DejaVuSans-30"/>
       <use xlink:href="#DejaVuSans-2e" transform="translate(63.623047 0)"/>
       <use xlink:href="#DejaVuSans-37" transform="translate(95.410156 0)"/>
      </g>
     </g>
    </g>
    <g id="xtick_10">
     <g id="line2d_22">
      <g>
       <use xlink:href="#m9935e48646" x="801.954651" y="311.5795" style="stroke: #000000; stroke-width: 0.8"/>
      </g>
     </g>
     <g id="text_23">
      <!-- 0.8 -->
      <g transform="translate(794.003088 326.177937) scale(0.1 -0.1)">
       <use xlink:href="#DejaVuSans-30"/>
       <use xlink:href="#DejaVuSans-2e" transform="translate(63.623047 0)"/>
       <use xlink:href="#DejaVuSans-38" transform="translate(95.410156 0)"/>
      </g>
     </g>
    </g>
    <g id="text_24">
     <!-- Scale (θ̂) -->
     <g transform="translate(639.45 339.856062) scale(0.1 -0.1)">
      <defs>
       <path id="DejaVuSans-3b8" d="M 2953 2219 
L 963 2219 
Q 1009 1284 1225 888 
Q 1494 400 1959 400 
Q 2428 400 2688 891 
Q 2916 1322 2953 2219 
z
M 2944 2750 
Q 2856 3638 2688 3950 
Q 2419 4444 1959 4444 
Q 1481 4444 1228 3956 
Q 1028 3563 969 2750 
L 2944 2750 
z
M 1959 4913 
Q 2709 4913 3138 4250 
Q 3566 3591 3566 2422 
Q 3566 1256 3138 594 
Q 2709 -72 1959 -72 
Q 1206 -72 781 594 
Q 353 1256 353 2422 
Q 353 3591 781 4250 
Q 1206 4913 1959 4913 
z
" transform="scale(0.015625)"/>
      </defs>
      <use xlink:href="#DejaVuSans-53"/>
      <use xlink:href="#DejaVuSans-63" transform="translate(63.476562 0)"/>
      <use xlink:href="#DejaVuSans-61" transform="translate(118.457031 0)"/>
      <use xlink:href="#DejaVuSans-6c" transform="translate(179.736328 0)"/>
      <use xlink:href="#DejaVuSans-65" transform="translate(207.519531 0)"/>
      <use xlink:href="#DejaVuSans-20" transform="translate(269.042969 0)"/>
      <use xlink:href="#DejaVuSans-28" transform="translate(300.830078 0)"/>
      <use xlink:href="#DejaVuSans-3b8" transform="translate(339.84375 0)"/>
      <use xlink:href="#DejaVuSans-302" transform="translate(401.025391 0)"/>
      <use xlink:href="#DejaVuSans-29" transform="translate(401.025391 0)"/>
     </g>
    </g>
   </g>
   <g id="matplotlib.axis_4">
    <g id="ytick_9">
     <g id="line2d_23">
      <g>
       <use xlink:href="#mf6146bc800" x="473.610625" y="311.5795" style="stroke: #000000; stroke-width: 0.8"/>
      </g>
     </g>
     <g id="text_25">
      <!-- 0 -->
      <g transform="translate(460.248125 315.378719) scale(0.1 -0.1)">
       <use xlink:href="#DejaVuSans-30"/>
      </g>
     </g>
    </g>
    <g id="ytick_10">
     <g id="line2d_24">
      <g>
       <use xlink:href="#mf6146bc800" x="473.610625" y="280.67485" style="stroke: #000000; stroke-width: 0.8"/>
      </g>
     </g>
     <g id="text_26">
      <!-- 20 -->
      <g transform="translate(453.885625 284.474069) scale(0.1 -0.1)">
       <use xlink:href="#DejaVuSans-32"/>
       <use xlink:href="#DejaVuSans-30" transform="translate(63.623047 0)"/>
      </g>
     </g>
    </g>
    <g id="ytick_11">
     <g id="line2d_25">
      <g>
       <use xlink:href="#mf6146bc800" x="473.610625" y="249.7702" style="stroke: #000000; stroke-width: 0.8"/>
      </g>
     </g>
     <g id="text_27">
      <!-- 40 -->
      <g transform="translate(453.885625 253.569419) scale(0.1 -0.1)">
       <use xlink:href="#DejaVuSans-34"/>
       <use xlink:href="#DejaVuSans-30" transform="translate(63.623047 0)"/>
      </g>
     </g>
    </g>
    <g id="ytick_12">
     <g id="line2d_26">
      <g>
       <use xlink:href="#mf6146bc800" x="473.610625" y="218.86555" style="stroke: #000000; stroke-width: 0.8"/>
      </g>
     </g>
     <g id="text_28">
      <!-- 60 -->
      <g transform="translate(453.885625 222.664769) scale(0.1 -0.1)">
       <use xlink:href="#DejaVuSans-36"/>
       <use xlink:href="#DejaVuSans-30" transform="translate(63.623047 0)"/>
      </g>
     </g>
    </g>
    <g id="ytick_13">
     <g id="line2d_27">
      <g>
       <use xlink:href="#mf6146bc800" x="473.610625" y="187.960901" style="stroke: #000000; stroke-width: 0.8"/>
      </g>
     </g>
     <g id="text_29">
      <!-- 80 -->
      <g transform="translate(453.885625 191.760119) scale(0.1 -0.1)">
       <use xlink:href="#DejaVuSans-38"/>
       <use xlink:href="#DejaVuSans-30" transform="translate(63.623047 0)"/>
      </g>
     </g>
    </g>
    <g id="ytick_14">
     <g id="line2d_28">
      <g>
       <use xlink:href="#mf6146bc800" x="473.610625" y="157.056251" style="stroke: #000000; stroke-width: 0.8"/>
      </g>
     </g>
     <g id="text_30">
      <!-- 100 -->
      <g transform="translate(447.523125 160.855469) scale(0.1 -0.1)">
       <use xlink:href="#DejaVuSans-31"/>
       <use xlink:href="#DejaVuSans-30" transform="translate(63.623047 0)"/>
       <use xlink:href="#DejaVuSans-30" transform="translate(127.246094 0)"/>
      </g>
     </g>
    </g>
    <g id="ytick_15">
     <g id="line2d_29">
      <g>
       <use xlink:href="#mf6146bc800" x="473.610625" y="126.151601" style="stroke: #000000; stroke-width: 0.8"/>
      </g>
     </g>
     <g id="text_31">
      <!-- 120 -->
      <g transform="translate(447.523125 129.95082) scale(0.1 -0.1)">
       <use xlink:href="#DejaVuSans-31"/>
       <use xlink:href="#DejaVuSans-32" transform="translate(63.623047 0)"/>
       <use xlink:href="#DejaVuSans-30" transform="translate(127.246094 0)"/>
      </g>
     </g>
    </g>
    <g id="ytick_16">
     <g id="line2d_30">
      <g>
       <use xlink:href="#mf6146bc800" x="473.610625" y="95.246951" style="stroke: #000000; stroke-width: 0.8"/>
      </g>
     </g>
     <g id="text_32">
      <!-- 140 -->
      <g transform="translate(447.523125 99.04617) scale(0.1 -0.1)">
       <use xlink:href="#DejaVuSans-31"/>
       <use xlink:href="#DejaVuSans-34" transform="translate(63.623047 0)"/>
       <use xlink:href="#DejaVuSans-30" transform="translate(127.246094 0)"/>
      </g>
     </g>
    </g>
    <g id="ytick_17">
     <g id="line2d_31">
      <g>
       <use xlink:href="#mf6146bc800" x="473.610625" y="64.342301" style="stroke: #000000; stroke-width: 0.8"/>
      </g>
     </g>
     <g id="text_33">
      <!-- 160 -->
      <g transform="translate(447.523125 68.14152) scale(0.1 -0.1)">
       <use xlink:href="#DejaVuSans-31"/>
       <use xlink:href="#DejaVuSans-36" transform="translate(63.623047 0)"/>
       <use xlink:href="#DejaVuSans-30" transform="translate(127.246094 0)"/>
      </g>
     </g>
    </g>
    <g id="text_34">
     <!-- Frequency -->
     <g transform="translate(441.443437 199.497187) rotate(-90) scale(0.1 -0.1)">
      <use xlink:href="#DejaVuSans-46"/>
      <use xlink:href="#DejaVuSans-72" transform="translate(50.269531 0)"/>
      <use xlink:href="#DejaVuSans-65" transform="translate(89.132812 0)"/>
      <use xlink:href="#DejaVuSans-71" transform="translate(150.65625 0)"/>
      <use xlink:href="#DejaVuSans-75" transform="translate(214.132812 0)"/>
      <use xlink:href="#DejaVuSans-65" transform="translate(277.511719 0)"/>
      <use xlink:href="#DejaVuSans-6e" transform="translate(339.035156 0)"/>
      <use xlink:href="#DejaVuSans-63" transform="translate(402.414062 0)"/>
      <use xlink:href="#DejaVuSans-79" transform="translate(457.394531 0)"/>
     </g>
    </g>
   </g>
   <g id="line2d_32">
    <path d="M 623.452758 311.5795 
L 623.452758 35.7555 
" clip-path="url(#pcb928de988)" style="fill: none; stroke-dasharray: 5.55,2.4; stroke-dashoffset: 0; stroke: #ff0000; stroke-width: 1.5"/>
   </g>
   <g id="line2d_33">
    <path d="M 621.803084 311.5795 
L 621.803084 35.7555 
" clip-path="url(#pcb928de988)" style="fill: none; stroke: #ffa500; stroke-width: 1.5; stroke-linecap: square"/>
   </g>
   <g id="patch_89">
    <path d="M 473.610625 311.5795 
L 473.610625 35.7555 
" style="fill: none; stroke: #000000; stroke-width: 0.8; stroke-linejoin: miter; stroke-linecap: square"/>
   </g>
   <g id="patch_90">
    <path d="M 849.295625 311.5795 
L 849.295625 35.7555 
" style="fill: none; stroke: #000000; stroke-width: 0.8; stroke-linejoin: miter; stroke-linecap: square"/>
   </g>
   <g id="patch_91">
    <path d="M 473.610625 311.5795 
L 849.295625 311.5795 
" style="fill: none; stroke: #000000; stroke-width: 0.8; stroke-linejoin: miter; stroke-linecap: square"/>
   </g>
   <g id="patch_92">
    <path d="M 473.610625 35.7555 
L 849.295625 35.7555 
" style="fill: none; stroke: #000000; stroke-width: 0.8; stroke-linejoin: miter; stroke-linecap: square"/>
   </g>
   <g id="text_35">
    <!-- Gamma Scale Parameter Estimates -->
    <g transform="translate(555.055313 16.318125) scale(0.12 -0.12)">
     <use xlink:href="#DejaVuSans-47"/>
     <use xlink:href="#DejaVuSans-61" transform="translate(77.490234 0)"/>
     <use xlink:href="#DejaVuSans-6d" transform="translate(138.769531 0)"/>
     <use xlink:href="#DejaVuSans-6d" transform="translate(236.181641 0)"/>
     <use xlink:href="#DejaVuSans-61" transform="translate(333.59375 0)"/>
     <use xlink:href="#DejaVuSans-20" transform="translate(394.873047 0)"/>
     <use xlink:href="#DejaVuSans-53" transform="translate(426.660156 0)"/>
     <use xlink:href="#DejaVuSans-63" transform="translate(490.136719 0)"/>
     <use xlink:href="#DejaVuSans-61" transform="translate(545.117188 0)"/>
     <use xlink:href="#DejaVuSans-6c" transform="translate(606.396484 0)"/>
     <use xlink:href="#DejaVuSans-65" transform="translate(634.179688 0)"/>
     <use xlink:href="#DejaVuSans-20" transform="translate(695.703125 0)"/>
     <use xlink:href="#DejaVuSans-50" transform="translate(727.490234 0)"/>
     <use xlink:href="#DejaVuSans-61" transform="translate(783.292969 0)"/>
     <use xlink:href="#DejaVuSans-72" transform="translate(844.572266 0)"/>
     <use xlink:href="#DejaVuSans-61" transform="translate(885.685547 0)"/>
     <use xlink:href="#DejaVuSans-6d" transform="translate(946.964844 0)"/>
     <use xlink:href="#DejaVuSans-65" transform="translate(1044.376953 0)"/>
     <use xlink:href="#DejaVuSans-74" transform="translate(1105.900391 0)"/>
     <use xlink:href="#DejaVuSans-65" transform="translate(1145.109375 0)"/>
     <use xlink:href="#DejaVuSans-72" transform="translate(1206.632812 0)"/>
     <use xlink:href="#DejaVuSans-20" transform="translate(1247.746094 0)"/>
     <use xlink:href="#DejaVuSans-45" transform="translate(1279.533203 0)"/>
     <use xlink:href="#DejaVuSans-73" transform="translate(1342.716797 0)"/>
     <use xlink:href="#DejaVuSans-74" transform="translate(1394.816406 0)"/>
     <use xlink:href="#DejaVuSans-69" transform="translate(1434.025391 0)"/>
     <use xlink:href="#DejaVuSans-6d" transform="translate(1461.808594 0)"/>
     <use xlink:href="#DejaVuSans-61" transform="translate(1559.220703 0)"/>
     <use xlink:href="#DejaVuSans-74" transform="translate(1620.5 0)"/>
     <use xlink:href="#DejaVuSans-65" transform="translate(1659.708984 0)"/>
     <use xlink:href="#DejaVuSans-73" transform="translate(1721.232422 0)"/>
    </g>
    <!-- λ=2.0, S=101, Samples=2000 -->
    <g transform="translate(569.49375 29.7555) scale(0.12 -0.12)">
     <use xlink:href="#DejaVuSans-3bb"/>
     <use xlink:href="#DejaVuSans-3d" transform="translate(59.179688 0)"/>
     <use xlink:href="#DejaVuSans-32" transform="translate(142.96875 0)"/>
     <use xlink:href="#DejaVuSans-2e" transform="translate(206.591797 0)"/>
     <use xlink:href="#DejaVuSans-30" transform="translate(238.378906 0)"/>
     <use xlink:href="#DejaVuSans-2c" transform="translate(302.001953 0)"/>
     <use xlink:href="#DejaVuSans-20" transform="translate(333.789062 0)"/>
     <use xlink:href="#DejaVuSans-53" transform="translate(365.576172 0)"/>
     <use xlink:href="#DejaVuSans-3d" transform="translate(429.052734 0)"/>
     <use xlink:href="#DejaVuSans-31" transform="translate(512.841797 0)"/>
     <use xlink:href="#DejaVuSans-30" transform="translate(576.464844 0)"/>
     <use xlink:href="#DejaVuSans-31" transform="translate(640.087891 0)"/>
     <use xlink:href="#DejaVuSans-2c" transform="translate(703.710938 0)"/>
     <use xlink:href="#DejaVuSans-20" transform="translate(735.498047 0)"/>
     <use xlink:href="#DejaVuSans-53" transform="translate(767.285156 0)"/>
     <use xlink:href="#DejaVuSans-61" transform="translate(830.761719 0)"/>
     <use xlink:href="#DejaVuSans-6d" transform="translate(892.041016 0)"/>
     <use xlink:href="#DejaVuSans-70" transform="translate(989.453125 0)"/>
     <use xlink:href="#DejaVuSans-6c" transform="translate(1052.929688 0)"/>
     <use xlink:href="#DejaVuSans-65" transform="translate(1080.712891 0)"/>
     <use xlink:href="#DejaVuSans-73" transform="translate(1142.236328 0)"/>
     <use xlink:href="#DejaVuSans-3d" transform="translate(1194.335938 0)"/>
     <use xlink:href="#DejaVuSans-32" transform="translate(1278.125 0)"/>
     <use xlink:href="#DejaVuSans-30" transform="translate(1341.748047 0)"/>
     <use xlink:href="#DejaVuSans-30" transform="translate(1405.371094 0)"/>
     <use xlink:href="#DejaVuSans-30" transform="translate(1468.994141 0)"/>
    </g>
   </g>
   <g id="legend_2">
    <g id="patch_93">
     <path d="M 718.726875 73.11175 
L 842.295625 73.11175 
Q 844.295625 73.11175 844.295625 71.11175 
L 844.295625 42.7555 
Q 844.295625 40.7555 842.295625 40.7555 
L 718.726875 40.7555 
Q 716.726875 40.7555 716.726875 42.7555 
L 716.726875 71.11175 
Q 716.726875 73.11175 718.726875 73.11175 
z
" style="fill: #ffffff; opacity: 0.8; stroke: #cccccc; stroke-linejoin: miter"/>
    </g>
    <g id="line2d_34">
     <path d="M 720.726875 48.853937 
L 730.726875 48.853937 
L 740.726875 48.853937 
" style="fill: none; stroke-dasharray: 5.55,2.4; stroke-dashoffset: 0; stroke: #ff0000; stroke-width: 1.5"/>
    </g>
    <g id="text_36">
     <!-- True θ=1/λ=0.500 -->
     <g transform="translate(748.726875 52.353937) scale(0.1 -0.1)">
      <defs>
       <path id="DejaVuSans-2f" d="M 1625 4666 
L 2156 4666 
L 531 -594 
L 0 -594 
L 1625 4666 
z
" transform="scale(0.015625)"/>
      </defs>
      <use xlink:href="#DejaVuSans-54"/>
      <use xlink:href="#DejaVuSans-72" transform="translate(46.333984 0)"/>
      <use xlink:href="#DejaVuSans-75" transform="translate(87.447266 0)"/>
      <use xlink:href="#DejaVuSans-65" transform="translate(150.826172 0)"/>
      <use xlink:href="#DejaVuSans-20" transform="translate(212.349609 0)"/>
      <use xlink:href="#DejaVuSans-3b8" transform="translate(244.136719 0)"/>
      <use xlink:href="#DejaVuSans-3d" transform="translate(305.318359 0)"/>
      <use xlink:href="#DejaVuSans-31" transform="translate(389.107422 0)"/>
      <use xlink:href="#DejaVuSans-2f" transform="translate(452.730469 0)"/>
      <use xlink:href="#DejaVuSans-3bb" transform="translate(486.421875 0)"/>
      <use xlink:href="#DejaVuSans-3d" transform="translate(545.601562 0)"/>
      <use xlink:href="#DejaVuSans-30" transform="translate(629.390625 0)"/>
      <use xlink:href="#DejaVuSans-2e" transform="translate(693.013672 0)"/>
      <use xlink:href="#DejaVuSans-35" transform="translate(724.800781 0)"/>
      <use xlink:href="#DejaVuSans-30" transform="translate(788.423828 0)"/>
      <use xlink:href="#DejaVuSans-30" transform="translate(852.046875 0)"/>
     </g>
    </g>
    <g id="line2d_35">
     <path d="M 720.726875 63.532062 
L 730.726875 63.532062 
L 740.726875 63.532062 
" style="fill: none; stroke: #ffa500; stroke-width: 1.5; stroke-linecap: square"/>
    </g>
    <g id="text_37">
     <!-- Mean θ̂=0.497 -->
     <g transform="translate(748.726875 67.032062) scale(0.1 -0.1)">
      <defs>
       <path id="DejaVuSans-39" d="M 703 97 
L 703 672 
Q 941 559 1184 500 
Q 1428 441 1663 441 
Q 2288 441 2617 861 
Q 2947 1281 2994 2138 
Q 2813 1869 2534 1725 
Q 2256 1581 1919 1581 
Q 1219 1581 811 2004 
Q 403 2428 403 3163 
Q 403 3881 828 4315 
Q 1253 4750 1959 4750 
Q 2769 4750 3195 4129 
Q 3622 3509 3622 2328 
Q 3622 1225 3098 567 
Q 2575 -91 1691 -91 
Q 1453 -91 1209 -44 
Q 966 3 703 97 
z
M 1959 2075 
Q 2384 2075 2632 2365 
Q 2881 2656 2881 3163 
Q 2881 3666 2632 3958 
Q 2384 4250 1959 4250 
Q 1534 4250 1286 3958 
Q 1038 3666 1038 3163 
Q 1038 2656 1286 2365 
Q 1534 2075 1959 2075 
z
" transform="scale(0.015625)"/>
      </defs>
      <use xlink:href="#DejaVuSans-4d"/>
      <use xlink:href="#DejaVuSans-65" transform="translate(86.279297 0)"/>
      <use xlink:href="#DejaVuSans-61" transform="translate(147.802734 0)"/>
      <use xlink:href="#DejaVuSans-6e" transform="translate(209.082031 0)"/>
      <use xlink:href="#DejaVuSans-20" transform="translate(272.460938 0)"/>
      <use xlink:href="#DejaVuSans-3b8" transform="translate(304.248047 0)"/>
      <use xlink:href="#DejaVuSans-302" transform="translate(365.429688 0)"/>
      <use xlink:href="#DejaVuSans-3d" transform="translate(365.429688 0)"/>
      <use xlink:href="#DejaVuSans-30" transform="translate(449.21875 0)"/>
      <use xlink:href="#DejaVuSans-2e" transform="translate(512.841797 0)"/>
      <use xlink:href="#DejaVuSans-34" transform="translate(544.628906 0)"/>
      <use xlink:href="#DejaVuSans-39" transform="translate(608.251953 0)"/>
      <use xlink:href="#DejaVuSans-37" transform="translate(671.875 0)"/>
     </g>
    </g>
   </g>
  </g>
 </g>
 <defs>
  <clipPath id="p187aee0c65">
   <rect x="46.965625" y="35.7555" width="375.685" height="275.824"/>
  </clipPath>
  <clipPath id="pcb928de988">
   <rect x="473.610625" y="35.7555" width="375.685" height="275.824"/>
  </clipPath>
 </defs>
</svg>
