<?xml version="1.0" encoding="utf-8" standalone="no"?>
<!DOCTYPE svg PUBLIC "-//W3C//DTD SVG 1.1//EN"
  "http://www.w3.org/Graphics/SVG/1.1/DTD/svg11.dtd">
<svg xmlns:xlink="http://www.w3.org/1999/xlink" width="411.285625pt" height="325.986375pt" viewBox="0 0 411.285625 325.986375" xmlns="http://www.w3.org/2000/svg" version="1.1">
 <metadata>
  <rdf:RDF xmlns:dc="http://purl.org/dc/elements/1.1/" xmlns:cc="http://creativecommons.org/ns#" xmlns:rdf="http://www.w3.org/1999/02/22-rdf-syntax-ns#">
   <cc:Work>
    <dc:type rdf:resource="http://purl.org/dc/dcmitype/StillImage"/>
    <dc:date>2025-11-02T01:41:58.457074</dc:date>
    <dc:format>image/svg+xml</dc:format>
    <dc:creator>
     <cc:Agent>
      <dc:title>Matplotlib v3.10.7, https://matplotlib.org/</dc:title>
     </cc:Agent>
    </dc:creator>
   </cc:Work>
  </rdf:RDF>
 </metadata>
 <defs>
  <style type="text/css">*{stroke-linejoin: round; stroke-linecap: butt}</style>
 </defs>
 <g id="figure_1">
  <g id="patch_1">
   <path d="M 0 325.986375 
L 411.285625 325.986375 
L 411.285625 0 
L 0 0 
z
" style="fill: #ffffff"/>
  </g>
  <g id="axes_1">
   <g id="patch_2">
    <path d="M 46.965625 288.430125 
L 404.085625 288.430125 
L 404.085625 22.318125 
L 46.965625 22.318125 
z
" style="fill: #ffffff"/>
   </g>
   <g id="matplotlib.axis_1">
    <g id="xtick_1">
     <g id="line2d_1">
      <defs>
       <path id="m68fd93cba2" d="M 0 0 
L 0 3.5 
" style="stroke: #000000; stroke-width: 0.8"/>
      </defs>
      <g>
       <use xlink:href="#m68fd93cba2" x="63.198028" y="288.430125" style="stroke: #000000; stroke-width: 0.8"/>
      </g>
     </g>
     <g id="text_1">
      <!-- 0 -->
      <g transform="translate(60.016778 303.028562) scale(0.1 -0.1)">
       <defs>
        <path id="DejaVuSans-30" d="M 2034 4250 
Q 1547 4250 1301 3770 
Q 1056 3291 1056 2328 
Q 1056 1369 1301 889 
Q 1547 409 2034 409 
Q 2525 409 2770 889 
Q 3016 1369 3016 2328 
Q 3016 3291 2770 3770 
Q 2525 4250 2034 4250 
z
M 2034 4750 
Q 2819 4750 3233 4129 
Q 3647 3509 3647 2328 
Q 3647 1150 3233 529 
Q 2819 -91 2034 -91 
Q 1250 -91 836 529 
Q 422 1150 422 2328 
Q 422 3509 836 4129 
Q 1250 4750 2034 4750 
z
" transform="scale(0.015625)"/>
       </defs>
       <use xlink:href="#DejaVuSans-30"/>
      </g>
     </g>
    </g>
    <g id="xtick_2">
     <g id="line2d_2">
      <g>
       <use xlink:href="#m68fd93cba2" x="128.129002" y="288.430125" style="stroke: #000000; stroke-width: 0.8"/>
      </g>
     </g>
     <g id="text_2">
      <!-- 20 -->
      <g transform="translate(121.766502 303.028562) scale(0.1 -0.1)">
       <defs>
        <path id="DejaVuSans-32" d="M 1228 531 
L 3431 531 
L 3431 0 
L 469 0 
L 469 531 
Q 828 903 1448 1529 
Q 2069 2156 2228 2338 
Q 2531 2678 2651 2914 
Q 2772 3150 2772 3378 
Q 2772 3750 2511 3984 
Q 2250 4219 1831 4219 
Q 1534 4219 1204 4116 
Q 875 4013 500 3803 
L 500 4441 
Q 881 4594 1212 4672 
Q 1544 4750 1819 4750 
Q 2544 4750 2975 4387 
Q 3406 4025 3406 3419 
Q 3406 3131 3298 2873 
Q 3191 2616 2906 2266 
Q 2828 2175 2409 1742 
Q 1991 1309 1228 531 
z
" transform="scale(0.015625)"/>
       </defs>
       <use xlink:href="#DejaVuSans-32"/>
       <use xlink:href="#DejaVuSans-30" transform="translate(63.623047 0)"/>
      </g>
     </g>
    </g>
    <g id="xtick_3">
     <g id="line2d_3">
      <g>
       <use xlink:href="#m68fd93cba2" x="193.059976" y="288.430125" style="stroke: #000000; stroke-width: 0.8"/>
      </g>
     </g>
     <g id="text_3">
      <!-- 40 -->
      <g transform="translate(186.697476 303.028562) scale(0.1 -0.1)">
       <defs>
        <path id="DejaVuSans-34" d="M 2419 4116 
L 825 1625 
L 2419 1625 
L 2419 4116 
z
M 2253 4666 
L 3047 4666 
L 3047 1625 
L 3713 1625 
L 3713 1100 
L 3047 1100 
L 3047 0 
L 2419 0 
L 2419 1100 
L 313 1100 
L 313 1709 
L 2253 4666 
z
" transform="scale(0.015625)"/>
       </defs>
       <use xlink:href="#DejaVuSans-34"/>
       <use xlink:href="#DejaVuSans-30" transform="translate(63.623047 0)"/>
      </g>
     </g>
    </g>
    <g id="xtick_4">
     <g id="line2d_4">
      <g>
       <use xlink:href="#m68fd93cba2" x="257.99095" y="288.430125" style="stroke: #000000; stroke-width: 0.8"/>
      </g>
     </g>
     <g id="text_4">
      <!-- 60 -->
      <g transform="translate(251.62845 303.028562) scale(0.1 -0.1)">
       <defs>
        <path id="DejaVuSans-36" d="M 2113 2584 
Q 1688 2584 1439 2293 
Q 1191 2003 1191 1497 
Q 1191 994 1439 701 
Q 1688 409 2113 409 
Q 2538 409 2786 701 
Q 3034 994 3034 1497 
Q 3034 2003 2786 2293 
Q 2538 2584 2113 2584 
z
M 3366 4563 
L 3366 3988 
Q 3128 4100 2886 4159 
Q 2644 4219 2406 4219 
Q 1781 4219 1451 3797 
Q 1122 3375 1075 2522 
Q 1259 2794 1537 2939 
Q 1816 3084 2150 3084 
Q 2853 3084 3261 2657 
Q 3669 2231 3669 1497 
Q 3669 778 3244 343 
Q 2819 -91 2113 -91 
Q 1303 -91 875 529 
Q 447 1150 447 2328 
Q 447 3434 972 4092 
Q 1497 4750 2381 4750 
Q 2619 4750 2861 4703 
Q 3103 4656 3366 4563 
z
" transform="scale(0.015625)"/>
       </defs>
       <use xlink:href="#DejaVuSans-36"/>
       <use xlink:href="#DejaVuSans-30" transform="translate(63.623047 0)"/>
      </g>
     </g>
    </g>
    <g id="xtick_5">
     <g id="line2d_5">
      <g>
       <use xlink:href="#m68fd93cba2" x="322.921924" y="288.430125" style="stroke: #000000; stroke-width: 0.8"/>
      </g>
     </g>
     <g id="text_5">
      <!-- 80 -->
      <g transform="translate(316.559424 303.028562) scale(0.1 -0.1)">
       <defs>
        <path id="DejaVuSans-38" d="M 2034 2216 
Q 1584 2216 1326 1975 
Q 1069 1734 1069 1313 
Q 1069 891 1326 650 
Q 1584 409 2034 409 
Q 2484 409 2743 651 
Q 3003 894 3003 1313 
Q 3003 1734 2745 1975 
Q 2488 2216 2034 2216 
z
M 1403 2484 
Q 997 2584 770 2862 
Q 544 3141 544 3541 
Q 544 4100 942 4425 
Q 1341 4750 2034 4750 
Q 2731 4750 3128 4425 
Q 3525 4100 3525 3541 
Q 3525 3141 3298 2862 
Q 3072 2584 2669 2484 
Q 3125 2378 3379 2068 
Q 3634 1759 3634 1313 
Q 3634 634 3220 271 
Q 2806 -91 2034 -91 
Q 1263 -91 848 271 
Q 434 634 434 1313 
Q 434 1759 690 2068 
Q 947 2378 1403 2484 
z
M 1172 3481 
Q 1172 3119 1398 2916 
Q 1625 2713 2034 2713 
Q 2441 2713 2670 2916 
Q 2900 3119 2900 3481 
Q 2900 3844 2670 4047 
Q 2441 4250 2034 4250 
Q 1625 4250 1398 4047 
Q 1172 3844 1172 3481 
z
" transform="scale(0.015625)"/>
       </defs>
       <use xlink:href="#DejaVuSans-38"/>
       <use xlink:href="#DejaVuSans-30" transform="translate(63.623047 0)"/>
      </g>
     </g>
    </g>
    <g id="xtick_6">
     <g id="line2d_6">
      <g>
       <use xlink:href="#m68fd93cba2" x="387.852898" y="288.430125" style="stroke: #000000; stroke-width: 0.8"/>
      </g>
     </g>
     <g id="text_6">
      <!-- 100 -->
      <g transform="translate(378.309148 303.028562) scale(0.1 -0.1)">
       <defs>
        <path id="DejaVuSans-31" d="M 794 531 
L 1825 531 
L 1825 4091 
L 703 3866 
L 703 4441 
L 1819 4666 
L 2450 4666 
L 2450 531 
L 3481 531 
L 3481 0 
L 794 0 
L 794 531 
z
" transform="scale(0.015625)"/>
       </defs>
       <use xlink:href="#DejaVuSans-31"/>
       <use xlink:href="#DejaVuSans-30" transform="translate(63.623047 0)"/>
       <use xlink:href="#DejaVuSans-30" transform="translate(127.246094 0)"/>
      </g>
     </g>
    </g>
    <g id="text_7">
     <!-- Time -->
     <g transform="translate(213.292031 316.706687) scale(0.1 -0.1)">
      <defs>
       <path id="DejaVuSans-54" d="M -19 4666 
L 3928 4666 
L 3928 4134 
L 2272 4134 
L 2272 0 
L 1638 0 
L 1638 4134 
L -19 4134 
L -19 4666 
z
" transform="scale(0.015625)"/>
       <path id="DejaVuSans-69" d="M 603 3500 
L 1178 3500 
L 1178 0 
L 603 0 
L 603 3500 
z
M 603 4863 
L 1178 4863 
L 1178 4134 
L 603 4134 
L 603 4863 
z
" transform="scale(0.015625)"/>
       <path id="DejaVuSans-6d" d="M 3328 2828 
Q 3544 3216 3844 3400 
Q 4144 3584 4550 3584 
Q 5097 3584 5394 3201 
Q 5691 2819 5691 2113 
L 5691 0 
L 5113 0 
L 5113 2094 
Q 5113 2597 4934 2840 
Q 4756 3084 4391 3084 
Q 3944 3084 3684 2787 
Q 3425 2491 3425 1978 
L 3425 0 
L 2847 0 
L 2847 2094 
Q 2847 2600 2669 2842 
Q 2491 3084 2119 3084 
Q 1678 3084 1418 2786 
Q 1159 2488 1159 1978 
L 1159 0 
L 581 0 
L 581 3500 
L 1159 3500 
L 1159 2956 
Q 1356 3278 1631 3431 
Q 1906 3584 2284 3584 
Q 2666 3584 2933 3390 
Q 3200 3197 3328 2828 
z
" transform="scale(0.015625)"/>
       <path id="DejaVuSans-65" d="M 3597 1894 
L 3597 1613 
L 953 1613 
Q 991 1019 1311 708 
Q 1631 397 2203 397 
Q 2534 397 2845 478 
Q 3156 559 3463 722 
L 3463 178 
Q 3153 47 2828 -22 
Q 2503 -91 2169 -91 
Q 1331 -91 842 396 
Q 353 884 353 1716 
Q 353 2575 817 3079 
Q 1281 3584 2069 3584 
Q 2775 3584 3186 3129 
Q 3597 2675 3597 1894 
z
M 3022 2063 
Q 3016 2534 2758 2815 
Q 2500 3097 2075 3097 
Q 1594 3097 1305 2825 
Q 1016 2553 972 2059 
L 3022 2063 
z
" transform="scale(0.015625)"/>
      </defs>
      <use xlink:href="#DejaVuSans-54"/>
      <use xlink:href="#DejaVuSans-69" transform="translate(57.958984 0)"/>
      <use xlink:href="#DejaVuSans-6d" transform="translate(85.742188 0)"/>
      <use xlink:href="#DejaVuSans-65" transform="translate(183.154297 0)"/>
     </g>
    </g>
   </g>
   <g id="matplotlib.axis_2">
    <g id="ytick_1">
     <g id="line2d_7">
      <defs>
       <path id="m13db44ee33" d="M 0 0 
L -3.5 0 
" style="stroke: #000000; stroke-width: 0.8"/>
      </defs>
      <g>
       <use xlink:href="#m13db44ee33" x="46.965625" y="276.334125" style="stroke: #000000; stroke-width: 0.8"/>
      </g>
     </g>
     <g id="text_8">
      <!-- 0 -->
      <g transform="translate(33.603125 280.133344) scale(0.1 -0.1)">
       <use xlink:href="#DejaVuSans-30"/>
      </g>
     </g>
    </g>
    <g id="ytick_2">
     <g id="line2d_8">
      <g>
       <use xlink:href="#m13db44ee33" x="46.965625" y="217.615678" style="stroke: #000000; stroke-width: 0.8"/>
      </g>
     </g>
     <g id="text_9">
      <!-- 50 -->
      <g transform="translate(27.240625 221.414897) scale(0.1 -0.1)">
       <defs>
        <path id="DejaVuSans-35" d="M 691 4666 
L 3169 4666 
L 3169 4134 
L 1269 4134 
L 1269 2991 
Q 1406 3038 1543 3061 
Q 1681 3084 1819 3084 
Q 2600 3084 3056 2656 
Q 3513 2228 3513 1497 
Q 3513 744 3044 326 
Q 2575 -91 1722 -91 
Q 1428 -91 1123 -41 
Q 819 9 494 109 
L 494 744 
Q 775 591 1075 516 
Q 1375 441 1709 441 
Q 2250 441 2565 725 
Q 2881 1009 2881 1497 
Q 2881 1984 2565 2268 
Q 2250 2553 1709 2553 
Q 1456 2553 1204 2497 
Q 953 2441 691 2322 
L 691 4666 
z
" transform="scale(0.015625)"/>
       </defs>
       <use xlink:href="#DejaVuSans-35"/>
       <use xlink:href="#DejaVuSans-30" transform="translate(63.623047 0)"/>
      </g>
     </g>
    </g>
    <g id="ytick_3">
     <g id="line2d_9">
      <g>
       <use xlink:href="#m13db44ee33" x="46.965625" y="158.897232" style="stroke: #000000; stroke-width: 0.8"/>
      </g>
     </g>
     <g id="text_10">
      <!-- 100 -->
      <g transform="translate(20.878125 162.696451) scale(0.1 -0.1)">
       <use xlink:href="#DejaVuSans-31"/>
       <use xlink:href="#DejaVuSans-30" transform="translate(63.623047 0)"/>
       <use xlink:href="#DejaVuSans-30" transform="translate(127.246094 0)"/>
      </g>
     </g>
    </g>
    <g id="ytick_4">
     <g id="line2d_10">
      <g>
       <use xlink:href="#m13db44ee33" x="46.965625" y="100.178785" style="stroke: #000000; stroke-width: 0.8"/>
      </g>
     </g>
     <g id="text_11">
      <!-- 150 -->
      <g transform="translate(20.878125 103.978004) scale(0.1 -0.1)">
       <use xlink:href="#DejaVuSans-31"/>
       <use xlink:href="#DejaVuSans-35" transform="translate(63.623047 0)"/>
       <use xlink:href="#DejaVuSans-30" transform="translate(127.246094 0)"/>
      </g>
     </g>
    </g>
    <g id="ytick_5">
     <g id="line2d_11">
      <g>
       <use xlink:href="#m13db44ee33" x="46.965625" y="41.460339" style="stroke: #000000; stroke-width: 0.8"/>
      </g>
     </g>
     <g id="text_12">
      <!-- 200 -->
      <g transform="translate(20.878125 45.259557) scale(0.1 -0.1)">
       <use xlink:href="#DejaVuSans-32"/>
       <use xlink:href="#DejaVuSans-30" transform="translate(63.623047 0)"/>
       <use xlink:href="#DejaVuSans-30" transform="translate(127.246094 0)"/>
      </g>
     </g>
    </g>
    <g id="text_13">
     <!-- Event Count -->
     <g transform="translate(14.798438 186.135844) rotate(-90) scale(0.1 -0.1)">
      <defs>
       <path id="DejaVuSans-45" d="M 628 4666 
L 3578 4666 
L 3578 4134 
L 1259 4134 
L 1259 2753 
L 3481 2753 
L 3481 2222 
L 1259 2222 
L 1259 531 
L 3634 531 
L 3634 0 
L 628 0 
L 628 4666 
z
" transform="scale(0.015625)"/>
       <path id="DejaVuSans-76" d="M 191 3500 
L 800 3500 
L 1894 563 
L 2988 3500 
L 3597 3500 
L 2284 0 
L 1503 0 
L 191 3500 
z
" transform="scale(0.015625)"/>
       <path id="DejaVuSans-6e" d="M 3513 2113 
L 3513 0 
L 2938 0 
L 2938 2094 
Q 2938 2591 2744 2837 
Q 2550 3084 2163 3084 
Q 1697 3084 1428 2787 
Q 1159 2491 1159 1978 
L 1159 0 
L 581 0 
L 581 3500 
L 1159 3500 
L 1159 2956 
Q 1366 3272 1645 3428 
Q 1925 3584 2291 3584 
Q 2894 3584 3203 3211 
Q 3513 2838 3513 2113 
z
" transform="scale(0.015625)"/>
       <path id="DejaVuSans-74" d="M 1172 4494 
L 1172 3500 
L 2356 3500 
L 2356 3053 
L 1172 3053 
L 1172 1153 
Q 1172 725 1289 603 
Q 1406 481 1766 481 
L 2356 481 
L 2356 0 
L 1766 0 
Q 1100 0 847 248 
Q 594 497 594 1153 
L 594 3053 
L 172 3053 
L 172 3500 
L 594 3500 
L 594 4494 
L 1172 4494 
z
" transform="scale(0.015625)"/>
       <path id="DejaVuSans-20" transform="scale(0.015625)"/>
       <path id="DejaVuSans-43" d="M 4122 4306 
L 4122 3641 
Q 3803 3938 3442 4084 
Q 3081 4231 2675 4231 
Q 1875 4231 1450 3742 
Q 1025 3253 1025 2328 
Q 1025 1406 1450 917 
Q 1875 428 2675 428 
Q 3081 428 3442 575 
Q 3803 722 4122 1019 
L 4122 359 
Q 3791 134 3420 21 
Q 3050 -91 2638 -91 
Q 1578 -91 968 557 
Q 359 1206 359 2328 
Q 359 3453 968 4101 
Q 1578 4750 2638 4750 
Q 3056 4750 3426 4639 
Q 3797 4528 4122 4306 
z
" transform="scale(0.015625)"/>
       <path id="DejaVuSans-6f" d="M 1959 3097 
Q 1497 3097 1228 2736 
Q 959 2375 959 1747 
Q 959 1119 1226 758 
Q 1494 397 1959 397 
Q 2419 397 2687 759 
Q 2956 1122 2956 1747 
Q 2956 2369 2687 2733 
Q 2419 3097 1959 3097 
z
M 1959 3584 
Q 2709 3584 3137 3096 
Q 3566 2609 3566 1747 
Q 3566 888 3137 398 
Q 2709 -91 1959 -91 
Q 1206 -91 779 398 
Q 353 888 353 1747 
Q 353 2609 779 3096 
Q 1206 3584 1959 3584 
z
" transform="scale(0.015625)"/>
       <path id="DejaVuSans-75" d="M 544 1381 
L 544 3500 
L 1119 3500 
L 1119 1403 
Q 1119 906 1312 657 
Q 1506 409 1894 409 
Q 2359 409 2629 706 
Q 2900 1003 2900 1516 
L 2900 3500 
L 3475 3500 
L 3475 0 
L 2900 0 
L 2900 538 
Q 2691 219 2414 64 
Q 2138 -91 1772 -91 
Q 1169 -91 856 284 
Q 544 659 544 1381 
z
M 1991 3584 
L 1991 3584 
z
" transform="scale(0.015625)"/>
      </defs>
      <use xlink:href="#DejaVuSans-45"/>
      <use xlink:href="#DejaVuSans-76" transform="translate(63.183594 0)"/>
      <use xlink:href="#DejaVuSans-65" transform="translate(122.363281 0)"/>
      <use xlink:href="#DejaVuSans-6e" transform="translate(183.886719 0)"/>
      <use xlink:href="#DejaVuSans-74" transform="translate(247.265625 0)"/>
      <use xlink:href="#DejaVuSans-20" transform="translate(286.474609 0)"/>
      <use xlink:href="#DejaVuSans-43" transform="translate(318.261719 0)"/>
      <use xlink:href="#DejaVuSans-6f" transform="translate(388.085938 0)"/>
      <use xlink:href="#DejaVuSans-75" transform="translate(449.267578 0)"/>
      <use xlink:href="#DejaVuSans-6e" transform="translate(512.646484 0)"/>
      <use xlink:href="#DejaVuSans-74" transform="translate(576.025391 0)"/>
     </g>
    </g>
   </g>
   <g id="line2d_12">
    <path d="M 63.198352 276.334125 
L 66.646836 276.334125 
L 66.646836 275.159756 
L 66.757868 275.159756 
L 67.558792 275.159756 
L 67.558792 273.985387 
L 67.669824 273.985387 
L 68.963249 273.985387 
L 68.963249 272.811018 
L 69.074281 272.811018 
L 71.230314 272.811018 
L 71.230314 271.636649 
L 71.341346 271.636649 
L 72.486403 271.636649 
L 72.486403 270.46228 
L 72.597435 270.46228 
L 72.840602 270.46228 
L 72.840602 269.287911 
L 72.951634 269.287911 
L 73.076626 269.287911 
L 73.076626 268.113542 
L 73.187658 268.113542 
L 74.246682 268.113542 
L 74.246682 266.939174 
L 74.357714 266.939174 
L 76.644908 266.939174 
L 76.644908 265.764805 
L 76.75594 265.764805 
L 76.873465 265.764805 
L 76.873465 264.590436 
L 76.984497 264.590436 
L 78.643483 264.590436 
L 78.643483 263.416067 
L 78.754515 263.416067 
L 81.291044 263.416067 
L 81.291044 262.241698 
L 81.402075 262.241698 
L 82.135796 262.241698 
L 82.135796 261.067329 
L 82.246827 261.067329 
L 83.921722 261.067329 
L 84.010677 258.718591 
L 84.032754 258.718591 
L 84.098334 258.718591 
L 84.098334 257.544222 
L 84.209366 257.544222 
L 85.536555 257.544222 
L 85.536555 256.369853 
L 85.647587 256.369853 
L 85.809265 256.369853 
L 85.874521 254.021115 
L 85.920297 254.021115 
L 86.870887 254.021115 
L 86.870887 252.846746 
L 86.981919 252.846746 
L 90.862843 252.846746 
L 90.862843 251.672377 
L 90.973875 251.672377 
L 94.392166 251.672377 
L 94.392166 250.498008 
L 94.503198 250.498008 
L 97.846819 250.498008 
L 97.846819 249.32364 
L 97.957851 249.32364 
L 99.686638 249.32364 
L 99.686638 248.149271 
L 99.79767 248.149271 
L 101.503731 248.149271 
L 101.503731 246.974902 
L 101.614763 246.974902 
L 109.766198 246.974902 
L 109.766198 245.800533 
L 109.877229 245.800533 
L 110.350576 245.800533 
L 110.350576 244.626164 
L 110.461608 244.626164 
L 110.540175 244.626164 
L 110.540175 243.451795 
L 110.651207 243.451795 
L 113.815618 243.451795 
L 113.815618 242.277426 
L 113.92665 242.277426 
L 115.161637 242.277426 
L 115.161637 241.103057 
L 115.272669 241.103057 
L 115.958015 241.103057 
L 115.958015 239.928688 
L 116.069047 239.928688 
L 117.81569 239.928688 
L 117.81569 238.754319 
L 117.926722 238.754319 
L 118.538697 238.754319 
L 118.538697 237.57995 
L 118.649729 237.57995 
L 121.108015 237.57995 
L 121.108015 236.405581 
L 121.219047 236.405581 
L 121.655059 236.405581 
L 121.655059 235.231212 
L 121.766091 235.231212 
L 122.23262 235.231212 
L 122.23262 234.056843 
L 122.343652 234.056843 
L 122.758236 234.056843 
L 122.758236 232.882475 
L 122.869268 232.882475 
L 127.625137 232.882475 
L 127.625137 231.708106 
L 127.736169 231.708106 
L 129.162703 231.708106 
L 129.162703 230.533737 
L 129.273735 230.533737 
L 129.995442 230.533737 
L 129.995442 229.359368 
L 130.106474 229.359368 
L 130.506125 229.359368 
L 130.506125 228.184999 
L 130.617157 228.184999 
L 130.839545 228.184999 
L 130.839545 227.01063 
L 130.950577 227.01063 
L 131.116476 227.01063 
L 131.116476 225.836261 
L 131.227508 225.836261 
L 131.297633 225.836261 
L 131.405419 223.487523 
L 131.408665 223.487523 
L 131.414509 223.487523 
L 131.414509 222.313154 
L 131.525541 222.313154 
L 132.965385 222.313154 
L 132.965385 221.138785 
L 133.076417 221.138785 
L 135.135378 221.138785 
L 135.153884 218.790047 
L 135.24641 218.790047 
L 135.764235 218.790047 
L 135.764235 217.615678 
L 135.875267 217.615678 
L 137.867674 217.615678 
L 137.924488 215.266941 
L 137.978706 215.266941 
L 138.336151 215.266941 
L 138.336151 214.092572 
L 138.447183 214.092572 
L 139.535426 214.092572 
L 139.535426 212.918203 
L 139.646458 212.918203 
L 141.380115 212.918203 
L 141.380115 211.743834 
L 141.491147 211.743834 
L 141.749897 211.743834 
L 141.749897 210.569465 
L 141.860929 210.569465 
L 142.446281 210.569465 
L 142.446281 209.395096 
L 142.557313 209.395096 
L 149.683812 209.395096 
L 149.683812 208.220727 
L 149.794844 208.220727 
L 152.920946 208.220727 
L 152.949516 205.871989 
L 153.031978 205.871989 
L 154.696159 205.871989 
L 154.696159 204.69762 
L 154.807191 204.69762 
L 154.815632 204.69762 
L 154.815632 203.523251 
L 154.926664 203.523251 
L 156.707721 203.523251 
L 156.707721 202.348882 
L 156.818753 202.348882 
L 158.204055 202.348882 
L 158.204055 201.174513 
L 158.315087 201.174513 
L 158.365408 201.174513 
L 158.365408 200.000144 
L 158.47644 200.000144 
L 159.773436 200.000144 
L 159.773436 198.825775 
L 159.884468 198.825775 
L 160.886678 198.825775 
L 160.886678 197.651407 
L 160.99771 197.651407 
L 168.335884 197.651407 
L 168.335884 196.477038 
L 168.446916 196.477038 
L 169.689046 196.477038 
L 169.689046 195.302669 
L 169.800077 195.302669 
L 170.124408 195.302669 
L 170.124408 194.1283 
L 170.23544 194.1283 
L 172.533671 194.1283 
L 172.533671 192.953931 
L 172.644703 192.953931 
L 173.519324 192.953931 
L 173.519324 191.779562 
L 173.630356 191.779562 
L 176.103901 191.779562 
L 176.103901 190.605193 
L 176.214933 190.605193 
L 176.561664 190.605193 
L 176.616531 188.256455 
L 176.672696 188.256455 
L 177.504462 188.256455 
L 177.504462 187.082086 
L 177.615494 187.082086 
L 178.437845 187.082086 
L 178.437845 185.907717 
L 178.548877 185.907717 
L 180.702637 185.907717 
L 180.773737 183.558979 
L 180.813669 183.558979 
L 181.000346 183.558979 
L 181.000346 182.38461 
L 181.111378 182.38461 
L 181.598035 182.38461 
L 181.598035 181.210242 
L 181.709067 181.210242 
L 182.410322 181.210242 
L 182.410322 180.035873 
L 182.521354 180.035873 
L 183.473891 180.035873 
L 183.473891 178.861504 
L 183.584923 178.861504 
L 185.439677 178.861504 
L 185.439677 177.687135 
L 185.550709 177.687135 
L 187.322999 177.687135 
L 187.322999 176.512766 
L 187.434031 176.512766 
L 190.007246 176.512766 
L 190.007246 175.338397 
L 190.118278 175.338397 
L 190.387417 175.338397 
L 190.387417 174.164028 
L 190.498449 174.164028 
L 192.199316 174.164028 
L 192.199316 172.989659 
L 192.310348 172.989659 
L 193.99693 172.989659 
L 193.99693 171.81529 
L 194.107962 171.81529 
L 195.52021 171.81529 
L 195.52021 170.640921 
L 195.631242 170.640921 
L 200.852017 170.640921 
L 200.852017 169.466552 
L 200.963049 169.466552 
L 202.423347 169.466552 
L 202.423347 168.292183 
L 202.534379 168.292183 
L 202.849294 168.292183 
L 202.849294 167.117814 
L 202.960326 167.117814 
L 205.9241 167.117814 
L 205.9241 165.943445 
L 206.035132 165.943445 
L 206.708791 165.943445 
L 206.708791 164.769076 
L 206.819823 164.769076 
L 210.959497 164.769076 
L 210.995209 162.420339 
L 211.070529 162.420339 
L 212.244806 162.420339 
L 212.244806 161.24597 
L 212.355838 161.24597 
L 218.028532 161.24597 
L 218.028532 160.071601 
L 218.139564 160.071601 
L 221.867252 160.071601 
L 221.875043 157.722863 
L 221.978284 157.722863 
L 223.109381 157.722863 
L 223.109381 156.548494 
L 223.220413 156.548494 
L 223.357093 156.548494 
L 223.357093 155.374125 
L 223.468125 155.374125 
L 224.445985 155.374125 
L 224.445985 154.199756 
L 224.557017 154.199756 
L 225.424495 154.199756 
L 225.424495 153.025387 
L 225.535527 153.025387 
L 227.351971 153.025387 
L 227.351971 151.851018 
L 227.463003 151.851018 
L 227.580203 151.851018 
L 227.580203 150.676649 
L 227.691235 150.676649 
L 229.824218 150.676649 
L 229.824218 149.50228 
L 229.93525 149.50228 
L 230.571898 149.50228 
L 230.571898 148.327911 
L 230.68293 148.327911 
L 230.899475 148.327911 
L 230.899475 147.153542 
L 231.010507 147.153542 
L 231.413403 147.153542 
L 231.413403 145.979174 
L 231.524435 145.979174 
L 231.634169 145.979174 
L 231.634169 144.804805 
L 231.745201 144.804805 
L 235.951429 144.804805 
L 235.951429 143.630436 
L 236.062461 143.630436 
L 238.087009 143.630436 
L 238.087009 142.456067 
L 238.198041 142.456067 
L 244.983977 142.456067 
L 244.983977 141.281698 
L 245.095009 141.281698 
L 246.386486 141.281698 
L 246.386486 140.107329 
L 246.497518 140.107329 
L 251.085216 140.107329 
L 251.085216 138.93296 
L 251.196248 138.93296 
L 252.78446 138.93296 
L 252.78446 137.758591 
L 252.895491 137.758591 
L 254.245731 137.758591 
L 254.245731 136.584222 
L 254.356763 136.584222 
L 256.967313 136.584222 
L 256.967313 135.409853 
L 257.078345 135.409853 
L 257.133536 135.409853 
L 257.133536 134.235484 
L 257.244568 134.235484 
L 258.046466 134.235484 
L 258.046466 133.061115 
L 258.157498 133.061115 
L 259.178213 133.061115 
L 259.178213 131.886746 
L 259.289245 131.886746 
L 260.403135 131.886746 
L 260.403135 130.712377 
L 260.514167 130.712377 
L 262.912393 130.712377 
L 262.912393 129.538008 
L 263.023425 129.538008 
L 272.233883 129.538008 
L 272.278686 127.189271 
L 272.344915 127.189271 
L 273.922413 127.189271 
L 273.922413 126.014902 
L 274.033445 126.014902 
L 275.038577 126.014902 
L 275.038577 124.840533 
L 275.149609 124.840533 
L 277.557899 124.840533 
L 277.557899 123.666164 
L 277.668931 123.666164 
L 278.061438 123.666164 
L 278.061438 122.491795 
L 278.17247 122.491795 
L 278.402326 122.491795 
L 278.402326 121.317426 
L 278.513358 121.317426 
L 280.771657 121.317426 
L 280.771657 120.143057 
L 280.882689 120.143057 
L 283.821465 120.143057 
L 283.821465 118.968688 
L 283.932497 118.968688 
L 285.266504 118.968688 
L 285.266504 117.794319 
L 285.377536 117.794319 
L 286.199562 117.794319 
L 286.302478 115.445581 
L 286.310594 115.445581 
L 287.429679 115.445581 
L 287.429679 114.271212 
L 287.540711 114.271212 
L 287.623174 114.271212 
L 287.623174 113.096843 
L 287.734206 113.096843 
L 293.556241 113.096843 
L 293.556241 111.922475 
L 293.667273 111.922475 
L 293.948424 111.922475 
L 293.948424 110.748106 
L 294.059456 110.748106 
L 295.00193 110.748106 
L 295.00193 109.573737 
L 295.112961 109.573737 
L 295.430474 109.573737 
L 295.430474 108.399368 
L 295.541506 108.399368 
L 296.466123 108.399368 
L 296.466123 107.224999 
L 296.577155 107.224999 
L 298.377691 107.224999 
L 298.377691 106.05063 
L 298.488723 106.05063 
L 300.837925 106.05063 
L 300.837925 104.876261 
L 300.948957 104.876261 
L 300.950905 104.876261 
L 300.950905 103.701892 
L 301.061937 103.701892 
L 301.195046 103.701892 
L 301.195046 102.527523 
L 301.306078 102.527523 
L 301.425226 102.527523 
L 301.425226 101.353154 
L 301.536258 101.353154 
L 302.743325 101.353154 
L 302.743325 100.178785 
L 302.854357 100.178785 
L 304.40848 100.178785 
L 304.40848 99.004416 
L 304.519512 99.004416 
L 304.549705 99.004416 
L 304.549705 97.830047 
L 304.660737 97.830047 
L 306.996304 97.830047 
L 306.996304 96.655678 
L 307.107336 96.655678 
L 310.387324 96.655678 
L 310.387324 95.481309 
L 310.498356 95.481309 
L 311.630752 95.481309 
L 311.630752 94.306941 
L 311.741784 94.306941 
L 311.852491 94.306941 
L 311.852491 93.132572 
L 311.963523 93.132572 
L 312.9258 93.132572 
L 312.9258 91.958203 
L 313.036832 91.958203 
L 313.210523 91.958203 
L 313.210523 90.783834 
L 313.321555 90.783834 
L 317.992364 90.783834 
L 317.992364 89.609465 
L 318.103396 89.609465 
L 319.067946 89.609465 
L 319.104956 87.260727 
L 319.178978 87.260727 
L 319.781862 87.260727 
L 319.781862 86.086358 
L 319.892894 86.086358 
L 319.950682 86.086358 
L 319.950682 84.911989 
L 320.061714 84.911989 
L 322.500522 84.911989 
L 322.500522 83.73762 
L 322.611554 83.73762 
L 323.427736 83.73762 
L 323.427736 82.563251 
L 323.538768 82.563251 
L 325.353589 82.563251 
L 325.432804 80.214513 
L 325.464621 80.214513 
L 327.965762 80.214513 
L 327.965762 79.040144 
L 328.076794 79.040144 
L 328.535206 79.040144 
L 328.535206 77.865775 
L 328.646238 77.865775 
L 330.678903 77.865775 
L 330.678903 76.691407 
L 330.789934 76.691407 
L 332.055764 76.691407 
L 332.055764 75.517038 
L 332.166796 75.517038 
L 332.960252 75.517038 
L 332.960252 74.342669 
L 333.071284 74.342669 
L 334.141347 74.342669 
L 334.141347 73.1683 
L 334.252379 73.1683 
L 334.739036 73.1683 
L 334.739036 71.993931 
L 334.850068 71.993931 
L 335.639954 71.993931 
L 335.639954 70.819562 
L 335.750986 70.819562 
L 336.24089 70.819562 
L 336.24089 69.645193 
L 336.351922 69.645193 
L 336.443799 69.645193 
L 336.443799 68.470824 
L 336.554831 68.470824 
L 337.30868 68.470824 
L 337.30868 67.296455 
L 337.419712 67.296455 
L 338.11707 67.296455 
L 338.11707 66.122086 
L 338.228102 66.122086 
L 344.355314 66.122086 
L 344.41992 63.773348 
L 344.466346 63.773348 
L 347.515179 63.773348 
L 347.556411 61.42461 
L 347.626211 61.42461 
L 349.662447 61.42461 
L 349.662447 60.250242 
L 349.773479 60.250242 
L 350.738028 60.250242 
L 350.738028 59.075873 
L 350.84906 59.075873 
L 351.327277 59.075873 
L 351.327277 57.901504 
L 351.438309 57.901504 
L 355.562724 57.901504 
L 355.562724 56.727135 
L 355.673756 56.727135 
L 361.13997 56.727135 
L 361.13997 55.552766 
L 361.251002 55.552766 
L 363.787855 55.552766 
L 363.787855 54.378397 
L 363.898887 54.378397 
L 367.100634 54.378397 
L 367.100634 53.204028 
L 367.211666 53.204028 
L 367.545736 53.204028 
L 367.545736 52.029659 
L 367.656768 52.029659 
L 368.823577 52.029659 
L 368.823577 50.85529 
L 368.934609 50.85529 
L 369.013176 50.85529 
L 369.122909 48.506552 
L 369.124208 48.506552 
L 371.143561 48.506552 
L 371.143561 47.332183 
L 371.254593 47.332183 
L 373.697945 47.332183 
L 373.697945 46.157814 
L 373.808977 46.157814 
L 374.861833 46.157814 
L 374.861833 44.983445 
L 374.972865 44.983445 
L 375.588735 44.983445 
L 375.588735 43.809076 
L 375.699767 43.809076 
L 381.410122 43.809076 
L 381.410122 42.634708 
L 381.521154 42.634708 
L 381.559788 42.634708 
L 381.559788 41.460339 
L 381.67082 41.460339 
L 382.474016 41.460339 
L 382.474016 40.28597 
L 382.585048 40.28597 
L 382.717182 40.28597 
L 382.717182 39.111601 
L 382.828214 39.111601 
L 384.256696 39.111601 
L 384.256696 37.937232 
L 384.367728 37.937232 
L 384.836205 37.937232 
L 384.836205 36.762863 
L 384.947237 36.762863 
L 386.846792 36.762863 
L 386.846792 35.588494 
L 386.957824 35.588494 
L 387.056844 35.588494 
L 387.056844 34.414125 
L 387.167876 34.414125 
L 387.852898 34.414125 
L 387.852898 34.414125 
" clip-path="url(#p687229c865)" style="fill: none; stroke: #1f77b4; stroke-width: 1.5; stroke-linecap: square"/>
   </g>
   <g id="patch_3">
    <path d="M 46.965625 288.430125 
L 46.965625 22.318125 
" style="fill: none; stroke: #000000; stroke-width: 0.8; stroke-linejoin: miter; stroke-linecap: square"/>
   </g>
   <g id="patch_4">
    <path d="M 404.085625 288.430125 
L 404.085625 22.318125 
" style="fill: none; stroke: #000000; stroke-width: 0.8; stroke-linejoin: miter; stroke-linecap: square"/>
   </g>
   <g id="patch_5">
    <path d="M 46.965625 288.430125 
L 404.085625 288.430125 
" style="fill: none; stroke: #000000; stroke-width: 0.8; stroke-linejoin: miter; stroke-linecap: square"/>
   </g>
   <g id="patch_6">
    <path d="M 46.965625 22.318125 
L 404.085625 22.318125 
" style="fill: none; stroke: #000000; stroke-width: 0.8; stroke-linejoin: miter; stroke-linecap: square"/>
   </g>
   <g id="text_14">
    <!-- Poisson Process Simulation (λ=2 h=0.0001) -->
    <g transform="translate(93.814375 16.318125) scale(0.12 -0.12)">
     <defs>
      <path id="DejaVuSans-50" d="M 1259 4147 
L 1259 2394 
L 2053 2394 
Q 2494 2394 2734 2622 
Q 2975 2850 2975 3272 
Q 2975 3691 2734 3919 
Q 2494 4147 2053 4147 
L 1259 4147 
z
M 628 4666 
L 2053 4666 
Q 2838 4666 3239 4311 
Q 3641 3956 3641 3272 
Q 3641 2581 3239 2228 
Q 2838 1875 2053 1875 
L 1259 1875 
L 1259 0 
L 628 0 
L 628 4666 
z
" transform="scale(0.015625)"/>
      <path id="DejaVuSans-73" d="M 2834 3397 
L 2834 2853 
Q 2591 2978 2328 3040 
Q 2066 3103 1784 3103 
Q 1356 3103 1142 2972 
Q 928 2841 928 2578 
Q 928 2378 1081 2264 
Q 1234 2150 1697 2047 
L 1894 2003 
Q 2506 1872 2764 1633 
Q 3022 1394 3022 966 
Q 3022 478 2636 193 
Q 2250 -91 1575 -91 
Q 1294 -91 989 -36 
Q 684 19 347 128 
L 347 722 
Q 666 556 975 473 
Q 1284 391 1588 391 
Q 1994 391 2212 530 
Q 2431 669 2431 922 
Q 2431 1156 2273 1281 
Q 2116 1406 1581 1522 
L 1381 1569 
Q 847 1681 609 1914 
Q 372 2147 372 2553 
Q 372 3047 722 3315 
Q 1072 3584 1716 3584 
Q 2034 3584 2315 3537 
Q 2597 3491 2834 3397 
z
" transform="scale(0.015625)"/>
      <path id="DejaVuSans-72" d="M 2631 2963 
Q 2534 3019 2420 3045 
Q 2306 3072 2169 3072 
Q 1681 3072 1420 2755 
Q 1159 2438 1159 1844 
L 1159 0 
L 581 0 
L 581 3500 
L 1159 3500 
L 1159 2956 
Q 1341 3275 1631 3429 
Q 1922 3584 2338 3584 
Q 2397 3584 2469 3576 
Q 2541 3569 2628 3553 
L 2631 2963 
z
" transform="scale(0.015625)"/>
      <path id="DejaVuSans-63" d="M 3122 3366 
L 3122 2828 
Q 2878 2963 2633 3030 
Q 2388 3097 2138 3097 
Q 1578 3097 1268 2742 
Q 959 2388 959 1747 
Q 959 1106 1268 751 
Q 1578 397 2138 397 
Q 2388 397 2633 464 
Q 2878 531 3122 666 
L 3122 134 
Q 2881 22 2623 -34 
Q 2366 -91 2075 -91 
Q 1284 -91 818 406 
Q 353 903 353 1747 
Q 353 2603 823 3093 
Q 1294 3584 2113 3584 
Q 2378 3584 2631 3529 
Q 2884 3475 3122 3366 
z
" transform="scale(0.015625)"/>
      <path id="DejaVuSans-53" d="M 3425 4513 
L 3425 3897 
Q 3066 4069 2747 4153 
Q 2428 4238 2131 4238 
Q 1616 4238 1336 4038 
Q 1056 3838 1056 3469 
Q 1056 3159 1242 3001 
Q 1428 2844 1947 2747 
L 2328 2669 
Q 3034 2534 3370 2195 
Q 3706 1856 3706 1288 
Q 3706 609 3251 259 
Q 2797 -91 1919 -91 
Q 1588 -91 1214 -16 
Q 841 59 441 206 
L 441 856 
Q 825 641 1194 531 
Q 1563 422 1919 422 
Q 2459 422 2753 634 
Q 3047 847 3047 1241 
Q 3047 1584 2836 1778 
Q 2625 1972 2144 2069 
L 1759 2144 
Q 1053 2284 737 2584 
Q 422 2884 422 3419 
Q 422 4038 858 4394 
Q 1294 4750 2059 4750 
Q 2388 4750 2728 4690 
Q 3069 4631 3425 4513 
z
" transform="scale(0.015625)"/>
      <path id="DejaVuSans-6c" d="M 603 4863 
L 1178 4863 
L 1178 0 
L 603 0 
L 603 4863 
z
" transform="scale(0.015625)"/>
      <path id="DejaVuSans-61" d="M 2194 1759 
Q 1497 1759 1228 1600 
Q 959 1441 959 1056 
Q 959 750 1161 570 
Q 1363 391 1709 391 
Q 2188 391 2477 730 
Q 2766 1069 2766 1631 
L 2766 1759 
L 2194 1759 
z
M 3341 1997 
L 3341 0 
L 2766 0 
L 2766 531 
Q 2569 213 2275 61 
Q 1981 -91 1556 -91 
Q 1019 -91 701 211 
Q 384 513 384 1019 
Q 384 1609 779 1909 
Q 1175 2209 1959 2209 
L 2766 2209 
L 2766 2266 
Q 2766 2663 2505 2880 
Q 2244 3097 1772 3097 
Q 1472 3097 1187 3025 
Q 903 2953 641 2809 
L 641 3341 
Q 956 3463 1253 3523 
Q 1550 3584 1831 3584 
Q 2591 3584 2966 3190 
Q 3341 2797 3341 1997 
z
" transform="scale(0.015625)"/>
      <path id="DejaVuSans-28" d="M 1984 4856 
Q 1566 4138 1362 3434 
Q 1159 2731 1159 2009 
Q 1159 1288 1364 580 
Q 1569 -128 1984 -844 
L 1484 -844 
Q 1016 -109 783 600 
Q 550 1309 550 2009 
Q 550 2706 781 3412 
Q 1013 4119 1484 4856 
L 1984 4856 
z
" transform="scale(0.015625)"/>
      <path id="DejaVuSans-3bb" d="M 1981 4316 
L 3597 0 
L 2988 0 
L 2006 2588 
L 800 0 
L 191 0 
L 1725 3356 
L 1494 3975 
Q 1347 4369 1013 4369 
L 713 4369 
L 713 4863 
L 1078 4856 
Q 1784 4847 1981 4316 
z
" transform="scale(0.015625)"/>
      <path id="DejaVuSans-3d" d="M 678 2906 
L 4684 2906 
L 4684 2381 
L 678 2381 
L 678 2906 
z
M 678 1631 
L 4684 1631 
L 4684 1100 
L 678 1100 
L 678 1631 
z
" transform="scale(0.015625)"/>
      <path id="DejaVuSans-68" d="M 3513 2113 
L 3513 0 
L 2938 0 
L 2938 2094 
Q 2938 2591 2744 2837 
Q 2550 3084 2163 3084 
Q 1697 3084 1428 2787 
Q 1159 2491 1159 1978 
L 1159 0 
L 581 0 
L 581 4863 
L 1159 4863 
L 1159 2956 
Q 1366 3272 1645 3428 
Q 1925 3584 2291 3584 
Q 2894 3584 3203 3211 
Q 3513 2838 3513 2113 
z
" transform="scale(0.015625)"/>
      <path id="DejaVuSans-2e" d="M 684 794 
L 1344 794 
L 1344 0 
L 684 0 
L 684 794 
z
" transform="scale(0.015625)"/>
      <path id="DejaVuSans-29" d="M 513 4856 
L 1013 4856 
Q 1481 4119 1714 3412 
Q 1947 2706 1947 2009 
Q 1947 1309 1714 600 
Q 1481 -109 1013 -844 
L 513 -844 
Q 928 -128 1133 580 
Q 1338 1288 1338 2009 
Q 1338 2731 1133 3434 
Q 928 4138 513 4856 
z
" transform="scale(0.015625)"/>
     </defs>
     <use xlink:href="#DejaVuSans-50"/>
     <use xlink:href="#DejaVuSans-6f" transform="translate(56.677734 0)"/>
     <use xlink:href="#DejaVuSans-69" transform="translate(117.859375 0)"/>
     <use xlink:href="#DejaVuSans-73" transform="translate(145.642578 0)"/>
     <use xlink:href="#DejaVuSans-73" transform="translate(197.742188 0)"/>
     <use xlink:href="#DejaVuSans-6f" transform="translate(249.841797 0)"/>
     <use xlink:href="#DejaVuSans-6e" transform="translate(311.023438 0)"/>
     <use xlink:href="#DejaVuSans-20" transform="translate(374.402344 0)"/>
     <use xlink:href="#DejaVuSans-50" transform="translate(406.189453 0)"/>
     <use xlink:href="#DejaVuSans-72" transform="translate(464.742188 0)"/>
     <use xlink:href="#DejaVuSans-6f" transform="translate(503.605469 0)"/>
     <use xlink:href="#DejaVuSans-63" transform="translate(564.787109 0)"/>
     <use xlink:href="#DejaVuSans-65" transform="translate(619.767578 0)"/>
     <use xlink:href="#DejaVuSans-73" transform="translate(681.291016 0)"/>
     <use xlink:href="#DejaVuSans-73" transform="translate(733.390625 0)"/>
     <use xlink:href="#DejaVuSans-20" transform="translate(785.490234 0)"/>
     <use xlink:href="#DejaVuSans-53" transform="translate(817.277344 0)"/>
     <use xlink:href="#DejaVuSans-69" transform="translate(880.753906 0)"/>
     <use xlink:href="#DejaVuSans-6d" transform="translate(908.537109 0)"/>
     <use xlink:href="#DejaVuSans-75" transform="translate(1005.949219 0)"/>
     <use xlink:href="#DejaVuSans-6c" transform="translate(1069.328125 0)"/>
     <use xlink:href="#DejaVuSans-61" transform="translate(1097.111328 0)"/>
     <use xlink:href="#DejaVuSans-74" transform="translate(1158.390625 0)"/>
     <use xlink:href="#DejaVuSans-69" transform="translate(1197.599609 0)"/>
     <use xlink:href="#DejaVuSans-6f" transform="translate(1225.382812 0)"/>
     <use xlink:href="#DejaVuSans-6e" transform="translate(1286.564453 0)"/>
     <use xlink:href="#DejaVuSans-20" transform="translate(1349.943359 0)"/>
     <use xlink:href="#DejaVuSans-28" transform="translate(1381.730469 0)"/>
     <use xlink:href="#DejaVuSans-3bb" transform="translate(1420.744141 0)"/>
     <use xlink:href="#DejaVuSans-3d" transform="translate(1479.923828 0)"/>
     <use xlink:href="#DejaVuSans-32" transform="translate(1563.712891 0)"/>
     <use xlink:href="#DejaVuSans-20" transform="translate(1627.335938 0)"/>
     <use xlink:href="#DejaVuSans-68" transform="translate(1659.123047 0)"/>
     <use xlink:href="#DejaVuSans-3d" transform="translate(1722.501953 0)"/>
     <use xlink:href="#DejaVuSans-30" transform="translate(1806.291016 0)"/>
     <use xlink:href="#DejaVuSans-2e" transform="translate(1869.914062 0)"/>
     <use xlink:href="#DejaVuSans-30" transform="translate(1901.701172 0)"/>
     <use xlink:href="#DejaVuSans-30" transform="translate(1965.324219 0)"/>
     <use xlink:href="#DejaVuSans-30" transform="translate(2028.947266 0)"/>
     <use xlink:href="#DejaVuSans-31" transform="translate(2092.570312 0)"/>
     <use xlink:href="#DejaVuSans-29" transform="translate(2156.193359 0)"/>
    </g>
   </g>
  </g>
 </g>
 <defs>
  <clipPath id="p687229c865">
   <rect x="46.965625" y="22.318125" width="357.12" height="266.112"/>
  </clipPath>
 </defs>
</svg>
